# MagicaVoxel @ Ephtracy

# group
g YAVD_Tiles-73

# material
mtllib YAVD_Tiles-73.mtl
usemtl palette

# normals
vn -1 0 0
vn 1 0 0
vn 0 0 1
vn 0 0 -1
vn 0 -1 0
vn 0 1 0

# texcoords
vt 0.310547 0.5
vt 0.341797 0.5
vt 0.986328 0.5

# verts
v -3 1 1
v -3 1 -1
v -3 2 1
v -3 2 -0
v -3 2 -1
v -3 4 1
v -3 4 -0
v -3 5 2
v -3 5 1
v -3 5 -0
v -3 5 -1
v -3 5 -2
v -3 5 -3
v -3 6 2
v -3 6 1
v -3 6 -2
v -3 6 -3
v -2 0 2
v -2 0 -1
v -2 0 -2
v -2 1 2
v -2 1 1
v -2 1 -1
v -2 1 -2
v -2 2 2
v -2 2 1
v -2 2 -1
v -2 2 -2
v -2 4 1
v -2 5 2
v -2 5 1
v -2 5 -1
v -2 5 -2
v -1 1 3
v -1 1 2
v -1 1 -2
v -1 1 -3
v -1 2 3
v -1 2 2
v -1 2 -2
v -1 2 -3
v -1 3 -2
v -1 3 -3
v -1 5 3
v -1 5 2
v -1 6 3
v -1 6 2
v 0 3 -2
v 0 3 -3
v 0 4 -2
v 0 4 -3
v 1 1 2
v 1 1 1
v 1 1 -1
v 1 1 -2
v 1 2 2
v 1 2 1
v 1 2 -1
v 1 2 -2
v 1 4 -1
v 1 4 -2
v 1 5 2
v 1 5 1
v 1 6 2
v 1 6 1
v 2 1 1
v 2 1 -1
v 2 2 1
v 2 2 -0
v 2 2 -1
v 2 4 -0
v 2 4 -1
v 2 4 -2
v 2 4 -3
v 2 5 1
v 2 5 -0
v 2 5 -1
v 2 5 -2
v 2 5 -3
v 2 6 1
v 2 6 -0
v -2 1 1
v -2 1 -1
v -2 2 1
v -2 2 -0
v -2 2 -1
v -2 4 1
v -2 4 -0
v -2 5 2
v -2 5 1
v -2 5 -0
v -2 5 -1
v -2 5 -2
v -2 5 -3
v -2 6 2
v -2 6 1
v -2 6 -2
v -2 6 -3
v -1 1 2
v -1 1 1
v -1 1 -1
v -1 1 -2
v -1 2 2
v -1 2 1
v -1 2 -1
v -1 2 -2
v -1 3 -2
v -1 5 2
v -1 5 1
v -1 5 -1
v -1 5 -2
v 1 1 3
v 1 1 2
v 1 1 -2
v 1 1 -3
v 1 2 3
v 1 2 2
v 1 2 -2
v 1 2 -3
v 1 4 -2
v 1 4 -3
v 1 5 3
v 1 5 2
v 1 6 3
v 1 6 2
v 2 0 2
v 2 0 1
v 2 0 -2
v 2 1 2
v 2 1 1
v 2 1 -1
v 2 1 -2
v 2 2 2
v 2 2 1
v 2 2 -1
v 2 2 -2
v 2 4 -1
v 2 4 -2
v 2 5 2
v 2 5 1
v 2 6 2
v 2 6 1
v 3 1 1
v 3 1 -1
v 3 2 1
v 3 2 -0
v 3 2 -1
v 3 4 -0
v 3 4 -1
v 3 4 -2
v 3 4 -3
v 3 5 1
v 3 5 -0
v 3 5 -1
v 3 5 -2
v 3 5 -3
v 3 6 1
v 3 6 -0
v -1 1 3
v -1 2 3
v -1 5 3
v -1 6 3
v 0 2 3
v 0 5 3
v 1 1 3
v 1 2 3
v 1 5 3
v 1 6 3
v -3 5 2
v -3 6 2
v -2 0 2
v -2 1 2
v -2 2 2
v -2 5 2
v -2 6 2
v -1 1 2
v -1 2 2
v -1 5 2
v 1 0 2
v 1 1 2
v 1 2 2
v 1 5 2
v 1 6 2
v 2 0 2
v 2 1 2
v 2 2 2
v 2 5 2
v 2 6 2
v -3 1 1
v -3 2 1
v -3 4 1
v -2 1 1
v -2 2 1
v -2 4 1
v 2 1 1
v 2 2 1
v 2 5 1
v 2 6 1
v 3 1 1
v 3 2 1
v 3 5 1
v 3 6 1
v -3 4 -0
v -3 5 -0
v -2 4 -0
v -2 5 -0
v -2 1 -1
v -2 2 -1
v -2 5 -1
v -1 1 -1
v -1 2 -1
v -1 5 -1
v 1 1 -1
v 1 2 -1
v 1 4 -1
v 2 1 -1
v 2 2 -1
v 2 4 -1
v -3 5 -2
v -3 6 -2
v -2 5 -2
v -2 6 -2
v -1 1 -2
v -1 2 -2
v -1 3 -2
v 0 2 -2
v 0 3 -2
v 0 4 -2
v 1 1 -2
v 1 2 -2
v 1 4 -2
v 2 4 -2
v 2 5 -2
v 3 4 -2
v 3 5 -2
v -1 1 2
v -1 2 2
v -1 5 2
v -1 6 2
v 0 2 2
v 0 5 2
v 1 1 2
v 1 2 2
v 1 5 2
v 1 6 2
v -3 5 1
v -3 6 1
v -2 1 1
v -2 2 1
v -2 4 1
v -2 5 1
v -2 6 1
v -1 1 1
v -1 2 1
v -1 5 1
v 1 1 1
v 1 2 1
v 1 5 1
v 1 6 1
v 2 1 1
v 2 2 1
v 2 5 1
v 2 6 1
v 2 5 -0
v 2 6 -0
v 3 5 -0
v 3 6 -0
v -3 1 -1
v -3 2 -1
v -3 5 -1
v -2 1 -1
v -2 2 -1
v -2 5 -1
v 2 1 -1
v 2 2 -1
v 2 4 -1
v 2 5 -1
v 3 1 -1
v 3 2 -1
v 3 4 -1
v 3 5 -1
v -2 0 -2
v -2 1 -2
v -2 2 -2
v -2 5 -2
v -1 0 -2
v -1 1 -2
v -1 2 -2
v -1 3 -2
v -1 5 -2
v 1 1 -2
v 1 2 -2
v 1 4 -2
v 2 0 -2
v 2 1 -2
v 2 2 -2
v 2 4 -2
v -3 5 -3
v -3 6 -3
v -2 5 -3
v -2 6 -3
v -1 1 -3
v -1 2 -3
v -1 3 -3
v 0 2 -3
v 0 3 -3
v 0 4 -3
v 1 1 -3
v 1 2 -3
v 1 4 -3
v 2 4 -3
v 2 5 -3
v 3 4 -3
v 3 5 -3
v -2 0 2
v 1 0 2
v 2 0 2
v 1 0 1
v 2 0 1
v -2 0 -1
v -1 0 -1
v -2 0 -2
v -1 0 -2
v 2 0 -2
v -1 1 3
v 1 1 3
v -1 1 2
v 1 1 2
v -3 1 1
v -2 1 1
v 2 1 1
v 3 1 1
v -3 1 -1
v -2 1 -1
v 2 1 -1
v 3 1 -1
v -1 1 -2
v 1 1 -2
v -1 1 -3
v 1 1 -3
v 2 4 -2
v 3 4 -2
v 2 4 -3
v 3 4 -3
v -3 5 2
v -2 5 2
v -3 5 1
v -2 5 1
v -3 5 -2
v -2 5 -2
v -3 5 -3
v -2 5 -3
v -1 1 2
v 1 1 2
v -2 1 1
v -1 1 1
v 1 1 1
v 2 1 1
v -2 1 -1
v -1 1 -1
v 1 1 -1
v 2 1 -1
v -1 1 -2
v 1 1 -2
v -1 3 -2
v 0 3 -2
v -1 3 -3
v 0 3 -3
v -3 4 1
v -2 4 1
v -3 4 -0
v -2 4 -0
v 1 4 -1
v 2 4 -1
v 0 4 -2
v 1 4 -2
v 2 4 -2
v 0 4 -3
v 1 4 -3
v -2 5 2
v -1 5 2
v -2 5 1
v -1 5 1
v -3 5 -0
v -2 5 -0
v 2 5 -0
v 3 5 -0
v -3 5 -1
v -2 5 -1
v -1 5 -1
v 2 5 -1
v 3 5 -1
v -2 5 -2
v -1 5 -2
v 2 5 -2
v 3 5 -2
v 2 5 -3
v 3 5 -3
v -1 6 3
v 1 6 3
v -3 6 2
v -2 6 2
v -1 6 2
v 1 6 2
v 2 6 2
v -3 6 1
v -2 6 1
v 1 6 1
v 2 6 1
v 3 6 1
v 2 6 -0
v 3 6 -0
v -3 6 -2
v -2 6 -2
v -3 6 -3
v -2 6 -3

# faces
f 3/3/1 2/3/1 1/3/1
f 4/3/1 2/3/1 3/3/1
f 5/3/1 2/3/1 4/3/1
f 6/2/1 4/2/1 3/2/1
f 7/1/1 5/1/1 4/1/1
f 7/2/1 4/2/1 6/2/1
f 10/1/1 5/1/1 7/1/1
f 11/1/1 5/1/1 10/1/1
f 14/1/1 9/1/1 8/1/1
f 15/1/1 9/1/1 14/1/1
f 16/2/1 13/2/1 12/2/1
f 17/2/1 13/2/1 16/2/1
f 21/1/1 19/1/1 18/1/1
f 22/1/1 19/1/1 21/1/1
f 23/2/1 20/2/1 19/2/1
f 23/1/1 19/1/1 22/1/1
f 24/2/1 20/2/1 23/2/1
f 25/3/1 22/3/1 21/3/1
f 26/3/1 22/3/1 25/3/1
f 27/3/1 24/3/1 23/3/1
f 28/3/1 24/3/1 27/3/1
f 29/1/1 26/1/1 25/1/1
f 30/1/1 29/1/1 25/1/1
f 31/1/1 29/1/1 30/1/1
f 32/2/1 28/2/1 27/2/1
f 33/2/1 28/2/1 32/2/1
f 38/3/1 35/3/1 34/3/1
f 39/3/1 35/3/1 38/3/1
f 40/3/1 37/3/1 36/3/1
f 41/3/1 37/3/1 40/3/1
f 42/1/1 41/1/1 40/1/1
f 43/1/1 41/1/1 42/1/1
f 44/2/1 39/2/1 38/2/1
f 45/2/1 39/2/1 44/2/1
f 46/3/1 45/3/1 44/3/1
f 47/3/1 45/3/1 46/3/1
f 50/2/1 49/2/1 48/2/1
f 51/2/1 49/2/1 50/2/1
f 56/3/1 53/3/1 52/3/1
f 57/3/1 53/3/1 56/3/1
f 58/3/1 55/3/1 54/3/1
f 59/3/1 55/3/1 58/3/1
f 60/1/1 59/1/1 58/1/1
f 61/1/1 59/1/1 60/1/1
f 62/2/1 57/2/1 56/2/1
f 63/2/1 57/2/1 62/2/1
f 64/3/1 63/3/1 62/3/1
f 65/3/1 63/3/1 64/3/1
f 68/3/1 67/3/1 66/3/1
f 69/3/1 67/3/1 68/3/1
f 70/3/1 67/3/1 69/3/1
f 71/1/1 69/1/1 68/1/1
f 71/2/1 70/2/1 69/2/1
f 72/2/1 70/2/1 71/2/1
f 75/1/1 71/1/1 68/1/1
f 76/3/1 72/3/1 71/3/1
f 76/1/1 71/1/1 75/1/1
f 77/3/1 72/3/1 76/3/1
f 78/1/1 74/1/1 73/1/1
f 79/1/1 74/1/1 78/1/1
f 80/3/1 76/3/1 75/3/1
f 81/3/1 76/3/1 80/3/1
f 82/3/2 83/3/2 84/3/2
f 84/3/2 83/3/2 85/3/2
f 85/3/2 83/3/2 86/3/2
f 84/2/2 85/2/2 87/2/2
f 85/1/2 86/1/2 88/1/2
f 87/2/2 85/2/2 88/2/2
f 88/1/2 86/1/2 91/1/2
f 91/1/2 86/1/2 92/1/2
f 89/1/2 90/1/2 95/1/2
f 95/1/2 90/1/2 96/1/2
f 93/2/2 94/2/2 97/2/2
f 97/2/2 94/2/2 98/2/2
f 99/3/2 100/3/2 103/3/2
f 103/3/2 100/3/2 104/3/2
f 101/3/2 102/3/2 105/3/2
f 105/3/2 102/3/2 106/3/2
f 105/2/2 106/2/2 107/2/2
f 103/1/2 104/1/2 108/1/2
f 108/1/2 104/1/2 109/1/2
f 105/2/2 107/2/2 110/2/2
f 110/2/2 107/2/2 111/2/2
f 112/3/2 113/3/2 116/3/2
f 116/3/2 113/3/2 117/3/2
f 114/3/2 115/3/2 118/3/2
f 118/3/2 115/3/2 119/3/2
f 118/2/2 119/2/2 120/2/2
f 120/2/2 119/2/2 121/2/2
f 116/1/2 117/1/2 122/1/2
f 122/1/2 117/1/2 123/1/2
f 122/3/2 123/3/2 124/3/2
f 124/3/2 123/3/2 125/3/2
f 126/2/2 127/2/2 129/2/2
f 127/1/2 128/1/2 130/1/2
f 129/2/2 127/2/2 130/2/2
f 130/1/2 128/1/2 131/1/2
f 131/1/2 128/1/2 132/1/2
f 129/3/2 130/3/2 133/3/2
f 133/3/2 130/3/2 134/3/2
f 131/3/2 132/3/2 135/3/2
f 135/3/2 132/3/2 136/3/2
f 135/1/2 136/1/2 137/1/2
f 137/1/2 136/1/2 138/1/2
f 133/2/2 134/2/2 139/2/2
f 139/2/2 134/2/2 140/2/2
f 139/3/2 140/3/2 141/3/2
f 141/3/2 140/3/2 142/3/2
f 143/3/2 144/3/2 145/3/2
f 145/3/2 144/3/2 146/3/2
f 146/3/2 144/3/2 147/3/2
f 145/1/2 146/1/2 148/1/2
f 146/2/2 147/2/2 148/2/2
f 148/2/2 147/2/2 149/2/2
f 145/1/2 148/1/2 152/1/2
f 148/3/2 149/3/2 153/3/2
f 152/1/2 148/1/2 153/1/2
f 153/3/2 149/3/2 154/3/2
f 150/1/2 151/1/2 155/1/2
f 155/1/2 151/1/2 156/1/2
f 152/3/2 153/3/2 157/3/2
f 157/3/2 153/3/2 158/3/2
f 163/3/3 160/3/3 159/3/3
f 163/2/3 161/2/3 160/2/3
f 164/3/3 162/3/3 161/3/3
f 164/2/3 161/2/3 163/2/3
f 165/3/3 163/3/3 159/3/3
f 166/1/3 164/1/3 163/1/3
f 166/3/3 163/3/3 165/3/3
f 167/3/3 162/3/3 164/3/3
f 167/1/3 164/1/3 166/1/3
f 168/3/3 162/3/3 167/3/3
f 174/1/3 170/1/3 169/1/3
f 175/1/3 170/1/3 174/1/3
f 176/3/3 173/3/3 172/3/3
f 176/1/3 172/1/3 171/1/3
f 177/1/3 174/1/3 173/1/3
f 177/3/3 173/3/3 176/3/3
f 178/1/3 174/1/3 177/1/3
f 179/1/3 176/1/3 171/1/3
f 180/1/3 176/1/3 179/1/3
f 184/2/3 180/2/3 179/2/3
f 185/3/3 181/3/3 180/3/3
f 185/2/3 180/2/3 184/2/3
f 186/2/3 182/2/3 181/2/3
f 186/3/3 181/3/3 185/3/3
f 187/3/3 183/3/3 182/3/3
f 187/2/3 182/2/3 186/2/3
f 188/3/3 183/3/3 187/3/3
f 192/3/3 190/3/3 189/3/3
f 193/2/3 191/2/3 190/2/3
f 193/3/3 190/3/3 192/3/3
f 194/2/3 191/2/3 193/2/3
f 199/3/3 196/3/3 195/3/3
f 200/1/3 197/1/3 196/1/3
f 200/3/3 196/3/3 199/3/3
f 201/3/3 198/3/3 197/3/3
f 201/1/3 197/1/3 200/1/3
f 202/3/3 198/3/3 201/3/3
f 205/1/3 204/1/3 203/1/3
f 206/1/3 204/1/3 205/1/3
f 210/3/3 208/3/3 207/3/3
f 211/2/3 209/2/3 208/2/3
f 211/3/3 208/3/3 210/3/3
f 212/2/3 209/2/3 211/2/3
f 216/3/3 214/3/3 213/3/3
f 217/1/3 215/1/3 214/1/3
f 217/3/3 214/3/3 216/3/3
f 218/1/3 215/1/3 217/1/3
f 221/2/3 220/2/3 219/2/3
f 222/2/3 220/2/3 221/2/3
f 226/3/3 224/3/3 223/3/3
f 226/1/3 225/1/3 224/1/3
f 227/1/3 225/1/3 226/1/3
f 229/3/3 226/3/3 223/3/3
f 230/2/3 228/2/3 227/2/3
f 230/3/3 226/3/3 229/3/3
f 230/2/3 227/2/3 226/2/3
f 231/2/3 228/2/3 230/2/3
f 234/1/3 233/1/3 232/1/3
f 235/1/3 233/1/3 234/1/3
f 236/3/4 237/3/4 240/3/4
f 237/2/4 238/2/4 240/2/4
f 238/3/4 239/3/4 241/3/4
f 240/2/4 238/2/4 241/2/4
f 236/3/4 240/3/4 242/3/4
f 240/1/4 241/1/4 243/1/4
f 242/3/4 240/3/4 243/3/4
f 241/3/4 239/3/4 244/3/4
f 243/1/4 241/1/4 244/1/4
f 244/3/4 239/3/4 245/3/4
f 246/1/4 247/1/4 251/1/4
f 251/1/4 247/1/4 252/1/4
f 248/3/4 249/3/4 253/3/4
f 249/1/4 250/1/4 254/1/4
f 253/3/4 249/3/4 254/3/4
f 250/1/4 251/1/4 254/1/4
f 254/1/4 251/1/4 255/1/4
f 256/3/4 257/3/4 260/3/4
f 257/2/4 258/2/4 261/2/4
f 260/3/4 257/3/4 261/3/4
f 258/3/4 259/3/4 262/3/4
f 261/2/4 258/2/4 262/2/4
f 262/3/4 259/3/4 263/3/4
f 264/3/4 265/3/4 266/3/4
f 266/3/4 265/3/4 267/3/4
f 268/3/4 269/3/4 271/3/4
f 269/1/4 270/1/4 272/1/4
f 271/3/4 269/3/4 272/3/4
f 272/1/4 270/1/4 273/1/4
f 274/3/4 275/3/4 278/3/4
f 275/2/4 276/2/4 279/2/4
f 278/3/4 275/3/4 279/3/4
f 276/3/4 277/3/4 280/3/4
f 279/2/4 276/2/4 280/2/4
f 280/3/4 277/3/4 281/3/4
f 282/2/4 283/2/4 286/2/4
f 283/3/4 284/3/4 287/3/4
f 286/2/4 283/2/4 287/2/4
f 284/2/4 285/2/4 288/2/4
f 287/3/4 284/3/4 288/3/4
f 288/2/4 285/2/4 289/2/4
f 289/2/4 285/2/4 290/2/4
f 286/1/4 287/1/4 291/1/4
f 286/1/4 291/1/4 294/1/4
f 291/3/4 292/3/4 295/3/4
f 294/1/4 291/1/4 295/1/4
f 292/1/4 293/1/4 296/1/4
f 295/3/4 292/3/4 296/3/4
f 296/1/4 293/1/4 297/1/4
f 298/2/4 299/2/4 300/2/4
f 300/2/4 299/2/4 301/2/4
f 302/3/4 303/3/4 305/3/4
f 303/1/4 304/1/4 305/1/4
f 305/1/4 304/1/4 306/1/4
f 302/3/4 305/3/4 308/3/4
f 306/2/4 307/2/4 309/2/4
f 308/3/4 305/3/4 309/3/4
f 305/2/4 306/2/4 309/2/4
f 309/2/4 307/2/4 310/2/4
f 311/1/4 312/1/4 313/1/4
f 313/1/4 312/1/4 314/1/4
f 318/1/5 316/1/5 315/1/5
f 318/2/5 317/2/5 316/2/5
f 319/2/5 317/2/5 318/2/5
f 320/1/5 318/1/5 315/1/5
f 320/1/5 319/1/5 318/1/5
f 321/1/5 319/1/5 320/1/5
f 322/2/5 321/2/5 320/2/5
f 323/1/5 319/1/5 321/1/5
f 323/2/5 321/2/5 322/2/5
f 324/1/5 319/1/5 323/1/5
f 327/3/5 326/3/5 325/3/5
f 328/3/5 326/3/5 327/3/5
f 333/3/5 330/3/5 329/3/5
f 334/3/5 330/3/5 333/3/5
f 335/3/5 332/3/5 331/3/5
f 336/3/5 332/3/5 335/3/5
f 339/3/5 338/3/5 337/3/5
f 340/3/5 338/3/5 339/3/5
f 343/1/5 342/1/5 341/1/5
f 344/1/5 342/1/5 343/1/5
f 347/1/5 346/1/5 345/1/5
f 348/1/5 346/1/5 347/1/5
f 351/2/5 350/2/5 349/2/5
f 352/2/5 350/2/5 351/2/5
f 353/1/6 354/1/6 356/1/6
f 356/1/6 354/1/6 357/1/6
f 355/1/6 356/1/6 359/1/6
f 357/1/6 358/1/6 359/1/6
f 356/1/6 357/1/6 359/1/6
f 359/1/6 358/1/6 360/1/6
f 360/1/6 358/1/6 361/1/6
f 361/1/6 358/1/6 362/1/6
f 360/1/6 361/1/6 363/1/6
f 363/1/6 361/1/6 364/1/6
f 365/1/6 366/1/6 367/1/6
f 367/1/6 366/1/6 368/1/6
f 369/2/6 370/2/6 371/2/6
f 371/2/6 370/2/6 372/2/6
f 373/1/6 374/1/6 376/1/6
f 376/1/6 374/1/6 377/1/6
f 375/2/6 376/2/6 378/2/6
f 378/2/6 376/2/6 379/2/6
f 380/1/6 381/1/6 382/1/6
f 382/1/6 381/1/6 383/1/6
f 384/1/6 385/1/6 388/1/6
f 388/1/6 385/1/6 389/1/6
f 386/3/6 387/3/6 391/3/6
f 391/3/6 387/3/6 392/3/6
f 389/2/6 390/2/6 393/2/6
f 393/2/6 390/2/6 394/2/6
f 395/1/6 396/1/6 397/1/6
f 397/1/6 396/1/6 398/1/6
f 399/3/6 400/3/6 403/3/6
f 403/3/6 400/3/6 404/3/6
f 401/1/6 402/1/6 406/1/6
f 406/1/6 402/1/6 407/1/6
f 404/3/6 405/3/6 408/3/6
f 408/3/6 405/3/6 409/3/6
f 409/3/6 410/3/6 411/3/6
f 411/3/6 410/3/6 412/3/6
f 413/2/6 414/2/6 415/2/6
f 415/2/6 414/2/6 416/2/6
