# MagicaVoxel @ Ephtracy

# group
g YAVD_Tiles-43

# material
mtllib YAVD_Tiles-43.mtl
usemtl palette

# normals
vn -1 0 0
vn 1 0 0
vn 0 0 1
vn 0 0 -1
vn 0 -1 0
vn 0 1 0

# texcoords
vt 0.115234 0.5
vt 0.310547 0.5
vt 0.974609 0.5

# verts
v -3.5 0 1.5
v -3.5 0 0.5
v -3.5 0 -0.5
v -3.5 0 -1.5
v -3.5 1 1.5
v -3.5 1 0.5
v -3.5 1 -0.5
v -3.5 1 -1.5
v -2.5 0 0.5
v -2.5 0 -0.5
v -2.5 1 0.5
v -2.5 1 -0.5
v 1.5 0 1.5
v 1.5 0 0.5
v 1.5 0 -0.5
v 1.5 0 -1.5
v 1.5 1 1.5
v 1.5 1 0.5
v 1.5 1 -0.5
v 1.5 1 -1.5
v -1.5 0 1.5
v -1.5 0 0.5
v -1.5 0 -0.5
v -1.5 0 -1.5
v -1.5 1 1.5
v -1.5 1 0.5
v -1.5 1 -0.5
v -1.5 1 -1.5
v 2.5 0 1.5
v 2.5 0 0.5
v 2.5 0 -0.5
v 2.5 0 -1.5
v 2.5 1 1.5
v 2.5 1 0.5
v 2.5 1 -0.5
v 2.5 1 -1.5
v 3.5 0 0.5
v 3.5 0 -0.5
v 3.5 1 0.5
v 3.5 1 -0.5
v -3.5 0 1.5
v -3.5 1 1.5
v -1.5 0 1.5
v -1.5 1 1.5
v 1.5 0 1.5
v 1.5 1 1.5
v 2.5 0 1.5
v 2.5 1 1.5
v -1.5 0 0.5
v -1.5 1 0.5
v 1.5 0 0.5
v 1.5 1 0.5
v 2.5 0 0.5
v 2.5 1 0.5
v 3.5 0 0.5
v 3.5 1 0.5
v -3.5 0 -0.5
v -3.5 1 -0.5
v -2.5 0 -0.5
v -2.5 1 -0.5
v -3.5 0 0.5
v -3.5 1 0.5
v -2.5 0 0.5
v -2.5 1 0.5
v -1.5 0 -0.5
v -1.5 1 -0.5
v 1.5 0 -0.5
v 1.5 1 -0.5
v 2.5 0 -0.5
v 2.5 1 -0.5
v 3.5 0 -0.5
v 3.5 1 -0.5
v -3.5 0 -1.5
v -3.5 1 -1.5
v -1.5 0 -1.5
v -1.5 1 -1.5
v 1.5 0 -1.5
v 1.5 1 -1.5
v 2.5 0 -1.5
v 2.5 1 -1.5
v -3.5 0 1.5
v -1.5 0 1.5
v 1.5 0 1.5
v 2.5 0 1.5
v -3.5 0 0.5
v -2.5 0 0.5
v -1.5 0 0.5
v 1.5 0 0.5
v 2.5 0 0.5
v 3.5 0 0.5
v -3.5 0 -0.5
v -2.5 0 -0.5
v -1.5 0 -0.5
v 1.5 0 -0.5
v 2.5 0 -0.5
v 3.5 0 -0.5
v -3.5 0 -1.5
v -1.5 0 -1.5
v 1.5 0 -1.5
v 2.5 0 -1.5
v -3.5 1 1.5
v -1.5 1 1.5
v 1.5 1 1.5
v 2.5 1 1.5
v -3.5 1 0.5
v -2.5 1 0.5
v -1.5 1 0.5
v 1.5 1 0.5
v 2.5 1 0.5
v 3.5 1 0.5
v -3.5 1 -0.5
v -2.5 1 -0.5
v -1.5 1 -0.5
v 1.5 1 -0.5
v 2.5 1 -0.5
v 3.5 1 -0.5
v -3.5 1 -1.5
v -1.5 1 -1.5
v 1.5 1 -1.5
v 2.5 1 -1.5

# faces
f 5/1/1 2/1/1 1/1/1
f 6/1/1 2/1/1 5/1/1
f 7/1/1 4/1/1 3/1/1
f 8/1/1 4/1/1 7/1/1
f 11/2/1 10/2/1 9/2/1
f 12/2/1 10/2/1 11/2/1
f 17/3/1 14/3/1 13/3/1
f 18/3/1 14/3/1 17/3/1
f 19/3/1 16/3/1 15/3/1
f 20/3/1 16/3/1 19/3/1
f 21/1/2 22/1/2 25/1/2
f 25/1/2 22/1/2 26/1/2
f 23/1/2 24/1/2 27/1/2
f 27/1/2 24/1/2 28/1/2
f 29/3/2 30/3/2 33/3/2
f 33/3/2 30/3/2 34/3/2
f 31/3/2 32/3/2 35/3/2
f 35/3/2 32/3/2 36/3/2
f 37/3/2 38/3/2 39/3/2
f 39/3/2 38/3/2 40/3/2
f 43/1/3 42/1/3 41/1/3
f 44/1/3 42/1/3 43/1/3
f 47/3/3 46/3/3 45/3/3
f 48/3/3 46/3/3 47/3/3
f 51/2/3 50/2/3 49/2/3
f 52/2/3 50/2/3 51/2/3
f 55/3/3 54/3/3 53/3/3
f 56/3/3 54/3/3 55/3/3
f 59/1/3 58/1/3 57/1/3
f 60/1/3 58/1/3 59/1/3
f 61/1/4 62/1/4 63/1/4
f 63/1/4 62/1/4 64/1/4
f 65/2/4 66/2/4 67/2/4
f 67/2/4 66/2/4 68/2/4
f 69/3/4 70/3/4 71/3/4
f 71/3/4 70/3/4 72/3/4
f 73/1/4 74/1/4 75/1/4
f 75/1/4 74/1/4 76/1/4
f 77/3/4 78/3/4 79/3/4
f 79/3/4 78/3/4 80/3/4
f 85/1/5 82/1/5 81/1/5
f 86/1/5 82/1/5 85/1/5
f 87/1/5 82/1/5 86/1/5
f 88/3/5 84/3/5 83/3/5
f 89/3/5 84/3/5 88/3/5
f 92/2/5 87/2/5 86/2/5
f 92/2/5 89/2/5 88/2/5
f 92/2/5 88/2/5 87/2/5
f 93/2/5 89/2/5 92/2/5
f 94/2/5 89/2/5 93/2/5
f 95/3/5 90/3/5 89/3/5
f 95/2/5 89/2/5 94/2/5
f 96/3/5 90/3/5 95/3/5
f 97/1/5 92/1/5 91/1/5
f 97/1/5 93/1/5 92/1/5
f 98/1/5 93/1/5 97/1/5
f 99/3/5 95/3/5 94/3/5
f 100/3/5 95/3/5 99/3/5
f 101/1/6 102/1/6 105/1/6
f 105/1/6 102/1/6 106/1/6
f 106/1/6 102/1/6 107/1/6
f 103/3/6 104/3/6 108/3/6
f 108/3/6 104/3/6 109/3/6
f 106/2/6 107/2/6 112/2/6
f 108/2/6 109/2/6 112/2/6
f 107/2/6 108/2/6 112/2/6
f 112/2/6 109/2/6 113/2/6
f 113/2/6 109/2/6 114/2/6
f 109/3/6 110/3/6 115/3/6
f 114/2/6 109/2/6 115/2/6
f 115/3/6 110/3/6 116/3/6
f 111/1/6 112/1/6 117/1/6
f 112/1/6 113/1/6 117/1/6
f 117/1/6 113/1/6 118/1/6
f 114/3/6 115/3/6 119/3/6
f 119/3/6 115/3/6 120/3/6
