# MagicaVoxel @ Ephtracy

# group
g YAVD_Tiles-25

# material
mtllib YAVD_Tiles-25.mtl
usemtl palette

# normals
vn -1 0 0
vn 1 0 0
vn 0 0 1
vn 0 0 -1
vn 0 -1 0
vn 0 1 0

# texcoords
vt 0.248047 0.5
vt 0.958984 0.5
vt 0.966797 0.5
vt 0.994141 0.5

# verts
v -3 2 1.5
v -3 2 -0.5
v -3 3 1.5
v -3 3 -0.5
v -3 4 2.5
v -3 4 -1.5
v -3 5 2.5
v -3 5 1.5
v -3 5 -0.5
v -3 5 -1.5
v -3 6 1.5
v -3 6 -0.5
v -3 7 1.5
v -3 7 -0.5
v -3 8 2.5
v -3 8 1.5
v -3 8 -0.5
v -3 8 -1.5
v -3 9 2.5
v -3 9 1.5
v -3 9 -0.5
v -3 9 -1.5
v -3 10 2.5
v -3 10 1.5
v -3 10 -0.5
v -3 10 -1.5
v -3 11 1.5
v -3 11 -0.5
v -2 0 2.5
v -2 0 1.5
v -2 0 -0.5
v -2 0 -1.5
v -2 1 2.5
v -2 1 1.5
v -2 1 -0.5
v -2 1 -1.5
v -2 2 1.5
v -2 2 -0.5
v -2 3 2.5
v -2 3 1.5
v -2 3 -0.5
v -2 3 -1.5
v -2 4 1.5
v -2 4 -0.5
v -2 5 2.5
v -2 5 1.5
v -2 5 -0.5
v -2 5 -1.5
v -2 6 2.5
v -2 6 1.5
v -2 6 -0.5
v -2 6 -1.5
v -2 7 2.5
v -2 7 1.5
v -2 7 -0.5
v -2 7 -1.5
v -2 8 2.5
v -2 8 1.5
v -2 8 -0.5
v -2 8 -1.5
v -2 10 2.5
v -2 10 1.5
v -2 10 -0.5
v -2 10 -1.5
v -2 11 2.5
v -2 11 1.5
v -2 11 -0.5
v -2 11 -1.5
v -1 4 3.5
v -1 4 2.5
v -1 4 1.5
v -1 4 -0.5
v -1 4 -1.5
v -1 4 -2.5
v -1 5 3.5
v -1 5 2.5
v -1 5 1.5
v -1 5 -0.5
v -1 5 -1.5
v -1 5 -2.5
v 0 3 -2.5
v 0 3 -3.5
v 0 4 -2.5
v 0 4 -3.5
v 1 5 3.5
v 1 5 2.5
v 1 6 3.5
v 1 6 2.5
v 2 4 -1.5
v 2 4 -2.5
v 2 5 -1.5
v 2 5 -2.5
v 2 6 3.5
v 2 6 2.5
v 2 7 3.5
v 2 7 2.5
v -2 4 1.5
v -2 4 -0.5
v -2 5 1.5
v -2 5 -0.5
v -1 1 2.5
v -1 1 1.5
v -1 1 -0.5
v -1 1 -1.5
v -1 2 1.5
v -1 2 -0.5
v -1 3 2.5
v -1 3 1.5
v -1 3 -0.5
v -1 3 -1.5
v -1 4 1.5
v -1 4 -0.5
v -1 5 2.5
v -1 5 1.5
v -1 5 -0.5
v -1 5 -1.5
v -1 6 2.5
v -1 6 1.5
v -1 6 -0.5
v -1 6 -1.5
v -1 7 1.5
v -1 7 -0.5
v 0 0 2.5
v 0 0 1.5
v 0 0 -0.5
v 0 0 -1.5
v 0 1 2.5
v 0 1 1.5
v 0 1 -0.5
v 0 1 -1.5
v 0 2 1.5
v 0 2 -0.5
v 0 3 1.5
v 0 3 -0.5
v 0 4 2.5
v 0 4 1.5
v 0 4 -0.5
v 0 4 -1.5
v 0 4 -2.5
v 0 5 2.5
v 0 5 1.5
v 0 5 -0.5
v 0 5 -1.5
v 0 5 -2.5
v 0 6 1.5
v 0 6 -0.5
v 1 4 3.5
v 1 4 2.5
v 1 5 3.5
v 1 5 2.5
v 1 7 2.5
v 1 7 1.5
v 1 7 -0.5
v 1 7 -1.5
v 1 8 2.5
v 1 8 1.5
v 1 8 -0.5
v 1 8 -1.5
v 1 9 1.5
v 1 9 -0.5
v 1 10 2.5
v 1 10 1.5
v 1 10 -0.5
v 1 10 -1.5
v 1 11 2.5
v 1 11 -1.5
v 2 3 -2.5
v 2 3 -3.5
v 2 4 -2.5
v 2 4 -3.5
v 2 5 3.5
v 2 5 2.5
v 2 6 3.5
v 2 6 2.5
v 3 4 -1.5
v 3 4 -2.5
v 3 5 -1.5
v 3 5 -2.5
v 3 6 3.5
v 3 6 2.5
v 3 7 3.5
v 3 7 2.5
v -1 4 3.5
v -1 5 3.5
v 1 4 3.5
v 1 5 3.5
v 1 6 3.5
v 2 5 3.5
v 2 6 3.5
v 2 7 3.5
v 3 6 3.5
v 3 7 3.5
v -3 4 2.5
v -3 5 2.5
v -3 8 2.5
v -3 9 2.5
v -3 10 2.5
v -2 0 2.5
v -2 1 2.5
v -2 3 2.5
v -2 5 2.5
v -2 6 2.5
v -2 7 2.5
v -2 8 2.5
v -2 9 2.5
v -2 10 2.5
v -2 11 2.5
v -1 0 2.5
v -1 1 2.5
v -1 3 2.5
v -1 4 2.5
v -1 5 2.5
v -1 6 2.5
v 0 0 2.5
v 0 1 2.5
v 0 7 2.5
v 0 8 2.5
v 0 10 2.5
v 1 7 2.5
v 1 8 2.5
v 1 10 2.5
v 1 11 2.5
v -3 2 1.5
v -3 3 1.5
v -3 5 1.5
v -3 6 1.5
v -3 7 1.5
v -3 8 1.5
v -3 10 1.5
v -3 11 1.5
v -2 2 1.5
v -2 3 1.5
v -2 4 1.5
v -2 5 1.5
v -2 6 1.5
v -2 7 1.5
v -2 8 1.5
v -2 10 1.5
v -2 11 1.5
v -1 2 1.5
v -1 3 1.5
v -1 4 1.5
v -1 5 1.5
v -1 6 1.5
v -1 7 1.5
v 0 2 1.5
v 0 3 1.5
v 0 5 1.5
v 0 6 1.5
v -2 0 -0.5
v -2 1 -0.5
v -2 2 -0.5
v -2 4 -0.5
v -2 5 -0.5
v -1 0 -0.5
v -1 1 -0.5
v -1 2 -0.5
v -1 4 -0.5
v -1 5 -0.5
v 0 0 -0.5
v 0 1 -0.5
v 2 4 -1.5
v 2 5 -1.5
v 3 4 -1.5
v 3 5 -1.5
v 0 3 -2.5
v 0 4 -2.5
v 2 3 -2.5
v 2 4 -2.5
v 0 4 2.5
v 0 5 2.5
v 1 4 2.5
v 1 5 2.5
v 1 6 2.5
v 2 5 2.5
v 2 6 2.5
v 2 7 2.5
v 3 6 2.5
v 3 7 2.5
v -2 0 1.5
v -2 1 1.5
v -2 2 1.5
v -2 4 1.5
v -2 5 1.5
v -1 0 1.5
v -1 1 1.5
v -1 2 1.5
v -1 4 1.5
v -1 5 1.5
v 0 0 1.5
v 0 1 1.5
v -3 2 -0.5
v -3 3 -0.5
v -3 5 -0.5
v -3 6 -0.5
v -3 7 -0.5
v -3 8 -0.5
v -3 10 -0.5
v -3 11 -0.5
v -2 2 -0.5
v -2 3 -0.5
v -2 4 -0.5
v -2 5 -0.5
v -2 6 -0.5
v -2 7 -0.5
v -2 8 -0.5
v -2 10 -0.5
v -2 11 -0.5
v -1 2 -0.5
v -1 3 -0.5
v -1 4 -0.5
v -1 5 -0.5
v -1 6 -0.5
v -1 7 -0.5
v 0 2 -0.5
v 0 3 -0.5
v 0 5 -0.5
v 0 6 -0.5
v -3 4 -1.5
v -3 5 -1.5
v -3 8 -1.5
v -3 9 -1.5
v -3 10 -1.5
v -2 0 -1.5
v -2 1 -1.5
v -2 3 -1.5
v -2 5 -1.5
v -2 6 -1.5
v -2 7 -1.5
v -2 8 -1.5
v -2 9 -1.5
v -2 10 -1.5
v -2 11 -1.5
v -1 0 -1.5
v -1 1 -1.5
v -1 3 -1.5
v -1 4 -1.5
v -1 5 -1.5
v -1 6 -1.5
v 0 0 -1.5
v 0 1 -1.5
v 0 7 -1.5
v 0 8 -1.5
v 0 10 -1.5
v 1 7 -1.5
v 1 8 -1.5
v 1 10 -1.5
v 1 11 -1.5
v -1 4 -2.5
v -1 5 -2.5
v 0 4 -2.5
v 0 5 -2.5
v 2 4 -2.5
v 2 5 -2.5
v 3 4 -2.5
v 3 5 -2.5
v 0 3 -3.5
v 0 4 -3.5
v 2 3 -3.5
v 2 4 -3.5
v -2 0 2.5
v -1 0 2.5
v 0 0 2.5
v -2 0 1.5
v -1 0 1.5
v 0 0 1.5
v -2 0 -0.5
v -1 0 -0.5
v 0 0 -0.5
v -2 0 -1.5
v -1 0 -1.5
v 0 0 -1.5
v -3 2 1.5
v -2 2 1.5
v -1 2 1.5
v 0 2 1.5
v -3 2 -0.5
v -2 2 -0.5
v -1 2 -0.5
v 0 2 -0.5
v 0 3 -2.5
v 2 3 -2.5
v 0 3 -3.5
v 2 3 -3.5
v -1 4 3.5
v 1 4 3.5
v -3 4 2.5
v -1 4 2.5
v 0 4 2.5
v 1 4 2.5
v -2 4 1.5
v -1 4 1.5
v 0 4 1.5
v -2 4 -0.5
v -1 4 -0.5
v 0 4 -0.5
v -3 4 -1.5
v -1 4 -1.5
v 0 4 -1.5
v 2 4 -1.5
v 3 4 -1.5
v -1 4 -2.5
v 0 4 -2.5
v 2 4 -2.5
v 3 4 -2.5
v 1 5 3.5
v 2 5 3.5
v 1 5 2.5
v 2 5 2.5
v -2 5 1.5
v -1 5 1.5
v -2 5 -0.5
v -1 5 -0.5
v 2 6 3.5
v 3 6 3.5
v 2 6 2.5
v 3 6 2.5
v -2 7 2.5
v 0 7 2.5
v 1 7 2.5
v -3 7 1.5
v -2 7 1.5
v -1 7 1.5
v 0 7 1.5
v 1 7 1.5
v -3 7 -0.5
v -2 7 -0.5
v -1 7 -0.5
v 0 7 -0.5
v 1 7 -0.5
v -2 7 -1.5
v 0 7 -1.5
v 1 7 -1.5
v -3 8 2.5
v -2 8 2.5
v -3 8 1.5
v -2 8 1.5
v -3 8 -0.5
v -2 8 -0.5
v -3 8 -1.5
v -2 8 -1.5
v -1 1 2.5
v 0 1 2.5
v -1 1 1.5
v 0 1 1.5
v -1 1 -0.5
v 0 1 -0.5
v -1 1 -1.5
v 0 1 -1.5
v -2 3 2.5
v -1 3 2.5
v -3 3 1.5
v -2 3 1.5
v -1 3 1.5
v 0 3 1.5
v -3 3 -0.5
v -2 3 -0.5
v -1 3 -0.5
v 0 3 -0.5
v -2 3 -1.5
v -1 3 -1.5
v -2 4 1.5
v -1 4 1.5
v -2 4 -0.5
v -1 4 -0.5
v 0 4 -2.5
v 2 4 -2.5
v 0 4 -3.5
v 2 4 -3.5
v -1 5 3.5
v 1 5 3.5
v -3 5 2.5
v -2 5 2.5
v -1 5 2.5
v 0 5 2.5
v 1 5 2.5
v -3 5 1.5
v -2 5 1.5
v -1 5 1.5
v 0 5 1.5
v -3 5 -0.5
v -2 5 -0.5
v -1 5 -0.5
v 0 5 -0.5
v -3 5 -1.5
v -2 5 -1.5
v -1 5 -1.5
v 0 5 -1.5
v 2 5 -1.5
v 3 5 -1.5
v -1 5 -2.5
v 0 5 -2.5
v 2 5 -2.5
v 3 5 -2.5
v 1 6 3.5
v 2 6 3.5
v -2 6 2.5
v -1 6 2.5
v 1 6 2.5
v 2 6 2.5
v -3 6 1.5
v -2 6 1.5
v -1 6 1.5
v 0 6 1.5
v -3 6 -0.5
v -2 6 -0.5
v -1 6 -0.5
v 0 6 -0.5
v -2 6 -1.5
v -1 6 -1.5
v 2 7 3.5
v 3 7 3.5
v 2 7 2.5
v 3 7 2.5
v -3 10 2.5
v -2 10 2.5
v -3 10 1.5
v -2 10 1.5
v -3 10 -0.5
v -2 10 -0.5
v -3 10 -1.5
v -2 10 -1.5
v -2 11 2.5
v 1 11 2.5
v -3 11 1.5
v -2 11 1.5
v -3 11 -0.5
v -2 11 -0.5
v -2 11 -1.5
v 1 11 -1.5

# faces
f 3/3/1 2/3/1 1/3/1
f 4/3/1 2/3/1 3/3/1
f 7/3/1 6/3/1 5/3/1
f 8/3/1 6/3/1 7/3/1
f 9/3/1 6/3/1 8/3/1
f 10/3/1 6/3/1 9/3/1
f 11/2/1 9/2/1 8/2/1
f 12/2/1 9/2/1 11/2/1
f 16/2/1 14/2/1 13/2/1
f 17/2/1 14/2/1 16/2/1
f 19/2/1 17/2/1 16/2/1
f 19/2/1 18/2/1 17/2/1
f 19/2/1 16/2/1 15/2/1
f 20/2/1 18/2/1 19/2/1
f 21/2/1 18/2/1 20/2/1
f 22/2/1 18/2/1 21/2/1
f 23/3/1 20/3/1 19/3/1
f 24/2/1 21/2/1 20/2/1
f 24/3/1 20/3/1 23/3/1
f 25/3/1 22/3/1 21/3/1
f 25/2/1 21/2/1 24/2/1
f 26/3/1 22/3/1 25/3/1
f 27/2/1 25/2/1 24/2/1
f 28/2/1 25/2/1 27/2/1
f 33/3/1 30/3/1 29/3/1
f 34/3/1 30/3/1 33/3/1
f 35/3/1 32/3/1 31/3/1
f 36/3/1 32/3/1 35/3/1
f 37/2/1 34/2/1 33/2/1
f 38/2/1 36/2/1 35/2/1
f 39/2/1 37/2/1 33/2/1
f 40/2/1 37/2/1 39/2/1
f 41/2/1 36/2/1 38/2/1
f 42/2/1 36/2/1 41/2/1
f 43/2/1 41/2/1 40/2/1
f 44/2/1 41/2/1 43/2/1
f 49/2/1 46/2/1 45/2/1
f 50/2/1 46/2/1 49/2/1
f 51/2/1 48/2/1 47/2/1
f 52/2/1 48/2/1 51/2/1
f 54/3/1 51/3/1 50/3/1
f 55/3/1 51/3/1 54/3/1
f 57/2/1 54/2/1 53/2/1
f 58/2/1 54/2/1 57/2/1
f 59/2/1 56/2/1 55/2/1
f 60/2/1 56/2/1 59/2/1
f 65/2/1 62/2/1 61/2/1
f 66/2/1 62/2/1 65/2/1
f 67/2/1 64/2/1 63/2/1
f 68/2/1 64/2/1 67/2/1
f 75/2/1 70/2/1 69/2/1
f 76/2/1 70/2/1 75/2/1
f 77/2/1 72/2/1 71/2/1
f 78/2/1 72/2/1 77/2/1
f 79/2/1 74/2/1 73/2/1
f 80/2/1 74/2/1 79/2/1
f 83/2/1 82/2/1 81/2/1
f 84/2/1 82/2/1 83/2/1
f 87/2/1 86/2/1 85/2/1
f 88/2/1 86/2/1 87/2/1
f 91/3/1 90/3/1 89/3/1
f 92/3/1 90/3/1 91/3/1
f 95/3/1 94/3/1 93/3/1
f 96/3/1 94/3/1 95/3/1
f 97/3/2 98/3/2 99/3/2
f 99/3/2 98/3/2 100/3/2
f 101/2/2 102/2/2 105/2/2
f 103/2/2 104/2/2 106/2/2
f 101/2/2 105/2/2 107/2/2
f 107/2/2 105/2/2 108/2/2
f 106/2/2 104/2/2 109/2/2
f 109/2/2 104/2/2 110/2/2
f 108/2/2 109/2/2 111/2/2
f 111/2/2 109/2/2 112/2/2
f 113/2/2 114/2/2 117/2/2
f 117/2/2 114/2/2 118/2/2
f 115/2/2 116/2/2 119/2/2
f 119/2/2 116/2/2 120/2/2
f 118/3/2 119/3/2 121/3/2
f 121/3/2 119/3/2 122/3/2
f 123/2/2 124/2/2 127/2/2
f 127/2/2 124/2/2 128/2/2
f 125/2/2 126/2/2 129/2/2
f 129/2/2 126/2/2 130/2/2
f 131/2/2 132/2/2 133/2/2
f 133/2/2 132/2/2 134/2/2
f 135/3/2 136/3/2 140/3/2
f 136/2/2 137/2/2 141/2/2
f 140/3/2 136/3/2 141/3/2
f 137/3/2 138/3/2 142/3/2
f 141/2/2 137/2/2 142/2/2
f 138/2/2 139/2/2 143/2/2
f 142/3/2 138/3/2 143/3/2
f 143/2/2 139/2/2 144/2/2
f 141/2/2 142/2/2 145/2/2
f 145/2/2 142/2/2 146/2/2
f 147/2/2 148/2/2 149/2/2
f 149/2/2 148/2/2 150/2/2
f 151/3/2 152/3/2 155/3/2
f 152/2/2 153/2/2 156/2/2
f 155/3/2 152/3/2 156/3/2
f 153/3/2 154/3/2 157/3/2
f 156/2/2 153/2/2 157/2/2
f 157/3/2 154/3/2 158/3/2
f 155/4/2 156/4/2 159/4/2
f 156/3/2 157/3/2 159/3/2
f 157/4/2 158/4/2 160/4/2
f 159/3/2 157/3/2 160/3/2
f 155/4/2 159/4/2 161/4/2
f 159/2/2 160/2/2 162/2/2
f 161/4/2 159/4/2 162/4/2
f 160/4/2 158/4/2 163/4/2
f 162/2/2 160/2/2 163/2/2
f 163/4/2 158/4/2 164/4/2
f 161/2/2 162/2/2 165/2/2
f 162/2/2 163/2/2 165/2/2
f 163/2/2 164/2/2 165/2/2
f 165/2/2 164/2/2 166/2/2
f 167/2/2 168/2/2 169/2/2
f 169/2/2 168/2/2 170/2/2
f 171/2/2 172/2/2 173/2/2
f 173/2/2 172/2/2 174/2/2
f 175/3/2 176/3/2 177/3/2
f 177/3/2 176/3/2 178/3/2
f 179/3/2 180/3/2 181/3/2
f 181/3/2 180/3/2 182/3/2
f 185/2/3 184/2/3 183/2/3
f 186/2/3 184/2/3 185/2/3
f 188/2/3 187/2/3 186/2/3
f 189/2/3 187/2/3 188/2/3
f 191/3/3 190/3/3 189/3/3
f 192/3/3 190/3/3 191/3/3
f 201/3/3 194/3/3 193/3/3
f 204/2/3 196/2/3 195/2/3
f 205/3/3 197/3/3 196/3/3
f 205/2/3 196/2/3 204/2/3
f 206/3/3 197/3/3 205/3/3
f 208/3/3 199/3/3 198/3/3
f 209/2/3 200/2/3 199/2/3
f 209/3/3 199/3/3 208/3/3
f 210/2/3 200/2/3 209/2/3
f 211/3/3 201/3/3 193/3/3
f 212/2/3 202/2/3 201/2/3
f 212/3/3 201/3/3 211/3/3
f 213/2/3 202/2/3 212/2/3
f 214/2/3 209/2/3 208/2/3
f 215/2/3 209/2/3 214/2/3
f 216/2/3 204/2/3 203/2/3
f 216/2/3 207/2/3 206/2/3
f 216/2/3 206/2/3 205/2/3
f 216/2/3 205/2/3 204/2/3
f 217/2/3 207/2/3 216/2/3
f 218/2/3 207/2/3 217/2/3
f 219/3/3 217/3/3 216/3/3
f 220/4/3 218/4/3 217/4/3
f 220/3/3 217/3/3 219/3/3
f 221/2/3 207/2/3 218/2/3
f 221/4/3 218/4/3 220/4/3
f 222/2/3 207/2/3 221/2/3
f 231/3/3 224/3/3 223/3/3
f 232/3/3 224/3/3 231/3/3
f 234/2/3 226/2/3 225/2/3
f 235/2/3 226/2/3 234/2/3
f 236/2/3 228/2/3 227/2/3
f 237/2/3 228/2/3 236/2/3
f 238/2/3 230/2/3 229/2/3
f 239/2/3 230/2/3 238/2/3
f 241/2/3 233/2/3 232/2/3
f 242/2/3 233/2/3 241/2/3
f 244/3/3 236/3/3 235/3/3
f 245/3/3 236/3/3 244/3/3
f 246/2/3 241/2/3 240/2/3
f 247/2/3 241/2/3 246/2/3
f 248/2/3 244/2/3 243/2/3
f 249/2/3 244/2/3 248/2/3
f 255/3/3 251/3/3 250/3/3
f 256/2/3 252/2/3 251/2/3
f 256/3/3 251/3/3 255/3/3
f 257/2/3 252/2/3 256/2/3
f 258/3/3 254/3/3 253/3/3
f 259/3/3 254/3/3 258/3/3
f 260/2/3 256/2/3 255/2/3
f 261/2/3 256/2/3 260/2/3
f 264/3/3 263/3/3 262/3/3
f 265/3/3 263/3/3 264/3/3
f 268/2/3 267/2/3 266/2/3
f 269/2/3 267/2/3 268/2/3
f 270/2/4 271/2/4 272/2/4
f 272/2/4 271/2/4 273/2/4
f 273/2/4 274/2/4 275/2/4
f 275/2/4 274/2/4 276/2/4
f 276/3/4 277/3/4 278/3/4
f 278/3/4 277/3/4 279/3/4
f 280/3/4 281/3/4 285/3/4
f 281/2/4 282/2/4 286/2/4
f 285/3/4 281/3/4 286/3/4
f 286/2/4 282/2/4 287/2/4
f 283/3/4 284/3/4 288/3/4
f 288/3/4 284/3/4 289/3/4
f 285/2/4 286/2/4 290/2/4
f 290/2/4 286/2/4 291/2/4
f 292/3/4 293/3/4 300/3/4
f 300/3/4 293/3/4 301/3/4
f 294/2/4 295/2/4 303/2/4
f 303/2/4 295/2/4 304/2/4
f 296/2/4 297/2/4 305/2/4
f 305/2/4 297/2/4 306/2/4
f 298/2/4 299/2/4 307/2/4
f 307/2/4 299/2/4 308/2/4
f 301/2/4 302/2/4 310/2/4
f 310/2/4 302/2/4 311/2/4
f 304/3/4 305/3/4 313/3/4
f 313/3/4 305/3/4 314/3/4
f 309/2/4 310/2/4 315/2/4
f 315/2/4 310/2/4 316/2/4
f 312/2/4 313/2/4 317/2/4
f 317/2/4 313/2/4 318/2/4
f 319/3/4 320/3/4 327/3/4
f 321/2/4 322/2/4 330/2/4
f 322/3/4 323/3/4 331/3/4
f 330/2/4 322/2/4 331/2/4
f 331/3/4 323/3/4 332/3/4
f 324/3/4 325/3/4 334/3/4
f 325/2/4 326/2/4 335/2/4
f 334/3/4 325/3/4 335/3/4
f 335/2/4 326/2/4 336/2/4
f 319/3/4 327/3/4 337/3/4
f 327/2/4 328/2/4 338/2/4
f 337/3/4 327/3/4 338/3/4
f 338/2/4 328/2/4 339/2/4
f 334/2/4 335/2/4 340/2/4
f 340/2/4 335/2/4 341/2/4
f 329/2/4 330/2/4 342/2/4
f 332/2/4 333/2/4 342/2/4
f 331/2/4 332/2/4 342/2/4
f 330/2/4 331/2/4 342/2/4
f 342/2/4 333/2/4 343/2/4
f 343/2/4 333/2/4 344/2/4
f 342/3/4 343/3/4 345/3/4
f 343/4/4 344/4/4 346/4/4
f 345/3/4 343/3/4 346/3/4
f 344/2/4 333/2/4 347/2/4
f 346/4/4 344/4/4 347/4/4
f 347/2/4 333/2/4 348/2/4
f 349/2/4 350/2/4 351/2/4
f 351/2/4 350/2/4 352/2/4
f 353/3/4 354/3/4 355/3/4
f 355/3/4 354/3/4 356/3/4
f 357/2/4 358/2/4 359/2/4
f 359/2/4 358/2/4 360/2/4
f 364/3/5 362/3/5 361/3/5
f 365/2/5 363/2/5 362/2/5
f 365/3/5 362/3/5 364/3/5
f 366/2/5 363/2/5 365/2/5
f 370/3/5 368/3/5 367/3/5
f 371/2/5 369/2/5 368/2/5
f 371/3/5 368/3/5 370/3/5
f 372/2/5 369/2/5 371/2/5
f 377/3/5 374/3/5 373/3/5
f 377/3/5 375/3/5 374/3/5
f 378/3/5 375/3/5 377/3/5
f 379/2/5 376/2/5 375/2/5
f 379/3/5 375/3/5 378/3/5
f 380/2/5 376/2/5 379/2/5
f 383/2/5 382/2/5 381/2/5
f 384/2/5 382/2/5 383/2/5
f 388/2/5 386/2/5 385/2/5
f 389/2/5 386/2/5 388/2/5
f 390/2/5 386/2/5 389/2/5
f 391/3/5 388/3/5 387/3/5
f 391/3/5 389/3/5 388/3/5
f 392/3/5 389/3/5 391/3/5
f 393/3/5 389/3/5 392/3/5
f 394/3/5 391/3/5 387/3/5
f 395/2/5 393/2/5 392/2/5
f 396/2/5 393/2/5 395/2/5
f 397/3/5 394/3/5 387/3/5
f 397/3/5 395/3/5 394/3/5
f 397/3/5 396/3/5 395/3/5
f 398/3/5 396/3/5 397/3/5
f 399/3/5 396/3/5 398/3/5
f 402/2/5 399/2/5 398/2/5
f 403/2/5 399/2/5 402/2/5
f 404/3/5 401/3/5 400/3/5
f 405/3/5 401/3/5 404/3/5
f 408/2/5 407/2/5 406/2/5
f 409/2/5 407/2/5 408/2/5
f 412/2/5 411/2/5 410/2/5
f 413/2/5 411/2/5 412/2/5
f 416/3/5 415/3/5 414/3/5
f 417/3/5 415/3/5 416/3/5
f 422/2/5 419/2/5 418/2/5
f 423/2/5 419/2/5 422/2/5
f 424/3/5 420/3/5 419/3/5
f 424/2/5 419/2/5 423/2/5
f 425/3/5 420/3/5 424/3/5
f 426/2/5 422/2/5 421/2/5
f 427/2/5 422/2/5 426/2/5
f 428/3/5 424/3/5 423/3/5
f 429/2/5 425/2/5 424/2/5
f 429/3/5 424/3/5 428/3/5
f 430/2/5 425/2/5 429/2/5
f 431/2/5 428/2/5 427/2/5
f 431/2/5 429/2/5 428/2/5
f 432/3/5 430/3/5 429/3/5
f 432/2/5 429/2/5 431/2/5
f 433/3/5 430/3/5 432/3/5
f 436/2/5 435/2/5 434/2/5
f 437/2/5 435/2/5 436/2/5
f 440/2/5 439/2/5 438/2/5
f 441/2/5 439/2/5 440/2/5
f 442/2/6 443/2/6 444/2/6
f 444/2/6 443/2/6 445/2/6
f 446/2/6 447/2/6 448/2/6
f 448/2/6 447/2/6 449/2/6
f 450/2/6 451/2/6 453/2/6
f 453/2/6 451/2/6 454/2/6
f 452/3/6 453/3/6 456/3/6
f 456/3/6 453/3/6 457/3/6
f 454/2/6 455/2/6 458/2/6
f 458/2/6 455/2/6 459/2/6
f 457/2/6 458/2/6 460/2/6
f 460/2/6 458/2/6 461/2/6
f 462/2/6 463/2/6 464/2/6
f 464/2/6 463/2/6 465/2/6
f 466/2/6 467/2/6 468/2/6
f 468/2/6 467/2/6 469/2/6
f 470/2/6 471/2/6 474/2/6
f 474/2/6 471/2/6 475/2/6
f 475/2/6 471/2/6 476/2/6
f 472/3/6 473/3/6 477/3/6
f 477/3/6 473/3/6 478/3/6
f 474/3/6 475/3/6 479/3/6
f 479/3/6 475/3/6 480/3/6
f 481/3/6 482/3/6 485/3/6
f 485/3/6 482/3/6 486/3/6
f 483/3/6 484/3/6 487/3/6
f 487/3/6 484/3/6 488/3/6
f 487/2/6 488/2/6 491/2/6
f 491/2/6 488/2/6 492/2/6
f 489/3/6 490/3/6 493/3/6
f 493/3/6 490/3/6 494/3/6
f 495/2/6 496/2/6 499/2/6
f 499/2/6 496/2/6 500/2/6
f 497/2/6 498/2/6 502/2/6
f 502/2/6 498/2/6 503/2/6
f 501/2/6 502/2/6 505/2/6
f 505/2/6 502/2/6 506/2/6
f 503/2/6 504/2/6 507/2/6
f 507/2/6 504/2/6 508/2/6
f 506/2/6 507/2/6 509/2/6
f 509/2/6 507/2/6 510/2/6
f 511/3/6 512/3/6 513/3/6
f 513/3/6 512/3/6 514/3/6
f 515/3/6 516/3/6 517/3/6
f 517/3/6 516/3/6 518/3/6
f 519/3/6 520/3/6 521/3/6
f 521/3/6 520/3/6 522/3/6
f 523/2/6 524/2/6 526/2/6
f 525/2/6 526/2/6 527/2/6
f 526/2/6 524/2/6 528/2/6
f 527/2/6 526/2/6 528/2/6
f 528/2/6 524/2/6 529/2/6
f 529/2/6 524/2/6 530/2/6
