# MagicaVoxel @ Ephtracy

# group
g YAVD_Tiles-23

# material
mtllib YAVD_Tiles-23.mtl
usemtl palette

# normals
vn -1 0 0
vn 1 0 0
vn 0 0 1
vn 0 0 -1
vn 0 -1 0
vn 0 1 0

# texcoords
vt 0.224609 0.5
vt 0.310547 0.5
vt 0.994141 0.5

# verts
v -8 0 8
v -8 0 -8
v -8 1 8
v -8 1 5
v -8 1 1
v -8 1 -3
v -8 1 -5
v -8 1 -8
v -8 2 8
v -8 2 5
v -8 2 1
v -8 2 -3
v -8 2 -5
v -8 2 -8
v -4 1 6
v -4 1 4
v -4 1 1
v -4 1 -1
v -4 1 -4
v -4 1 -6
v -4 2 6
v -4 2 4
v -4 2 1
v -4 2 -1
v -4 2 -4
v -4 2 -6
v 1 1 6
v 1 1 4
v 1 1 1
v 1 1 -0
v 1 1 -1
v 1 1 -4
v 1 1 -6
v 1 2 6
v 1 2 4
v 1 2 1
v 1 2 -0
v 1 2 -1
v 1 2 -4
v 1 2 -6
v 6 1 6
v 6 1 5
v 6 1 4
v 6 1 1
v 6 1 -1
v 6 1 -4
v 6 1 -5
v 6 1 -6
v 6 2 6
v 6 2 5
v 6 2 4
v 6 2 1
v 6 2 -1
v 6 2 -4
v 6 2 -5
v 6 2 -6
v -6 1 6
v -6 1 5
v -6 1 4
v -6 1 1
v -6 1 -1
v -6 1 -4
v -6 1 -5
v -6 1 -6
v -6 2 6
v -6 2 5
v -6 2 4
v -6 2 1
v -6 2 -1
v -6 2 -4
v -6 2 -5
v -6 2 -6
v -1 1 6
v -1 1 4
v -1 1 1
v -1 1 -1
v -1 1 -4
v -1 1 -6
v -1 2 6
v -1 2 4
v -1 2 1
v -1 2 -1
v -1 2 -4
v -1 2 -6
v 4 1 6
v 4 1 4
v 4 1 1
v 4 1 -1
v 4 1 -4
v 4 1 -5
v 4 1 -6
v 4 2 6
v 4 2 4
v 4 2 1
v 4 2 -1
v 4 2 -4
v 4 2 -5
v 4 2 -6
v 8 0 8
v 8 0 -8
v 8 1 8
v 8 1 5
v 8 1 -5
v 8 1 -8
v 8 2 8
v 8 2 5
v 8 2 -5
v 8 2 -8
v -8 0 8
v -8 1 8
v -8 2 8
v -5 1 8
v -5 2 8
v 0 1 8
v 0 2 8
v 2 1 8
v 2 2 8
v 5 1 8
v 5 2 8
v 8 0 8
v 8 1 8
v 8 2 8
v -6 1 4
v -6 2 4
v -4 1 4
v -4 2 4
v -1 1 4
v -1 2 4
v 0 1 4
v 0 2 4
v 1 1 4
v 1 2 4
v 4 1 4
v 4 2 4
v 6 1 4
v 6 2 4
v -6 1 -1
v -6 2 -1
v -4 1 -1
v -4 2 -1
v -1 1 -1
v -1 2 -1
v 1 1 -1
v 1 2 -1
v 4 1 -1
v 4 2 -1
v 6 1 -1
v 6 2 -1
v -6 1 -6
v -6 2 -6
v -5 1 -6
v -5 2 -6
v -4 1 -6
v -4 2 -6
v -1 1 -6
v -1 2 -6
v 1 1 -6
v 1 2 -6
v 4 1 -6
v 4 2 -6
v 5 1 -6
v 5 2 -6
v 6 1 -6
v 6 2 -6
v -6 1 6
v -6 2 6
v -5 1 6
v -5 2 6
v -4 1 6
v -4 2 6
v -1 1 6
v -1 2 6
v 1 1 6
v 1 2 6
v 4 1 6
v 4 2 6
v 5 1 6
v 5 2 6
v 6 1 6
v 6 2 6
v -6 1 1
v -6 2 1
v -4 1 1
v -4 2 1
v -1 1 1
v -1 2 1
v 1 1 1
v 1 2 1
v 4 1 1
v 4 2 1
v 6 1 1
v 6 2 1
v -6 1 -4
v -6 2 -4
v -4 1 -4
v -4 2 -4
v -1 1 -4
v -1 2 -4
v 1 1 -4
v 1 2 -4
v 4 1 -4
v 4 2 -4
v 5 1 -4
v 5 2 -4
v 6 1 -4
v 6 2 -4
v -8 0 -8
v -8 1 -8
v -8 2 -8
v -5 1 -8
v -5 2 -8
v 0 1 -8
v 0 2 -8
v 2 1 -8
v 2 2 -8
v 5 1 -8
v 5 2 -8
v 8 0 -8
v 8 1 -8
v 8 2 -8
v -8 0 8
v 8 0 8
v -8 0 -8
v 8 0 -8
v -6 1 6
v -5 1 6
v -4 1 6
v -1 1 6
v 1 1 6
v 4 1 6
v 5 1 6
v 6 1 6
v -6 1 5
v 6 1 5
v -6 1 4
v -4 1 4
v -1 1 4
v 0 1 4
v 1 1 4
v 4 1 4
v 6 1 4
v -6 1 1
v -4 1 1
v -1 1 1
v 1 1 1
v 4 1 1
v 6 1 1
v 1 1 -0
v -6 1 -1
v -4 1 -1
v -1 1 -1
v 1 1 -1
v 4 1 -1
v 6 1 -1
v -6 1 -4
v -4 1 -4
v -1 1 -4
v 1 1 -4
v 4 1 -4
v 5 1 -4
v 6 1 -4
v -6 1 -5
v 4 1 -5
v 6 1 -5
v -6 1 -6
v -5 1 -6
v -4 1 -6
v -1 1 -6
v 1 1 -6
v 4 1 -6
v 5 1 -6
v 6 1 -6
v -8 2 8
v -5 2 8
v 0 2 8
v 2 2 8
v 5 2 8
v 8 2 8
v 0 2 7
v 2 2 7
v -6 2 6
v -5 2 6
v -4 2 6
v -1 2 6
v 1 2 6
v 4 2 6
v 5 2 6
v 6 2 6
v -8 2 5
v -6 2 5
v 6 2 5
v 8 2 5
v -6 2 4
v -4 2 4
v -1 2 4
v 0 2 4
v 1 2 4
v 3 2 4
v 4 2 4
v 6 2 4
v -1 2 3
v 0 2 3
v 3 2 3
v 4 2 3
v -7 2 2
v -3 2 2
v -8 2 1
v -7 2 1
v -6 2 1
v -4 2 1
v -1 2 1
v 1 2 1
v 3 2 1
v 4 2 1
v 6 2 1
v -3 2 -0
v -2 2 -0
v 1 2 -0
v 3 2 -0
v -6 2 -1
v -4 2 -1
v -1 2 -1
v 1 2 -1
v 4 2 -1
v 6 2 -1
v -3 2 -2
v -2 2 -2
v 3 2 -2
v 5 2 -2
v -8 2 -3
v -3 2 -3
v 2 2 -3
v 3 2 -3
v -6 2 -4
v -4 2 -4
v -1 2 -4
v 1 2 -4
v 4 2 -4
v 5 2 -4
v 6 2 -4
v -8 2 -5
v -6 2 -5
v 2 2 -5
v 4 2 -5
v 6 2 -5
v 8 2 -5
v -6 2 -6
v -5 2 -6
v -4 2 -6
v -1 2 -6
v 1 2 -6
v 4 2 -6
v 5 2 -6
v 6 2 -6
v 0 2 -7
v 2 2 -7
v -8 2 -8
v -5 2 -8
v 0 2 -8
v 2 2 -8
v 5 2 -8
v 8 2 -8

# faces
f 3/3/1 2/3/1 1/3/1
f 4/3/1 2/3/1 3/3/1
f 5/3/1 2/3/1 4/3/1
f 6/3/1 2/3/1 5/3/1
f 7/3/1 2/3/1 6/3/1
f 8/3/1 2/3/1 7/3/1
f 9/1/1 4/1/1 3/1/1
f 10/2/1 5/2/1 4/2/1
f 10/1/1 4/1/1 9/1/1
f 11/1/1 6/1/1 5/1/1
f 11/2/1 5/2/1 10/2/1
f 12/2/1 7/2/1 6/2/1
f 12/1/1 6/1/1 11/1/1
f 13/1/1 8/1/1 7/1/1
f 13/2/1 7/2/1 12/2/1
f 14/1/1 8/1/1 13/1/1
f 21/2/1 16/2/1 15/2/1
f 22/2/1 16/2/1 21/2/1
f 23/1/1 18/1/1 17/1/1
f 24/1/1 18/1/1 23/1/1
f 25/2/1 20/2/1 19/2/1
f 26/2/1 20/2/1 25/2/1
f 34/2/1 28/2/1 27/2/1
f 35/2/1 28/2/1 34/2/1
f 36/1/1 30/1/1 29/1/1
f 37/2/1 31/2/1 30/2/1
f 37/1/1 30/1/1 36/1/1
f 38/2/1 31/2/1 37/2/1
f 39/2/1 33/2/1 32/2/1
f 40/2/1 33/2/1 39/2/1
f 49/1/1 42/1/1 41/1/1
f 50/2/1 43/2/1 42/2/1
f 50/1/1 42/1/1 49/1/1
f 51/2/1 43/2/1 50/2/1
f 52/2/1 45/2/1 44/2/1
f 53/2/1 45/2/1 52/2/1
f 54/2/1 47/2/1 46/2/1
f 55/1/1 48/1/1 47/1/1
f 55/2/1 47/2/1 54/2/1
f 56/1/1 48/1/1 55/1/1
f 57/1/2 58/1/2 65/1/2
f 58/2/2 59/2/2 66/2/2
f 65/1/2 58/1/2 66/1/2
f 66/2/2 59/2/2 67/2/2
f 60/1/2 61/1/2 68/1/2
f 68/1/2 61/1/2 69/1/2
f 62/2/2 63/2/2 70/2/2
f 63/1/2 64/1/2 71/1/2
f 70/2/2 63/2/2 71/2/2
f 71/1/2 64/1/2 72/1/2
f 73/2/2 74/2/2 79/2/2
f 79/2/2 74/2/2 80/2/2
f 75/2/2 76/2/2 81/2/2
f 81/2/2 76/2/2 82/2/2
f 77/2/2 78/2/2 83/2/2
f 83/2/2 78/2/2 84/2/2
f 85/2/2 86/2/2 92/2/2
f 92/2/2 86/2/2 93/2/2
f 87/2/2 88/2/2 94/2/2
f 94/2/2 88/2/2 95/2/2
f 89/1/2 90/1/2 96/1/2
f 90/2/2 91/2/2 97/2/2
f 96/1/2 90/1/2 97/1/2
f 97/2/2 91/2/2 98/2/2
f 99/3/2 100/3/2 101/3/2
f 101/3/2 100/3/2 102/3/2
f 102/3/2 100/3/2 103/3/2
f 103/3/2 100/3/2 104/3/2
f 101/1/2 102/1/2 105/1/2
f 102/2/2 103/2/2 106/2/2
f 105/1/2 102/1/2 106/1/2
f 103/1/2 104/1/2 107/1/2
f 106/2/2 103/2/2 107/2/2
f 107/1/2 104/1/2 108/1/2
f 112/3/3 110/3/3 109/3/3
f 112/1/3 111/1/3 110/1/3
f 113/1/3 111/1/3 112/1/3
f 114/3/3 112/3/3 109/3/3
f 114/2/3 113/2/3 112/2/3
f 115/2/3 113/2/3 114/2/3
f 116/3/3 114/3/3 109/3/3
f 116/1/3 115/1/3 114/1/3
f 117/1/3 115/1/3 116/1/3
f 118/3/3 116/3/3 109/3/3
f 118/2/3 117/2/3 116/2/3
f 119/2/3 117/2/3 118/2/3
f 120/3/3 118/3/3 109/3/3
f 121/1/3 119/1/3 118/1/3
f 121/3/3 118/3/3 120/3/3
f 122/1/3 119/1/3 121/1/3
f 125/2/3 124/2/3 123/2/3
f 126/2/3 124/2/3 125/2/3
f 129/2/3 128/2/3 127/2/3
f 130/2/3 128/2/3 129/2/3
f 131/1/3 130/1/3 129/1/3
f 132/1/3 130/1/3 131/1/3
f 135/2/3 134/2/3 133/2/3
f 136/2/3 134/2/3 135/2/3
f 139/1/3 138/1/3 137/1/3
f 140/1/3 138/1/3 139/1/3
f 143/2/3 142/2/3 141/2/3
f 144/2/3 142/2/3 143/2/3
f 147/2/3 146/2/3 145/2/3
f 148/2/3 146/2/3 147/2/3
f 151/1/3 150/1/3 149/1/3
f 152/1/3 150/1/3 151/1/3
f 153/2/3 152/2/3 151/2/3
f 154/2/3 152/2/3 153/2/3
f 157/2/3 156/2/3 155/2/3
f 158/2/3 156/2/3 157/2/3
f 161/2/3 160/2/3 159/2/3
f 162/2/3 160/2/3 161/2/3
f 163/1/3 162/1/3 161/1/3
f 164/1/3 162/1/3 163/1/3
f 165/1/4 166/1/4 167/1/4
f 167/1/4 166/1/4 168/1/4
f 167/2/4 168/2/4 169/2/4
f 169/2/4 168/2/4 170/2/4
f 171/2/4 172/2/4 173/2/4
f 173/2/4 172/2/4 174/2/4
f 175/2/4 176/2/4 177/2/4
f 177/2/4 176/2/4 178/2/4
f 177/1/4 178/1/4 179/1/4
f 179/1/4 178/1/4 180/1/4
f 181/1/4 182/1/4 183/1/4
f 183/1/4 182/1/4 184/1/4
f 185/1/4 186/1/4 187/1/4
f 187/1/4 186/1/4 188/1/4
f 189/2/4 190/2/4 191/2/4
f 191/2/4 190/2/4 192/2/4
f 193/2/4 194/2/4 195/2/4
f 195/2/4 194/2/4 196/2/4
f 197/2/4 198/2/4 199/2/4
f 199/2/4 198/2/4 200/2/4
f 201/1/4 202/1/4 203/1/4
f 203/1/4 202/1/4 204/1/4
f 203/2/4 204/2/4 205/2/4
f 205/2/4 204/2/4 206/2/4
f 207/3/4 208/3/4 210/3/4
f 208/1/4 209/1/4 210/1/4
f 210/1/4 209/1/4 211/1/4
f 207/3/4 210/3/4 212/3/4
f 210/2/4 211/2/4 212/2/4
f 212/2/4 211/2/4 213/2/4
f 207/3/4 212/3/4 214/3/4
f 212/1/4 213/1/4 214/1/4
f 214/1/4 213/1/4 215/1/4
f 207/3/4 214/3/4 216/3/4
f 214/2/4 215/2/4 216/2/4
f 216/2/4 215/2/4 217/2/4
f 207/3/4 216/3/4 218/3/4
f 216/1/4 217/1/4 219/1/4
f 218/3/4 216/3/4 219/3/4
f 219/1/4 217/1/4 220/1/4
f 223/3/5 222/3/5 221/3/5
f 224/3/5 222/3/5 223/3/5
f 225/3/6 226/3/6 233/3/6
f 226/3/6 227/3/6 233/3/6
f 231/3/6 232/3/6 234/3/6
f 230/3/6 231/3/6 234/3/6
f 233/3/6 227/3/6 235/3/6
f 235/3/6 227/3/6 236/3/6
f 228/3/6 229/3/6 237/3/6
f 237/3/6 229/3/6 238/3/6
f 238/3/6 229/3/6 239/3/6
f 230/3/6 234/3/6 240/3/6
f 240/3/6 234/3/6 241/3/6
f 244/3/6 245/3/6 248/3/6
f 242/3/6 243/3/6 249/3/6
f 249/3/6 243/3/6 250/3/6
f 244/3/6 248/3/6 251/3/6
f 251/3/6 248/3/6 252/3/6
f 246/3/6 247/3/6 253/3/6
f 253/3/6 247/3/6 254/3/6
f 255/3/6 256/3/6 262/3/6
f 260/3/6 261/3/6 263/3/6
f 259/3/6 260/3/6 263/3/6
f 263/3/6 261/3/6 264/3/6
f 262/3/6 256/3/6 265/3/6
f 265/3/6 256/3/6 266/3/6
f 266/3/6 256/3/6 267/3/6
f 257/3/6 258/3/6 268/3/6
f 268/3/6 258/3/6 269/3/6
f 263/3/6 264/3/6 270/3/6
f 270/3/6 264/3/6 271/3/6
f 271/3/6 264/3/6 272/3/6
f 274/2/6 275/2/6 279/2/6
f 275/1/6 276/1/6 279/1/6
f 276/2/6 277/2/6 280/2/6
f 279/1/6 276/1/6 280/1/6
f 273/1/6 274/1/6 281/1/6
f 274/2/6 279/2/6 282/2/6
f 281/1/6 274/1/6 282/1/6
f 279/2/6 280/2/6 282/2/6
f 282/2/6 280/2/6 283/2/6
f 283/2/6 280/2/6 284/2/6
f 284/2/6 280/2/6 285/2/6
f 280/2/6 277/2/6 286/2/6
f 285/2/6 280/2/6 286/2/6
f 277/1/6 278/1/6 287/1/6
f 286/2/6 277/2/6 287/2/6
f 287/1/6 278/1/6 288/1/6
f 273/1/6 281/1/6 289/1/6
f 289/1/6 281/1/6 290/1/6
f 288/1/6 278/1/6 291/1/6
f 291/1/6 278/1/6 292/1/6
f 289/2/6 290/2/6 293/2/6
f 283/2/6 284/2/6 294/2/6
f 294/2/6 284/2/6 295/2/6
f 285/2/6 286/2/6 297/2/6
f 297/2/6 286/2/6 298/2/6
f 298/2/6 286/2/6 299/2/6
f 291/2/6 292/2/6 300/2/6
f 295/2/6 296/2/6 301/2/6
f 293/2/6 294/2/6 301/2/6
f 294/2/6 295/2/6 301/2/6
f 296/1/6 297/1/6 302/1/6
f 301/2/6 296/2/6 302/2/6
f 297/1/6 298/1/6 302/1/6
f 299/2/6 300/2/6 303/2/6
f 302/1/6 298/1/6 303/1/6
f 298/2/6 299/2/6 303/2/6
f 303/2/6 300/2/6 304/2/6
f 289/2/6 293/2/6 305/2/6
f 293/2/6 301/2/6 305/2/6
f 305/2/6 301/2/6 306/2/6
f 289/2/6 305/2/6 307/2/6
f 305/1/6 306/1/6 308/1/6
f 307/2/6 305/2/6 308/2/6
f 308/1/6 306/1/6 309/1/6
f 309/1/6 306/1/6 310/1/6
f 301/1/6 302/1/6 311/1/6
f 303/1/6 304/1/6 311/1/6
f 302/1/6 303/1/6 311/1/6
f 306/2/6 301/2/6 311/2/6
f 311/1/6 304/1/6 312/1/6
f 312/1/6 304/1/6 313/1/6
f 304/2/6 300/2/6 314/2/6
f 313/1/6 304/1/6 314/1/6
f 300/2/6 292/2/6 315/2/6
f 314/2/6 300/2/6 315/2/6
f 310/1/6 306/1/6 316/1/6
f 306/2/6 311/2/6 316/2/6
f 316/2/6 311/2/6 317/2/6
f 312/1/6 313/1/6 318/1/6
f 313/2/6 314/2/6 319/2/6
f 318/1/6 313/1/6 319/1/6
f 308/1/6 309/1/6 320/1/6
f 307/1/6 308/1/6 320/1/6
f 310/1/6 316/1/6 321/1/6
f 316/1/6 317/1/6 321/1/6
f 317/2/6 311/2/6 322/2/6
f 318/2/6 319/2/6 323/2/6
f 319/2/6 314/2/6 324/2/6
f 323/2/6 319/2/6 324/2/6
f 315/2/6 292/2/6 325/2/6
f 320/1/6 321/1/6 326/1/6
f 321/1/6 317/1/6 326/1/6
f 323/2/6 324/2/6 327/2/6
f 326/1/6 317/1/6 327/1/6
f 324/2/6 325/2/6 327/2/6
f 322/2/6 323/2/6 327/2/6
f 317/2/6 322/2/6 327/2/6
f 327/2/6 325/2/6 328/2/6
f 328/2/6 325/2/6 329/2/6
f 320/1/6 326/1/6 330/1/6
f 307/1/6 320/1/6 330/1/6
f 326/2/6 327/2/6 331/2/6
f 330/1/6 326/1/6 331/1/6
f 327/2/6 328/2/6 331/2/6
f 331/2/6 328/2/6 332/2/6
f 328/1/6 329/1/6 333/1/6
f 332/2/6 328/2/6 333/2/6
f 331/2/6 332/2/6 334/2/6
f 330/2/6 331/2/6 334/2/6
f 334/2/6 332/2/6 335/2/6
f 335/2/6 332/2/6 336/2/6
f 336/2/6 332/2/6 337/2/6
f 333/1/6 329/1/6 338/1/6
f 332/1/6 333/1/6 338/1/6
f 329/2/6 325/2/6 339/2/6
f 338/1/6 329/1/6 339/1/6
f 325/2/6 292/2/6 340/2/6
f 339/2/6 325/2/6 340/2/6
f 330/2/6 334/2/6 341/2/6
f 341/2/6 334/2/6 342/2/6
f 332/1/6 338/1/6 343/1/6
f 337/2/6 332/2/6 343/2/6
f 343/1/6 338/1/6 344/1/6
f 340/2/6 292/2/6 345/2/6
f 345/2/6 292/2/6 346/2/6
f 341/1/6 342/1/6 347/1/6
f 335/2/6 336/2/6 349/2/6
f 349/2/6 336/2/6 350/2/6
f 343/2/6 344/2/6 351/2/6
f 337/2/6 343/2/6 351/2/6
f 351/2/6 344/2/6 352/2/6
f 345/1/6 346/1/6 354/1/6
f 349/2/6 350/2/6 355/2/6
f 348/2/6 349/2/6 355/2/6
f 352/2/6 353/2/6 355/2/6
f 350/2/6 351/2/6 355/2/6
f 351/2/6 352/2/6 355/2/6
f 355/2/6 353/2/6 356/2/6
f 347/1/6 348/1/6 357/1/6
f 341/1/6 347/1/6 357/1/6
f 348/2/6 355/2/6 358/2/6
f 357/1/6 348/1/6 358/1/6
f 355/1/6 356/1/6 359/1/6
f 358/2/6 355/2/6 359/2/6
f 356/2/6 353/2/6 360/2/6
f 359/1/6 356/1/6 360/1/6
f 353/1/6 354/1/6 361/1/6
f 360/2/6 353/2/6 361/2/6
f 354/1/6 346/1/6 362/1/6
f 361/1/6 354/1/6 362/1/6
