# MagicaVoxel @ Ephtracy

# group
g YAVD_Tiles-48

# material
mtllib YAVD_Tiles-48.mtl
usemtl palette

# normals
vn -1 0 0
vn 1 0 0
vn 0 0 1
vn 0 0 -1
vn 0 -1 0
vn 0 1 0

# texcoords
vt 0.224609 0.5
vt 0.310547 0.5
vt 0.935547 0.5
vt 0.990234 0.5
vt 0.994141 0.5

# verts
v -8 0 8
v -8 0 -8
v -8 1 8
v -8 1 6
v -8 1 5
v -8 1 1
v -8 1 -3
v -8 1 -5
v -8 1 -6
v -8 1 -8
v -8 2 6
v -8 2 5
v -8 2 1
v -8 2 -3
v -8 2 -5
v -8 2 -6
v -8 3 8
v -8 3 7
v -8 3 6
v -8 3 -6
v -8 3 -7
v -8 3 -8
v -8 4 8
v -8 4 7
v -8 4 6
v -8 4 -6
v -8 4 -7
v -8 4 -8
v -8 6 8
v -8 6 7
v -8 6 6
v -8 6 -6
v -8 6 -7
v -8 6 -8
v -8 7 8
v -8 7 7
v -8 7 6
v -8 7 -6
v -8 7 -7
v -8 7 -8
v -8 9 8
v -8 9 6
v -8 9 -6
v -8 9 -8
v 6 2 8
v 6 2 6
v 6 2 -6
v 6 2 -8
v 6 3 8
v 6 3 6
v 6 3 -6
v 6 3 -8
v 6 4 8
v 6 4 6
v 6 4 -6
v 6 4 -8
v 6 6 8
v 6 6 6
v 6 6 -6
v 6 6 -8
v 6 7 8
v 6 7 6
v 6 7 -6
v 6 7 -8
v 6 9 8
v 6 9 6
v 6 9 -6
v 6 9 -8
v 7 3 8
v 7 3 7
v 7 3 -7
v 7 3 -8
v 7 4 8
v 7 4 7
v 7 4 -7
v 7 4 -8
v 7 6 8
v 7 6 7
v 7 6 -7
v 7 6 -8
v 7 7 8
v 7 7 7
v 7 7 -7
v 7 7 -8
v -7 3 8
v -7 3 7
v -7 3 -7
v -7 3 -8
v -7 4 8
v -7 4 7
v -7 4 -7
v -7 4 -8
v -7 6 8
v -7 6 7
v -7 6 -7
v -7 6 -8
v -7 7 8
v -7 7 7
v -7 7 -7
v -7 7 -8
v -6 2 8
v -6 2 6
v -6 2 -6
v -6 2 -8
v -6 3 8
v -6 3 6
v -6 3 -6
v -6 3 -8
v -6 4 8
v -6 4 6
v -6 4 -6
v -6 4 -8
v -6 6 8
v -6 6 6
v -6 6 -6
v -6 6 -8
v -6 7 8
v -6 7 6
v -6 7 -6
v -6 7 -8
v -6 9 8
v -6 9 6
v -6 9 -6
v -6 9 -8
v 8 0 8
v 8 0 -8
v 8 1 8
v 8 1 6
v 8 1 5
v 8 1 -5
v 8 1 -6
v 8 1 -8
v 8 2 6
v 8 2 5
v 8 2 -5
v 8 2 -6
v 8 3 8
v 8 3 7
v 8 3 6
v 8 3 -6
v 8 3 -7
v 8 3 -8
v 8 4 8
v 8 4 7
v 8 4 6
v 8 4 -6
v 8 4 -7
v 8 4 -8
v 8 6 8
v 8 6 7
v 8 6 6
v 8 6 -6
v 8 6 -7
v 8 6 -8
v 8 7 8
v 8 7 7
v 8 7 6
v 8 7 -6
v 8 7 -7
v 8 7 -8
v 8 9 8
v 8 9 6
v 8 9 -6
v 8 9 -8
v -8 0 8
v -8 1 8
v -8 3 8
v -8 4 8
v -8 6 8
v -8 7 8
v -8 9 8
v -7 3 8
v -7 4 8
v -7 6 8
v -7 7 8
v -6 1 8
v -6 2 8
v -6 3 8
v -6 4 8
v -6 6 8
v -6 7 8
v -6 9 8
v -5 1 8
v -5 2 8
v 0 1 8
v 0 2 8
v 2 1 8
v 2 2 8
v 5 1 8
v 5 2 8
v 6 1 8
v 6 2 8
v 6 3 8
v 6 4 8
v 6 6 8
v 6 7 8
v 6 9 8
v 7 3 8
v 7 4 8
v 7 6 8
v 7 7 8
v 8 0 8
v 8 1 8
v 8 3 8
v 8 4 8
v 8 6 8
v 8 7 8
v 8 9 8
v -8 2 -6
v -8 3 -6
v -8 4 -6
v -8 6 -6
v -8 7 -6
v -8 9 -6
v -6 2 -6
v -6 3 -6
v -6 4 -6
v -6 6 -6
v -6 7 -6
v -6 9 -6
v 6 2 -6
v 6 3 -6
v 6 4 -6
v 6 6 -6
v 6 7 -6
v 6 9 -6
v 8 2 -6
v 8 3 -6
v 8 4 -6
v 8 6 -6
v 8 7 -6
v 8 9 -6
v -8 3 -7
v -8 4 -7
v -8 6 -7
v -8 7 -7
v -7 3 -7
v -7 4 -7
v -7 6 -7
v -7 7 -7
v 7 3 -7
v 7 4 -7
v 7 6 -7
v 7 7 -7
v 8 3 -7
v 8 4 -7
v 8 6 -7
v 8 7 -7
v -8 3 7
v -8 4 7
v -8 6 7
v -8 7 7
v -7 3 7
v -7 4 7
v -7 6 7
v -7 7 7
v 7 3 7
v 7 4 7
v 7 6 7
v 7 7 7
v 8 3 7
v 8 4 7
v 8 6 7
v 8 7 7
v -8 2 6
v -8 3 6
v -8 4 6
v -8 6 6
v -8 7 6
v -8 9 6
v -6 2 6
v -6 3 6
v -6 4 6
v -6 6 6
v -6 7 6
v -6 9 6
v 6 2 6
v 6 3 6
v 6 4 6
v 6 6 6
v 6 7 6
v 6 9 6
v 8 2 6
v 8 3 6
v 8 4 6
v 8 6 6
v 8 7 6
v 8 9 6
v -8 0 -8
v -8 1 -8
v -8 3 -8
v -8 4 -8
v -8 6 -8
v -8 7 -8
v -8 9 -8
v -7 3 -8
v -7 4 -8
v -7 6 -8
v -7 7 -8
v -6 1 -8
v -6 2 -8
v -6 3 -8
v -6 4 -8
v -6 6 -8
v -6 7 -8
v -6 9 -8
v -5 1 -8
v -5 2 -8
v 5 1 -8
v 5 2 -8
v 6 1 -8
v 6 2 -8
v 6 3 -8
v 6 4 -8
v 6 6 -8
v 6 7 -8
v 6 9 -8
v 7 3 -8
v 7 4 -8
v 7 6 -8
v 7 7 -8
v 8 0 -8
v 8 1 -8
v 8 3 -8
v 8 4 -8
v 8 6 -8
v 8 7 -8
v 8 9 -8
v -8 0 8
v 8 0 8
v -8 0 -8
v 8 0 -8
v -7 4 8
v -6 4 8
v 6 4 8
v 7 4 8
v -8 4 7
v -7 4 7
v 7 4 7
v 8 4 7
v -8 4 6
v -6 4 6
v 6 4 6
v 8 4 6
v -8 4 -6
v -6 4 -6
v 6 4 -6
v 8 4 -6
v -8 4 -7
v -7 4 -7
v 7 4 -7
v 8 4 -7
v -7 4 -8
v -6 4 -8
v 6 4 -8
v 7 4 -8
v -7 7 8
v -6 7 8
v 6 7 8
v 7 7 8
v -8 7 7
v -7 7 7
v 7 7 7
v 8 7 7
v -8 7 6
v -6 7 6
v 6 7 6
v 8 7 6
v -8 7 -6
v -6 7 -6
v 6 7 -6
v 8 7 -6
v -8 7 -7
v -7 7 -7
v 7 7 -7
v 8 7 -7
v -7 7 -8
v -6 7 -8
v 6 7 -8
v 7 7 -8
v -6 2 8
v -5 2 8
v 0 2 8
v 2 2 8
v 5 2 8
v 6 2 8
v -5 2 7
v -4 2 7
v 0 2 7
v 2 2 7
v -8 2 6
v -6 2 6
v -4 2 6
v -3 2 6
v 5 2 6
v 6 2 6
v 8 2 6
v -8 2 5
v -7 2 5
v 6 2 5
v 8 2 5
v -7 2 4
v -6 2 4
v -1 2 4
v 0 2 4
v 3 2 4
v 5 2 4
v -6 2 3
v -5 2 3
v -4 2 3
v -3 2 3
v -1 2 3
v 0 2 3
v -5 2 2
v -4 2 2
v 3 2 2
v 5 2 2
v -8 2 1
v -7 2 1
v 4 2 -0
v 7 2 -0
v -5 2 -1
v -4 2 -1
v 3 2 -1
v 4 2 -1
v -5 2 -2
v -4 2 -2
v -2 2 -2
v 0 2 -2
v -8 2 -3
v -7 2 -3
v -3 2 -3
v -2 2 -3
v 0 2 -3
v 1 2 -3
v 3 2 -3
v 4 2 -3
v 6 2 -3
v 7 2 -3
v 1 2 -4
v 2 2 -4
v 4 2 -4
v 6 2 -4
v -8 2 -5
v -6 2 -5
v 6 2 -5
v 8 2 -5
v -8 2 -6
v -6 2 -6
v -5 2 -6
v -3 2 -6
v -2 2 -6
v 0 2 -6
v 2 2 -6
v 5 2 -6
v 6 2 -6
v 8 2 -6
v -2 2 -7
v 0 2 -7
v -6 2 -8
v -5 2 -8
v 5 2 -8
v 6 2 -8
v -7 3 8
v -6 3 8
v 6 3 8
v 7 3 8
v -8 3 7
v -7 3 7
v 7 3 7
v 8 3 7
v -8 3 6
v -6 3 6
v 6 3 6
v 8 3 6
v -8 3 -6
v -6 3 -6
v 6 3 -6
v 8 3 -6
v -8 3 -7
v -7 3 -7
v 7 3 -7
v 8 3 -7
v -7 3 -8
v -6 3 -8
v 6 3 -8
v 7 3 -8
v -7 6 8
v -6 6 8
v 6 6 8
v 7 6 8
v -8 6 7
v -7 6 7
v 7 6 7
v 8 6 7
v -8 6 6
v -6 6 6
v 6 6 6
v 8 6 6
v -8 6 -6
v -6 6 -6
v 6 6 -6
v 8 6 -6
v -8 6 -7
v -7 6 -7
v 7 6 -7
v 8 6 -7
v -7 6 -8
v -6 6 -8
v 6 6 -8
v 7 6 -8
v -8 9 8
v -6 9 8
v 6 9 8
v 8 9 8
v -8 9 6
v -6 9 6
v 6 9 6
v 8 9 6
v -8 9 -6
v -6 9 -6
v 6 9 -6
v 8 9 -6
v -8 9 -8
v -6 9 -8
v 6 9 -8
v 8 9 -8

# faces
f 3/5/1 2/5/1 1/5/1
f 4/5/1 2/5/1 3/5/1
f 5/5/1 2/5/1 4/5/1
f 6/5/1 2/5/1 5/5/1
f 7/5/1 2/5/1 6/5/1
f 8/5/1 2/5/1 7/5/1
f 9/5/1 2/5/1 8/5/1
f 10/5/1 2/5/1 9/5/1
f 11/3/1 4/3/1 3/3/1
f 11/1/1 5/1/1 4/1/1
f 12/2/1 6/2/1 5/2/1
f 12/1/1 5/1/1 11/1/1
f 13/1/1 7/1/1 6/1/1
f 13/2/1 6/2/1 12/2/1
f 14/2/1 8/2/1 7/2/1
f 14/1/1 7/1/1 13/1/1
f 15/1/1 9/1/1 8/1/1
f 15/2/1 8/2/1 14/2/1
f 16/3/1 10/3/1 9/3/1
f 16/1/1 9/1/1 15/1/1
f 17/3/1 11/3/1 3/3/1
f 18/3/1 11/3/1 17/3/1
f 19/3/1 11/3/1 18/3/1
f 20/3/1 10/3/1 16/3/1
f 21/3/1 10/3/1 20/3/1
f 22/3/1 10/3/1 21/3/1
f 23/4/1 18/4/1 17/4/1
f 24/4/1 18/4/1 23/4/1
f 27/4/1 22/4/1 21/4/1
f 28/4/1 22/4/1 27/4/1
f 29/3/1 25/3/1 24/3/1
f 29/3/1 24/3/1 23/3/1
f 30/3/1 25/3/1 29/3/1
f 31/3/1 25/3/1 30/3/1
f 32/3/1 28/3/1 27/3/1
f 32/3/1 27/3/1 26/3/1
f 33/3/1 28/3/1 32/3/1
f 34/3/1 28/3/1 33/3/1
f 35/4/1 30/4/1 29/4/1
f 36/4/1 30/4/1 35/4/1
f 39/4/1 34/4/1 33/4/1
f 40/4/1 34/4/1 39/4/1
f 41/3/1 37/3/1 36/3/1
f 41/3/1 36/3/1 35/3/1
f 42/3/1 37/3/1 41/3/1
f 43/3/1 40/3/1 39/3/1
f 43/3/1 39/3/1 38/3/1
f 44/3/1 40/3/1 43/3/1
f 49/3/1 46/3/1 45/3/1
f 50/3/1 46/3/1 49/3/1
f 51/3/1 48/3/1 47/3/1
f 52/3/1 48/3/1 51/3/1
f 57/3/1 54/3/1 53/3/1
f 58/3/1 54/3/1 57/3/1
f 59/3/1 56/3/1 55/3/1
f 60/3/1 56/3/1 59/3/1
f 65/3/1 62/3/1 61/3/1
f 66/3/1 62/3/1 65/3/1
f 67/3/1 64/3/1 63/3/1
f 68/3/1 64/3/1 67/3/1
f 73/4/1 70/4/1 69/4/1
f 74/4/1 70/4/1 73/4/1
f 75/4/1 72/4/1 71/4/1
f 76/4/1 72/4/1 75/4/1
f 81/4/1 78/4/1 77/4/1
f 82/4/1 78/4/1 81/4/1
f 83/4/1 80/4/1 79/4/1
f 84/4/1 80/4/1 83/4/1
f 85/4/2 86/4/2 89/4/2
f 89/4/2 86/4/2 90/4/2
f 87/4/2 88/4/2 91/4/2
f 91/4/2 88/4/2 92/4/2
f 93/4/2 94/4/2 97/4/2
f 97/4/2 94/4/2 98/4/2
f 95/4/2 96/4/2 99/4/2
f 99/4/2 96/4/2 100/4/2
f 101/3/2 102/3/2 105/3/2
f 105/3/2 102/3/2 106/3/2
f 103/3/2 104/3/2 107/3/2
f 107/3/2 104/3/2 108/3/2
f 109/3/2 110/3/2 113/3/2
f 113/3/2 110/3/2 114/3/2
f 111/3/2 112/3/2 115/3/2
f 115/3/2 112/3/2 116/3/2
f 117/3/2 118/3/2 121/3/2
f 121/3/2 118/3/2 122/3/2
f 119/3/2 120/3/2 123/3/2
f 123/3/2 120/3/2 124/3/2
f 125/5/2 126/5/2 127/5/2
f 127/5/2 126/5/2 128/5/2
f 128/5/2 126/5/2 129/5/2
f 129/5/2 126/5/2 130/5/2
f 130/5/2 126/5/2 131/5/2
f 131/5/2 126/5/2 132/5/2
f 127/3/2 128/3/2 133/3/2
f 128/1/2 129/1/2 133/1/2
f 129/2/2 130/2/2 134/2/2
f 133/1/2 129/1/2 134/1/2
f 130/1/2 131/1/2 135/1/2
f 134/2/2 130/2/2 135/2/2
f 131/3/2 132/3/2 136/3/2
f 135/1/2 131/1/2 136/1/2
f 127/3/2 133/3/2 137/3/2
f 137/3/2 133/3/2 138/3/2
f 138/3/2 133/3/2 139/3/2
f 136/3/2 132/3/2 140/3/2
f 140/3/2 132/3/2 141/3/2
f 141/3/2 132/3/2 142/3/2
f 137/4/2 138/4/2 143/4/2
f 143/4/2 138/4/2 144/4/2
f 141/4/2 142/4/2 147/4/2
f 147/4/2 142/4/2 148/4/2
f 144/3/2 145/3/2 149/3/2
f 143/3/2 144/3/2 149/3/2
f 149/3/2 145/3/2 150/3/2
f 150/3/2 145/3/2 151/3/2
f 147/3/2 148/3/2 152/3/2
f 146/3/2 147/3/2 152/3/2
f 152/3/2 148/3/2 153/3/2
f 153/3/2 148/3/2 154/3/2
f 149/4/2 150/4/2 155/4/2
f 155/4/2 150/4/2 156/4/2
f 153/4/2 154/4/2 159/4/2
f 159/4/2 154/4/2 160/4/2
f 156/3/2 157/3/2 161/3/2
f 155/3/2 156/3/2 161/3/2
f 161/3/2 157/3/2 162/3/2
f 159/3/2 160/3/2 163/3/2
f 158/3/2 159/3/2 163/3/2
f 163/3/2 160/3/2 164/3/2
f 172/3/3 167/3/3 166/3/3
f 172/4/3 168/4/3 167/4/3
f 173/3/3 169/3/3 168/3/3
f 173/4/3 168/4/3 172/4/3
f 174/4/3 170/4/3 169/4/3
f 174/3/3 169/3/3 173/3/3
f 175/3/3 171/3/3 170/3/3
f 175/4/3 170/4/3 174/4/3
f 176/5/3 166/5/3 165/5/3
f 176/3/3 172/3/3 166/3/3
f 177/3/3 172/3/3 176/3/3
f 178/3/3 172/3/3 177/3/3
f 179/3/3 174/3/3 173/3/3
f 180/3/3 174/3/3 179/3/3
f 181/3/3 171/3/3 175/3/3
f 182/3/3 171/3/3 181/3/3
f 183/5/3 176/5/3 165/5/3
f 183/1/3 177/1/3 176/1/3
f 184/1/3 177/1/3 183/1/3
f 185/5/3 183/5/3 165/5/3
f 185/2/3 184/2/3 183/2/3
f 186/2/3 184/2/3 185/2/3
f 187/5/3 185/5/3 165/5/3
f 187/1/3 186/1/3 185/1/3
f 188/1/3 186/1/3 187/1/3
f 189/5/3 187/5/3 165/5/3
f 189/2/3 188/2/3 187/2/3
f 190/2/3 188/2/3 189/2/3
f 191/5/3 189/5/3 165/5/3
f 191/1/3 190/1/3 189/1/3
f 192/1/3 190/1/3 191/1/3
f 198/3/3 192/3/3 191/3/3
f 198/3/3 193/3/3 192/3/3
f 199/3/3 195/3/3 194/3/3
f 200/3/3 195/3/3 199/3/3
f 201/3/3 197/3/3 196/3/3
f 202/5/3 191/5/3 165/5/3
f 203/3/3 198/3/3 191/3/3
f 203/5/3 191/5/3 202/5/3
f 204/4/3 199/4/3 198/4/3
f 204/3/3 198/3/3 203/3/3
f 205/3/3 200/3/3 199/3/3
f 205/4/3 199/4/3 204/4/3
f 206/4/3 201/4/3 200/4/3
f 206/3/3 200/3/3 205/3/3
f 207/3/3 197/3/3 201/3/3
f 207/4/3 201/4/3 206/4/3
f 208/3/3 197/3/3 207/3/3
f 215/3/3 210/3/3 209/3/3
f 216/3/3 210/3/3 215/3/3
f 217/3/3 212/3/3 211/3/3
f 218/3/3 212/3/3 217/3/3
f 219/3/3 214/3/3 213/3/3
f 220/3/3 214/3/3 219/3/3
f 227/3/3 222/3/3 221/3/3
f 228/3/3 222/3/3 227/3/3
f 229/3/3 224/3/3 223/3/3
f 230/3/3 224/3/3 229/3/3
f 231/3/3 226/3/3 225/3/3
f 232/3/3 226/3/3 231/3/3
f 237/4/3 234/4/3 233/4/3
f 238/4/3 234/4/3 237/4/3
f 239/4/3 236/4/3 235/4/3
f 240/4/3 236/4/3 239/4/3
f 245/4/3 242/4/3 241/4/3
f 246/4/3 242/4/3 245/4/3
f 247/4/3 244/4/3 243/4/3
f 248/4/3 244/4/3 247/4/3
f 249/4/4 250/4/4 253/4/4
f 253/4/4 250/4/4 254/4/4
f 251/4/4 252/4/4 255/4/4
f 255/4/4 252/4/4 256/4/4
f 257/4/4 258/4/4 261/4/4
f 261/4/4 258/4/4 262/4/4
f 259/4/4 260/4/4 263/4/4
f 263/4/4 260/4/4 264/4/4
f 265/3/4 266/3/4 271/3/4
f 271/3/4 266/3/4 272/3/4
f 267/3/4 268/3/4 273/3/4
f 273/3/4 268/3/4 274/3/4
f 269/3/4 270/3/4 275/3/4
f 275/3/4 270/3/4 276/3/4
f 277/3/4 278/3/4 283/3/4
f 283/3/4 278/3/4 284/3/4
f 279/3/4 280/3/4 285/3/4
f 285/3/4 280/3/4 286/3/4
f 281/3/4 282/3/4 287/3/4
f 287/3/4 282/3/4 288/3/4
f 290/3/4 291/3/4 296/3/4
f 291/4/4 292/4/4 296/4/4
f 292/3/4 293/3/4 297/3/4
f 296/4/4 292/4/4 297/4/4
f 293/4/4 294/4/4 298/4/4
f 297/3/4 293/3/4 298/3/4
f 294/3/4 295/3/4 299/3/4
f 298/4/4 294/4/4 299/4/4
f 289/5/4 290/5/4 300/5/4
f 290/3/4 296/3/4 300/3/4
f 300/3/4 296/3/4 301/3/4
f 301/3/4 296/3/4 302/3/4
f 297/3/4 298/3/4 303/3/4
f 303/3/4 298/3/4 304/3/4
f 299/3/4 295/3/4 305/3/4
f 305/3/4 295/3/4 306/3/4
f 289/5/4 300/5/4 307/5/4
f 300/1/4 301/1/4 307/1/4
f 307/1/4 301/1/4 308/1/4
f 289/5/4 307/5/4 309/5/4
f 307/2/4 308/2/4 309/2/4
f 309/2/4 308/2/4 310/2/4
f 289/5/4 309/5/4 311/5/4
f 309/1/4 310/1/4 311/1/4
f 311/1/4 310/1/4 312/1/4
f 311/3/4 312/3/4 318/3/4
f 312/3/4 313/3/4 318/3/4
f 314/3/4 315/3/4 319/3/4
f 319/3/4 315/3/4 320/3/4
f 316/3/4 317/3/4 321/3/4
f 289/5/4 311/5/4 322/5/4
f 311/3/4 318/3/4 323/3/4
f 322/5/4 311/5/4 323/5/4
f 318/4/4 319/4/4 324/4/4
f 323/3/4 318/3/4 324/3/4
f 319/3/4 320/3/4 325/3/4
f 324/4/4 319/4/4 325/4/4
f 320/4/4 321/4/4 326/4/4
f 325/3/4 320/3/4 326/3/4
f 321/3/4 317/3/4 327/3/4
f 326/4/4 321/4/4 327/4/4
f 327/3/4 317/3/4 328/3/4
f 331/5/5 330/5/5 329/5/5
f 332/5/5 330/5/5 331/5/5
f 338/3/5 334/3/5 333/3/5
f 339/3/5 336/3/5 335/3/5
f 341/3/5 338/3/5 337/3/5
f 342/3/5 334/3/5 338/3/5
f 342/3/5 338/3/5 341/3/5
f 343/3/5 340/3/5 339/3/5
f 343/3/5 339/3/5 335/3/5
f 344/3/5 340/3/5 343/3/5
f 349/3/5 346/3/5 345/3/5
f 350/3/5 346/3/5 349/3/5
f 351/3/5 348/3/5 347/3/5
f 352/3/5 348/3/5 351/3/5
f 353/3/5 346/3/5 350/3/5
f 354/3/5 346/3/5 353/3/5
f 355/3/5 351/3/5 347/3/5
f 356/3/5 351/3/5 355/3/5
f 362/3/5 358/3/5 357/3/5
f 363/3/5 360/3/5 359/3/5
f 365/3/5 362/3/5 361/3/5
f 366/3/5 358/3/5 362/3/5
f 366/3/5 362/3/5 365/3/5
f 367/3/5 364/3/5 363/3/5
f 367/3/5 363/3/5 359/3/5
f 368/3/5 364/3/5 367/3/5
f 373/3/5 370/3/5 369/3/5
f 374/3/5 370/3/5 373/3/5
f 375/3/5 372/3/5 371/3/5
f 376/3/5 372/3/5 375/3/5
f 377/3/5 370/3/5 374/3/5
f 378/3/5 370/3/5 377/3/5
f 379/3/5 375/3/5 371/3/5
f 380/3/5 375/3/5 379/3/5
f 381/1/6 382/1/6 387/1/6
f 382/2/6 383/2/6 387/2/6
f 387/2/6 383/2/6 388/2/6
f 383/1/6 384/1/6 389/1/6
f 388/2/6 383/2/6 389/2/6
f 384/2/6 385/2/6 390/2/6
f 389/1/6 384/1/6 390/1/6
f 387/1/6 388/1/6 392/1/6
f 381/1/6 387/1/6 392/1/6
f 388/2/6 389/2/6 393/2/6
f 389/2/6 390/2/6 393/2/6
f 392/1/6 388/1/6 393/1/6
f 393/2/6 390/2/6 394/2/6
f 385/1/6 386/1/6 395/1/6
f 394/2/6 390/2/6 395/2/6
f 390/2/6 385/2/6 395/2/6
f 395/1/6 386/1/6 396/1/6
f 393/1/6 394/1/6 398/1/6
f 391/1/6 392/1/6 398/1/6
f 392/1/6 393/1/6 398/1/6
f 398/1/6 394/1/6 399/1/6
f 396/1/6 397/1/6 400/1/6
f 395/2/6 396/2/6 400/2/6
f 394/2/6 395/2/6 400/2/6
f 400/1/6 397/1/6 401/1/6
f 399/1/6 394/1/6 402/1/6
f 398/2/6 399/2/6 402/2/6
f 402/1/6 394/1/6 403/1/6
f 400/2/6 401/2/6 404/2/6
f 394/2/6 400/2/6 404/2/6
f 404/2/6 401/2/6 405/2/6
f 405/2/6 401/2/6 406/2/6
f 406/2/6 401/2/6 407/2/6
f 403/1/6 394/1/6 408/1/6
f 402/2/6 403/2/6 408/2/6
f 408/1/6 394/1/6 409/1/6
f 409/1/6 394/1/6 410/1/6
f 394/2/6 404/2/6 411/2/6
f 410/1/6 394/1/6 411/1/6
f 404/1/6 405/1/6 412/1/6
f 411/2/6 404/2/6 412/2/6
f 405/2/6 406/2/6 413/2/6
f 412/1/6 405/1/6 413/1/6
f 409/1/6 410/1/6 414/1/6
f 408/2/6 409/2/6 414/2/6
f 410/2/6 411/2/6 415/2/6
f 414/1/6 410/1/6 415/1/6
f 411/2/6 412/2/6 415/2/6
f 412/2/6 413/2/6 415/2/6
f 406/1/6 407/1/6 416/1/6
f 415/2/6 413/2/6 416/2/6
f 413/2/6 406/2/6 416/2/6
f 407/2/6 401/2/6 417/2/6
f 416/1/6 407/1/6 417/1/6
f 415/2/6 416/2/6 418/2/6
f 414/2/6 415/2/6 418/2/6
f 416/2/6 417/2/6 418/2/6
f 408/2/6 414/2/6 418/2/6
f 402/2/6 408/2/6 418/2/6
f 398/2/6 402/2/6 418/2/6
f 418/2/6 417/2/6 419/2/6
f 419/2/6 417/2/6 420/2/6
f 417/2/6 401/2/6 421/2/6
f 420/2/6 417/2/6 421/2/6
f 419/2/6 420/2/6 422/2/6
f 422/2/6 420/2/6 423/2/6
f 423/2/6 420/2/6 424/2/6
f 420/1/6 421/1/6 425/1/6
f 424/2/6 420/2/6 425/2/6
f 419/2/6 422/2/6 426/2/6
f 422/1/6 423/1/6 426/1/6
f 423/2/6 424/2/6 427/2/6
f 426/1/6 423/1/6 427/1/6
f 427/2/6 424/2/6 428/2/6
f 428/2/6 424/2/6 429/2/6
f 418/1/6 419/1/6 430/1/6
f 419/2/6 426/2/6 431/2/6
f 430/1/6 419/1/6 431/1/6
f 426/2/6 427/2/6 431/2/6
f 427/2/6 428/2/6 431/2/6
f 431/2/6 428/2/6 432/2/6
f 428/1/6 429/1/6 433/1/6
f 432/2/6 428/2/6 433/2/6
f 429/2/6 424/2/6 434/2/6
f 433/1/6 429/1/6 434/1/6
f 434/2/6 424/2/6 435/2/6
f 424/1/6 425/1/6 436/1/6
f 435/2/6 424/2/6 436/2/6
f 425/1/6 421/1/6 437/1/6
f 436/1/6 425/1/6 437/1/6
f 437/1/6 421/1/6 438/1/6
f 421/2/6 401/2/6 439/2/6
f 438/1/6 421/1/6 439/1/6
f 432/1/6 433/1/6 440/1/6
f 435/2/6 436/2/6 440/2/6
f 434/1/6 435/1/6 440/1/6
f 436/2/6 437/2/6 440/2/6
f 433/1/6 434/1/6 440/1/6
f 440/2/6 437/2/6 441/2/6
f 437/1/6 438/1/6 442/1/6
f 441/2/6 437/2/6 442/2/6
f 438/2/6 439/2/6 443/2/6
f 442/1/6 438/1/6 443/1/6
f 430/2/6 431/2/6 444/2/6
f 431/2/6 432/2/6 444/2/6
f 444/2/6 432/2/6 445/2/6
f 441/2/6 442/2/6 446/2/6
f 443/2/6 439/2/6 446/2/6
f 442/2/6 443/2/6 446/2/6
f 439/2/6 401/2/6 447/2/6
f 446/2/6 439/2/6 447/2/6
f 444/1/6 445/1/6 448/1/6
f 445/2/6 432/2/6 449/2/6
f 448/1/6 445/1/6 449/1/6
f 449/2/6 432/2/6 450/2/6
f 440/1/6 441/1/6 451/1/6
f 450/2/6 432/2/6 451/2/6
f 432/1/6 440/1/6 451/1/6
f 451/1/6 441/1/6 452/1/6
f 452/1/6 441/1/6 453/1/6
f 441/2/6 446/2/6 454/2/6
f 453/1/6 441/1/6 454/1/6
f 454/2/6 446/2/6 455/2/6
f 446/1/6 447/1/6 456/1/6
f 455/2/6 446/2/6 456/2/6
f 456/1/6 447/1/6 457/1/6
f 452/1/6 453/1/6 458/1/6
f 450/2/6 451/2/6 458/2/6
f 451/2/6 452/2/6 458/2/6
f 454/2/6 455/2/6 459/2/6
f 458/1/6 453/1/6 459/1/6
f 453/2/6 454/2/6 459/2/6
f 449/1/6 450/1/6 460/1/6
f 450/2/6 458/2/6 461/2/6
f 460/1/6 450/1/6 461/1/6
f 458/2/6 459/2/6 461/2/6
f 459/2/6 455/2/6 462/2/6
f 461/2/6 459/2/6 462/2/6
f 455/1/6 456/1/6 462/1/6
f 462/1/6 456/1/6 463/1/6
f 464/3/6 465/3/6 469/3/6
f 466/3/6 467/3/6 470/3/6
f 468/3/6 469/3/6 472/3/6
f 469/3/6 465/3/6 473/3/6
f 472/3/6 469/3/6 473/3/6
f 470/3/6 471/3/6 474/3/6
f 466/3/6 470/3/6 474/3/6
f 474/3/6 471/3/6 475/3/6
f 476/3/6 477/3/6 480/3/6
f 480/3/6 477/3/6 481/3/6
f 478/3/6 479/3/6 482/3/6
f 482/3/6 479/3/6 483/3/6
f 481/3/6 477/3/6 484/3/6
f 484/3/6 477/3/6 485/3/6
f 478/3/6 482/3/6 486/3/6
f 486/3/6 482/3/6 487/3/6
f 488/3/6 489/3/6 493/3/6
f 490/3/6 491/3/6 494/3/6
f 492/3/6 493/3/6 496/3/6
f 493/3/6 489/3/6 497/3/6
f 496/3/6 493/3/6 497/3/6
f 494/3/6 495/3/6 498/3/6
f 490/3/6 494/3/6 498/3/6
f 498/3/6 495/3/6 499/3/6
f 500/3/6 501/3/6 504/3/6
f 504/3/6 501/3/6 505/3/6
f 502/3/6 503/3/6 506/3/6
f 506/3/6 503/3/6 507/3/6
f 505/3/6 501/3/6 508/3/6
f 508/3/6 501/3/6 509/3/6
f 502/3/6 506/3/6 510/3/6
f 510/3/6 506/3/6 511/3/6
f 512/3/6 513/3/6 516/3/6
f 516/3/6 513/3/6 517/3/6
f 514/3/6 515/3/6 518/3/6
f 518/3/6 515/3/6 519/3/6
f 520/3/6 521/3/6 524/3/6
f 524/3/6 521/3/6 525/3/6
f 522/3/6 523/3/6 526/3/6
f 526/3/6 523/3/6 527/3/6
