# MagicaVoxel @ Ephtracy

# group
g YAVD_Tiles-62

# material
mtllib YAVD_Tiles-62.mtl
usemtl palette

# normals
vn -1 0 0
vn 1 0 0
vn 0 0 1
vn 0 0 -1
vn 0 -1 0
vn 0 1 0

# texcoords
vt 0.169922 0.5
vt 0.173828 0.5
vt 0.185547 0.5
vt 0.220703 0.5
vt 0.224609 0.5
vt 0.228516 0.5
vt 0.244141 0.5
vt 0.248047 0.5
vt 0.994141 0.5

# verts
v -3.5 3 1
v -3.5 3 -1
v -3.5 5 1
v -3.5 5 -1
v -3.5 8 1
v -3.5 8 -1
v -3.5 10 1
v -3.5 10 -1
v -2.5 5 1
v -2.5 5 -1
v -2.5 6 1
v -2.5 6 -1
v -2.5 7 2
v -2.5 7 -2
v -2.5 8 1
v -2.5 8 -1
v -2.5 10 1
v -2.5 10 -1
v -2.5 11 2
v -2.5 11 -2
v -1.5 0 2
v -1.5 0 -2
v -1.5 2 2
v -1.5 2 -2
v -1.5 2 -3
v -1.5 3 2
v -1.5 3 1
v -1.5 3 -1
v -1.5 3 -2
v -1.5 4 -2
v -1.5 4 -3
v -1.5 5 -2
v -1.5 5 -3
v -1.5 6 2
v -1.5 6 1
v -1.5 6 -1
v -1.5 6 -2
v -1.5 7 1
v -1.5 7 -1
v -1.5 8 3
v -1.5 8 2
v -1.5 8 -2
v -1.5 8 -3
v -1.5 10 3
v -1.5 10 2
v -1.5 10 -2
v -1.5 10 -3
v -1.5 11 1
v -1.5 11 -1
v -1.5 12 1
v -1.5 12 -1
v -0.5 4 3
v -0.5 4 2
v -0.5 5 3
v -0.5 5 2
v 1.5 5 3
v 1.5 5 2
v 1.5 6 3
v 1.5 6 2
v 2.5 6 3
v 2.5 6 2
v 2.5 7 3
v 2.5 7 2
v -0.5 3 -2
v -0.5 3 -3
v -0.5 4 -2
v -0.5 4 -3
v -0.5 5 -2
v -0.5 5 -3
v -0.5 8 3
v -0.5 8 2
v -0.5 8 -2
v -0.5 8 -3
v -0.5 9 2
v -0.5 9 -2
v -0.5 10 3
v -0.5 10 2
v -0.5 10 -2
v -0.5 10 -3
v 0.5 0 2
v 0.5 0 1
v 0.5 0 -1
v 0.5 0 -2
v 0.5 1 1
v 0.5 1 -1
v 0.5 2 2
v 0.5 2 -2
v 0.5 2 -3
v 0.5 3 2
v 0.5 3 1
v 0.5 3 -1
v 0.5 3 -2
v 0.5 3 -3
v 0.5 4 2
v 0.5 5 2
v 0.5 6 2
v 0.5 6 1
v 0.5 6 -1
v 0.5 6 -2
v 0.5 7 1
v 0.5 7 -1
v 1.5 0 1
v 1.5 0 -1
v 1.5 1 1
v 1.5 1 -1
v 1.5 4 3
v 1.5 4 2
v 1.5 5 3
v 1.5 5 2
v 1.5 7 2
v 1.5 7 1
v 1.5 7 -1
v 1.5 7 -2
v 1.5 8 2
v 1.5 8 1
v 1.5 8 -1
v 1.5 8 -2
v 1.5 10 2
v 1.5 10 1
v 1.5 10 -1
v 1.5 10 -2
v 1.5 11 2
v 1.5 11 1
v 1.5 11 -1
v 1.5 11 -2
v 1.5 12 1
v 1.5 12 -1
v 2.5 5 3
v 2.5 5 2
v 2.5 6 3
v 2.5 6 2
v 2.5 10 1
v 2.5 10 -1
v 2.5 11 1
v 2.5 11 -1
v 3.5 6 3
v 3.5 6 2
v 3.5 7 3
v 3.5 7 2
v -1.5 8 3
v -1.5 10 3
v -0.5 4 3
v -0.5 5 3
v -0.5 8 3
v -0.5 10 3
v 0.5 4 3
v 0.5 5 3
v 1.5 4 3
v 1.5 5 3
v 1.5 6 3
v 2.5 5 3
v 2.5 6 3
v 2.5 7 3
v 3.5 6 3
v 3.5 7 3
v -2.5 7 2
v -2.5 11 2
v -1.5 0 2
v -1.5 2 2
v -1.5 3 2
v -1.5 6 2
v -1.5 7 2
v -1.5 8 2
v -1.5 10 2
v -0.5 4 2
v -0.5 5 2
v -0.5 8 2
v -0.5 9 2
v -0.5 10 2
v 0.5 0 2
v 0.5 2 2
v 0.5 3 2
v 0.5 4 2
v 0.5 5 2
v 0.5 6 2
v 0.5 8 2
v 0.5 9 2
v 0.5 10 2
v 1.5 7 2
v 1.5 8 2
v 1.5 10 2
v 1.5 11 2
v -3.5 3 1
v -3.5 5 1
v -3.5 8 1
v -3.5 10 1
v -2.5 5 1
v -2.5 6 1
v -2.5 8 1
v -2.5 10 1
v -1.5 3 1
v -1.5 6 1
v -1.5 7 1
v -1.5 11 1
v -1.5 12 1
v 0.5 0 1
v 0.5 1 1
v 0.5 6 1
v 0.5 7 1
v 1.5 0 1
v 1.5 1 1
v 1.5 10 1
v 1.5 11 1
v 1.5 12 1
v 2.5 10 1
v 2.5 11 1
v 0.5 4 2
v 0.5 5 2
v 1.5 4 2
v 1.5 5 2
v 1.5 6 2
v 2.5 5 2
v 2.5 6 2
v 2.5 7 2
v 3.5 6 2
v 3.5 7 2
v -3.5 3 -1
v -3.5 5 -1
v -3.5 8 -1
v -3.5 10 -1
v -2.5 5 -1
v -2.5 6 -1
v -2.5 8 -1
v -2.5 10 -1
v -1.5 3 -1
v -1.5 6 -1
v -1.5 7 -1
v -1.5 11 -1
v -1.5 12 -1
v 0.5 0 -1
v 0.5 1 -1
v 0.5 6 -1
v 0.5 7 -1
v 1.5 0 -1
v 1.5 1 -1
v 1.5 10 -1
v 1.5 11 -1
v 1.5 12 -1
v 2.5 10 -1
v 2.5 11 -1
v -2.5 7 -2
v -2.5 11 -2
v -1.5 0 -2
v -1.5 2 -2
v -1.5 5 -2
v -1.5 6 -2
v -1.5 7 -2
v -1.5 8 -2
v -1.5 10 -2
v -0.5 2 -2
v -0.5 3 -2
v -0.5 4 -2
v -0.5 5 -2
v -0.5 8 -2
v -0.5 9 -2
v -0.5 10 -2
v 0.5 0 -2
v 0.5 2 -2
v 0.5 3 -2
v 0.5 6 -2
v 0.5 8 -2
v 0.5 9 -2
v 0.5 10 -2
v 1.5 7 -2
v 1.5 8 -2
v 1.5 10 -2
v 1.5 11 -2
v -1.5 2 -3
v -1.5 4 -3
v -1.5 5 -3
v -1.5 8 -3
v -1.5 10 -3
v -0.5 2 -3
v -0.5 3 -3
v -0.5 4 -3
v -0.5 5 -3
v -0.5 8 -3
v -0.5 10 -3
v 0.5 2 -3
v 0.5 3 -3
v -1.5 0 2
v 0.5 0 2
v 0.5 0 1
v 1.5 0 1
v 0.5 0 -1
v 1.5 0 -1
v -1.5 0 -2
v 0.5 0 -2
v -1.5 2 -2
v -0.5 2 -2
v 0.5 2 -2
v -1.5 2 -3
v -0.5 2 -3
v 0.5 2 -3
v -3.5 3 1
v -1.5 3 1
v -3.5 3 -1
v -1.5 3 -1
v -0.5 4 3
v 0.5 4 3
v 1.5 4 3
v -0.5 4 2
v 0.5 4 2
v 1.5 4 2
v 1.5 5 3
v 2.5 5 3
v 1.5 5 2
v 2.5 5 2
v 2.5 6 3
v 3.5 6 3
v 2.5 6 2
v 3.5 6 2
v -2.5 7 2
v -1.5 7 2
v 1.5 7 2
v -1.5 7 1
v 0.5 7 1
v 1.5 7 1
v -1.5 7 -1
v 0.5 7 -1
v 1.5 7 -1
v -2.5 7 -2
v -1.5 7 -2
v 1.5 7 -2
v -1.5 8 3
v -0.5 8 3
v -1.5 8 2
v -0.5 8 2
v -3.5 8 1
v -2.5 8 1
v -3.5 8 -1
v -2.5 8 -1
v -1.5 8 -2
v -0.5 8 -2
v -1.5 8 -3
v -0.5 8 -3
v 1.5 10 1
v 2.5 10 1
v 1.5 10 -1
v 2.5 10 -1
v 0.5 1 1
v 1.5 1 1
v 0.5 1 -1
v 1.5 1 -1
v -0.5 3 -2
v 0.5 3 -2
v -0.5 3 -3
v 0.5 3 -3
v -0.5 5 3
v 0.5 5 3
v 1.5 5 3
v -0.5 5 2
v 0.5 5 2
v 1.5 5 2
v -3.5 5 1
v -2.5 5 1
v -3.5 5 -1
v -2.5 5 -1
v -1.5 5 -2
v -0.5 5 -2
v -1.5 5 -3
v -0.5 5 -3
v 1.5 6 3
v 2.5 6 3
v -1.5 6 2
v 0.5 6 2
v 1.5 6 2
v 2.5 6 2
v -2.5 6 1
v -1.5 6 1
v 0.5 6 1
v -2.5 6 -1
v -1.5 6 -1
v 0.5 6 -1
v -1.5 6 -2
v 0.5 6 -2
v 2.5 7 3
v 3.5 7 3
v 2.5 7 2
v 3.5 7 2
v -1.5 10 3
v -0.5 10 3
v -1.5 10 2
v -0.5 10 2
v -3.5 10 1
v -2.5 10 1
v -3.5 10 -1
v -2.5 10 -1
v -1.5 10 -2
v -0.5 10 -2
v -1.5 10 -3
v -0.5 10 -3
v -2.5 11 2
v 1.5 11 2
v -1.5 11 1
v 1.5 11 1
v 2.5 11 1
v -1.5 11 -1
v 1.5 11 -1
v 2.5 11 -1
v -2.5 11 -2
v 1.5 11 -2
v -1.5 12 1
v 1.5 12 1
v -1.5 12 -1
v 1.5 12 -1

# faces
f 3/5/1 2/5/1 1/5/1
f 4/5/1 2/5/1 3/5/1
f 7/6/1 6/6/1 5/6/1
f 8/6/1 6/6/1 7/6/1
f 11/5/1 10/5/1 9/5/1
f 12/5/1 10/5/1 11/5/1
f 15/6/1 14/6/1 13/6/1
f 16/6/1 14/6/1 15/6/1
f 17/6/1 15/6/1 13/6/1
f 18/6/1 14/6/1 16/6/1
f 19/6/1 17/6/1 13/6/1
f 19/6/1 18/6/1 17/6/1
f 20/6/1 14/6/1 18/6/1
f 20/6/1 18/6/1 19/6/1
f 23/5/1 22/5/1 21/5/1
f 24/5/1 22/5/1 23/5/1
f 26/4/1 24/4/1 23/4/1
f 27/4/1 24/4/1 26/4/1
f 28/4/1 24/4/1 27/4/1
f 29/1/1 25/1/1 24/1/1
f 29/4/1 24/4/1 28/4/1
f 30/1/1 25/1/1 29/1/1
f 30/1/1 29/1/1 28/1/1
f 31/1/1 25/1/1 30/1/1
f 32/1/1 30/1/1 28/1/1
f 32/2/1 31/2/1 30/2/1
f 33/2/1 31/2/1 32/2/1
f 34/1/1 27/1/1 26/1/1
f 35/1/1 27/1/1 34/1/1
f 36/1/1 32/1/1 28/1/1
f 37/1/1 32/1/1 36/1/1
f 38/3/1 36/3/1 35/3/1
f 39/3/1 36/3/1 38/3/1
f 44/3/1 41/3/1 40/3/1
f 45/3/1 41/3/1 44/3/1
f 46/3/1 43/3/1 42/3/1
f 47/3/1 43/3/1 46/3/1
f 50/6/1 49/6/1 48/6/1
f 51/6/1 49/6/1 50/6/1
f 54/2/1 53/2/1 52/2/1
f 55/2/1 53/2/1 54/2/1
f 58/1/1 57/1/1 56/1/1
f 59/1/1 57/1/1 58/1/1
f 62/3/1 61/3/1 60/3/1
f 63/3/1 61/3/1 62/3/1
f 64/1/2 65/1/2 66/1/2
f 66/1/2 65/1/2 67/1/2
f 66/2/2 67/2/2 68/2/2
f 68/2/2 67/2/2 69/2/2
f 70/3/2 71/3/2 74/3/2
f 72/3/2 73/3/2 75/3/2
f 70/3/2 74/3/2 76/3/2
f 76/3/2 74/3/2 77/3/2
f 75/3/2 73/3/2 78/3/2
f 78/3/2 73/3/2 79/3/2
f 80/5/2 81/5/2 84/5/2
f 82/5/2 83/5/2 85/5/2
f 80/5/2 84/5/2 86/5/2
f 84/5/2 85/5/2 86/5/2
f 85/5/2 83/5/2 87/5/2
f 86/5/2 85/5/2 87/5/2
f 86/4/2 87/4/2 89/4/2
f 89/4/2 87/4/2 90/4/2
f 90/4/2 87/4/2 91/4/2
f 87/3/2 88/3/2 92/3/2
f 91/4/2 87/4/2 92/4/2
f 92/3/2 88/3/2 93/3/2
f 89/1/2 90/1/2 94/1/2
f 94/1/2 90/1/2 95/1/2
f 95/1/2 90/1/2 96/1/2
f 90/2/2 91/2/2 97/2/2
f 96/1/2 90/1/2 97/1/2
f 91/1/2 92/1/2 98/1/2
f 97/2/2 91/2/2 98/2/2
f 98/1/2 92/1/2 99/1/2
f 97/3/2 98/3/2 100/3/2
f 100/3/2 98/3/2 101/3/2
f 102/5/2 103/5/2 104/5/2
f 104/5/2 103/5/2 105/5/2
f 106/1/2 107/1/2 108/1/2
f 108/1/2 107/1/2 109/1/2
f 110/3/2 111/3/2 114/3/2
f 111/7/2 112/7/2 115/7/2
f 114/3/2 111/3/2 115/3/2
f 112/3/2 113/3/2 116/3/2
f 115/7/2 112/7/2 116/7/2
f 116/3/2 113/3/2 117/3/2
f 114/9/2 115/9/2 118/9/2
f 115/3/2 116/3/2 119/3/2
f 118/9/2 115/9/2 119/9/2
f 116/9/2 117/9/2 120/9/2
f 119/3/2 116/3/2 120/3/2
f 120/9/2 117/9/2 121/9/2
f 118/6/2 119/6/2 122/6/2
f 122/6/2 119/6/2 123/6/2
f 120/6/2 121/6/2 124/6/2
f 124/6/2 121/6/2 125/6/2
f 123/6/2 124/6/2 126/6/2
f 126/6/2 124/6/2 127/6/2
f 128/1/2 129/1/2 130/1/2
f 130/1/2 129/1/2 131/1/2
f 132/6/2 133/6/2 134/6/2
f 134/6/2 133/6/2 135/6/2
f 136/3/2 137/3/2 138/3/2
f 138/3/2 137/3/2 139/3/2
f 144/3/3 141/3/3 140/3/3
f 145/3/3 141/3/3 144/3/3
f 146/2/3 143/2/3 142/2/3
f 147/2/3 143/2/3 146/2/3
f 148/1/3 147/1/3 146/1/3
f 149/1/3 147/1/3 148/1/3
f 151/1/3 150/1/3 149/1/3
f 152/1/3 150/1/3 151/1/3
f 154/3/3 153/3/3 152/3/3
f 155/3/3 153/3/3 154/3/3
f 162/6/3 157/6/3 156/6/3
f 163/6/3 157/6/3 162/6/3
f 164/6/3 157/6/3 163/6/3
f 165/1/3 161/1/3 160/1/3
f 166/1/3 161/1/3 165/1/3
f 167/3/3 163/3/3 162/3/3
f 169/6/3 157/6/3 164/6/3
f 170/5/3 159/5/3 158/5/3
f 171/4/3 160/4/3 159/4/3
f 171/5/3 159/5/3 170/5/3
f 172/1/3 165/1/3 160/1/3
f 172/4/3 160/4/3 171/4/3
f 173/1/3 165/1/3 172/1/3
f 174/1/3 161/1/3 166/1/3
f 175/1/3 161/1/3 174/1/3
f 176/3/3 168/3/3 167/3/3
f 176/3/3 167/3/3 162/3/3
f 177/6/3 169/6/3 168/6/3
f 177/3/3 168/3/3 176/3/3
f 178/6/3 157/6/3 169/6/3
f 178/6/3 169/6/3 177/6/3
f 179/3/3 176/3/3 162/3/3
f 180/9/3 178/9/3 177/9/3
f 180/3/3 176/3/3 179/3/3
f 180/9/3 177/9/3 176/9/3
f 181/6/3 157/6/3 178/6/3
f 181/9/3 178/9/3 180/9/3
f 182/6/3 157/6/3 181/6/3
f 187/5/3 184/5/3 183/5/3
f 189/6/3 186/6/3 185/6/3
f 190/6/3 186/6/3 189/6/3
f 191/5/3 188/5/3 187/5/3
f 191/5/3 187/5/3 183/5/3
f 192/5/3 188/5/3 191/5/3
f 198/3/3 193/3/3 192/3/3
f 199/3/3 193/3/3 198/3/3
f 200/5/3 197/5/3 196/5/3
f 201/5/3 197/5/3 200/5/3
f 203/6/3 195/6/3 194/6/3
f 204/6/3 195/6/3 203/6/3
f 205/6/3 203/6/3 202/6/3
f 206/6/3 203/6/3 205/6/3
f 207/1/4 208/1/4 209/1/4
f 209/1/4 208/1/4 210/1/4
f 210/1/4 211/1/4 212/1/4
f 212/1/4 211/1/4 213/1/4
f 213/3/4 214/3/4 215/3/4
f 215/3/4 214/3/4 216/3/4
f 217/5/4 218/5/4 221/5/4
f 219/6/4 220/6/4 223/6/4
f 223/6/4 220/6/4 224/6/4
f 221/5/4 222/5/4 225/5/4
f 217/5/4 221/5/4 225/5/4
f 225/5/4 222/5/4 226/5/4
f 226/3/4 227/3/4 232/3/4
f 232/3/4 227/3/4 233/3/4
f 230/5/4 231/5/4 234/5/4
f 234/5/4 231/5/4 235/5/4
f 228/6/4 229/6/4 237/6/4
f 237/6/4 229/6/4 238/6/4
f 236/6/4 237/6/4 239/6/4
f 239/6/4 237/6/4 240/6/4
f 241/6/4 242/6/4 247/6/4
f 247/6/4 242/6/4 248/6/4
f 248/6/4 242/6/4 249/6/4
f 243/5/4 244/5/4 250/5/4
f 245/1/4 246/1/4 253/1/4
f 247/3/4 248/3/4 254/3/4
f 249/6/4 242/6/4 256/6/4
f 243/5/4 250/5/4 257/5/4
f 257/5/4 250/5/4 258/5/4
f 251/1/4 252/1/4 259/1/4
f 252/1/4 253/1/4 259/1/4
f 253/1/4 246/1/4 260/1/4
f 259/1/4 253/1/4 260/1/4
f 254/3/4 255/3/4 261/3/4
f 247/3/4 254/3/4 261/3/4
f 255/6/4 256/6/4 262/6/4
f 261/3/4 255/3/4 262/3/4
f 256/6/4 242/6/4 263/6/4
f 262/6/4 256/6/4 263/6/4
f 247/3/4 261/3/4 264/3/4
f 262/9/4 263/9/4 265/9/4
f 264/3/4 261/3/4 265/3/4
f 261/9/4 262/9/4 265/9/4
f 263/6/4 242/6/4 266/6/4
f 265/9/4 263/9/4 266/9/4
f 266/6/4 242/6/4 267/6/4
f 268/1/4 269/1/4 273/1/4
f 273/1/4 269/1/4 274/1/4
f 269/2/4 270/2/4 275/2/4
f 274/1/4 269/1/4 275/1/4
f 275/2/4 270/2/4 276/2/4
f 271/3/4 272/3/4 277/3/4
f 277/3/4 272/3/4 278/3/4
f 273/3/4 274/3/4 279/3/4
f 279/3/4 274/3/4 280/3/4
f 283/5/5 282/5/5 281/5/5
f 285/5/5 283/5/5 281/5/5
f 285/5/5 284/5/5 283/5/5
f 286/5/5 284/5/5 285/5/5
f 287/5/5 285/5/5 281/5/5
f 288/5/5 285/5/5 287/5/5
f 292/1/5 290/1/5 289/1/5
f 293/3/5 291/3/5 290/3/5
f 293/1/5 290/1/5 292/1/5
f 294/3/5 291/3/5 293/3/5
f 297/5/5 296/5/5 295/5/5
f 298/5/5 296/5/5 297/5/5
f 302/2/5 300/2/5 299/2/5
f 303/1/5 301/1/5 300/1/5
f 303/2/5 300/2/5 302/2/5
f 304/1/5 301/1/5 303/1/5
f 307/1/5 306/1/5 305/1/5
f 308/1/5 306/1/5 307/1/5
f 311/3/5 310/3/5 309/3/5
f 312/3/5 310/3/5 311/3/5
f 316/6/5 314/6/5 313/6/5
f 316/3/5 315/3/5 314/3/5
f 317/3/5 315/3/5 316/3/5
f 318/3/5 315/3/5 317/3/5
f 319/6/5 316/6/5 313/6/5
f 320/7/5 318/7/5 317/7/5
f 321/7/5 318/7/5 320/7/5
f 322/6/5 319/6/5 313/6/5
f 323/3/5 320/3/5 319/3/5
f 323/6/5 319/6/5 322/6/5
f 323/3/5 321/3/5 320/3/5
f 324/3/5 321/3/5 323/3/5
f 327/3/5 326/3/5 325/3/5
f 328/3/5 326/3/5 327/3/5
f 331/6/5 330/6/5 329/6/5
f 332/6/5 330/6/5 331/6/5
f 335/3/5 334/3/5 333/3/5
f 336/3/5 334/3/5 335/3/5
f 339/6/5 338/6/5 337/6/5
f 340/6/5 338/6/5 339/6/5
f 341/5/6 342/5/6 343/5/6
f 343/5/6 342/5/6 344/5/6
f 345/3/6 346/3/6 347/3/6
f 347/3/6 346/3/6 348/3/6
f 349/2/6 350/2/6 352/2/6
f 350/1/6 351/1/6 353/1/6
f 352/2/6 350/2/6 353/2/6
f 353/1/6 351/1/6 354/1/6
f 355/5/6 356/5/6 357/5/6
f 357/5/6 356/5/6 358/5/6
f 359/2/6 360/2/6 361/2/6
f 361/2/6 360/2/6 362/2/6
f 363/1/6 364/1/6 367/1/6
f 367/1/6 364/1/6 368/1/6
f 365/1/6 366/1/6 370/1/6
f 370/1/6 366/1/6 371/1/6
f 369/5/6 370/5/6 372/5/6
f 372/5/6 370/5/6 373/5/6
f 373/1/6 374/1/6 375/1/6
f 375/1/6 374/1/6 376/1/6
f 377/3/6 378/3/6 379/3/6
f 379/3/6 378/3/6 380/3/6
f 381/3/6 382/3/6 383/3/6
f 383/3/6 382/3/6 384/3/6
f 385/6/6 386/6/6 387/6/6
f 387/6/6 386/6/6 388/6/6
f 389/3/6 390/3/6 391/3/6
f 391/3/6 390/3/6 392/3/6
f 393/6/6 394/6/6 395/6/6
f 395/6/6 394/6/6 396/6/6
f 393/6/6 395/6/6 398/6/6
f 396/6/6 397/6/6 399/6/6
f 399/6/6 397/6/6 400/6/6
f 393/6/6 398/6/6 401/6/6
f 398/6/6 399/6/6 401/6/6
f 401/6/6 399/6/6 402/6/6
f 403/6/6 404/6/6 405/6/6
f 405/6/6 404/6/6 406/6/6
