# MagicaVoxel @ Ephtracy

# group
g YAVD_Tiles-42

# material
mtllib YAVD_Tiles-42.mtl
usemtl palette

# normals
vn -1 0 0
vn 1 0 0
vn 0 0 1
vn 0 0 -1
vn 0 -1 0
vn 0 1 0

# texcoords
vt 0.224609 0.5
vt 0.310547 0.5
vt 0.935547 0.5
vt 0.990234 0.5
vt 0.994141 0.5

# verts
v -8 0 8
v -8 0 -8
v -8 1 8
v -8 1 6
v -8 1 5
v -8 1 1
v -8 1 -3
v -8 1 -8
v -8 2 6
v -8 2 5
v -8 2 1
v -8 2 -3
v -8 2 -8
v -8 3 8
v -8 3 7
v -8 3 6
v -8 4 8
v -8 4 7
v -8 4 6
v -8 6 8
v -8 6 7
v -8 6 6
v -8 7 8
v -8 7 7
v -8 7 6
v -8 9 8
v -8 9 6
v -7 3 8
v -7 3 7
v -7 4 8
v -7 4 7
v -7 6 8
v -7 6 7
v -7 7 8
v -7 7 7
v -6 2 8
v -6 2 6
v -6 3 8
v -6 3 6
v -6 4 8
v -6 4 6
v -6 6 8
v -6 6 6
v -6 7 8
v -6 7 6
v -6 9 8
v -6 9 6
v 8 0 8
v 8 0 -8
v 8 1 8
v 8 1 4
v 8 1 -8
v 8 2 8
v 8 2 4
v 8 2 -8
v -8 0 8
v -8 1 8
v -8 3 8
v -8 4 8
v -8 6 8
v -8 7 8
v -8 9 8
v -7 3 8
v -7 4 8
v -7 6 8
v -7 7 8
v -6 1 8
v -6 2 8
v -6 3 8
v -6 4 8
v -6 6 8
v -6 7 8
v -6 9 8
v -5 1 8
v -5 2 8
v 0 1 8
v 0 2 8
v 2 1 8
v 2 2 8
v 4 1 8
v 4 2 8
v 8 0 8
v 8 1 8
v 8 2 8
v -8 3 7
v -8 4 7
v -8 6 7
v -8 7 7
v -7 3 7
v -7 4 7
v -7 6 7
v -7 7 7
v -8 2 6
v -8 3 6
v -8 4 6
v -8 6 6
v -8 7 6
v -8 9 6
v -6 2 6
v -6 3 6
v -6 4 6
v -6 6 6
v -6 7 6
v -6 9 6
v -8 0 -8
v -8 1 -8
v -8 2 -8
v 8 0 -8
v 8 1 -8
v 8 2 -8
v -8 0 8
v 8 0 8
v -8 0 -8
v 8 0 -8
v -7 4 8
v -6 4 8
v -8 4 7
v -7 4 7
v -8 4 6
v -6 4 6
v -7 7 8
v -6 7 8
v -8 7 7
v -7 7 7
v -8 7 6
v -6 7 6
v -6 2 8
v -5 2 8
v 0 2 8
v 2 2 8
v 4 2 8
v 8 2 8
v -5 2 7
v -4 2 7
v 0 2 7
v 2 2 7
v -8 2 6
v -6 2 6
v -4 2 6
v -3 2 6
v 4 2 6
v 5 2 6
v -8 2 5
v -7 2 5
v 5 2 5
v 6 2 5
v -7 2 4
v -6 2 4
v -5 2 4
v -3 2 4
v -1 2 4
v 0 2 4
v 3 2 4
v 4 2 4
v 6 2 4
v 8 2 4
v -6 2 3
v -5 2 3
v -1 2 3
v 0 2 3
v 4 2 3
v 5 2 3
v 3 2 2
v 5 2 2
v -8 2 1
v -7 2 1
v 4 2 -0
v 5 2 -0
v -5 2 -1
v -4 2 -1
v 3 2 -1
v 4 2 -1
v 5 2 -1
v 6 2 -1
v -5 2 -2
v -4 2 -2
v -2 2 -2
v 0 2 -2
v 6 2 -2
v 7 2 -2
v -8 2 -3
v -7 2 -3
v -3 2 -3
v -2 2 -3
v 0 2 -3
v 1 2 -3
v 3 2 -3
v 4 2 -3
v 6 2 -3
v 7 2 -3
v -5 2 -4
v -3 2 -4
v 1 2 -4
v 2 2 -4
v 4 2 -4
v 6 2 -4
v -6 2 -5
v -5 2 -5
v -6 2 -6
v -4 2 -6
v 0 2 -6
v 2 2 -6
v -4 2 -7
v 0 2 -7
v -8 2 -8
v 8 2 -8
v -7 3 8
v -6 3 8
v -8 3 7
v -7 3 7
v -8 3 6
v -6 3 6
v -7 6 8
v -6 6 8
v -8 6 7
v -7 6 7
v -8 6 6
v -6 6 6
v -8 9 8
v -6 9 8
v -8 9 6
v -6 9 6

# faces
f 3/5/1 2/5/1 1/5/1
f 4/5/1 2/5/1 3/5/1
f 5/5/1 2/5/1 4/5/1
f 6/5/1 2/5/1 5/5/1
f 7/5/1 2/5/1 6/5/1
f 8/5/1 2/5/1 7/5/1
f 9/3/1 4/3/1 3/3/1
f 9/1/1 5/1/1 4/1/1
f 10/2/1 6/2/1 5/2/1
f 10/1/1 5/1/1 9/1/1
f 11/1/1 7/1/1 6/1/1
f 11/2/1 6/2/1 10/2/1
f 12/2/1 8/2/1 7/2/1
f 12/1/1 7/1/1 11/1/1
f 13/2/1 8/2/1 12/2/1
f 14/3/1 9/3/1 3/3/1
f 15/3/1 9/3/1 14/3/1
f 16/3/1 9/3/1 15/3/1
f 17/4/1 15/4/1 14/4/1
f 18/4/1 15/4/1 17/4/1
f 20/3/1 18/3/1 17/3/1
f 20/3/1 19/3/1 18/3/1
f 21/3/1 19/3/1 20/3/1
f 22/3/1 19/3/1 21/3/1
f 23/4/1 21/4/1 20/4/1
f 24/4/1 21/4/1 23/4/1
f 26/3/1 24/3/1 23/3/1
f 26/3/1 25/3/1 24/3/1
f 27/3/1 25/3/1 26/3/1
f 28/4/2 29/4/2 30/4/2
f 30/4/2 29/4/2 31/4/2
f 32/4/2 33/4/2 34/4/2
f 34/4/2 33/4/2 35/4/2
f 36/3/2 37/3/2 38/3/2
f 38/3/2 37/3/2 39/3/2
f 40/3/2 41/3/2 42/3/2
f 42/3/2 41/3/2 43/3/2
f 44/3/2 45/3/2 46/3/2
f 46/3/2 45/3/2 47/3/2
f 48/5/2 49/5/2 50/5/2
f 50/5/2 49/5/2 51/5/2
f 51/5/2 49/5/2 52/5/2
f 50/1/2 51/1/2 53/1/2
f 51/2/2 52/2/2 54/2/2
f 53/1/2 51/1/2 54/1/2
f 54/2/2 52/2/2 55/2/2
f 63/3/3 58/3/3 57/3/3
f 63/4/3 59/4/3 58/4/3
f 64/3/3 60/3/3 59/3/3
f 64/4/3 59/4/3 63/4/3
f 65/4/3 61/4/3 60/4/3
f 65/3/3 60/3/3 64/3/3
f 66/3/3 62/3/3 61/3/3
f 66/4/3 61/4/3 65/4/3
f 67/5/3 57/5/3 56/5/3
f 67/3/3 63/3/3 57/3/3
f 68/3/3 63/3/3 67/3/3
f 69/3/3 63/3/3 68/3/3
f 70/3/3 65/3/3 64/3/3
f 71/3/3 65/3/3 70/3/3
f 72/3/3 62/3/3 66/3/3
f 73/3/3 62/3/3 72/3/3
f 74/5/3 67/5/3 56/5/3
f 74/1/3 68/1/3 67/1/3
f 75/1/3 68/1/3 74/1/3
f 76/5/3 74/5/3 56/5/3
f 76/2/3 75/2/3 74/2/3
f 77/2/3 75/2/3 76/2/3
f 78/5/3 76/5/3 56/5/3
f 78/1/3 77/1/3 76/1/3
f 79/1/3 77/1/3 78/1/3
f 80/5/3 78/5/3 56/5/3
f 80/2/3 79/2/3 78/2/3
f 81/2/3 79/2/3 80/2/3
f 82/5/3 80/5/3 56/5/3
f 83/1/3 81/1/3 80/1/3
f 83/5/3 80/5/3 82/5/3
f 84/1/3 81/1/3 83/1/3
f 85/4/4 86/4/4 89/4/4
f 89/4/4 86/4/4 90/4/4
f 87/4/4 88/4/4 91/4/4
f 91/4/4 88/4/4 92/4/4
f 93/3/4 94/3/4 99/3/4
f 99/3/4 94/3/4 100/3/4
f 95/3/4 96/3/4 101/3/4
f 101/3/4 96/3/4 102/3/4
f 97/3/4 98/3/4 103/3/4
f 103/3/4 98/3/4 104/3/4
f 105/5/4 106/5/4 108/5/4
f 106/2/4 107/2/4 109/2/4
f 108/5/4 106/5/4 109/5/4
f 109/2/4 107/2/4 110/2/4
f 113/5/5 112/5/5 111/5/5
f 114/5/5 112/5/5 113/5/5
f 118/3/5 116/3/5 115/3/5
f 119/3/5 118/3/5 117/3/5
f 120/3/5 116/3/5 118/3/5
f 120/3/5 118/3/5 119/3/5
f 124/3/5 122/3/5 121/3/5
f 125/3/5 124/3/5 123/3/5
f 126/3/5 122/3/5 124/3/5
f 126/3/5 124/3/5 125/3/5
f 127/1/6 128/1/6 133/1/6
f 128/2/6 129/2/6 133/2/6
f 133/2/6 129/2/6 134/2/6
f 129/1/6 130/1/6 135/1/6
f 134/2/6 129/2/6 135/2/6
f 130/2/6 131/2/6 136/2/6
f 135/1/6 130/1/6 136/1/6
f 133/1/6 134/1/6 138/1/6
f 127/1/6 133/1/6 138/1/6
f 134/2/6 135/2/6 139/2/6
f 135/2/6 136/2/6 139/2/6
f 138/1/6 134/1/6 139/1/6
f 139/2/6 136/2/6 140/2/6
f 131/1/6 132/1/6 141/1/6
f 140/2/6 136/2/6 141/2/6
f 136/2/6 131/2/6 141/2/6
f 141/1/6 132/1/6 142/1/6
f 139/1/6 140/1/6 143/1/6
f 137/1/6 138/1/6 143/1/6
f 138/1/6 139/1/6 143/1/6
f 143/1/6 140/1/6 144/1/6
f 142/1/6 132/1/6 145/1/6
f 141/2/6 142/2/6 145/2/6
f 140/2/6 141/2/6 145/2/6
f 145/1/6 132/1/6 146/1/6
f 144/1/6 140/1/6 147/1/6
f 143/2/6 144/2/6 147/2/6
f 147/1/6 140/1/6 148/1/6
f 148/1/6 140/1/6 149/1/6
f 145/2/6 146/2/6 150/2/6
f 149/1/6 140/1/6 150/1/6
f 140/2/6 145/2/6 150/2/6
f 150/2/6 146/2/6 151/2/6
f 151/2/6 146/2/6 152/2/6
f 152/2/6 146/2/6 153/2/6
f 153/2/6 146/2/6 154/2/6
f 146/1/6 132/1/6 155/1/6
f 154/2/6 146/2/6 155/2/6
f 155/1/6 132/1/6 156/1/6
f 148/1/6 149/1/6 157/1/6
f 147/2/6 148/2/6 157/2/6
f 149/2/6 150/2/6 158/2/6
f 157/1/6 149/1/6 158/1/6
f 150/2/6 151/2/6 158/2/6
f 151/1/6 152/1/6 159/1/6
f 158/2/6 151/2/6 159/2/6
f 152/2/6 153/2/6 160/2/6
f 159/1/6 152/1/6 160/1/6
f 153/1/6 154/1/6 161/1/6
f 155/2/6 156/2/6 161/2/6
f 154/2/6 155/2/6 161/2/6
f 161/2/6 156/2/6 162/2/6
f 160/2/6 153/2/6 163/2/6
f 159/2/6 160/2/6 163/2/6
f 161/1/6 162/1/6 163/1/6
f 153/1/6 161/1/6 163/1/6
f 157/2/6 158/2/6 163/2/6
f 158/2/6 159/2/6 163/2/6
f 162/2/6 156/2/6 164/2/6
f 163/1/6 162/1/6 164/1/6
f 157/2/6 163/2/6 165/2/6
f 147/2/6 157/2/6 165/2/6
f 163/2/6 164/2/6 165/2/6
f 143/2/6 147/2/6 165/2/6
f 165/2/6 164/2/6 166/2/6
f 166/2/6 164/2/6 167/2/6
f 164/2/6 156/2/6 168/2/6
f 167/2/6 164/2/6 168/2/6
f 166/2/6 167/2/6 169/2/6
f 169/2/6 167/2/6 170/2/6
f 170/2/6 167/2/6 171/2/6
f 167/1/6 168/1/6 172/1/6
f 171/2/6 167/2/6 172/2/6
f 168/2/6 156/2/6 173/2/6
f 172/1/6 168/1/6 173/1/6
f 173/2/6 156/2/6 174/2/6
f 166/2/6 169/2/6 175/2/6
f 169/1/6 170/1/6 175/1/6
f 170/2/6 171/2/6 176/2/6
f 175/1/6 170/1/6 176/1/6
f 176/2/6 171/2/6 177/2/6
f 177/2/6 171/2/6 178/2/6
f 171/1/6 172/1/6 179/1/6
f 174/2/6 156/2/6 179/2/6
f 173/1/6 174/1/6 179/1/6
f 172/1/6 173/1/6 179/1/6
f 179/2/6 156/2/6 180/2/6
f 165/1/6 166/1/6 181/1/6
f 166/2/6 175/2/6 182/2/6
f 181/1/6 166/1/6 182/1/6
f 176/2/6 177/2/6 182/2/6
f 175/2/6 176/2/6 182/2/6
f 182/2/6 177/2/6 183/2/6
f 177/1/6 178/1/6 184/1/6
f 183/2/6 177/2/6 184/2/6
f 178/2/6 171/2/6 185/2/6
f 184/1/6 178/1/6 185/1/6
f 185/2/6 171/2/6 186/2/6
f 179/1/6 180/1/6 187/1/6
f 186/2/6 171/2/6 187/2/6
f 171/1/6 179/1/6 187/1/6
f 187/1/6 180/1/6 188/1/6
f 188/1/6 180/1/6 189/1/6
f 180/2/6 156/2/6 190/2/6
f 189/1/6 180/1/6 190/1/6
f 182/2/6 183/2/6 191/2/6
f 181/2/6 182/2/6 191/2/6
f 183/1/6 184/1/6 192/1/6
f 191/2/6 183/2/6 192/2/6
f 185/1/6 186/1/6 192/1/6
f 184/1/6 185/1/6 192/1/6
f 187/2/6 188/2/6 193/2/6
f 192/1/6 186/1/6 193/1/6
f 186/2/6 187/2/6 193/2/6
f 193/2/6 188/2/6 194/2/6
f 188/1/6 189/1/6 195/1/6
f 194/2/6 188/2/6 195/2/6
f 189/2/6 190/2/6 196/2/6
f 195/1/6 189/1/6 196/1/6
f 181/2/6 191/2/6 197/2/6
f 193/1/6 194/1/6 198/1/6
f 197/2/6 191/2/6 198/2/6
f 191/1/6 192/1/6 198/1/6
f 192/1/6 193/1/6 198/1/6
f 181/2/6 197/2/6 199/2/6
f 197/1/6 198/1/6 199/1/6
f 198/1/6 194/1/6 200/1/6
f 199/1/6 198/1/6 200/1/6
f 200/1/6 194/1/6 201/1/6
f 195/2/6 196/2/6 202/2/6
f 201/1/6 194/1/6 202/1/6
f 194/2/6 195/2/6 202/2/6
f 200/1/6 201/1/6 203/1/6
f 199/2/6 200/2/6 203/2/6
f 201/2/6 202/2/6 204/2/6
f 203/1/6 201/1/6 204/1/6
f 181/2/6 199/2/6 205/2/6
f 199/2/6 203/2/6 205/2/6
f 203/2/6 204/2/6 205/2/6
f 196/2/6 190/2/6 206/2/6
f 205/2/6 204/2/6 206/2/6
f 204/2/6 202/2/6 206/2/6
f 202/2/6 196/2/6 206/2/6
f 190/2/6 156/2/6 206/2/6
f 207/3/6 208/3/6 210/3/6
f 209/3/6 210/3/6 211/3/6
f 210/3/6 208/3/6 212/3/6
f 211/3/6 210/3/6 212/3/6
f 213/3/6 214/3/6 216/3/6
f 215/3/6 216/3/6 217/3/6
f 216/3/6 214/3/6 218/3/6
f 217/3/6 216/3/6 218/3/6
f 219/3/6 220/3/6 221/3/6
f 221/3/6 220/3/6 222/3/6
