# MagicaVoxel @ Ephtracy

# group
g YAVD_Tiles-65

# material
mtllib YAVD_Tiles-65.mtl
usemtl palette

# normals
vn -1 0 0
vn 1 0 0
vn 0 0 1
vn 0 0 -1
vn 0 -1 0
vn 0 1 0

# texcoords
vt 0.224609 0.5
vt 0.310547 0.5
vt 0.927734 0.5
vt 0.994141 0.5

# verts
v -8 0 8
v -8 0 -8
v -8 1 8
v -8 1 5
v -8 1 2
v -8 1 -8
v -8 2 8
v -8 2 5
v -8 2 2
v -8 2 -8
v -3 2 3
v -3 2 1
v -3 2 -3
v -3 5 3
v -3 5 -3
v -2 5 2
v -2 5 -2
v -2 6 2
v -2 6 -2
v 2 5 2
v 2 5 -2
v 2 6 2
v 2 6 -2
v 3 2 3
v 3 2 -3
v 3 5 3
v 3 5 -3
v 8 0 8
v 8 0 -8
v 8 1 8
v 8 1 6
v 8 1 4
v 8 1 -8
v 8 2 8
v 8 2 6
v 8 2 4
v 8 2 -8
v -8 0 8
v -8 1 8
v -8 2 8
v -4 1 8
v -4 2 8
v -2 1 8
v -2 2 8
v 3 1 8
v 3 2 8
v 7 1 8
v 7 2 8
v 8 0 8
v 8 1 8
v 8 2 8
v -3 2 3
v -3 5 3
v -1 2 3
v 3 2 3
v 3 5 3
v -2 5 2
v -2 6 2
v 2 5 2
v 2 6 2
v -2 5 -2
v -2 6 -2
v 2 5 -2
v 2 6 -2
v -3 2 -3
v -3 5 -3
v -1 2 -3
v 3 2 -3
v 3 5 -3
v -8 0 -8
v -8 1 -8
v -8 2 -8
v -7 1 -8
v -7 2 -8
v -2 1 -8
v -2 2 -8
v 8 0 -8
v 8 1 -8
v 8 2 -8
v -8 0 8
v 8 0 8
v -8 0 -8
v 8 0 -8
v -8 2 8
v -4 2 8
v -2 2 8
v 3 2 8
v 7 2 8
v 8 2 8
v -7 2 7
v -6 2 7
v -3 2 7
v -2 2 7
v 2 2 7
v 3 2 7
v -7 2 6
v -6 2 6
v -4 2 6
v -3 2 6
v 2 2 6
v 4 2 6
v 7 2 6
v 8 2 6
v -8 2 5
v -5 2 5
v -3 2 4
v -1 2 4
v 4 2 4
v 6 2 4
v 7 2 4
v 8 2 4
v -4 2 3
v -3 2 3
v -1 2 3
v 3 2 3
v 6 2 3
v 7 2 3
v -8 2 2
v -5 2 2
v -4 2 1
v -3 2 1
v -6 2 -1
v -4 2 -1
v -6 2 -3
v -4 2 -3
v -3 2 -3
v -1 2 -3
v 3 2 -3
v -1 2 -4
v 0 2 -4
v 3 2 -4
v 4 2 -4
v 0 2 -5
v 2 2 -5
v 3 2 -5
v 4 2 -5
v -6 2 -6
v -3 2 -6
v 2 2 -6
v 3 2 -6
v -7 2 -7
v -6 2 -7
v -3 2 -7
v -2 2 -7
v -8 2 -8
v -7 2 -8
v -2 2 -8
v 8 2 -8
v -3 5 3
v 3 5 3
v -2 5 2
v 2 5 2
v -2 5 -2
v 2 5 -2
v -3 5 -3
v 3 5 -3
v -2 6 2
v 2 6 2
v -2 6 -2
v 2 6 -2

# faces
f 3/4/1 2/4/1 1/4/1
f 4/4/1 2/4/1 3/4/1
f 5/4/1 2/4/1 4/4/1
f 6/4/1 2/4/1 5/4/1
f 7/2/1 4/2/1 3/2/1
f 8/1/1 5/1/1 4/1/1
f 8/2/1 4/2/1 7/2/1
f 9/2/1 6/2/1 5/2/1
f 9/1/1 5/1/1 8/1/1
f 10/2/1 6/2/1 9/2/1
f 14/3/1 12/3/1 11/3/1
f 14/3/1 13/3/1 12/3/1
f 15/3/1 13/3/1 14/3/1
f 18/3/1 17/3/1 16/3/1
f 19/3/1 17/3/1 18/3/1
f 20/3/2 21/3/2 22/3/2
f 22/3/2 21/3/2 23/3/2
f 24/3/2 25/3/2 26/3/2
f 26/3/2 25/3/2 27/3/2
f 28/4/2 29/4/2 30/4/2
f 30/4/2 29/4/2 31/4/2
f 31/4/2 29/4/2 32/4/2
f 32/4/2 29/4/2 33/4/2
f 30/2/2 31/2/2 34/2/2
f 31/1/2 32/1/2 35/1/2
f 34/2/2 31/2/2 35/2/2
f 32/2/2 33/2/2 36/2/2
f 35/1/2 32/1/2 36/1/2
f 36/2/2 33/2/2 37/2/2
f 41/4/3 39/4/3 38/4/3
f 41/2/3 40/2/3 39/2/3
f 42/2/3 40/2/3 41/2/3
f 43/4/3 41/4/3 38/4/3
f 43/1/3 42/1/3 41/1/3
f 44/1/3 42/1/3 43/1/3
f 45/4/3 43/4/3 38/4/3
f 45/2/3 44/2/3 43/2/3
f 46/2/3 44/2/3 45/2/3
f 47/4/3 45/4/3 38/4/3
f 47/1/3 46/1/3 45/1/3
f 48/1/3 46/1/3 47/1/3
f 49/4/3 47/4/3 38/4/3
f 50/2/3 48/2/3 47/2/3
f 50/4/3 47/4/3 49/4/3
f 51/2/3 48/2/3 50/2/3
f 54/3/3 53/3/3 52/3/3
f 55/3/3 53/3/3 54/3/3
f 56/3/3 53/3/3 55/3/3
f 59/3/3 58/3/3 57/3/3
f 60/3/3 58/3/3 59/3/3
f 61/3/4 62/3/4 63/3/4
f 63/3/4 62/3/4 64/3/4
f 65/3/4 66/3/4 67/3/4
f 67/3/4 66/3/4 68/3/4
f 68/3/4 66/3/4 69/3/4
f 70/4/4 71/4/4 73/4/4
f 71/2/4 72/2/4 73/2/4
f 73/2/4 72/2/4 74/2/4
f 70/4/4 73/4/4 75/4/4
f 73/1/4 74/1/4 75/1/4
f 75/1/4 74/1/4 76/1/4
f 70/4/4 75/4/4 77/4/4
f 75/2/4 76/2/4 78/2/4
f 77/4/4 75/4/4 78/4/4
f 78/2/4 76/2/4 79/2/4
f 82/4/5 81/4/5 80/4/5
f 83/4/5 81/4/5 82/4/5
f 84/2/6 85/2/6 90/2/6
f 90/2/6 85/2/6 91/2/6
f 85/1/6 86/1/6 92/1/6
f 86/2/6 87/2/6 93/2/6
f 92/1/6 86/1/6 93/1/6
f 93/2/6 87/2/6 94/2/6
f 87/1/6 88/1/6 95/1/6
f 94/2/6 87/2/6 95/2/6
f 84/2/6 90/2/6 96/2/6
f 90/1/6 91/1/6 96/1/6
f 91/2/6 85/2/6 97/2/6
f 96/1/6 91/1/6 97/1/6
f 85/1/6 92/1/6 98/1/6
f 97/2/6 85/2/6 98/2/6
f 93/2/6 94/2/6 99/2/6
f 98/1/6 92/1/6 99/1/6
f 92/2/6 93/2/6 99/2/6
f 94/1/6 95/1/6 100/1/6
f 99/2/6 94/2/6 100/2/6
f 95/1/6 88/1/6 101/1/6
f 100/1/6 95/1/6 101/1/6
f 88/2/6 89/2/6 102/2/6
f 101/1/6 88/1/6 102/1/6
f 102/2/6 89/2/6 103/2/6
f 100/2/6 101/2/6 104/2/6
f 84/2/6 96/2/6 104/2/6
f 96/2/6 97/2/6 104/2/6
f 97/2/6 98/2/6 104/2/6
f 98/2/6 99/2/6 104/2/6
f 99/2/6 100/2/6 104/2/6
f 104/2/6 101/2/6 105/2/6
f 105/2/6 101/2/6 106/2/6
f 106/2/6 101/2/6 107/2/6
f 102/1/6 103/1/6 108/1/6
f 107/2/6 101/2/6 108/2/6
f 101/1/6 102/1/6 108/1/6
f 108/1/6 103/1/6 109/1/6
f 109/1/6 103/1/6 110/1/6
f 110/1/6 103/1/6 111/1/6
f 105/2/6 106/2/6 112/2/6
f 106/1/6 107/1/6 113/1/6
f 112/2/6 106/2/6 113/2/6
f 107/2/6 108/2/6 114/2/6
f 113/1/6 107/1/6 114/1/6
f 108/2/6 109/2/6 114/2/6
f 114/2/6 109/2/6 115/2/6
f 109/1/6 110/1/6 116/1/6
f 115/2/6 109/2/6 116/2/6
f 110/2/6 111/2/6 117/2/6
f 116/1/6 110/1/6 117/1/6
f 104/1/6 105/1/6 118/1/6
f 105/2/6 112/2/6 119/2/6
f 118/1/6 105/1/6 119/1/6
f 112/1/6 113/1/6 120/1/6
f 119/2/6 112/2/6 120/2/6
f 118/2/6 119/2/6 120/2/6
f 120/1/6 113/1/6 121/1/6
f 118/2/6 120/2/6 122/2/6
f 120/2/6 121/2/6 122/2/6
f 122/2/6 121/2/6 123/2/6
f 118/2/6 122/2/6 124/2/6
f 122/1/6 123/1/6 124/1/6
f 123/2/6 121/2/6 125/2/6
f 124/1/6 123/1/6 125/1/6
f 125/2/6 121/2/6 126/2/6
f 116/2/6 117/2/6 128/2/6
f 115/2/6 116/2/6 128/2/6
f 126/2/6 127/2/6 129/2/6
f 127/1/6 128/1/6 129/1/6
f 124/2/6 125/2/6 129/2/6
f 125/2/6 126/2/6 129/2/6
f 129/1/6 128/1/6 130/1/6
f 128/2/6 117/2/6 131/2/6
f 130/1/6 128/1/6 131/1/6
f 131/2/6 117/2/6 132/2/6
f 129/2/6 130/2/6 133/2/6
f 130/1/6 131/1/6 133/1/6
f 131/1/6 132/1/6 133/1/6
f 133/1/6 132/1/6 134/1/6
f 134/1/6 132/1/6 135/1/6
f 132/2/6 117/2/6 136/2/6
f 135/1/6 132/1/6 136/1/6
f 118/2/6 124/2/6 137/2/6
f 124/2/6 129/2/6 137/2/6
f 129/2/6 133/2/6 137/2/6
f 133/2/6 134/2/6 137/2/6
f 137/2/6 134/2/6 138/2/6
f 134/1/6 135/1/6 139/1/6
f 138/2/6 134/2/6 139/2/6
f 135/2/6 136/2/6 140/2/6
f 139/1/6 135/1/6 140/1/6
f 118/2/6 137/2/6 141/2/6
f 137/1/6 138/1/6 142/1/6
f 141/2/6 137/2/6 142/2/6
f 138/2/6 139/2/6 143/2/6
f 142/1/6 138/1/6 143/1/6
f 139/2/6 140/2/6 143/2/6
f 143/2/6 140/2/6 144/2/6
f 118/2/6 141/2/6 145/2/6
f 141/1/6 142/1/6 146/1/6
f 145/2/6 141/2/6 146/2/6
f 142/1/6 143/1/6 146/1/6
f 143/1/6 144/1/6 146/1/6
f 144/2/6 140/2/6 147/2/6
f 146/1/6 144/1/6 147/1/6
f 117/2/6 111/2/6 148/2/6
f 147/2/6 140/2/6 148/2/6
f 136/2/6 117/2/6 148/2/6
f 140/2/6 136/2/6 148/2/6
f 149/3/6 150/3/6 151/3/6
f 151/3/6 150/3/6 152/3/6
f 149/3/6 151/3/6 153/3/6
f 152/3/6 150/3/6 154/3/6
f 149/3/6 153/3/6 155/3/6
f 153/3/6 154/3/6 155/3/6
f 154/3/6 150/3/6 156/3/6
f 155/3/6 154/3/6 156/3/6
f 157/3/6 158/3/6 159/3/6
f 159/3/6 158/3/6 160/3/6
