# MagicaVoxel @ Ephtracy

# group
g YAVD_Tiles-1

# material
mtllib YAVD_Tiles-1.mtl
usemtl palette

# normals
vn -1 0 0
vn 1 0 0
vn 0 0 1
vn 0 0 -1
vn 0 -1 0
vn 0 1 0

# texcoords
vt 0.224609 0.5
vt 0.310547 0.5
vt 0.935547 0.5
vt 0.990234 0.5
vt 0.994141 0.5

# verts
v -8 0 8
v -8 0 -8
v -8 1 8
v -8 1 5
v -8 1 1
v -8 1 -3
v -8 1 -5
v -8 1 -6
v -8 1 -8
v -8 2 8
v -8 2 5
v -8 2 1
v -8 2 -3
v -8 2 -5
v -8 2 -6
v -8 3 -6
v -8 3 -7
v -8 3 -8
v -8 4 -6
v -8 4 -7
v -8 4 -8
v -8 6 -6
v -8 6 -7
v -8 6 -8
v -8 7 -6
v -8 7 -7
v -8 7 -8
v -8 9 -6
v -8 9 -8
v -5 2 -6
v -5 2 -7
v -5 3 -6
v -5 3 -7
v -5 7 -6
v -5 7 -7
v -5 9 -6
v -5 9 -7
v -3 4 -6
v -3 4 -7
v -3 6 -6
v -3 6 -7
v -1 7 -6
v -1 7 -7
v -1 9 -6
v -1 9 -7
v 0 2 -6
v 0 2 -7
v 0 3 -6
v 0 3 -7
v 2 4 -6
v 2 4 -7
v 2 6 -6
v 2 6 -7
v 4 7 -6
v 4 7 -7
v 4 9 -6
v 4 9 -7
v 5 2 -6
v 5 2 -7
v 5 3 -6
v 5 3 -7
v 7 4 -6
v 7 4 -7
v 7 6 -6
v 7 6 -7
v -6 2 -6
v -6 2 -7
v -6 3 -6
v -6 3 -7
v -6 7 -6
v -6 7 -7
v -6 9 -6
v -6 9 -7
v -4 4 -6
v -4 4 -7
v -4 6 -6
v -4 6 -7
v -2 7 -6
v -2 7 -7
v -2 9 -6
v -2 9 -7
v -1 2 -6
v -1 2 -7
v -1 3 -6
v -1 3 -7
v 1 4 -6
v 1 4 -7
v 1 6 -6
v 1 6 -7
v 3 7 -6
v 3 7 -7
v 3 9 -6
v 3 9 -7
v 4 2 -6
v 4 2 -7
v 4 3 -6
v 4 3 -7
v 6 4 -6
v 6 4 -7
v 6 6 -6
v 6 6 -7
v 8 0 8
v 8 0 -8
v 8 1 8
v 8 1 5
v 8 1 -5
v 8 1 -6
v 8 1 -8
v 8 2 8
v 8 2 5
v 8 2 -5
v 8 2 -6
v 8 3 -6
v 8 3 -7
v 8 3 -8
v 8 4 -6
v 8 4 -7
v 8 4 -8
v 8 6 -6
v 8 6 -7
v 8 6 -8
v 8 7 -6
v 8 7 -7
v 8 7 -8
v 8 9 -6
v 8 9 -8
v -8 0 8
v -8 1 8
v -8 2 8
v -5 1 8
v -5 2 8
v 0 1 8
v 0 2 8
v 2 1 8
v 2 2 8
v 5 1 8
v 5 2 8
v 8 0 8
v 8 1 8
v 8 2 8
v -8 2 -6
v -8 3 -6
v -8 4 -6
v -8 6 -6
v -8 7 -6
v -8 9 -6
v -6 2 -6
v -6 3 -6
v -6 7 -6
v -6 9 -6
v -5 2 -6
v -5 3 -6
v -5 7 -6
v -5 9 -6
v -4 4 -6
v -4 6 -6
v -3 4 -6
v -3 6 -6
v -2 7 -6
v -2 9 -6
v -1 2 -6
v -1 3 -6
v -1 7 -6
v -1 9 -6
v 0 2 -6
v 0 3 -6
v 1 4 -6
v 1 6 -6
v 2 4 -6
v 2 6 -6
v 3 7 -6
v 3 9 -6
v 4 2 -6
v 4 3 -6
v 4 7 -6
v 4 9 -6
v 5 2 -6
v 5 3 -6
v 6 2 -6
v 6 4 -6
v 6 6 -6
v 7 4 -6
v 7 6 -6
v 8 2 -6
v 8 3 -6
v 8 4 -6
v 8 6 -6
v 8 7 -6
v 8 9 -6
v -8 3 -7
v -8 4 -7
v -8 6 -7
v -8 7 -7
v -6 2 -7
v -6 3 -7
v -6 7 -7
v -6 9 -7
v -5 2 -7
v -5 3 -7
v -5 7 -7
v -5 9 -7
v -4 4 -7
v -4 6 -7
v -3 4 -7
v -3 6 -7
v -2 7 -7
v -2 9 -7
v -1 2 -7
v -1 3 -7
v -1 7 -7
v -1 9 -7
v 0 2 -7
v 0 3 -7
v 1 4 -7
v 1 6 -7
v 2 4 -7
v 2 6 -7
v 3 7 -7
v 3 9 -7
v 4 2 -7
v 4 3 -7
v 4 7 -7
v 4 9 -7
v 5 2 -7
v 5 3 -7
v 6 4 -7
v 6 6 -7
v 7 4 -7
v 7 6 -7
v 8 3 -7
v 8 4 -7
v 8 6 -7
v 8 7 -7
v -8 0 -8
v -8 1 -8
v -8 3 -8
v -8 4 -8
v -8 6 -8
v -8 7 -8
v -8 9 -8
v -6 1 -8
v -6 3 -8
v -6 7 -8
v -6 9 -8
v -5 7 -8
v -5 9 -8
v -4 4 -8
v -4 6 -8
v -2 7 -8
v -2 9 -8
v -1 7 -8
v -1 9 -8
v 3 7 -8
v 3 9 -8
v 4 7 -8
v 4 9 -8
v 5 1 -8
v 5 3 -8
v 7 4 -8
v 7 6 -8
v 8 0 -8
v 8 1 -8
v 8 3 -8
v 8 4 -8
v 8 6 -8
v 8 7 -8
v 8 9 -8
v -8 0 8
v 8 0 8
v -8 0 -8
v 8 0 -8
v -8 4 -6
v -4 4 -6
v -3 4 -6
v 1 4 -6
v 2 4 -6
v 6 4 -6
v 7 4 -6
v 8 4 -6
v -8 4 -7
v -4 4 -7
v -3 4 -7
v 1 4 -7
v 2 4 -7
v 6 4 -7
v 7 4 -7
v 8 4 -7
v -8 7 -6
v -6 7 -6
v -5 7 -6
v -2 7 -6
v -1 7 -6
v 3 7 -6
v 4 7 -6
v 8 7 -6
v -8 7 -7
v -6 7 -7
v -5 7 -7
v -2 7 -7
v -1 7 -7
v 3 7 -7
v 4 7 -7
v 8 7 -7
v -8 2 8
v -5 2 8
v 0 2 8
v 2 2 8
v 5 2 8
v 8 2 8
v 0 2 7
v 2 2 7
v -6 2 6
v -5 2 6
v 5 2 6
v 6 2 6
v -8 2 5
v -6 2 5
v -4 2 5
v -2 2 5
v 6 2 5
v 8 2 5
v 1 2 3
v 4 2 3
v -4 2 2
v -2 2 2
v -8 2 1
v -7 2 1
v 1 2 1
v 2 2 1
v 3 2 1
v 4 2 1
v -7 2 -0
v -6 2 -0
v -3 2 -0
v -1 2 -0
v 2 2 -0
v 3 2 -0
v -3 2 -2
v -1 2 -2
v 3 2 -2
v 5 2 -2
v -8 2 -3
v -6 2 -3
v 2 2 -3
v 3 2 -3
v 4 2 -4
v 5 2 -4
v -8 2 -5
v -5 2 -5
v 2 2 -5
v 4 2 -5
v 6 2 -5
v 8 2 -5
v -8 2 -6
v -6 2 -6
v -5 2 -6
v -1 2 -6
v 0 2 -6
v 4 2 -6
v 5 2 -6
v 6 2 -6
v 8 2 -6
v -6 2 -7
v -5 2 -7
v -1 2 -7
v 0 2 -7
v 4 2 -7
v 5 2 -7
v -8 3 -6
v -6 3 -6
v -5 3 -6
v -1 3 -6
v 0 3 -6
v 4 3 -6
v 5 3 -6
v 8 3 -6
v -8 3 -7
v -6 3 -7
v -5 3 -7
v -1 3 -7
v 0 3 -7
v 4 3 -7
v 5 3 -7
v 8 3 -7
v -8 6 -6
v -4 6 -6
v -3 6 -6
v 1 6 -6
v 2 6 -6
v 6 6 -6
v 7 6 -6
v 8 6 -6
v -8 6 -7
v -4 6 -7
v -3 6 -7
v 1 6 -7
v 2 6 -7
v 6 6 -7
v 7 6 -7
v 8 6 -7
v -8 9 -6
v -6 9 -6
v -5 9 -6
v -2 9 -6
v -1 9 -6
v 3 9 -6
v 4 9 -6
v 8 9 -6
v -6 9 -7
v -5 9 -7
v -2 9 -7
v -1 9 -7
v 3 9 -7
v 4 9 -7
v -8 9 -8
v -6 9 -8
v -5 9 -8
v -2 9 -8
v -1 9 -8
v 3 9 -8
v 4 9 -8
v 8 9 -8

# faces
f 3/5/1 2/5/1 1/5/1
f 4/5/1 2/5/1 3/5/1
f 5/5/1 2/5/1 4/5/1
f 6/5/1 2/5/1 5/5/1
f 7/5/1 2/5/1 6/5/1
f 8/5/1 2/5/1 7/5/1
f 9/5/1 2/5/1 8/5/1
f 10/1/1 4/1/1 3/1/1
f 11/2/1 5/2/1 4/2/1
f 11/1/1 4/1/1 10/1/1
f 12/1/1 6/1/1 5/1/1
f 12/2/1 5/2/1 11/2/1
f 13/2/1 7/2/1 6/2/1
f 13/1/1 6/1/1 12/1/1
f 14/1/1 8/1/1 7/1/1
f 14/2/1 7/2/1 13/2/1
f 15/3/1 9/3/1 8/3/1
f 15/1/1 8/1/1 14/1/1
f 16/3/1 9/3/1 15/3/1
f 17/3/1 9/3/1 16/3/1
f 18/3/1 9/3/1 17/3/1
f 20/4/1 18/4/1 17/4/1
f 21/4/1 18/4/1 20/4/1
f 22/3/1 20/3/1 19/3/1
f 22/3/1 21/3/1 20/3/1
f 23/3/1 21/3/1 22/3/1
f 24/3/1 21/3/1 23/3/1
f 26/4/1 24/4/1 23/4/1
f 27/4/1 24/4/1 26/4/1
f 28/3/1 26/3/1 25/3/1
f 28/3/1 27/3/1 26/3/1
f 29/3/1 27/3/1 28/3/1
f 32/3/1 31/3/1 30/3/1
f 33/3/1 31/3/1 32/3/1
f 36/3/1 35/3/1 34/3/1
f 37/3/1 35/3/1 36/3/1
f 40/3/1 39/3/1 38/3/1
f 41/3/1 39/3/1 40/3/1
f 44/3/1 43/3/1 42/3/1
f 45/3/1 43/3/1 44/3/1
f 48/3/1 47/3/1 46/3/1
f 49/3/1 47/3/1 48/3/1
f 52/3/1 51/3/1 50/3/1
f 53/3/1 51/3/1 52/3/1
f 56/3/1 55/3/1 54/3/1
f 57/3/1 55/3/1 56/3/1
f 60/3/1 59/3/1 58/3/1
f 61/3/1 59/3/1 60/3/1
f 64/3/1 63/3/1 62/3/1
f 65/3/1 63/3/1 64/3/1
f 66/3/2 67/3/2 68/3/2
f 68/3/2 67/3/2 69/3/2
f 70/3/2 71/3/2 72/3/2
f 72/3/2 71/3/2 73/3/2
f 74/3/2 75/3/2 76/3/2
f 76/3/2 75/3/2 77/3/2
f 78/3/2 79/3/2 80/3/2
f 80/3/2 79/3/2 81/3/2
f 82/3/2 83/3/2 84/3/2
f 84/3/2 83/3/2 85/3/2
f 86/3/2 87/3/2 88/3/2
f 88/3/2 87/3/2 89/3/2
f 90/3/2 91/3/2 92/3/2
f 92/3/2 91/3/2 93/3/2
f 94/3/2 95/3/2 96/3/2
f 96/3/2 95/3/2 97/3/2
f 98/3/2 99/3/2 100/3/2
f 100/3/2 99/3/2 101/3/2
f 102/5/2 103/5/2 104/5/2
f 104/5/2 103/5/2 105/5/2
f 105/5/2 103/5/2 106/5/2
f 106/5/2 103/5/2 107/5/2
f 107/5/2 103/5/2 108/5/2
f 104/1/2 105/1/2 109/1/2
f 105/2/2 106/2/2 110/2/2
f 109/1/2 105/1/2 110/1/2
f 106/1/2 107/1/2 111/1/2
f 110/2/2 106/2/2 111/2/2
f 107/3/2 108/3/2 112/3/2
f 111/1/2 107/1/2 112/1/2
f 112/3/2 108/3/2 113/3/2
f 113/3/2 108/3/2 114/3/2
f 114/3/2 108/3/2 115/3/2
f 114/4/2 115/4/2 117/4/2
f 117/4/2 115/4/2 118/4/2
f 116/3/2 117/3/2 119/3/2
f 117/3/2 118/3/2 119/3/2
f 119/3/2 118/3/2 120/3/2
f 120/3/2 118/3/2 121/3/2
f 120/4/2 121/4/2 123/4/2
f 123/4/2 121/4/2 124/4/2
f 122/3/2 123/3/2 125/3/2
f 123/3/2 124/3/2 125/3/2
f 125/3/2 124/3/2 126/3/2
f 130/5/3 128/5/3 127/5/3
f 130/1/3 129/1/3 128/1/3
f 131/1/3 129/1/3 130/1/3
f 132/5/3 130/5/3 127/5/3
f 132/2/3 131/2/3 130/2/3
f 133/2/3 131/2/3 132/2/3
f 134/5/3 132/5/3 127/5/3
f 134/1/3 133/1/3 132/1/3
f 135/1/3 133/1/3 134/1/3
f 136/5/3 134/5/3 127/5/3
f 136/2/3 135/2/3 134/2/3
f 137/2/3 135/2/3 136/2/3
f 138/5/3 136/5/3 127/5/3
f 139/1/3 137/1/3 136/1/3
f 139/5/3 136/5/3 138/5/3
f 140/1/3 137/1/3 139/1/3
f 147/3/3 142/3/3 141/3/3
f 148/3/3 142/3/3 147/3/3
f 149/3/3 146/3/3 145/3/3
f 150/3/3 146/3/3 149/3/3
f 155/3/3 144/3/3 143/3/3
f 156/3/3 144/3/3 155/3/3
f 159/3/3 154/3/3 153/3/3
f 160/3/3 154/3/3 159/3/3
f 161/3/3 152/3/3 151/3/3
f 162/3/3 152/3/3 161/3/3
f 167/3/3 158/3/3 157/3/3
f 168/3/3 158/3/3 167/3/3
f 171/3/3 164/3/3 163/3/3
f 172/3/3 164/3/3 171/3/3
f 173/3/3 166/3/3 165/3/3
f 174/3/3 166/3/3 173/3/3
f 179/3/3 178/3/3 177/3/3
f 180/3/3 170/3/3 169/3/3
f 181/3/3 170/3/3 180/3/3
f 184/3/3 178/3/3 179/3/3
f 185/3/3 178/3/3 184/3/3
f 186/3/3 183/3/3 182/3/3
f 187/3/3 183/3/3 186/3/3
f 188/3/3 176/3/3 175/3/3
f 189/3/3 176/3/3 188/3/3
f 195/4/3 191/4/3 190/4/3
f 196/4/3 193/4/3 192/4/3
f 198/4/3 195/4/3 194/4/3
f 199/4/3 191/4/3 195/4/3
f 199/4/3 195/4/3 198/4/3
f 200/4/3 197/4/3 196/4/3
f 200/4/3 196/4/3 192/4/3
f 201/4/3 197/4/3 200/4/3
f 202/4/3 191/4/3 199/4/3
f 203/4/3 200/4/3 192/4/3
f 204/4/3 202/4/3 199/4/3
f 204/4/3 203/4/3 202/4/3
f 205/4/3 200/4/3 203/4/3
f 205/4/3 203/4/3 204/4/3
f 206/4/3 200/4/3 205/4/3
f 209/4/3 204/4/3 199/4/3
f 210/4/3 207/4/3 206/4/3
f 210/4/3 206/4/3 205/4/3
f 211/4/3 207/4/3 210/4/3
f 212/4/3 209/4/3 208/4/3
f 213/4/3 204/4/3 209/4/3
f 213/4/3 209/4/3 212/4/3
f 214/4/3 204/4/3 213/4/3
f 215/4/3 210/4/3 205/4/3
f 216/4/3 214/4/3 213/4/3
f 216/4/3 215/4/3 214/4/3
f 217/4/3 210/4/3 215/4/3
f 217/4/3 215/4/3 216/4/3
f 218/4/3 210/4/3 217/4/3
f 221/4/3 216/4/3 213/4/3
f 222/4/3 219/4/3 218/4/3
f 222/4/3 218/4/3 217/4/3
f 223/4/3 219/4/3 222/4/3
f 224/4/3 221/4/3 220/4/3
f 225/4/3 216/4/3 221/4/3
f 225/4/3 221/4/3 224/4/3
f 226/4/3 216/4/3 225/4/3
f 227/4/3 222/4/3 217/4/3
f 228/4/3 226/4/3 225/4/3
f 228/4/3 227/4/3 226/4/3
f 229/4/3 222/4/3 227/4/3
f 229/4/3 227/4/3 228/4/3
f 230/4/3 228/4/3 225/4/3
f 231/4/3 228/4/3 230/4/3
f 232/4/3 222/4/3 229/4/3
f 233/4/3 222/4/3 232/4/3
f 234/5/4 235/5/4 241/5/4
f 235/3/4 236/3/4 241/3/4
f 236/4/4 237/4/4 242/4/4
f 241/3/4 236/3/4 242/3/4
f 239/3/4 240/3/4 243/3/4
f 238/4/4 239/4/4 243/4/4
f 243/3/4 240/3/4 244/3/4
f 238/4/4 243/4/4 245/4/4
f 243/4/4 244/4/4 245/4/4
f 245/4/4 244/4/4 246/4/4
f 242/4/4 237/4/4 247/4/4
f 241/4/4 242/4/4 247/4/4
f 237/3/4 238/3/4 247/3/4
f 238/4/4 245/4/4 248/4/4
f 247/3/4 238/3/4 248/3/4
f 245/3/4 246/3/4 249/3/4
f 248/4/4 245/4/4 249/4/4
f 247/4/4 248/4/4 249/4/4
f 249/3/4 246/3/4 250/3/4
f 247/4/4 249/4/4 251/4/4
f 249/4/4 250/4/4 251/4/4
f 251/4/4 250/4/4 252/4/4
f 247/4/4 251/4/4 253/4/4
f 251/3/4 252/3/4 253/3/4
f 253/3/4 252/3/4 254/3/4
f 247/4/4 253/4/4 255/4/4
f 253/4/4 254/4/4 255/4/4
f 255/4/4 254/4/4 256/4/4
f 234/5/4 241/5/4 257/5/4
f 241/4/4 247/4/4 257/4/4
f 247/4/4 255/4/4 257/4/4
f 257/4/4 255/4/4 258/4/4
f 258/4/4 255/4/4 259/4/4
f 259/4/4 255/4/4 260/4/4
f 234/5/4 257/5/4 261/5/4
f 257/3/4 258/3/4 262/3/4
f 261/5/4 257/5/4 262/5/4
f 258/4/4 259/4/4 263/4/4
f 262/3/4 258/3/4 263/3/4
f 259/3/4 260/3/4 264/3/4
f 263/4/4 259/4/4 264/4/4
f 260/4/4 255/4/4 265/4/4
f 264/3/4 260/3/4 265/3/4
f 255/3/4 256/3/4 266/3/4
f 265/4/4 255/4/4 266/4/4
f 266/3/4 256/3/4 267/3/4
f 270/5/5 269/5/5 268/5/5
f 271/5/5 269/5/5 270/5/5
f 280/3/5 273/3/5 272/3/5
f 281/3/5 273/3/5 280/3/5
f 282/3/5 275/3/5 274/3/5
f 283/3/5 275/3/5 282/3/5
f 284/3/5 277/3/5 276/3/5
f 285/3/5 277/3/5 284/3/5
f 286/3/5 279/3/5 278/3/5
f 287/3/5 279/3/5 286/3/5
f 296/3/5 289/3/5 288/3/5
f 297/3/5 289/3/5 296/3/5
f 298/3/5 291/3/5 290/3/5
f 299/3/5 291/3/5 298/3/5
f 300/3/5 293/3/5 292/3/5
f 301/3/5 293/3/5 300/3/5
f 302/3/5 295/3/5 294/3/5
f 303/3/5 295/3/5 302/3/5
f 305/2/6 306/2/6 310/2/6
f 306/1/6 307/1/6 310/1/6
f 307/2/6 308/2/6 311/2/6
f 310/1/6 307/1/6 311/1/6
f 304/1/6 305/1/6 312/1/6
f 305/2/6 310/2/6 313/2/6
f 312/1/6 305/1/6 313/1/6
f 310/2/6 311/2/6 313/2/6
f 311/2/6 308/2/6 314/2/6
f 313/2/6 311/2/6 314/2/6
f 308/1/6 309/1/6 314/1/6
f 314/1/6 309/1/6 315/1/6
f 304/1/6 312/1/6 316/1/6
f 312/2/6 313/2/6 317/2/6
f 316/1/6 312/1/6 317/1/6
f 313/2/6 314/2/6 317/2/6
f 314/2/6 315/2/6 317/2/6
f 317/2/6 315/2/6 318/2/6
f 318/2/6 315/2/6 319/2/6
f 315/1/6 309/1/6 320/1/6
f 319/2/6 315/2/6 320/2/6
f 320/1/6 309/1/6 321/1/6
f 319/2/6 320/2/6 322/2/6
f 320/2/6 321/2/6 322/2/6
f 322/2/6 321/2/6 323/2/6
f 318/1/6 319/1/6 324/1/6
f 316/2/6 317/2/6 324/2/6
f 317/2/6 318/2/6 324/2/6
f 319/2/6 322/2/6 325/2/6
f 324/1/6 319/1/6 325/1/6
f 316/2/6 324/2/6 326/2/6
f 324/2/6 325/2/6 326/2/6
f 326/2/6 325/2/6 327/2/6
f 322/1/6 323/1/6 328/1/6
f 327/2/6 325/2/6 328/2/6
f 325/2/6 322/2/6 328/2/6
f 328/1/6 323/1/6 329/1/6
f 329/1/6 323/1/6 330/1/6
f 323/2/6 321/2/6 331/2/6
f 330/1/6 323/1/6 331/1/6
f 326/1/6 327/1/6 332/1/6
f 327/2/6 328/2/6 332/2/6
f 328/2/6 329/2/6 332/2/6
f 332/2/6 329/2/6 333/2/6
f 333/2/6 329/2/6 334/2/6
f 334/2/6 329/2/6 335/2/6
f 329/1/6 330/1/6 336/1/6
f 335/2/6 329/2/6 336/2/6
f 330/2/6 331/2/6 337/2/6
f 336/1/6 330/1/6 337/1/6
f 334/1/6 335/1/6 338/1/6
f 333/2/6 334/2/6 338/2/6
f 335/2/6 336/2/6 339/2/6
f 338/1/6 335/1/6 339/1/6
f 336/2/6 337/2/6 339/2/6
f 337/2/6 331/2/6 340/2/6
f 339/2/6 337/2/6 340/2/6
f 331/2/6 321/2/6 341/2/6
f 340/2/6 331/2/6 341/2/6
f 326/1/6 332/1/6 342/1/6
f 332/1/6 333/1/6 342/1/6
f 338/2/6 339/2/6 343/2/6
f 342/1/6 333/1/6 343/1/6
f 339/2/6 340/2/6 343/2/6
f 333/2/6 338/2/6 343/2/6
f 343/2/6 340/2/6 344/2/6
f 340/1/6 341/1/6 345/1/6
f 344/2/6 340/2/6 345/2/6
f 344/1/6 345/1/6 346/1/6
f 345/1/6 341/1/6 346/1/6
f 341/2/6 321/2/6 347/2/6
f 346/1/6 341/1/6 347/1/6
f 343/2/6 344/2/6 348/2/6
f 342/2/6 343/2/6 348/2/6
f 348/2/6 344/2/6 349/2/6
f 344/1/6 346/1/6 350/1/6
f 349/2/6 344/2/6 350/2/6
f 346/2/6 347/2/6 351/2/6
f 350/1/6 346/1/6 351/1/6
f 347/2/6 321/2/6 352/2/6
f 351/2/6 347/2/6 352/2/6
f 352/2/6 321/2/6 353/2/6
f 348/1/6 349/1/6 354/1/6
f 354/1/6 349/1/6 355/1/6
f 350/2/6 351/2/6 356/2/6
f 355/1/6 349/1/6 356/1/6
f 349/2/6 350/2/6 356/2/6
f 351/2/6 352/2/6 356/2/6
f 356/2/6 352/2/6 357/2/6
f 357/2/6 352/2/6 358/2/6
f 358/2/6 352/2/6 359/2/6
f 359/2/6 352/2/6 360/2/6
f 352/1/6 353/1/6 361/1/6
f 360/2/6 352/2/6 361/2/6
f 361/1/6 353/1/6 362/1/6
f 355/4/6 356/4/6 363/4/6
f 363/4/6 356/4/6 364/4/6
f 357/4/6 358/4/6 365/4/6
f 365/4/6 358/4/6 366/4/6
f 359/4/6 360/4/6 367/4/6
f 367/4/6 360/4/6 368/4/6
f 369/3/6 370/3/6 377/3/6
f 377/3/6 370/3/6 378/3/6
f 371/3/6 372/3/6 379/3/6
f 379/3/6 372/3/6 380/3/6
f 373/3/6 374/3/6 381/3/6
f 381/3/6 374/3/6 382/3/6
f 375/3/6 376/3/6 383/3/6
f 383/3/6 376/3/6 384/3/6
f 385/3/6 386/3/6 393/3/6
f 393/3/6 386/3/6 394/3/6
f 387/3/6 388/3/6 395/3/6
f 395/3/6 388/3/6 396/3/6
f 389/3/6 390/3/6 397/3/6
f 397/3/6 390/3/6 398/3/6
f 391/3/6 392/3/6 399/3/6
f 399/3/6 392/3/6 400/3/6
f 401/3/6 402/3/6 409/3/6
f 403/3/6 404/3/6 410/3/6
f 410/3/6 404/3/6 411/3/6
f 405/3/6 406/3/6 412/3/6
f 412/3/6 406/3/6 413/3/6
f 407/3/6 408/3/6 414/3/6
f 401/3/6 409/3/6 415/3/6
f 409/4/6 410/4/6 416/4/6
f 415/3/6 409/3/6 416/3/6
f 410/3/6 411/3/6 417/3/6
f 416/4/6 410/4/6 417/4/6
f 411/4/6 412/4/6 418/4/6
f 417/3/6 411/3/6 418/3/6
f 412/3/6 413/3/6 419/3/6
f 418/4/6 412/4/6 419/4/6
f 413/4/6 414/4/6 420/4/6
f 419/3/6 413/3/6 420/3/6
f 414/3/6 408/3/6 421/3/6
f 420/4/6 414/4/6 421/4/6
f 421/3/6 408/3/6 422/3/6
