# MagicaVoxel @ Ephtracy

# group
g YAVD_Tiles-10

# material
mtllib YAVD_Tiles-10.mtl
usemtl palette

# normals
vn -1 0 0
vn 1 0 0
vn 0 0 1
vn 0 0 -1
vn 0 -1 0
vn 0 1 0

# texcoords
vt 0.333984 0.5
vt 0.337891 0.5
vt 0.482422 0.5

# verts
v 0 0 1
v 0 0 -1
v 0 12 1
v 0 12 -1
v 8 0 1
v 8 0 -1
v 8 5 1
v 8 5 -1
v 8 7 1
v 8 7 -1
v 8 12 1
v 8 12 -1
v 0 0 1
v 0 12 1
v 2 0 1
v 2 12 1
v 3 0 1
v 3 12 1
v 5 0 1
v 5 12 1
v 6 0 1
v 6 5 1
v 6 7 1
v 6 12 1
v 8 0 1
v 8 5 1
v 8 7 1
v 8 12 1
v 0 0 -1
v 0 12 -1
v 2 0 -1
v 2 12 -1
v 3 0 -1
v 3 12 -1
v 5 0 -1
v 5 12 -1
v 6 0 -1
v 6 5 -1
v 6 7 -1
v 6 12 -1
v 8 0 -1
v 8 5 -1
v 8 7 -1
v 8 12 -1
v 0 0 1
v 2 0 1
v 3 0 1
v 5 0 1
v 6 0 1
v 8 0 1
v 0 0 -1
v 2 0 -1
v 3 0 -1
v 5 0 -1
v 6 0 -1
v 8 0 -1
v 0 12 1
v 2 12 1
v 3 12 1
v 5 12 1
v 6 12 1
v 8 12 1
v 0 12 -1
v 2 12 -1
v 3 12 -1
v 5 12 -1
v 6 12 -1
v 8 12 -1

# faces
f 3/2/1 2/2/1 1/2/1
f 4/2/1 2/2/1 3/2/1
f 5/2/2 6/2/2 7/2/2
f 7/2/2 6/2/2 8/2/2
f 7/3/2 8/3/2 9/3/2
f 9/3/2 8/3/2 10/3/2
f 9/2/2 10/2/2 11/2/2
f 11/2/2 10/2/2 12/2/2
f 15/2/3 14/2/3 13/2/3
f 16/2/3 14/2/3 15/2/3
f 17/1/3 16/1/3 15/1/3
f 18/1/3 16/1/3 17/1/3
f 19/2/3 18/2/3 17/2/3
f 20/2/3 18/2/3 19/2/3
f 21/1/3 20/1/3 19/1/3
f 22/1/3 20/1/3 21/1/3
f 23/1/3 20/1/3 22/1/3
f 24/1/3 20/1/3 23/1/3
f 25/2/3 22/2/3 21/2/3
f 26/3/3 23/3/3 22/3/3
f 26/2/3 22/2/3 25/2/3
f 27/2/3 24/2/3 23/2/3
f 27/3/3 23/3/3 26/3/3
f 28/2/3 24/2/3 27/2/3
f 29/2/4 30/2/4 31/2/4
f 31/2/4 30/2/4 32/2/4
f 31/1/4 32/1/4 33/1/4
f 33/1/4 32/1/4 34/1/4
f 33/2/4 34/2/4 35/2/4
f 35/2/4 34/2/4 36/2/4
f 35/1/4 36/1/4 37/1/4
f 37/1/4 36/1/4 38/1/4
f 38/1/4 36/1/4 39/1/4
f 39/1/4 36/1/4 40/1/4
f 37/2/4 38/2/4 41/2/4
f 38/3/4 39/3/4 42/3/4
f 41/2/4 38/2/4 42/2/4
f 39/2/4 40/2/4 43/2/4
f 42/3/4 39/3/4 43/3/4
f 43/2/4 40/2/4 44/2/4
f 51/2/5 46/2/5 45/2/5
f 52/1/5 47/1/5 46/1/5
f 52/2/5 46/2/5 51/2/5
f 53/2/5 48/2/5 47/2/5
f 53/1/5 47/1/5 52/1/5
f 54/1/5 49/1/5 48/1/5
f 54/2/5 48/2/5 53/2/5
f 55/2/5 50/2/5 49/2/5
f 55/1/5 49/1/5 54/1/5
f 56/2/5 50/2/5 55/2/5
f 57/2/6 58/2/6 63/2/6
f 58/1/6 59/1/6 64/1/6
f 63/2/6 58/2/6 64/2/6
f 59/2/6 60/2/6 65/2/6
f 64/1/6 59/1/6 65/1/6
f 60/1/6 61/1/6 66/1/6
f 65/2/6 60/2/6 66/2/6
f 61/2/6 62/2/6 67/2/6
f 66/1/6 61/1/6 67/1/6
f 67/2/6 62/2/6 68/2/6
