# MagicaVoxel @ Ephtracy

# group
g YAVD_Tiles-28

# material
mtllib YAVD_Tiles-28.mtl
usemtl palette

# normals
vn -1 0 0
vn 1 0 0
vn 0 0 1
vn 0 0 -1
vn 0 -1 0
vn 0 1 0

# texcoords
vt 0.224609 0.5
vt 0.310547 0.5
vt 0.322266 0.5
vt 0.935547 0.5
vt 0.986328 0.5
vt 0.994141 0.5

# verts
v -8 0 8
v -8 0 -8
v -8 1 8
v -8 1 5
v -8 1 -5
v -8 1 -8
v -8 2 8
v -8 2 5
v -8 2 -5
v -8 2 -8
v -2 2 2
v -2 2 1
v -2 2 -1
v -2 2 -2
v -2 3 2
v -2 3 1
v -2 3 -1
v -2 3 -2
v -2 4 1
v -2 4 -1
v -2 7 1
v -2 7 -1
v -2 8 1
v -2 8 -1
v -2 9 1
v -2 9 -1
v -1 3 2
v -1 3 1
v -1 3 -1
v -1 3 -2
v -1 4 2
v -1 4 1
v -1 4 -1
v -1 4 -2
v -1 7 2
v -1 7 1
v -1 7 -1
v -1 7 -2
v -1 8 2
v -1 8 1
v -1 8 -1
v -1 8 -2
v -1 9 2
v -1 9 1
v -1 9 -1
v -1 9 -2
v 1 8 1
v 1 8 -1
v 1 9 1
v 1 9 -1
v -1 8 1
v -1 8 -1
v -1 9 1
v -1 9 -1
v 1 3 2
v 1 3 1
v 1 3 -1
v 1 3 -2
v 1 4 2
v 1 4 1
v 1 4 -1
v 1 4 -2
v 1 7 2
v 1 7 1
v 1 7 -1
v 1 7 -2
v 1 8 2
v 1 8 1
v 1 8 -1
v 1 8 -2
v 1 9 2
v 1 9 1
v 1 9 -1
v 1 9 -2
v 2 2 2
v 2 2 1
v 2 2 -1
v 2 2 -2
v 2 3 2
v 2 3 1
v 2 3 -1
v 2 3 -2
v 2 4 1
v 2 4 -1
v 2 7 1
v 2 7 -1
v 2 8 1
v 2 8 -1
v 2 9 1
v 2 9 -1
v 8 0 8
v 8 0 -8
v 8 1 8
v 8 1 5
v 8 1 -6
v 8 1 -8
v 8 2 8
v 8 2 5
v 8 2 -6
v 8 2 -8
v -8 0 8
v -8 1 8
v -8 2 8
v -5 1 8
v -5 2 8
v 0 1 8
v 0 2 8
v 2 1 8
v 2 2 8
v 5 1 8
v 5 2 8
v 8 0 8
v 8 1 8
v 8 2 8
v -2 2 2
v -2 3 2
v -1 2 2
v -1 3 2
v -1 4 2
v -1 7 2
v -1 8 2
v -1 9 2
v 1 2 2
v 1 3 2
v 1 4 2
v 1 7 2
v 1 8 2
v 1 9 2
v 2 2 2
v 2 3 2
v -2 3 1
v -2 4 1
v -2 7 1
v -2 8 1
v -2 9 1
v -1 3 1
v -1 4 1
v -1 7 1
v -1 8 1
v -1 9 1
v 1 3 1
v 1 4 1
v 1 7 1
v 1 8 1
v 1 9 1
v 2 3 1
v 2 4 1
v 2 7 1
v 2 8 1
v 2 9 1
v -1 8 -1
v -1 9 -1
v 1 8 -1
v 1 9 -1
v -1 8 1
v -1 9 1
v 1 8 1
v 1 9 1
v -2 3 -1
v -2 4 -1
v -2 7 -1
v -2 8 -1
v -2 9 -1
v -1 3 -1
v -1 4 -1
v -1 7 -1
v -1 8 -1
v -1 9 -1
v 1 3 -1
v 1 4 -1
v 1 7 -1
v 1 8 -1
v 1 9 -1
v 2 3 -1
v 2 4 -1
v 2 7 -1
v 2 8 -1
v 2 9 -1
v -2 2 -2
v -2 3 -2
v -1 2 -2
v -1 3 -2
v -1 4 -2
v -1 7 -2
v -1 8 -2
v -1 9 -2
v 1 2 -2
v 1 3 -2
v 1 4 -2
v 1 7 -2
v 1 8 -2
v 1 9 -2
v 2 2 -2
v 2 3 -2
v -8 0 -8
v -8 1 -8
v -8 2 -8
v -5 1 -8
v -5 2 -8
v 0 1 -8
v 0 2 -8
v 2 1 -8
v 2 2 -8
v 5 1 -8
v 5 2 -8
v 8 0 -8
v 8 1 -8
v 8 2 -8
v -8 0 8
v 8 0 8
v -8 0 -8
v 8 0 -8
v -1 7 2
v 1 7 2
v -2 7 1
v -1 7 1
v 1 7 1
v 2 7 1
v -2 7 -1
v -1 7 -1
v 1 7 -1
v 2 7 -1
v -1 7 -2
v 1 7 -2
v -8 2 8
v -5 2 8
v 0 2 8
v 2 2 8
v 5 2 8
v 8 2 8
v 0 2 7
v 2 2 7
v -6 2 6
v -5 2 6
v 5 2 6
v 6 2 6
v -8 2 5
v -6 2 5
v 6 2 5
v 8 2 5
v 0 2 4
v 2 2 4
v 5 2 4
v 6 2 4
v 0 2 3
v 2 2 3
v 4 2 3
v 5 2 3
v 6 2 3
v 7 2 3
v -6 2 2
v -4 2 2
v -2 2 2
v -1 2 2
v 1 2 2
v 2 2 2
v 3 2 2
v 4 2 2
v -7 2 1
v -6 2 1
v -4 2 1
v -3 2 1
v -2 2 1
v 2 2 1
v 3 2 1
v 5 2 1
v 5 2 -0
v 7 2 -0
v -7 2 -1
v -6 2 -1
v -2 2 -1
v 2 2 -1
v -6 2 -2
v -5 2 -2
v -4 2 -2
v -3 2 -2
v -2 2 -2
v -1 2 -2
v 1 2 -2
v 2 2 -2
v 3 2 -2
v 5 2 -2
v -5 2 -3
v -4 2 -3
v 2 2 -3
v 3 2 -3
v 4 2 -4
v 5 2 -4
v -8 2 -5
v -5 2 -5
v 2 2 -5
v 4 2 -5
v 6 2 -6
v 8 2 -6
v 0 2 -7
v 2 2 -7
v 5 2 -7
v 6 2 -7
v -8 2 -8
v -5 2 -8
v 0 2 -8
v 2 2 -8
v 5 2 -8
v 8 2 -8
v -2 3 2
v -1 3 2
v 1 3 2
v 2 3 2
v -2 3 1
v -1 3 1
v 1 3 1
v 2 3 1
v -2 3 -1
v -1 3 -1
v 1 3 -1
v 2 3 -1
v -2 3 -2
v -1 3 -2
v 1 3 -2
v 2 3 -2
v -1 4 2
v 1 4 2
v -2 4 1
v -1 4 1
v 1 4 1
v 2 4 1
v -2 4 -1
v -1 4 -1
v 1 4 -1
v 2 4 -1
v -1 4 -2
v 1 4 -2
v -1 8 1
v 1 8 1
v -1 8 -1
v 1 8 -1
v -1 9 2
v 1 9 2
v -2 9 1
v -1 9 1
v 1 9 1
v 2 9 1
v -2 9 -1
v -1 9 -1
v 1 9 -1
v 2 9 -1
v -1 9 -2
v 1 9 -2

# faces
f 3/6/1 2/6/1 1/6/1
f 4/6/1 2/6/1 3/6/1
f 5/6/1 2/6/1 4/6/1
f 6/6/1 2/6/1 5/6/1
f 7/1/1 4/1/1 3/1/1
f 8/2/1 5/2/1 4/2/1
f 8/1/1 4/1/1 7/1/1
f 9/1/1 6/1/1 5/1/1
f 9/2/1 5/2/1 8/2/1
f 10/1/1 6/1/1 9/1/1
f 15/5/1 12/5/1 11/5/1
f 16/4/1 13/4/1 12/4/1
f 16/5/1 12/5/1 15/5/1
f 17/5/1 14/5/1 13/5/1
f 17/4/1 13/4/1 16/4/1
f 18/5/1 14/5/1 17/5/1
f 19/4/1 17/4/1 16/4/1
f 20/4/1 17/4/1 19/4/1
f 23/5/1 22/5/1 21/5/1
f 24/5/1 22/5/1 23/5/1
f 25/4/1 24/4/1 23/4/1
f 26/4/1 24/4/1 25/4/1
f 31/4/1 28/4/1 27/4/1
f 32/4/1 28/4/1 31/4/1
f 33/4/1 30/4/1 29/4/1
f 34/4/1 30/4/1 33/4/1
f 36/4/1 33/4/1 32/4/1
f 37/4/1 33/4/1 36/4/1
f 39/5/1 36/5/1 35/5/1
f 40/5/1 36/5/1 39/5/1
f 41/5/1 38/5/1 37/5/1
f 42/5/1 38/5/1 41/5/1
f 43/4/1 40/4/1 39/4/1
f 44/4/1 40/4/1 43/4/1
f 45/4/1 42/4/1 41/4/1
f 46/4/1 42/4/1 45/4/1
f 49/4/1 48/4/1 47/4/1
f 50/4/1 48/4/1 49/4/1
f 51/4/2 52/4/2 53/4/2
f 53/4/2 52/4/2 54/4/2
f 55/4/2 56/4/2 59/4/2
f 59/4/2 56/4/2 60/4/2
f 57/4/2 58/4/2 61/4/2
f 61/4/2 58/4/2 62/4/2
f 60/4/2 61/4/2 64/4/2
f 64/4/2 61/4/2 65/4/2
f 63/5/2 64/5/2 67/5/2
f 67/5/2 64/5/2 68/5/2
f 65/5/2 66/5/2 69/5/2
f 69/5/2 66/5/2 70/5/2
f 67/4/2 68/4/2 71/4/2
f 71/4/2 68/4/2 72/4/2
f 69/4/2 70/4/2 73/4/2
f 73/4/2 70/4/2 74/4/2
f 75/5/2 76/5/2 79/5/2
f 76/4/2 77/4/2 80/4/2
f 79/5/2 76/5/2 80/5/2
f 77/5/2 78/5/2 81/5/2
f 80/4/2 77/4/2 81/4/2
f 81/5/2 78/5/2 82/5/2
f 80/4/2 81/4/2 83/4/2
f 83/4/2 81/4/2 84/4/2
f 85/5/2 86/5/2 87/5/2
f 87/5/2 86/5/2 88/5/2
f 87/4/2 88/4/2 89/4/2
f 89/4/2 88/4/2 90/4/2
f 91/6/2 92/6/2 93/6/2
f 93/6/2 92/6/2 94/6/2
f 94/6/2 92/6/2 95/6/2
f 95/6/2 92/6/2 96/6/2
f 93/1/2 94/1/2 97/1/2
f 94/2/2 95/2/2 98/2/2
f 97/1/2 94/1/2 98/1/2
f 95/1/2 96/1/2 99/1/2
f 98/2/2 95/2/2 99/2/2
f 99/1/2 96/1/2 100/1/2
f 104/6/3 102/6/3 101/6/3
f 104/1/3 103/1/3 102/1/3
f 105/1/3 103/1/3 104/1/3
f 106/6/3 104/6/3 101/6/3
f 106/2/3 105/2/3 104/2/3
f 107/2/3 105/2/3 106/2/3
f 108/6/3 106/6/3 101/6/3
f 108/1/3 107/1/3 106/1/3
f 109/1/3 107/1/3 108/1/3
f 110/6/3 108/6/3 101/6/3
f 110/2/3 109/2/3 108/2/3
f 111/2/3 109/2/3 110/2/3
f 112/6/3 110/6/3 101/6/3
f 113/1/3 111/1/3 110/1/3
f 113/6/3 110/6/3 112/6/3
f 114/1/3 111/1/3 113/1/3
f 117/5/3 116/5/3 115/5/3
f 118/5/3 116/5/3 117/5/3
f 123/4/3 118/4/3 117/4/3
f 123/4/3 119/4/3 118/4/3
f 124/4/3 119/4/3 123/4/3
f 125/4/3 119/4/3 124/4/3
f 126/5/3 121/5/3 120/5/3
f 127/4/3 122/4/3 121/4/3
f 127/5/3 121/5/3 126/5/3
f 128/4/3 122/4/3 127/4/3
f 129/5/3 124/5/3 123/5/3
f 130/5/3 124/5/3 129/5/3
f 136/4/3 132/4/3 131/4/3
f 137/4/3 132/4/3 136/4/3
f 138/5/3 134/5/3 133/5/3
f 139/4/3 135/4/3 134/4/3
f 139/5/3 134/5/3 138/5/3
f 140/4/3 135/4/3 139/4/3
f 142/4/3 138/4/3 137/4/3
f 143/4/3 138/4/3 142/4/3
f 146/4/3 142/4/3 141/4/3
f 147/4/3 142/4/3 146/4/3
f 148/5/3 144/5/3 143/5/3
f 149/4/3 145/4/3 144/4/3
f 149/5/3 144/5/3 148/5/3
f 150/4/3 145/4/3 149/4/3
f 153/4/3 152/4/3 151/4/3
f 154/4/3 152/4/3 153/4/3
f 155/4/4 156/4/4 157/4/4
f 157/4/4 156/4/4 158/4/4
f 159/4/4 160/4/4 164/4/4
f 164/4/4 160/4/4 165/4/4
f 161/5/4 162/5/4 166/5/4
f 162/4/4 163/4/4 167/4/4
f 166/5/4 162/5/4 167/5/4
f 167/4/4 163/4/4 168/4/4
f 165/4/4 166/4/4 170/4/4
f 170/4/4 166/4/4 171/4/4
f 169/4/4 170/4/4 174/4/4
f 174/4/4 170/4/4 175/4/4
f 171/5/4 172/5/4 176/5/4
f 172/4/4 173/4/4 177/4/4
f 176/5/4 172/5/4 177/5/4
f 177/4/4 173/4/4 178/4/4
f 179/5/4 180/5/4 181/5/4
f 181/5/4 180/5/4 182/5/4
f 181/4/4 182/4/4 187/4/4
f 182/4/4 183/4/4 187/4/4
f 187/4/4 183/4/4 188/4/4
f 188/4/4 183/4/4 189/4/4
f 184/5/4 185/5/4 190/5/4
f 185/4/4 186/4/4 191/4/4
f 190/5/4 185/5/4 191/5/4
f 191/4/4 186/4/4 192/4/4
f 187/5/4 188/5/4 193/5/4
f 193/5/4 188/5/4 194/5/4
f 195/6/4 196/6/4 198/6/4
f 196/1/4 197/1/4 198/1/4
f 198/1/4 197/1/4 199/1/4
f 195/6/4 198/6/4 200/6/4
f 198/2/4 199/2/4 200/2/4
f 200/2/4 199/2/4 201/2/4
f 195/6/4 200/6/4 202/6/4
f 200/1/4 201/1/4 202/1/4
f 202/1/4 201/1/4 203/1/4
f 195/6/4 202/6/4 204/6/4
f 202/2/4 203/2/4 204/2/4
f 204/2/4 203/2/4 205/2/4
f 195/6/4 204/6/4 206/6/4
f 204/1/4 205/1/4 207/1/4
f 206/6/4 204/6/4 207/6/4
f 207/1/4 205/1/4 208/1/4
f 211/6/5 210/6/5 209/6/5
f 212/6/5 210/6/5 211/6/5
f 216/5/5 214/5/5 213/5/5
f 217/5/5 214/5/5 216/5/5
f 219/5/5 216/5/5 215/5/5
f 220/5/5 216/5/5 219/5/5
f 221/5/5 218/5/5 217/5/5
f 222/5/5 218/5/5 221/5/5
f 223/5/5 221/5/5 220/5/5
f 224/5/5 221/5/5 223/5/5
f 226/2/6 227/2/6 231/2/6
f 227/1/6 228/1/6 231/1/6
f 228/2/6 229/2/6 232/2/6
f 231/1/6 228/1/6 232/1/6
f 225/1/6 226/1/6 233/1/6
f 226/2/6 231/2/6 234/2/6
f 233/1/6 226/1/6 234/1/6
f 231/2/6 232/2/6 234/2/6
f 232/2/6 229/2/6 235/2/6
f 234/2/6 232/2/6 235/2/6
f 229/1/6 230/1/6 235/1/6
f 235/1/6 230/1/6 236/1/6
f 225/1/6 233/1/6 237/1/6
f 233/2/6 234/2/6 238/2/6
f 237/1/6 233/1/6 238/1/6
f 234/2/6 235/2/6 238/2/6
f 235/2/6 236/2/6 238/2/6
f 236/1/6 230/1/6 239/1/6
f 238/2/6 236/2/6 239/2/6
f 239/1/6 230/1/6 240/1/6
f 237/2/6 238/2/6 241/2/6
f 238/2/6 239/2/6 241/2/6
f 239/2/6 240/2/6 241/2/6
f 241/2/6 240/2/6 242/2/6
f 242/2/6 240/2/6 243/2/6
f 243/2/6 240/2/6 244/2/6
f 237/2/6 241/2/6 245/2/6
f 241/1/6 242/1/6 245/1/6
f 242/2/6 243/2/6 246/2/6
f 245/1/6 242/1/6 246/1/6
f 246/2/6 243/2/6 247/2/6
f 243/1/6 244/1/6 248/1/6
f 247/2/6 243/2/6 248/2/6
f 244/2/6 240/2/6 249/2/6
f 248/1/6 244/1/6 249/1/6
f 249/2/6 240/2/6 250/2/6
f 246/2/6 247/2/6 251/2/6
f 237/2/6 245/2/6 251/2/6
f 245/2/6 246/2/6 251/2/6
f 251/2/6 247/2/6 252/2/6
f 252/2/6 247/2/6 253/2/6
f 253/2/6 247/2/6 254/2/6
f 254/2/6 247/2/6 255/2/6
f 255/2/6 247/2/6 256/2/6
f 256/2/6 247/2/6 257/2/6
f 247/1/6 248/1/6 258/1/6
f 257/2/6 247/2/6 258/2/6
f 249/1/6 250/1/6 258/1/6
f 248/1/6 249/1/6 258/1/6
f 237/2/6 251/2/6 259/2/6
f 251/1/6 252/1/6 260/1/6
f 259/2/6 251/2/6 260/2/6
f 252/2/6 253/2/6 261/2/6
f 260/1/6 252/1/6 261/1/6
f 261/2/6 253/2/6 262/2/6
f 262/2/6 253/2/6 263/2/6
f 256/2/6 257/2/6 264/2/6
f 257/1/6 258/1/6 265/1/6
f 264/2/6 257/2/6 265/2/6
f 258/1/6 250/1/6 266/1/6
f 265/1/6 258/1/6 266/1/6
f 264/2/6 265/2/6 267/2/6
f 266/1/6 250/1/6 267/1/6
f 265/2/6 266/2/6 267/2/6
f 250/2/6 240/2/6 268/2/6
f 267/1/6 250/1/6 268/1/6
f 261/1/6 262/1/6 269/1/6
f 259/1/6 260/1/6 269/1/6
f 237/2/6 259/2/6 269/2/6
f 260/1/6 261/1/6 269/1/6
f 269/1/6 262/1/6 270/1/6
f 262/2/6 263/2/6 271/2/6
f 264/2/6 267/2/6 272/2/6
f 267/2/6 268/2/6 272/2/6
f 270/1/6 262/1/6 273/1/6
f 269/2/6 270/2/6 273/2/6
f 273/1/6 262/1/6 274/1/6
f 274/1/6 262/1/6 275/1/6
f 262/2/6 271/2/6 276/2/6
f 275/1/6 262/1/6 276/1/6
f 276/2/6 271/2/6 277/2/6
f 272/2/6 268/2/6 280/2/6
f 280/2/6 268/2/6 281/2/6
f 281/2/6 268/2/6 282/2/6
f 274/1/6 275/1/6 283/1/6
f 273/2/6 274/2/6 283/2/6
f 278/2/6 279/2/6 284/2/6
f 283/1/6 275/1/6 284/1/6
f 275/2/6 276/2/6 284/2/6
f 280/2/6 281/2/6 284/2/6
f 279/2/6 280/2/6 284/2/6
f 276/2/6 277/2/6 284/2/6
f 277/2/6 278/2/6 284/2/6
f 284/2/6 281/2/6 285/2/6
f 281/1/6 282/1/6 286/1/6
f 285/2/6 281/2/6 286/2/6
f 285/1/6 286/1/6 287/1/6
f 286/1/6 282/1/6 287/1/6
f 282/2/6 268/2/6 288/2/6
f 287/1/6 282/1/6 288/1/6
f 273/2/6 283/2/6 289/2/6
f 237/2/6 269/2/6 289/2/6
f 269/2/6 273/2/6 289/2/6
f 283/2/6 284/2/6 289/2/6
f 284/2/6 285/2/6 289/2/6
f 289/2/6 285/2/6 290/2/6
f 285/1/6 287/1/6 291/1/6
f 290/2/6 285/2/6 291/2/6
f 287/2/6 288/2/6 292/2/6
f 291/1/6 287/1/6 292/1/6
f 288/2/6 268/2/6 293/2/6
f 292/2/6 288/2/6 293/2/6
f 291/2/6 292/2/6 293/2/6
f 290/2/6 291/2/6 293/2/6
f 268/2/6 240/2/6 294/2/6
f 293/2/6 268/2/6 294/2/6
f 290/2/6 293/2/6 295/2/6
f 295/2/6 293/2/6 296/2/6
f 296/2/6 293/2/6 297/2/6
f 293/1/6 294/1/6 298/1/6
f 297/2/6 293/2/6 298/2/6
f 289/1/6 290/1/6 299/1/6
f 290/2/6 295/2/6 300/2/6
f 299/1/6 290/1/6 300/1/6
f 295/1/6 296/1/6 301/1/6
f 300/2/6 295/2/6 301/2/6
f 296/2/6 297/2/6 302/2/6
f 301/1/6 296/1/6 302/1/6
f 297/1/6 298/1/6 303/1/6
f 302/2/6 297/2/6 303/2/6
f 298/1/6 294/1/6 304/1/6
f 303/1/6 298/1/6 304/1/6
f 305/5/6 306/5/6 309/5/6
f 309/5/6 306/5/6 310/5/6
f 307/5/6 308/5/6 311/5/6
f 311/5/6 308/5/6 312/5/6
f 313/5/6 314/5/6 317/5/6
f 317/5/6 314/5/6 318/5/6
f 315/5/6 316/5/6 319/5/6
f 319/5/6 316/5/6 320/5/6
f 321/4/6 322/4/6 324/4/6
f 324/4/6 322/4/6 325/4/6
f 323/4/6 324/4/6 327/4/6
f 327/4/6 324/4/6 328/4/6
f 325/4/6 326/4/6 329/4/6
f 329/4/6 326/4/6 330/4/6
f 328/4/6 329/4/6 331/4/6
f 331/4/6 329/4/6 332/4/6
f 333/3/6 334/3/6 335/3/6
f 335/3/6 334/3/6 336/3/6
f 337/4/6 338/4/6 340/4/6
f 340/4/6 338/4/6 341/4/6
f 339/4/6 340/4/6 343/4/6
f 343/4/6 340/4/6 344/4/6
f 341/4/6 342/4/6 345/4/6
f 345/4/6 342/4/6 346/4/6
f 344/4/6 345/4/6 347/4/6
f 347/4/6 345/4/6 348/4/6
