# MagicaVoxel @ Ephtracy

# group
g YAVD_Tiles-65

# material
mtllib YAVD_Tiles-65.mtl
usemtl palette

# normals
vn -1 0 0
vn 1 0 0
vn 0 0 1
vn 0 0 -1
vn 0 -1 0
vn 0 1 0

# texcoords
vt 0.197266 0.5
vt 0.224609 0.5
vt 0.228516 0.5
vt 0.298828 0.5

# verts
v -3.5 0 2.5
v -3.5 0 1.5
v -3.5 0 -1.5
v -3.5 0 -2.5
v -3.5 6 2.5
v -3.5 6 1.5
v -3.5 6 -1.5
v -3.5 6 -2.5
v -2.5 1 3.5
v -2.5 1 2.5
v -2.5 1 1.5
v -2.5 1 -1.5
v -2.5 1 -2.5
v -2.5 1 -3.5
v -2.5 2 3.5
v -2.5 2 2.5
v -2.5 2 1.5
v -2.5 2 -1.5
v -2.5 2 -2.5
v -2.5 2 -3.5
v -2.5 3 3.5
v -2.5 3 2.5
v -2.5 3 1.5
v -2.5 3 -1.5
v -2.5 3 -2.5
v -2.5 3 -3.5
v -2.5 4 3.5
v -2.5 4 2.5
v -2.5 4 1.5
v -2.5 4 -1.5
v -2.5 4 -2.5
v -2.5 4 -3.5
v -2.5 5 3.5
v -2.5 5 2.5
v -2.5 5 1.5
v -2.5 5 -1.5
v -2.5 5 -2.5
v -2.5 5 -3.5
v -2.5 6 3.5
v -2.5 6 2.5
v -2.5 6 1.5
v -2.5 6 -1.5
v -2.5 6 -2.5
v -2.5 6 -3.5
v -2.5 7 2.5
v -2.5 7 1.5
v -2.5 7 -1.5
v -2.5 7 -2.5
v 2.5 1 3.5
v 2.5 1 2.5
v 2.5 1 1.5
v 2.5 1 -1.5
v 2.5 1 -2.5
v 2.5 1 -3.5
v 2.5 2 3.5
v 2.5 2 2.5
v 2.5 2 1.5
v 2.5 2 -1.5
v 2.5 2 -2.5
v 2.5 2 -3.5
v 2.5 3 3.5
v 2.5 3 2.5
v 2.5 3 1.5
v 2.5 3 -1.5
v 2.5 3 -2.5
v 2.5 3 -3.5
v 2.5 4 3.5
v 2.5 4 2.5
v 2.5 4 1.5
v 2.5 4 -1.5
v 2.5 4 -2.5
v 2.5 4 -3.5
v 2.5 5 3.5
v 2.5 5 2.5
v 2.5 5 1.5
v 2.5 5 -1.5
v 2.5 5 -2.5
v 2.5 5 -3.5
v 2.5 6 3.5
v 2.5 6 2.5
v 2.5 6 1.5
v 2.5 6 -1.5
v 2.5 6 -2.5
v 2.5 6 -3.5
v 2.5 7 2.5
v 2.5 7 1.5
v 2.5 7 -1.5
v 2.5 7 -2.5
v 3.5 0 2.5
v 3.5 0 1.5
v 3.5 0 -1.5
v 3.5 0 -2.5
v 3.5 6 2.5
v 3.5 6 1.5
v 3.5 6 -1.5
v 3.5 6 -2.5
v -2.5 1 3.5
v -2.5 2 3.5
v -2.5 3 3.5
v -2.5 4 3.5
v -2.5 5 3.5
v -2.5 6 3.5
v -1.5 1 3.5
v -1.5 2 3.5
v -1.5 5 3.5
v -1.5 6 3.5
v -0.5 1 3.5
v -0.5 2 3.5
v -0.5 5 3.5
v -0.5 6 3.5
v 0.5 1 3.5
v 0.5 2 3.5
v 0.5 5 3.5
v 0.5 6 3.5
v 1.5 1 3.5
v 1.5 2 3.5
v 1.5 5 3.5
v 1.5 6 3.5
v 2.5 1 3.5
v 2.5 2 3.5
v 2.5 3 3.5
v 2.5 4 3.5
v 2.5 5 3.5
v 2.5 6 3.5
v -3.5 0 2.5
v -3.5 6 2.5
v -2.5 1 2.5
v -2.5 2 2.5
v -2.5 3 2.5
v -2.5 4 2.5
v -2.5 5 2.5
v -2.5 6 2.5
v -2.5 7 2.5
v -1.5 1 2.5
v -1.5 6 2.5
v -0.5 1 2.5
v -0.5 6 2.5
v 0.5 1 2.5
v 0.5 6 2.5
v 1.5 1 2.5
v 1.5 6 2.5
v 2.5 1 2.5
v 2.5 2 2.5
v 2.5 3 2.5
v 2.5 4 2.5
v 2.5 5 2.5
v 2.5 6 2.5
v 2.5 7 2.5
v 3.5 0 2.5
v 3.5 6 2.5
v -3.5 0 -1.5
v -3.5 6 -1.5
v -2.5 1 -1.5
v -2.5 2 -1.5
v -2.5 3 -1.5
v -2.5 4 -1.5
v -2.5 5 -1.5
v -2.5 6 -1.5
v -2.5 7 -1.5
v -1.5 1 -1.5
v -1.5 6 -1.5
v -0.5 1 -1.5
v -0.5 6 -1.5
v 0.5 1 -1.5
v 0.5 6 -1.5
v 1.5 1 -1.5
v 1.5 6 -1.5
v 2.5 1 -1.5
v 2.5 2 -1.5
v 2.5 3 -1.5
v 2.5 4 -1.5
v 2.5 5 -1.5
v 2.5 6 -1.5
v 2.5 7 -1.5
v 3.5 0 -1.5
v 3.5 6 -1.5
v -3.5 0 1.5
v -3.5 6 1.5
v -2.5 1 1.5
v -2.5 2 1.5
v -2.5 3 1.5
v -2.5 4 1.5
v -2.5 5 1.5
v -2.5 6 1.5
v -2.5 7 1.5
v -1.5 1 1.5
v -1.5 6 1.5
v -0.5 1 1.5
v -0.5 6 1.5
v 0.5 1 1.5
v 0.5 6 1.5
v 1.5 1 1.5
v 1.5 6 1.5
v 2.5 1 1.5
v 2.5 2 1.5
v 2.5 3 1.5
v 2.5 4 1.5
v 2.5 5 1.5
v 2.5 6 1.5
v 2.5 7 1.5
v 3.5 0 1.5
v 3.5 6 1.5
v -3.5 0 -2.5
v -3.5 6 -2.5
v -2.5 1 -2.5
v -2.5 2 -2.5
v -2.5 3 -2.5
v -2.5 4 -2.5
v -2.5 5 -2.5
v -2.5 6 -2.5
v -2.5 7 -2.5
v -1.5 1 -2.5
v -1.5 6 -2.5
v -0.5 1 -2.5
v -0.5 6 -2.5
v 0.5 1 -2.5
v 0.5 6 -2.5
v 1.5 1 -2.5
v 1.5 6 -2.5
v 2.5 1 -2.5
v 2.5 2 -2.5
v 2.5 3 -2.5
v 2.5 4 -2.5
v 2.5 5 -2.5
v 2.5 6 -2.5
v 2.5 7 -2.5
v 3.5 0 -2.5
v 3.5 6 -2.5
v -2.5 1 -3.5
v -2.5 2 -3.5
v -2.5 3 -3.5
v -2.5 4 -3.5
v -2.5 5 -3.5
v -2.5 6 -3.5
v -1.5 1 -3.5
v -1.5 2 -3.5
v -1.5 5 -3.5
v -1.5 6 -3.5
v -0.5 1 -3.5
v -0.5 2 -3.5
v -0.5 5 -3.5
v -0.5 6 -3.5
v 0.5 1 -3.5
v 0.5 2 -3.5
v 0.5 5 -3.5
v 0.5 6 -3.5
v 1.5 1 -3.5
v 1.5 2 -3.5
v 1.5 5 -3.5
v 1.5 6 -3.5
v 2.5 1 -3.5
v 2.5 2 -3.5
v 2.5 3 -3.5
v 2.5 4 -3.5
v 2.5 5 -3.5
v 2.5 6 -3.5
v -3.5 0 2.5
v 3.5 0 2.5
v -3.5 0 1.5
v 3.5 0 1.5
v -3.5 0 -1.5
v 3.5 0 -1.5
v -3.5 0 -2.5
v 3.5 0 -2.5
v -2.5 1 3.5
v -1.5 1 3.5
v -0.5 1 3.5
v 0.5 1 3.5
v 1.5 1 3.5
v 2.5 1 3.5
v -2.5 1 2.5
v -1.5 1 2.5
v -0.5 1 2.5
v 0.5 1 2.5
v 1.5 1 2.5
v 2.5 1 2.5
v -2.5 1 1.5
v -1.5 1 1.5
v -0.5 1 1.5
v 0.5 1 1.5
v 1.5 1 1.5
v 2.5 1 1.5
v -2.5 1 -1.5
v -1.5 1 -1.5
v -0.5 1 -1.5
v 0.5 1 -1.5
v 1.5 1 -1.5
v 2.5 1 -1.5
v -2.5 1 -2.5
v -1.5 1 -2.5
v -0.5 1 -2.5
v 0.5 1 -2.5
v 1.5 1 -2.5
v 2.5 1 -2.5
v -2.5 1 -3.5
v -1.5 1 -3.5
v -0.5 1 -3.5
v 0.5 1 -3.5
v 1.5 1 -3.5
v 2.5 1 -3.5
v -2.5 6 3.5
v -1.5 6 3.5
v -0.5 6 3.5
v 0.5 6 3.5
v 1.5 6 3.5
v 2.5 6 3.5
v -3.5 6 2.5
v -2.5 6 2.5
v -1.5 6 2.5
v -0.5 6 2.5
v 0.5 6 2.5
v 1.5 6 2.5
v 2.5 6 2.5
v 3.5 6 2.5
v -3.5 6 1.5
v -2.5 6 1.5
v -1.5 6 1.5
v -0.5 6 1.5
v 0.5 6 1.5
v 1.5 6 1.5
v 2.5 6 1.5
v 3.5 6 1.5
v -3.5 6 -1.5
v -2.5 6 -1.5
v -1.5 6 -1.5
v -0.5 6 -1.5
v 0.5 6 -1.5
v 1.5 6 -1.5
v 2.5 6 -1.5
v 3.5 6 -1.5
v -3.5 6 -2.5
v -2.5 6 -2.5
v -1.5 6 -2.5
v -0.5 6 -2.5
v 0.5 6 -2.5
v 1.5 6 -2.5
v 2.5 6 -2.5
v 3.5 6 -2.5
v -2.5 6 -3.5
v -1.5 6 -3.5
v -0.5 6 -3.5
v 0.5 6 -3.5
v 1.5 6 -3.5
v 2.5 6 -3.5
v -2.5 7 2.5
v 2.5 7 2.5
v -2.5 7 1.5
v 2.5 7 1.5
v -2.5 7 -1.5
v 2.5 7 -1.5
v -2.5 7 -2.5
v 2.5 7 -2.5

# faces
f 5/4/1 2/4/1 1/4/1
f 6/4/1 2/4/1 5/4/1
f 7/4/1 4/4/1 3/4/1
f 8/4/1 4/4/1 7/4/1
f 15/2/1 10/2/1 9/2/1
f 16/2/1 10/2/1 15/2/1
f 17/2/1 12/2/1 11/2/1
f 18/2/1 12/2/1 17/2/1
f 19/2/1 14/2/1 13/2/1
f 20/2/1 14/2/1 19/2/1
f 21/3/1 16/3/1 15/3/1
f 22/3/1 16/3/1 21/3/1
f 23/3/1 18/3/1 17/3/1
f 24/3/1 18/3/1 23/3/1
f 25/3/1 20/3/1 19/3/1
f 26/3/1 20/3/1 25/3/1
f 27/2/1 22/2/1 21/2/1
f 28/2/1 22/2/1 27/2/1
f 29/2/1 24/2/1 23/2/1
f 30/2/1 24/2/1 29/2/1
f 31/2/1 26/2/1 25/2/1
f 32/2/1 26/2/1 31/2/1
f 33/3/1 28/3/1 27/3/1
f 34/3/1 28/3/1 33/3/1
f 35/3/1 30/3/1 29/3/1
f 36/3/1 30/3/1 35/3/1
f 37/3/1 32/3/1 31/3/1
f 38/3/1 32/3/1 37/3/1
f 39/2/1 34/2/1 33/2/1
f 40/2/1 34/2/1 39/2/1
f 41/2/1 36/2/1 35/2/1
f 42/2/1 36/2/1 41/2/1
f 43/2/1 38/2/1 37/2/1
f 44/2/1 38/2/1 43/2/1
f 45/4/1 41/4/1 40/4/1
f 46/4/1 41/4/1 45/4/1
f 47/4/1 43/4/1 42/4/1
f 48/4/1 43/4/1 47/4/1
f 49/2/2 50/2/2 55/2/2
f 55/2/2 50/2/2 56/2/2
f 51/2/2 52/2/2 57/2/2
f 57/2/2 52/2/2 58/2/2
f 53/2/2 54/2/2 59/2/2
f 59/2/2 54/2/2 60/2/2
f 55/3/2 56/3/2 61/3/2
f 61/3/2 56/3/2 62/3/2
f 57/3/2 58/3/2 63/3/2
f 63/3/2 58/3/2 64/3/2
f 59/3/2 60/3/2 65/3/2
f 65/3/2 60/3/2 66/3/2
f 61/2/2 62/2/2 67/2/2
f 67/2/2 62/2/2 68/2/2
f 63/2/2 64/2/2 69/2/2
f 69/2/2 64/2/2 70/2/2
f 65/2/2 66/2/2 71/2/2
f 71/2/2 66/2/2 72/2/2
f 67/3/2 68/3/2 73/3/2
f 73/3/2 68/3/2 74/3/2
f 69/3/2 70/3/2 75/3/2
f 75/3/2 70/3/2 76/3/2
f 71/3/2 72/3/2 77/3/2
f 77/3/2 72/3/2 78/3/2
f 73/2/2 74/2/2 79/2/2
f 79/2/2 74/2/2 80/2/2
f 75/2/2 76/2/2 81/2/2
f 81/2/2 76/2/2 82/2/2
f 77/2/2 78/2/2 83/2/2
f 83/2/2 78/2/2 84/2/2
f 80/4/2 81/4/2 85/4/2
f 85/4/2 81/4/2 86/4/2
f 82/4/2 83/4/2 87/4/2
f 87/4/2 83/4/2 88/4/2
f 89/4/2 90/4/2 93/4/2
f 93/4/2 90/4/2 94/4/2
f 91/4/2 92/4/2 95/4/2
f 95/4/2 92/4/2 96/4/2
f 103/2/3 98/2/3 97/2/3
f 104/3/3 99/3/3 98/3/3
f 104/2/3 98/2/3 103/2/3
f 105/2/3 102/2/3 101/2/3
f 105/3/3 101/3/3 100/3/3
f 106/2/3 102/2/3 105/2/3
f 107/3/3 104/3/3 103/3/3
f 108/3/3 99/3/3 104/3/3
f 108/3/3 104/3/3 107/3/3
f 109/3/3 105/3/3 100/3/3
f 109/3/3 106/3/3 105/3/3
f 110/3/3 106/3/3 109/3/3
f 111/2/3 108/2/3 107/2/3
f 112/3/3 99/3/3 108/3/3
f 112/2/3 108/2/3 111/2/3
f 113/3/3 109/3/3 100/3/3
f 113/2/3 110/2/3 109/2/3
f 114/2/3 110/2/3 113/2/3
f 115/3/3 112/3/3 111/3/3
f 116/3/3 99/3/3 112/3/3
f 116/3/3 112/3/3 115/3/3
f 117/3/3 113/3/3 100/3/3
f 117/3/3 114/3/3 113/3/3
f 118/3/3 114/3/3 117/3/3
f 119/2/3 116/2/3 115/2/3
f 120/3/3 99/3/3 116/3/3
f 120/2/3 116/2/3 119/2/3
f 121/2/3 100/2/3 99/2/3
f 121/3/3 99/3/3 120/3/3
f 122/3/3 117/3/3 100/3/3
f 122/2/3 100/2/3 121/2/3
f 123/2/3 118/2/3 117/2/3
f 123/3/3 117/3/3 122/3/3
f 124/2/3 118/2/3 123/2/3
f 127/4/3 126/4/3 125/4/3
f 128/4/3 126/4/3 127/4/3
f 129/4/3 126/4/3 128/4/3
f 130/4/3 126/4/3 129/4/3
f 131/4/3 126/4/3 130/4/3
f 132/4/3 126/4/3 131/4/3
f 134/4/3 127/4/3 125/4/3
f 135/4/3 133/4/3 132/4/3
f 136/4/3 134/4/3 125/4/3
f 137/4/3 133/4/3 135/4/3
f 138/4/3 136/4/3 125/4/3
f 139/4/3 133/4/3 137/4/3
f 140/4/3 138/4/3 125/4/3
f 141/4/3 133/4/3 139/4/3
f 142/4/3 140/4/3 125/4/3
f 147/4/3 133/4/3 141/4/3
f 148/4/3 133/4/3 147/4/3
f 149/4/3 146/4/3 145/4/3
f 149/4/3 142/4/3 125/4/3
f 149/4/3 147/4/3 146/4/3
f 149/4/3 143/4/3 142/4/3
f 149/4/3 145/4/3 144/4/3
f 149/4/3 144/4/3 143/4/3
f 150/4/3 147/4/3 149/4/3
f 153/4/3 152/4/3 151/4/3
f 154/4/3 152/4/3 153/4/3
f 155/4/3 152/4/3 154/4/3
f 156/4/3 152/4/3 155/4/3
f 157/4/3 152/4/3 156/4/3
f 158/4/3 152/4/3 157/4/3
f 160/4/3 153/4/3 151/4/3
f 161/4/3 159/4/3 158/4/3
f 162/4/3 160/4/3 151/4/3
f 163/4/3 159/4/3 161/4/3
f 164/4/3 162/4/3 151/4/3
f 165/4/3 159/4/3 163/4/3
f 166/4/3 164/4/3 151/4/3
f 167/4/3 159/4/3 165/4/3
f 168/4/3 166/4/3 151/4/3
f 173/4/3 159/4/3 167/4/3
f 174/4/3 159/4/3 173/4/3
f 175/4/3 172/4/3 171/4/3
f 175/4/3 168/4/3 151/4/3
f 175/4/3 173/4/3 172/4/3
f 175/4/3 169/4/3 168/4/3
f 175/4/3 171/4/3 170/4/3
f 175/4/3 170/4/3 169/4/3
f 176/4/3 173/4/3 175/4/3
f 177/4/4 178/4/4 179/4/4
f 179/4/4 178/4/4 180/4/4
f 180/4/4 178/4/4 181/4/4
f 181/4/4 178/4/4 182/4/4
f 182/4/4 178/4/4 183/4/4
f 183/4/4 178/4/4 184/4/4
f 177/4/4 179/4/4 186/4/4
f 184/4/4 185/4/4 187/4/4
f 177/4/4 186/4/4 188/4/4
f 187/4/4 185/4/4 189/4/4
f 177/4/4 188/4/4 190/4/4
f 189/4/4 185/4/4 191/4/4
f 177/4/4 190/4/4 192/4/4
f 191/4/4 185/4/4 193/4/4
f 177/4/4 192/4/4 194/4/4
f 193/4/4 185/4/4 199/4/4
f 199/4/4 185/4/4 200/4/4
f 197/4/4 198/4/4 201/4/4
f 177/4/4 194/4/4 201/4/4
f 198/4/4 199/4/4 201/4/4
f 194/4/4 195/4/4 201/4/4
f 196/4/4 197/4/4 201/4/4
f 195/4/4 196/4/4 201/4/4
f 201/4/4 199/4/4 202/4/4
f 203/4/4 204/4/4 205/4/4
f 205/4/4 204/4/4 206/4/4
f 206/4/4 204/4/4 207/4/4
f 207/4/4 204/4/4 208/4/4
f 208/4/4 204/4/4 209/4/4
f 209/4/4 204/4/4 210/4/4
f 203/4/4 205/4/4 212/4/4
f 210/4/4 211/4/4 213/4/4
f 203/4/4 212/4/4 214/4/4
f 213/4/4 211/4/4 215/4/4
f 203/4/4 214/4/4 216/4/4
f 215/4/4 211/4/4 217/4/4
f 203/4/4 216/4/4 218/4/4
f 217/4/4 211/4/4 219/4/4
f 203/4/4 218/4/4 220/4/4
f 219/4/4 211/4/4 225/4/4
f 225/4/4 211/4/4 226/4/4
f 223/4/4 224/4/4 227/4/4
f 203/4/4 220/4/4 227/4/4
f 224/4/4 225/4/4 227/4/4
f 220/4/4 221/4/4 227/4/4
f 222/4/4 223/4/4 227/4/4
f 221/4/4 222/4/4 227/4/4
f 227/4/4 225/4/4 228/4/4
f 229/2/4 230/2/4 235/2/4
f 230/3/4 231/3/4 236/3/4
f 235/2/4 230/2/4 236/2/4
f 233/2/4 234/2/4 237/2/4
f 232/3/4 233/3/4 237/3/4
f 237/2/4 234/2/4 238/2/4
f 235/3/4 236/3/4 239/3/4
f 236/3/4 231/3/4 240/3/4
f 239/3/4 236/3/4 240/3/4
f 232/3/4 237/3/4 241/3/4
f 237/3/4 238/3/4 241/3/4
f 241/3/4 238/3/4 242/3/4
f 239/2/4 240/2/4 243/2/4
f 240/3/4 231/3/4 244/3/4
f 243/2/4 240/2/4 244/2/4
f 232/3/4 241/3/4 245/3/4
f 241/2/4 242/2/4 245/2/4
f 245/2/4 242/2/4 246/2/4
f 243/3/4 244/3/4 247/3/4
f 244/3/4 231/3/4 248/3/4
f 247/3/4 244/3/4 248/3/4
f 232/3/4 245/3/4 249/3/4
f 245/3/4 246/3/4 249/3/4
f 249/3/4 246/3/4 250/3/4
f 247/2/4 248/2/4 251/2/4
f 248/3/4 231/3/4 252/3/4
f 251/2/4 248/2/4 252/2/4
f 231/2/4 232/2/4 253/2/4
f 252/3/4 231/3/4 253/3/4
f 232/3/4 249/3/4 254/3/4
f 253/2/4 232/2/4 254/2/4
f 249/2/4 250/2/4 255/2/4
f 254/3/4 249/3/4 255/3/4
f 255/2/4 250/2/4 256/2/4
f 259/4/5 258/4/5 257/4/5
f 260/4/5 258/4/5 259/4/5
f 263/4/5 262/4/5 261/4/5
f 264/4/5 262/4/5 263/4/5
f 271/2/5 266/2/5 265/2/5
f 272/3/5 267/3/5 266/3/5
f 272/2/5 266/2/5 271/2/5
f 273/2/5 268/2/5 267/2/5
f 273/3/5 267/3/5 272/3/5
f 274/3/5 269/3/5 268/3/5
f 274/2/5 268/2/5 273/2/5
f 275/2/5 270/2/5 269/2/5
f 275/3/5 269/3/5 274/3/5
f 276/2/5 270/2/5 275/2/5
f 283/2/5 278/2/5 277/2/5
f 284/3/5 279/3/5 278/3/5
f 284/2/5 278/2/5 283/2/5
f 285/2/5 280/2/5 279/2/5
f 285/3/5 279/3/5 284/3/5
f 286/3/5 281/3/5 280/3/5
f 286/2/5 280/2/5 285/2/5
f 287/2/5 282/2/5 281/2/5
f 287/3/5 281/3/5 286/3/5
f 288/2/5 282/2/5 287/2/5
f 295/2/5 290/2/5 289/2/5
f 296/3/5 291/3/5 290/3/5
f 296/2/5 290/2/5 295/2/5
f 297/2/5 292/2/5 291/2/5
f 297/3/5 291/3/5 296/3/5
f 298/3/5 293/3/5 292/3/5
f 298/2/5 292/2/5 297/2/5
f 299/2/5 294/2/5 293/2/5
f 299/3/5 293/3/5 298/3/5
f 300/2/5 294/2/5 299/2/5
f 301/2/6 302/2/6 308/2/6
f 302/3/6 303/3/6 309/3/6
f 308/2/6 302/2/6 309/2/6
f 303/2/6 304/2/6 310/2/6
f 309/3/6 303/3/6 310/3/6
f 304/3/6 305/3/6 311/3/6
f 310/2/6 304/2/6 311/2/6
f 305/2/6 306/2/6 312/2/6
f 311/3/6 305/3/6 312/3/6
f 312/2/6 306/2/6 313/2/6
f 307/4/6 308/4/6 315/4/6
f 315/4/6 308/4/6 316/4/6
f 313/4/6 314/4/6 321/4/6
f 321/4/6 314/4/6 322/4/6
f 316/2/6 317/2/6 324/2/6
f 317/3/6 318/3/6 325/3/6
f 324/2/6 317/2/6 325/2/6
f 318/2/6 319/2/6 326/2/6
f 325/3/6 318/3/6 326/3/6
f 319/3/6 320/3/6 327/3/6
f 326/2/6 319/2/6 327/2/6
f 320/2/6 321/2/6 328/2/6
f 327/3/6 320/3/6 328/3/6
f 328/2/6 321/2/6 329/2/6
f 323/4/6 324/4/6 331/4/6
f 331/4/6 324/4/6 332/4/6
f 329/4/6 330/4/6 337/4/6
f 337/4/6 330/4/6 338/4/6
f 332/2/6 333/2/6 339/2/6
f 333/3/6 334/3/6 340/3/6
f 339/2/6 333/2/6 340/2/6
f 334/2/6 335/2/6 341/2/6
f 340/3/6 334/3/6 341/3/6
f 335/3/6 336/3/6 342/3/6
f 341/2/6 335/2/6 342/2/6
f 336/2/6 337/2/6 343/2/6
f 342/3/6 336/3/6 343/3/6
f 343/2/6 337/2/6 344/2/6
f 345/4/6 346/4/6 347/4/6
f 347/4/6 346/4/6 348/4/6
f 349/4/6 350/4/6 351/4/6
f 351/4/6 350/4/6 352/4/6
