# MagicaVoxel @ Ephtracy

# group
g YAVD_Tiles-58

# material
mtllib YAVD_Tiles-58.mtl
usemtl palette

# normals
vn -1 0 0
vn 1 0 0
vn 0 0 1
vn 0 0 -1
vn 0 -1 0
vn 0 1 0

# texcoords
vt 0.00195313 0.5
vt 0.482422 0.5

# verts
v -3.5 9 0.5
v -3.5 9 -0.5
v -3.5 10 0.5
v -3.5 10 -0.5
v -3.5 11 0.5
v -3.5 11 -0.5
v -2.5 0 0.5
v -2.5 0 -0.5
v -2.5 2 0.5
v -2.5 2 -0.5
v -2.5 8 0.5
v -2.5 8 -0.5
v -2.5 9 0.5
v -2.5 9 -0.5
v -1.5 2 0.5
v -1.5 2 -0.5
v -1.5 3 0.5
v -1.5 3 -0.5
v -1.5 7 0.5
v -1.5 7 -0.5
v -1.5 8 0.5
v -1.5 8 -0.5
v -0.5 0 2.5
v -0.5 0 1.5
v -0.5 0 -1.5
v -0.5 0 -2.5
v -0.5 2 2.5
v -0.5 2 1.5
v -0.5 2 0.5
v -0.5 2 -0.5
v -0.5 2 -1.5
v -0.5 2 -2.5
v -0.5 3 1.5
v -0.5 3 0.5
v -0.5 3 -0.5
v -0.5 3 -1.5
v -0.5 7 1.5
v -0.5 7 0.5
v -0.5 7 -0.5
v -0.5 7 -1.5
v -0.5 8 2.5
v -0.5 8 1.5
v -0.5 8 0.5
v -0.5 8 -0.5
v -0.5 8 -1.5
v -0.5 8 -2.5
v -0.5 9 3.5
v -0.5 9 2.5
v -0.5 9 1.5
v -0.5 9 -1.5
v -0.5 9 -2.5
v -0.5 9 -3.5
v -0.5 10 3.5
v -0.5 10 2.5
v -0.5 10 -2.5
v -0.5 10 -3.5
v -0.5 11 3.5
v -0.5 11 2.5
v -0.5 11 -2.5
v -0.5 11 -3.5
v 1.5 0 0.5
v 1.5 0 -0.5
v 1.5 2 0.5
v 1.5 2 -0.5
v 1.5 8 0.5
v 1.5 8 -0.5
v 1.5 9 0.5
v 1.5 9 -0.5
v 2.5 9 0.5
v 2.5 9 -0.5
v 2.5 10 0.5
v 2.5 10 -0.5
v 2.5 11 0.5
v 2.5 11 -0.5
v -2.5 9 0.5
v -2.5 9 -0.5
v -2.5 10 0.5
v -2.5 10 -0.5
v -2.5 11 0.5
v -2.5 11 -0.5
v -1.5 0 0.5
v -1.5 0 -0.5
v -1.5 2 0.5
v -1.5 2 -0.5
v -1.5 8 0.5
v -1.5 8 -0.5
v -1.5 9 0.5
v -1.5 9 -0.5
v 0.5 0 2.5
v 0.5 0 1.5
v 0.5 0 -1.5
v 0.5 0 -2.5
v 0.5 2 2.5
v 0.5 2 1.5
v 0.5 2 0.5
v 0.5 2 -0.5
v 0.5 2 -1.5
v 0.5 2 -2.5
v 0.5 3 1.5
v 0.5 3 0.5
v 0.5 3 -0.5
v 0.5 3 -1.5
v 0.5 7 1.5
v 0.5 7 0.5
v 0.5 7 -0.5
v 0.5 7 -1.5
v 0.5 8 2.5
v 0.5 8 1.5
v 0.5 8 0.5
v 0.5 8 -0.5
v 0.5 8 -1.5
v 0.5 8 -2.5
v 0.5 9 3.5
v 0.5 9 2.5
v 0.5 9 1.5
v 0.5 9 -1.5
v 0.5 9 -2.5
v 0.5 9 -3.5
v 0.5 10 3.5
v 0.5 10 2.5
v 0.5 10 -2.5
v 0.5 10 -3.5
v 0.5 11 3.5
v 0.5 11 2.5
v 0.5 11 -2.5
v 0.5 11 -3.5
v 1.5 2 0.5
v 1.5 2 -0.5
v 1.5 3 0.5
v 1.5 3 -0.5
v 1.5 7 0.5
v 1.5 7 -0.5
v 1.5 8 0.5
v 1.5 8 -0.5
v 2.5 0 0.5
v 2.5 0 -0.5
v 2.5 2 0.5
v 2.5 2 -0.5
v 2.5 8 0.5
v 2.5 8 -0.5
v 2.5 9 0.5
v 2.5 9 -0.5
v 3.5 9 0.5
v 3.5 9 -0.5
v 3.5 10 0.5
v 3.5 10 -0.5
v 3.5 11 0.5
v 3.5 11 -0.5
v -0.5 9 3.5
v -0.5 10 3.5
v -0.5 11 3.5
v 0.5 9 3.5
v 0.5 10 3.5
v 0.5 11 3.5
v -0.5 0 2.5
v -0.5 2 2.5
v -0.5 8 2.5
v -0.5 9 2.5
v 0.5 0 2.5
v 0.5 2 2.5
v 0.5 8 2.5
v 0.5 9 2.5
v -0.5 2 1.5
v -0.5 3 1.5
v -0.5 7 1.5
v -0.5 8 1.5
v 0.5 2 1.5
v 0.5 3 1.5
v 0.5 7 1.5
v 0.5 8 1.5
v -3.5 9 0.5
v -3.5 10 0.5
v -3.5 11 0.5
v -2.5 0 0.5
v -2.5 2 0.5
v -2.5 8 0.5
v -2.5 9 0.5
v -2.5 10 0.5
v -2.5 11 0.5
v -1.5 0 0.5
v -1.5 2 0.5
v -1.5 3 0.5
v -1.5 7 0.5
v -1.5 8 0.5
v -1.5 9 0.5
v -0.5 2 0.5
v -0.5 3 0.5
v -0.5 7 0.5
v -0.5 8 0.5
v 0.5 2 0.5
v 0.5 3 0.5
v 0.5 7 0.5
v 0.5 8 0.5
v 1.5 0 0.5
v 1.5 2 0.5
v 1.5 3 0.5
v 1.5 7 0.5
v 1.5 8 0.5
v 1.5 9 0.5
v 2.5 0 0.5
v 2.5 2 0.5
v 2.5 8 0.5
v 2.5 9 0.5
v 2.5 10 0.5
v 2.5 11 0.5
v 3.5 9 0.5
v 3.5 10 0.5
v 3.5 11 0.5
v -0.5 0 -1.5
v -0.5 2 -1.5
v -0.5 8 -1.5
v -0.5 9 -1.5
v 0.5 0 -1.5
v 0.5 2 -1.5
v 0.5 8 -1.5
v 0.5 9 -1.5
v -0.5 9 -2.5
v -0.5 10 -2.5
v -0.5 11 -2.5
v 0.5 9 -2.5
v 0.5 10 -2.5
v 0.5 11 -2.5
v -0.5 9 2.5
v -0.5 10 2.5
v -0.5 11 2.5
v 0.5 9 2.5
v 0.5 10 2.5
v 0.5 11 2.5
v -0.5 0 1.5
v -0.5 2 1.5
v -0.5 8 1.5
v -0.5 9 1.5
v 0.5 0 1.5
v 0.5 2 1.5
v 0.5 8 1.5
v 0.5 9 1.5
v -3.5 9 -0.5
v -3.5 10 -0.5
v -3.5 11 -0.5
v -2.5 0 -0.5
v -2.5 2 -0.5
v -2.5 8 -0.5
v -2.5 9 -0.5
v -2.5 10 -0.5
v -2.5 11 -0.5
v -1.5 0 -0.5
v -1.5 2 -0.5
v -1.5 3 -0.5
v -1.5 7 -0.5
v -1.5 8 -0.5
v -1.5 9 -0.5
v -0.5 2 -0.5
v -0.5 3 -0.5
v -0.5 7 -0.5
v -0.5 8 -0.5
v 0.5 2 -0.5
v 0.5 3 -0.5
v 0.5 7 -0.5
v 0.5 8 -0.5
v 1.5 0 -0.5
v 1.5 2 -0.5
v 1.5 3 -0.5
v 1.5 7 -0.5
v 1.5 8 -0.5
v 1.5 9 -0.5
v 2.5 0 -0.5
v 2.5 2 -0.5
v 2.5 8 -0.5
v 2.5 9 -0.5
v 2.5 10 -0.5
v 2.5 11 -0.5
v 3.5 9 -0.5
v 3.5 10 -0.5
v 3.5 11 -0.5
v -0.5 2 -1.5
v -0.5 3 -1.5
v -0.5 7 -1.5
v -0.5 8 -1.5
v 0.5 2 -1.5
v 0.5 3 -1.5
v 0.5 7 -1.5
v 0.5 8 -1.5
v -0.5 0 -2.5
v -0.5 2 -2.5
v -0.5 8 -2.5
v -0.5 9 -2.5
v 0.5 0 -2.5
v 0.5 2 -2.5
v 0.5 8 -2.5
v 0.5 9 -2.5
v -0.5 9 -3.5
v -0.5 10 -3.5
v -0.5 11 -3.5
v 0.5 9 -3.5
v 0.5 10 -3.5
v 0.5 11 -3.5
v -0.5 0 2.5
v 0.5 0 2.5
v -0.5 0 1.5
v 0.5 0 1.5
v -2.5 0 0.5
v -1.5 0 0.5
v 1.5 0 0.5
v 2.5 0 0.5
v -2.5 0 -0.5
v -1.5 0 -0.5
v 1.5 0 -0.5
v 2.5 0 -0.5
v -0.5 0 -1.5
v 0.5 0 -1.5
v -0.5 0 -2.5
v 0.5 0 -2.5
v -0.5 2 1.5
v 0.5 2 1.5
v -1.5 2 0.5
v -0.5 2 0.5
v 0.5 2 0.5
v 1.5 2 0.5
v -1.5 2 -0.5
v -0.5 2 -0.5
v 0.5 2 -0.5
v 1.5 2 -0.5
v -0.5 2 -1.5
v 0.5 2 -1.5
v -0.5 7 1.5
v 0.5 7 1.5
v -1.5 7 0.5
v -0.5 7 0.5
v 0.5 7 0.5
v 1.5 7 0.5
v -1.5 7 -0.5
v -0.5 7 -0.5
v 0.5 7 -0.5
v 1.5 7 -0.5
v -0.5 7 -1.5
v 0.5 7 -1.5
v -0.5 8 2.5
v 0.5 8 2.5
v -0.5 8 1.5
v 0.5 8 1.5
v -2.5 8 0.5
v -1.5 8 0.5
v 1.5 8 0.5
v 2.5 8 0.5
v -2.5 8 -0.5
v -1.5 8 -0.5
v 1.5 8 -0.5
v 2.5 8 -0.5
v -0.5 8 -1.5
v 0.5 8 -1.5
v -0.5 8 -2.5
v 0.5 8 -2.5
v -0.5 9 3.5
v 0.5 9 3.5
v -0.5 9 2.5
v 0.5 9 2.5
v -3.5 9 0.5
v -2.5 9 0.5
v 2.5 9 0.5
v 3.5 9 0.5
v -3.5 9 -0.5
v -2.5 9 -0.5
v 2.5 9 -0.5
v 3.5 9 -0.5
v -0.5 9 -2.5
v 0.5 9 -2.5
v -0.5 9 -3.5
v 0.5 9 -3.5
v -0.5 2 2.5
v 0.5 2 2.5
v -0.5 2 1.5
v 0.5 2 1.5
v -2.5 2 0.5
v -1.5 2 0.5
v 1.5 2 0.5
v 2.5 2 0.5
v -2.5 2 -0.5
v -1.5 2 -0.5
v 1.5 2 -0.5
v 2.5 2 -0.5
v -0.5 2 -1.5
v 0.5 2 -1.5
v -0.5 2 -2.5
v 0.5 2 -2.5
v -0.5 3 1.5
v 0.5 3 1.5
v -1.5 3 0.5
v -0.5 3 0.5
v 0.5 3 0.5
v 1.5 3 0.5
v -1.5 3 -0.5
v -0.5 3 -0.5
v 0.5 3 -0.5
v 1.5 3 -0.5
v -0.5 3 -1.5
v 0.5 3 -1.5
v -0.5 8 1.5
v 0.5 8 1.5
v -1.5 8 0.5
v -0.5 8 0.5
v 0.5 8 0.5
v 1.5 8 0.5
v -1.5 8 -0.5
v -0.5 8 -0.5
v 0.5 8 -0.5
v 1.5 8 -0.5
v -0.5 8 -1.5
v 0.5 8 -1.5
v -0.5 9 2.5
v 0.5 9 2.5
v -0.5 9 1.5
v 0.5 9 1.5
v -2.5 9 0.5
v -1.5 9 0.5
v 1.5 9 0.5
v 2.5 9 0.5
v -2.5 9 -0.5
v -1.5 9 -0.5
v 1.5 9 -0.5
v 2.5 9 -0.5
v -0.5 9 -1.5
v 0.5 9 -1.5
v -0.5 9 -2.5
v 0.5 9 -2.5
v -0.5 11 3.5
v 0.5 11 3.5
v -0.5 11 2.5
v 0.5 11 2.5
v -3.5 11 0.5
v -2.5 11 0.5
v 2.5 11 0.5
v 3.5 11 0.5
v -3.5 11 -0.5
v -2.5 11 -0.5
v 2.5 11 -0.5
v 3.5 11 -0.5
v -0.5 11 -2.5
v 0.5 11 -2.5
v -0.5 11 -3.5
v 0.5 11 -3.5

# faces
f 3/2/1 2/2/1 1/2/1
f 4/2/1 2/2/1 3/2/1
f 5/1/1 4/1/1 3/1/1
f 6/1/1 4/1/1 5/1/1
f 9/2/1 8/2/1 7/2/1
f 10/2/1 8/2/1 9/2/1
f 13/2/1 12/2/1 11/2/1
f 14/2/1 12/2/1 13/2/1
f 17/2/1 16/2/1 15/2/1
f 18/2/1 16/2/1 17/2/1
f 21/2/1 20/2/1 19/2/1
f 22/2/1 20/2/1 21/2/1
f 27/2/1 24/2/1 23/2/1
f 28/2/1 24/2/1 27/2/1
f 31/2/1 26/2/1 25/2/1
f 32/2/1 26/2/1 31/2/1
f 33/2/1 29/2/1 28/2/1
f 34/2/1 29/2/1 33/2/1
f 35/2/1 31/2/1 30/2/1
f 36/2/1 31/2/1 35/2/1
f 38/2/1 35/2/1 34/2/1
f 39/2/1 35/2/1 38/2/1
f 42/2/1 38/2/1 37/2/1
f 43/2/1 38/2/1 42/2/1
f 44/2/1 40/2/1 39/2/1
f 45/2/1 40/2/1 44/2/1
f 48/2/1 42/2/1 41/2/1
f 49/2/1 42/2/1 48/2/1
f 50/2/1 46/2/1 45/2/1
f 51/2/1 46/2/1 50/2/1
f 53/2/1 48/2/1 47/2/1
f 54/2/1 48/2/1 53/2/1
f 55/2/1 52/2/1 51/2/1
f 56/2/1 52/2/1 55/2/1
f 57/1/1 54/1/1 53/1/1
f 58/1/1 54/1/1 57/1/1
f 59/1/1 56/1/1 55/1/1
f 60/1/1 56/1/1 59/1/1
f 63/2/1 62/2/1 61/2/1
f 64/2/1 62/2/1 63/2/1
f 67/2/1 66/2/1 65/2/1
f 68/2/1 66/2/1 67/2/1
f 71/2/1 70/2/1 69/2/1
f 72/2/1 70/2/1 71/2/1
f 73/1/1 72/1/1 71/1/1
f 74/1/1 72/1/1 73/1/1
f 75/2/2 76/2/2 77/2/2
f 77/2/2 76/2/2 78/2/2
f 77/1/2 78/1/2 79/1/2
f 79/1/2 78/1/2 80/1/2
f 81/2/2 82/2/2 83/2/2
f 83/2/2 82/2/2 84/2/2
f 85/2/2 86/2/2 87/2/2
f 87/2/2 86/2/2 88/2/2
f 89/2/2 90/2/2 93/2/2
f 93/2/2 90/2/2 94/2/2
f 91/2/2 92/2/2 97/2/2
f 97/2/2 92/2/2 98/2/2
f 94/2/2 95/2/2 99/2/2
f 99/2/2 95/2/2 100/2/2
f 96/2/2 97/2/2 101/2/2
f 101/2/2 97/2/2 102/2/2
f 100/2/2 101/2/2 104/2/2
f 104/2/2 101/2/2 105/2/2
f 103/2/2 104/2/2 108/2/2
f 108/2/2 104/2/2 109/2/2
f 105/2/2 106/2/2 110/2/2
f 110/2/2 106/2/2 111/2/2
f 107/2/2 108/2/2 114/2/2
f 114/2/2 108/2/2 115/2/2
f 111/2/2 112/2/2 116/2/2
f 116/2/2 112/2/2 117/2/2
f 113/2/2 114/2/2 119/2/2
f 119/2/2 114/2/2 120/2/2
f 117/2/2 118/2/2 121/2/2
f 121/2/2 118/2/2 122/2/2
f 119/1/2 120/1/2 123/1/2
f 123/1/2 120/1/2 124/1/2
f 121/1/2 122/1/2 125/1/2
f 125/1/2 122/1/2 126/1/2
f 127/2/2 128/2/2 129/2/2
f 129/2/2 128/2/2 130/2/2
f 131/2/2 132/2/2 133/2/2
f 133/2/2 132/2/2 134/2/2
f 135/2/2 136/2/2 137/2/2
f 137/2/2 136/2/2 138/2/2
f 139/2/2 140/2/2 141/2/2
f 141/2/2 140/2/2 142/2/2
f 143/2/2 144/2/2 145/2/2
f 145/2/2 144/2/2 146/2/2
f 145/1/2 146/1/2 147/1/2
f 147/1/2 146/1/2 148/1/2
f 152/2/3 150/2/3 149/2/3
f 153/1/3 151/1/3 150/1/3
f 153/2/3 150/2/3 152/2/3
f 154/1/3 151/1/3 153/1/3
f 159/2/3 156/2/3 155/2/3
f 160/2/3 156/2/3 159/2/3
f 161/2/3 158/2/3 157/2/3
f 162/2/3 158/2/3 161/2/3
f 167/2/3 164/2/3 163/2/3
f 168/2/3 164/2/3 167/2/3
f 169/2/3 166/2/3 165/2/3
f 170/2/3 166/2/3 169/2/3
f 177/2/3 172/2/3 171/2/3
f 178/1/3 173/1/3 172/1/3
f 178/2/3 172/2/3 177/2/3
f 179/1/3 173/1/3 178/1/3
f 180/2/3 175/2/3 174/2/3
f 181/2/3 175/2/3 180/2/3
f 184/2/3 177/2/3 176/2/3
f 185/2/3 177/2/3 184/2/3
f 186/2/3 182/2/3 181/2/3
f 187/2/3 182/2/3 186/2/3
f 188/2/3 184/2/3 183/2/3
f 189/2/3 184/2/3 188/2/3
f 191/2/3 188/2/3 187/2/3
f 192/2/3 188/2/3 191/2/3
f 195/2/3 191/2/3 190/2/3
f 196/2/3 191/2/3 195/2/3
f 197/2/3 193/2/3 192/2/3
f 198/2/3 193/2/3 197/2/3
f 200/2/3 195/2/3 194/2/3
f 201/2/3 195/2/3 200/2/3
f 202/2/3 199/2/3 198/2/3
f 203/2/3 199/2/3 202/2/3
f 206/2/3 204/2/3 203/2/3
f 207/1/3 205/1/3 204/1/3
f 207/2/3 204/2/3 206/2/3
f 208/1/3 205/1/3 207/1/3
f 213/2/3 210/2/3 209/2/3
f 214/2/3 210/2/3 213/2/3
f 215/2/3 212/2/3 211/2/3
f 216/2/3 212/2/3 215/2/3
f 220/2/3 218/2/3 217/2/3
f 221/1/3 219/1/3 218/1/3
f 221/2/3 218/2/3 220/2/3
f 222/1/3 219/1/3 221/1/3
f 223/2/4 224/2/4 226/2/4
f 224/1/4 225/1/4 227/1/4
f 226/2/4 224/2/4 227/2/4
f 227/1/4 225/1/4 228/1/4
f 229/2/4 230/2/4 233/2/4
f 233/2/4 230/2/4 234/2/4
f 231/2/4 232/2/4 235/2/4
f 235/2/4 232/2/4 236/2/4
f 237/2/4 238/2/4 243/2/4
f 238/1/4 239/1/4 244/1/4
f 243/2/4 238/2/4 244/2/4
f 244/1/4 239/1/4 245/1/4
f 240/2/4 241/2/4 246/2/4
f 246/2/4 241/2/4 247/2/4
f 242/2/4 243/2/4 250/2/4
f 250/2/4 243/2/4 251/2/4
f 247/2/4 248/2/4 252/2/4
f 252/2/4 248/2/4 253/2/4
f 249/2/4 250/2/4 254/2/4
f 254/2/4 250/2/4 255/2/4
f 253/2/4 254/2/4 257/2/4
f 257/2/4 254/2/4 258/2/4
f 256/2/4 257/2/4 261/2/4
f 261/2/4 257/2/4 262/2/4
f 258/2/4 259/2/4 263/2/4
f 263/2/4 259/2/4 264/2/4
f 260/2/4 261/2/4 266/2/4
f 266/2/4 261/2/4 267/2/4
f 264/2/4 265/2/4 268/2/4
f 268/2/4 265/2/4 269/2/4
f 269/2/4 270/2/4 272/2/4
f 270/1/4 271/1/4 273/1/4
f 272/2/4 270/2/4 273/2/4
f 273/1/4 271/1/4 274/1/4
f 275/2/4 276/2/4 279/2/4
f 279/2/4 276/2/4 280/2/4
f 277/2/4 278/2/4 281/2/4
f 281/2/4 278/2/4 282/2/4
f 283/2/4 284/2/4 287/2/4
f 287/2/4 284/2/4 288/2/4
f 285/2/4 286/2/4 289/2/4
f 289/2/4 286/2/4 290/2/4
f 291/2/4 292/2/4 294/2/4
f 292/1/4 293/1/4 295/1/4
f 294/2/4 292/2/4 295/2/4
f 295/1/4 293/1/4 296/1/4
f 299/2/5 298/2/5 297/2/5
f 300/2/5 298/2/5 299/2/5
f 305/2/5 302/2/5 301/2/5
f 306/2/5 302/2/5 305/2/5
f 307/2/5 304/2/5 303/2/5
f 308/2/5 304/2/5 307/2/5
f 311/2/5 310/2/5 309/2/5
f 312/2/5 310/2/5 311/2/5
f 316/2/5 314/2/5 313/2/5
f 317/2/5 314/2/5 316/2/5
f 319/2/5 316/2/5 315/2/5
f 319/2/5 318/2/5 317/2/5
f 319/2/5 317/2/5 316/2/5
f 320/2/5 318/2/5 319/2/5
f 321/2/5 318/2/5 320/2/5
f 322/2/5 318/2/5 321/2/5
f 323/2/5 321/2/5 320/2/5
f 324/2/5 321/2/5 323/2/5
f 328/2/5 326/2/5 325/2/5
f 329/2/5 326/2/5 328/2/5
f 331/2/5 328/2/5 327/2/5
f 332/2/5 328/2/5 331/2/5
f 333/2/5 330/2/5 329/2/5
f 334/2/5 330/2/5 333/2/5
f 335/2/5 333/2/5 332/2/5
f 336/2/5 333/2/5 335/2/5
f 339/2/5 338/2/5 337/2/5
f 340/2/5 338/2/5 339/2/5
f 345/2/5 342/2/5 341/2/5
f 346/2/5 342/2/5 345/2/5
f 347/2/5 344/2/5 343/2/5
f 348/2/5 344/2/5 347/2/5
f 351/2/5 350/2/5 349/2/5
f 352/2/5 350/2/5 351/2/5
f 355/2/5 354/2/5 353/2/5
f 356/2/5 354/2/5 355/2/5
f 361/2/5 358/2/5 357/2/5
f 362/2/5 358/2/5 361/2/5
f 363/2/5 360/2/5 359/2/5
f 364/2/5 360/2/5 363/2/5
f 367/2/5 366/2/5 365/2/5
f 368/2/5 366/2/5 367/2/5
f 369/2/6 370/2/6 371/2/6
f 371/2/6 370/2/6 372/2/6
f 373/2/6 374/2/6 377/2/6
f 377/2/6 374/2/6 378/2/6
f 375/2/6 376/2/6 379/2/6
f 379/2/6 376/2/6 380/2/6
f 381/2/6 382/2/6 383/2/6
f 383/2/6 382/2/6 384/2/6
f 385/2/6 386/2/6 388/2/6
f 388/2/6 386/2/6 389/2/6
f 387/2/6 388/2/6 391/2/6
f 391/2/6 388/2/6 392/2/6
f 389/2/6 390/2/6 393/2/6
f 393/2/6 390/2/6 394/2/6
f 392/2/6 393/2/6 395/2/6
f 395/2/6 393/2/6 396/2/6
f 397/2/6 398/2/6 400/2/6
f 400/2/6 398/2/6 401/2/6
f 399/2/6 400/2/6 403/2/6
f 401/2/6 402/2/6 403/2/6
f 400/2/6 401/2/6 403/2/6
f 403/2/6 402/2/6 404/2/6
f 404/2/6 402/2/6 405/2/6
f 405/2/6 402/2/6 406/2/6
f 404/2/6 405/2/6 407/2/6
f 407/2/6 405/2/6 408/2/6
f 409/2/6 410/2/6 411/2/6
f 411/2/6 410/2/6 412/2/6
f 413/2/6 414/2/6 417/2/6
f 417/2/6 414/2/6 418/2/6
f 415/2/6 416/2/6 419/2/6
f 419/2/6 416/2/6 420/2/6
f 421/2/6 422/2/6 423/2/6
f 423/2/6 422/2/6 424/2/6
f 425/1/6 426/1/6 427/1/6
f 427/1/6 426/1/6 428/1/6
f 429/1/6 430/1/6 433/1/6
f 433/1/6 430/1/6 434/1/6
f 431/1/6 432/1/6 435/1/6
f 435/1/6 432/1/6 436/1/6
f 437/1/6 438/1/6 439/1/6
f 439/1/6 438/1/6 440/1/6
