# MagicaVoxel @ Ephtracy

# group
g YAVD_Tiles-69

# material
mtllib YAVD_Tiles-69.mtl
usemtl palette

# normals
vn -1 0 0
vn 1 0 0
vn 0 0 1
vn 0 0 -1
vn 0 -1 0
vn 0 1 0

# texcoords
vt 0.146484 0.5
vt 0.208984 0.5
vt 0.373047 0.5

# verts
v -3.5 1 1
v -3.5 1 -1
v -3.5 3 1
v -3.5 3 -1
v -0.5 0 1
v -0.5 0 -1
v -0.5 1 2
v -0.5 1 1
v -0.5 1 -1
v -0.5 1 -2
v -0.5 3 2
v -0.5 3 1
v -0.5 3 -1
v -0.5 3 -2
v -0.5 4 1
v -0.5 4 -1
v 0.5 0 2
v 0.5 0 1
v 0.5 0 -1
v 0.5 0 -2
v 0.5 1 2
v 0.5 1 1
v 0.5 1 -1
v 0.5 1 -2
v 0.5 3 2
v 0.5 3 1
v 0.5 3 -1
v 0.5 3 -2
v 0.5 4 2
v 0.5 4 1
v 0.5 4 -1
v 0.5 4 -2
v 1.5 0 2
v 1.5 0 1
v 1.5 0 -1
v 1.5 0 -2
v 1.5 1 2
v 1.5 1 1
v 1.5 1 -1
v 1.5 1 -2
v 1.5 3 2
v 1.5 3 1
v 1.5 3 -1
v 1.5 3 -2
v 1.5 4 2
v 1.5 4 1
v 1.5 4 -1
v 1.5 4 -2
v 2.5 0 1
v 2.5 0 -1
v 2.5 1 2
v 2.5 1 1
v 2.5 1 -1
v 2.5 1 -2
v 2.5 3 2
v 2.5 3 1
v 2.5 3 -1
v 2.5 3 -2
v 2.5 4 1
v 2.5 4 -1
v 3.5 1 1
v 3.5 1 -1
v 3.5 3 1
v 3.5 3 -1
v -0.5 1 2
v -0.5 3 2
v 0.5 0 2
v 0.5 1 2
v 0.5 3 2
v 0.5 4 2
v 1.5 0 2
v 1.5 1 2
v 1.5 3 2
v 1.5 4 2
v 2.5 1 2
v 2.5 3 2
v -3.5 1 1
v -3.5 3 1
v -0.5 0 1
v -0.5 1 1
v -0.5 3 1
v -0.5 4 1
v 0.5 0 1
v 0.5 1 1
v 0.5 3 1
v 0.5 4 1
v 1.5 0 1
v 1.5 1 1
v 1.5 3 1
v 1.5 4 1
v 2.5 0 1
v 2.5 1 1
v 2.5 3 1
v 2.5 4 1
v 3.5 1 1
v 3.5 3 1
v -3.5 1 -1
v -3.5 3 -1
v -0.5 0 -1
v -0.5 1 -1
v -0.5 3 -1
v -0.5 4 -1
v 0.5 0 -1
v 0.5 1 -1
v 0.5 3 -1
v 0.5 4 -1
v 1.5 0 -1
v 1.5 1 -1
v 1.5 3 -1
v 1.5 4 -1
v 2.5 0 -1
v 2.5 1 -1
v 2.5 3 -1
v 2.5 4 -1
v 3.5 1 -1
v 3.5 3 -1
v -0.5 1 -2
v -0.5 3 -2
v 0.5 0 -2
v 0.5 1 -2
v 0.5 3 -2
v 0.5 4 -2
v 1.5 0 -2
v 1.5 1 -2
v 1.5 3 -2
v 1.5 4 -2
v 2.5 1 -2
v 2.5 3 -2
v 0.5 0 2
v 1.5 0 2
v -0.5 0 1
v 0.5 0 1
v 1.5 0 1
v 2.5 0 1
v -0.5 0 -1
v 0.5 0 -1
v 1.5 0 -1
v 2.5 0 -1
v 0.5 0 -2
v 1.5 0 -2
v -0.5 1 2
v 0.5 1 2
v 1.5 1 2
v 2.5 1 2
v -3.5 1 1
v -0.5 1 1
v 0.5 1 1
v 1.5 1 1
v 2.5 1 1
v 3.5 1 1
v -3.5 1 -1
v -0.5 1 -1
v 0.5 1 -1
v 1.5 1 -1
v 2.5 1 -1
v 3.5 1 -1
v -0.5 1 -2
v 0.5 1 -2
v 1.5 1 -2
v 2.5 1 -2
v -0.5 3 2
v 0.5 3 2
v 1.5 3 2
v 2.5 3 2
v -3.5 3 1
v -0.5 3 1
v 0.5 3 1
v 1.5 3 1
v 2.5 3 1
v 3.5 3 1
v -3.5 3 -1
v -0.5 3 -1
v 0.5 3 -1
v 1.5 3 -1
v 2.5 3 -1
v 3.5 3 -1
v -0.5 3 -2
v 0.5 3 -2
v 1.5 3 -2
v 2.5 3 -2
v 0.5 4 2
v 1.5 4 2
v -0.5 4 1
v 0.5 4 1
v 1.5 4 1
v 2.5 4 1
v -0.5 4 -1
v 0.5 4 -1
v 1.5 4 -1
v 2.5 4 -1
v 0.5 4 -2
v 1.5 4 -2

# faces
f 3/1/1 2/1/1 1/1/1
f 4/1/1 2/1/1 3/1/1
f 8/1/1 6/1/1 5/1/1
f 9/1/1 6/1/1 8/1/1
f 11/1/1 8/1/1 7/1/1
f 12/1/1 8/1/1 11/1/1
f 13/1/1 10/1/1 9/1/1
f 14/1/1 10/1/1 13/1/1
f 15/1/1 13/1/1 12/1/1
f 16/1/1 13/1/1 15/1/1
f 21/1/1 18/1/1 17/1/1
f 22/1/1 18/1/1 21/1/1
f 23/1/1 20/1/1 19/1/1
f 24/1/1 20/1/1 23/1/1
f 29/1/1 26/1/1 25/1/1
f 30/1/1 26/1/1 29/1/1
f 31/1/1 28/1/1 27/1/1
f 32/1/1 28/1/1 31/1/1
f 33/1/2 34/1/2 37/1/2
f 37/1/2 34/1/2 38/1/2
f 35/1/2 36/1/2 39/1/2
f 39/1/2 36/1/2 40/1/2
f 41/1/2 42/1/2 45/1/2
f 45/1/2 42/1/2 46/1/2
f 43/1/2 44/1/2 47/1/2
f 47/1/2 44/1/2 48/1/2
f 49/2/2 50/2/2 52/2/2
f 52/2/2 50/2/2 53/2/2
f 51/2/2 52/2/2 55/2/2
f 55/2/2 52/2/2 56/2/2
f 53/2/2 54/2/2 57/2/2
f 57/2/2 54/2/2 58/2/2
f 56/2/2 57/2/2 59/2/2
f 59/2/2 57/2/2 60/2/2
f 61/3/2 62/3/2 63/3/2
f 63/3/2 62/3/2 64/3/2
f 68/1/3 66/1/3 65/1/3
f 69/1/3 66/1/3 68/1/3
f 71/1/3 68/1/3 67/1/3
f 72/2/3 69/2/3 68/2/3
f 72/1/3 68/1/3 71/1/3
f 73/1/3 70/1/3 69/1/3
f 73/2/3 69/2/3 72/2/3
f 74/1/3 70/1/3 73/1/3
f 75/2/3 73/2/3 72/2/3
f 76/2/3 73/2/3 75/2/3
f 80/1/3 78/1/3 77/1/3
f 81/1/3 78/1/3 80/1/3
f 83/1/3 80/1/3 79/1/3
f 84/1/3 80/1/3 83/1/3
f 85/1/3 82/1/3 81/1/3
f 86/1/3 82/1/3 85/1/3
f 91/2/3 88/2/3 87/2/3
f 92/2/3 88/2/3 91/2/3
f 93/2/3 90/2/3 89/2/3
f 94/2/3 90/2/3 93/2/3
f 95/3/3 93/3/3 92/3/3
f 96/3/3 93/3/3 95/3/3
f 97/1/4 98/1/4 100/1/4
f 100/1/4 98/1/4 101/1/4
f 99/1/4 100/1/4 103/1/4
f 103/1/4 100/1/4 104/1/4
f 101/1/4 102/1/4 105/1/4
f 105/1/4 102/1/4 106/1/4
f 107/2/4 108/2/4 111/2/4
f 111/2/4 108/2/4 112/2/4
f 109/2/4 110/2/4 113/2/4
f 113/2/4 110/2/4 114/2/4
f 112/3/4 113/3/4 115/3/4
f 115/3/4 113/3/4 116/3/4
f 117/1/4 118/1/4 120/1/4
f 120/1/4 118/1/4 121/1/4
f 119/1/4 120/1/4 123/1/4
f 120/2/4 121/2/4 124/2/4
f 123/1/4 120/1/4 124/1/4
f 121/1/4 122/1/4 125/1/4
f 124/2/4 121/2/4 125/2/4
f 125/1/4 122/1/4 126/1/4
f 124/2/4 125/2/4 127/2/4
f 127/2/4 125/2/4 128/2/4
f 132/1/5 130/1/5 129/1/5
f 133/1/5 130/1/5 132/1/5
f 135/1/5 132/1/5 131/1/5
f 136/2/5 134/2/5 133/2/5
f 136/1/5 132/1/5 135/1/5
f 136/2/5 133/2/5 132/2/5
f 137/2/5 134/2/5 136/2/5
f 138/2/5 134/2/5 137/2/5
f 139/1/5 137/1/5 136/1/5
f 140/1/5 137/1/5 139/1/5
f 146/1/5 142/1/5 141/1/5
f 147/1/5 142/1/5 146/1/5
f 148/2/5 144/2/5 143/2/5
f 149/2/5 144/2/5 148/2/5
f 151/1/5 146/1/5 145/1/5
f 152/1/5 146/1/5 151/1/5
f 155/3/5 150/3/5 149/3/5
f 156/3/5 150/3/5 155/3/5
f 157/1/5 153/1/5 152/1/5
f 158/1/5 153/1/5 157/1/5
f 159/2/5 155/2/5 154/2/5
f 160/2/5 155/2/5 159/2/5
f 161/1/6 162/1/6 166/1/6
f 166/1/6 162/1/6 167/1/6
f 163/2/6 164/2/6 168/2/6
f 168/2/6 164/2/6 169/2/6
f 165/1/6 166/1/6 171/1/6
f 171/1/6 166/1/6 172/1/6
f 169/3/6 170/3/6 175/3/6
f 175/3/6 170/3/6 176/3/6
f 172/1/6 173/1/6 177/1/6
f 177/1/6 173/1/6 178/1/6
f 174/2/6 175/2/6 179/2/6
f 179/2/6 175/2/6 180/2/6
f 181/1/6 182/1/6 184/1/6
f 184/1/6 182/1/6 185/1/6
f 183/1/6 184/1/6 187/1/6
f 185/2/6 186/2/6 188/2/6
f 187/1/6 184/1/6 188/1/6
f 184/2/6 185/2/6 188/2/6
f 188/2/6 186/2/6 189/2/6
f 189/2/6 186/2/6 190/2/6
f 188/1/6 189/1/6 191/1/6
f 191/1/6 189/1/6 192/1/6
