# MagicaVoxel @ Ephtracy

# group
g YAVD_Tiles-41

# material
mtllib YAVD_Tiles-41.mtl
usemtl palette

# normals
vn -1 0 0
vn 1 0 0
vn 0 0 1
vn 0 0 -1
vn 0 -1 0
vn 0 1 0

# texcoords
vt 0.224609 0.5
vt 0.310547 0.5
vt 0.935547 0.5
vt 0.990234 0.5
vt 0.994141 0.5

# verts
v -8 0 8
v -8 0 -8
v -8 1 8
v -8 1 6
v -8 1 5
v -8 1 1
v -8 1 -3
v -8 1 -8
v -8 2 6
v -8 2 5
v -8 2 1
v -8 2 -3
v -8 2 -8
v -8 3 8
v -8 3 7
v -8 3 6
v -8 4 8
v -8 4 7
v -8 4 6
v -8 6 8
v -8 6 7
v -8 6 6
v -8 7 8
v -8 7 7
v -8 7 6
v -8 9 8
v -8 9 6
v 6 2 8
v 6 2 6
v 6 3 8
v 6 3 6
v 6 4 8
v 6 4 6
v 6 6 8
v 6 6 6
v 6 7 8
v 6 7 6
v 6 9 8
v 6 9 6
v 7 3 8
v 7 3 7
v 7 4 8
v 7 4 7
v 7 6 8
v 7 6 7
v 7 7 8
v 7 7 7
v -7 3 8
v -7 3 7
v -7 4 8
v -7 4 7
v -7 6 8
v -7 6 7
v -7 7 8
v -7 7 7
v -6 2 8
v -6 2 6
v -6 3 8
v -6 3 6
v -6 4 8
v -6 4 6
v -6 6 8
v -6 6 6
v -6 7 8
v -6 7 6
v -6 9 8
v -6 9 6
v 8 0 8
v 8 0 -8
v 8 1 8
v 8 1 6
v 8 1 5
v 8 1 -8
v 8 2 6
v 8 2 5
v 8 2 -8
v 8 3 8
v 8 3 7
v 8 3 6
v 8 4 8
v 8 4 7
v 8 4 6
v 8 6 8
v 8 6 7
v 8 6 6
v 8 7 8
v 8 7 7
v 8 7 6
v 8 9 8
v 8 9 6
v -8 0 8
v -8 1 8
v -8 3 8
v -8 4 8
v -8 6 8
v -8 7 8
v -8 9 8
v -7 3 8
v -7 4 8
v -7 6 8
v -7 7 8
v -6 1 8
v -6 2 8
v -6 3 8
v -6 4 8
v -6 6 8
v -6 7 8
v -6 9 8
v -5 1 8
v -5 2 8
v 0 1 8
v 0 2 8
v 2 1 8
v 2 2 8
v 5 1 8
v 5 2 8
v 6 1 8
v 6 2 8
v 6 3 8
v 6 4 8
v 6 6 8
v 6 7 8
v 6 9 8
v 7 3 8
v 7 4 8
v 7 6 8
v 7 7 8
v 8 0 8
v 8 1 8
v 8 3 8
v 8 4 8
v 8 6 8
v 8 7 8
v 8 9 8
v -8 3 7
v -8 4 7
v -8 6 7
v -8 7 7
v -7 3 7
v -7 4 7
v -7 6 7
v -7 7 7
v 7 3 7
v 7 4 7
v 7 6 7
v 7 7 7
v 8 3 7
v 8 4 7
v 8 6 7
v 8 7 7
v -8 2 6
v -8 3 6
v -8 4 6
v -8 6 6
v -8 7 6
v -8 9 6
v -6 2 6
v -6 3 6
v -6 4 6
v -6 6 6
v -6 7 6
v -6 9 6
v 6 2 6
v 6 3 6
v 6 4 6
v 6 6 6
v 6 7 6
v 6 9 6
v 8 2 6
v 8 3 6
v 8 4 6
v 8 6 6
v 8 7 6
v 8 9 6
v -8 0 -8
v -8 1 -8
v -8 2 -8
v 8 0 -8
v 8 1 -8
v 8 2 -8
v -8 0 8
v 8 0 8
v -8 0 -8
v 8 0 -8
v -7 4 8
v -6 4 8
v 6 4 8
v 7 4 8
v -8 4 7
v -7 4 7
v 7 4 7
v 8 4 7
v -8 4 6
v -6 4 6
v 6 4 6
v 8 4 6
v -7 7 8
v -6 7 8
v 6 7 8
v 7 7 8
v -8 7 7
v -7 7 7
v 7 7 7
v 8 7 7
v -8 7 6
v -6 7 6
v 6 7 6
v 8 7 6
v -6 2 8
v -5 2 8
v 0 2 8
v 2 2 8
v 5 2 8
v 6 2 8
v -5 2 7
v -4 2 7
v 0 2 7
v 2 2 7
v -8 2 6
v -6 2 6
v -4 2 6
v -3 2 6
v 5 2 6
v 6 2 6
v 8 2 6
v -8 2 5
v -7 2 5
v 6 2 5
v 8 2 5
v -7 2 4
v -6 2 4
v -5 2 4
v -3 2 4
v -1 2 4
v 0 2 4
v 3 2 4
v 4 2 4
v -6 2 3
v -5 2 3
v -1 2 3
v 0 2 3
v 4 2 3
v 5 2 3
v 3 2 2
v 5 2 2
v -8 2 1
v -7 2 1
v 4 2 -0
v 5 2 -0
v -5 2 -1
v -4 2 -1
v 3 2 -1
v 4 2 -1
v 5 2 -1
v 6 2 -1
v -5 2 -2
v -4 2 -2
v -2 2 -2
v 0 2 -2
v 6 2 -2
v 7 2 -2
v -8 2 -3
v -7 2 -3
v -3 2 -3
v -2 2 -3
v 0 2 -3
v 1 2 -3
v 3 2 -3
v 4 2 -3
v 6 2 -3
v 7 2 -3
v -5 2 -4
v -3 2 -4
v 1 2 -4
v 2 2 -4
v 4 2 -4
v 6 2 -4
v -6 2 -5
v -5 2 -5
v -6 2 -6
v -4 2 -6
v 0 2 -6
v 2 2 -6
v -4 2 -7
v 0 2 -7
v -8 2 -8
v 8 2 -8
v -7 3 8
v -6 3 8
v 6 3 8
v 7 3 8
v -8 3 7
v -7 3 7
v 7 3 7
v 8 3 7
v -8 3 6
v -6 3 6
v 6 3 6
v 8 3 6
v -7 6 8
v -6 6 8
v 6 6 8
v 7 6 8
v -8 6 7
v -7 6 7
v 7 6 7
v 8 6 7
v -8 6 6
v -6 6 6
v 6 6 6
v 8 6 6
v -8 9 8
v -6 9 8
v 6 9 8
v 8 9 8
v -8 9 6
v -6 9 6
v 6 9 6
v 8 9 6

# faces
f 3/5/1 2/5/1 1/5/1
f 4/5/1 2/5/1 3/5/1
f 5/5/1 2/5/1 4/5/1
f 6/5/1 2/5/1 5/5/1
f 7/5/1 2/5/1 6/5/1
f 8/5/1 2/5/1 7/5/1
f 9/3/1 4/3/1 3/3/1
f 9/1/1 5/1/1 4/1/1
f 10/2/1 6/2/1 5/2/1
f 10/1/1 5/1/1 9/1/1
f 11/1/1 7/1/1 6/1/1
f 11/2/1 6/2/1 10/2/1
f 12/2/1 8/2/1 7/2/1
f 12/1/1 7/1/1 11/1/1
f 13/2/1 8/2/1 12/2/1
f 14/3/1 9/3/1 3/3/1
f 15/3/1 9/3/1 14/3/1
f 16/3/1 9/3/1 15/3/1
f 17/4/1 15/4/1 14/4/1
f 18/4/1 15/4/1 17/4/1
f 20/3/1 18/3/1 17/3/1
f 20/3/1 19/3/1 18/3/1
f 21/3/1 19/3/1 20/3/1
f 22/3/1 19/3/1 21/3/1
f 23/4/1 21/4/1 20/4/1
f 24/4/1 21/4/1 23/4/1
f 26/3/1 24/3/1 23/3/1
f 26/3/1 25/3/1 24/3/1
f 27/3/1 25/3/1 26/3/1
f 30/3/1 29/3/1 28/3/1
f 31/3/1 29/3/1 30/3/1
f 34/3/1 33/3/1 32/3/1
f 35/3/1 33/3/1 34/3/1
f 38/3/1 37/3/1 36/3/1
f 39/3/1 37/3/1 38/3/1
f 42/4/1 41/4/1 40/4/1
f 43/4/1 41/4/1 42/4/1
f 46/4/1 45/4/1 44/4/1
f 47/4/1 45/4/1 46/4/1
f 48/4/2 49/4/2 50/4/2
f 50/4/2 49/4/2 51/4/2
f 52/4/2 53/4/2 54/4/2
f 54/4/2 53/4/2 55/4/2
f 56/3/2 57/3/2 58/3/2
f 58/3/2 57/3/2 59/3/2
f 60/3/2 61/3/2 62/3/2
f 62/3/2 61/3/2 63/3/2
f 64/3/2 65/3/2 66/3/2
f 66/3/2 65/3/2 67/3/2
f 68/5/2 69/5/2 70/5/2
f 70/5/2 69/5/2 71/5/2
f 71/5/2 69/5/2 72/5/2
f 72/5/2 69/5/2 73/5/2
f 70/3/2 71/3/2 74/3/2
f 71/1/2 72/1/2 74/1/2
f 72/2/2 73/2/2 75/2/2
f 74/1/2 72/1/2 75/1/2
f 75/2/2 73/2/2 76/2/2
f 70/3/2 74/3/2 77/3/2
f 77/3/2 74/3/2 78/3/2
f 78/3/2 74/3/2 79/3/2
f 77/4/2 78/4/2 80/4/2
f 80/4/2 78/4/2 81/4/2
f 80/3/2 81/3/2 83/3/2
f 81/3/2 82/3/2 83/3/2
f 83/3/2 82/3/2 84/3/2
f 84/3/2 82/3/2 85/3/2
f 83/4/2 84/4/2 86/4/2
f 86/4/2 84/4/2 87/4/2
f 86/3/2 87/3/2 89/3/2
f 87/3/2 88/3/2 89/3/2
f 89/3/2 88/3/2 90/3/2
f 98/3/3 93/3/3 92/3/3
f 98/4/3 94/4/3 93/4/3
f 99/3/3 95/3/3 94/3/3
f 99/4/3 94/4/3 98/4/3
f 100/4/3 96/4/3 95/4/3
f 100/3/3 95/3/3 99/3/3
f 101/3/3 97/3/3 96/3/3
f 101/4/3 96/4/3 100/4/3
f 102/5/3 92/5/3 91/5/3
f 102/3/3 98/3/3 92/3/3
f 103/3/3 98/3/3 102/3/3
f 104/3/3 98/3/3 103/3/3
f 105/3/3 100/3/3 99/3/3
f 106/3/3 100/3/3 105/3/3
f 107/3/3 97/3/3 101/3/3
f 108/3/3 97/3/3 107/3/3
f 109/5/3 102/5/3 91/5/3
f 109/1/3 103/1/3 102/1/3
f 110/1/3 103/1/3 109/1/3
f 111/5/3 109/5/3 91/5/3
f 111/2/3 110/2/3 109/2/3
f 112/2/3 110/2/3 111/2/3
f 113/5/3 111/5/3 91/5/3
f 113/1/3 112/1/3 111/1/3
f 114/1/3 112/1/3 113/1/3
f 115/5/3 113/5/3 91/5/3
f 115/2/3 114/2/3 113/2/3
f 116/2/3 114/2/3 115/2/3
f 117/5/3 115/5/3 91/5/3
f 117/1/3 116/1/3 115/1/3
f 118/1/3 116/1/3 117/1/3
f 124/3/3 118/3/3 117/3/3
f 124/3/3 119/3/3 118/3/3
f 125/3/3 121/3/3 120/3/3
f 126/3/3 121/3/3 125/3/3
f 127/3/3 123/3/3 122/3/3
f 128/5/3 117/5/3 91/5/3
f 129/3/3 124/3/3 117/3/3
f 129/5/3 117/5/3 128/5/3
f 130/4/3 125/4/3 124/4/3
f 130/3/3 124/3/3 129/3/3
f 131/3/3 126/3/3 125/3/3
f 131/4/3 125/4/3 130/4/3
f 132/4/3 127/4/3 126/4/3
f 132/3/3 126/3/3 131/3/3
f 133/3/3 123/3/3 127/3/3
f 133/4/3 127/4/3 132/4/3
f 134/3/3 123/3/3 133/3/3
f 135/4/4 136/4/4 139/4/4
f 139/4/4 136/4/4 140/4/4
f 137/4/4 138/4/4 141/4/4
f 141/4/4 138/4/4 142/4/4
f 143/4/4 144/4/4 147/4/4
f 147/4/4 144/4/4 148/4/4
f 145/4/4 146/4/4 149/4/4
f 149/4/4 146/4/4 150/4/4
f 151/3/4 152/3/4 157/3/4
f 157/3/4 152/3/4 158/3/4
f 153/3/4 154/3/4 159/3/4
f 159/3/4 154/3/4 160/3/4
f 155/3/4 156/3/4 161/3/4
f 161/3/4 156/3/4 162/3/4
f 163/3/4 164/3/4 169/3/4
f 169/3/4 164/3/4 170/3/4
f 165/3/4 166/3/4 171/3/4
f 171/3/4 166/3/4 172/3/4
f 167/3/4 168/3/4 173/3/4
f 173/3/4 168/3/4 174/3/4
f 175/5/4 176/5/4 178/5/4
f 176/2/4 177/2/4 179/2/4
f 178/5/4 176/5/4 179/5/4
f 179/2/4 177/2/4 180/2/4
f 183/5/5 182/5/5 181/5/5
f 184/5/5 182/5/5 183/5/5
f 190/3/5 186/3/5 185/3/5
f 191/3/5 188/3/5 187/3/5
f 193/3/5 190/3/5 189/3/5
f 194/3/5 186/3/5 190/3/5
f 194/3/5 190/3/5 193/3/5
f 195/3/5 192/3/5 191/3/5
f 195/3/5 191/3/5 187/3/5
f 196/3/5 192/3/5 195/3/5
f 202/3/5 198/3/5 197/3/5
f 203/3/5 200/3/5 199/3/5
f 205/3/5 202/3/5 201/3/5
f 206/3/5 198/3/5 202/3/5
f 206/3/5 202/3/5 205/3/5
f 207/3/5 204/3/5 203/3/5
f 207/3/5 203/3/5 199/3/5
f 208/3/5 204/3/5 207/3/5
f 209/1/6 210/1/6 215/1/6
f 210/2/6 211/2/6 215/2/6
f 215/2/6 211/2/6 216/2/6
f 211/1/6 212/1/6 217/1/6
f 216/2/6 211/2/6 217/2/6
f 212/2/6 213/2/6 218/2/6
f 217/1/6 212/1/6 218/1/6
f 215/1/6 216/1/6 220/1/6
f 209/1/6 215/1/6 220/1/6
f 216/2/6 217/2/6 221/2/6
f 217/2/6 218/2/6 221/2/6
f 220/1/6 216/1/6 221/1/6
f 221/2/6 218/2/6 222/2/6
f 213/1/6 214/1/6 223/1/6
f 222/2/6 218/2/6 223/2/6
f 218/2/6 213/2/6 223/2/6
f 223/1/6 214/1/6 224/1/6
f 221/1/6 222/1/6 226/1/6
f 219/1/6 220/1/6 226/1/6
f 220/1/6 221/1/6 226/1/6
f 226/1/6 222/1/6 227/1/6
f 224/1/6 225/1/6 228/1/6
f 223/2/6 224/2/6 228/2/6
f 222/2/6 223/2/6 228/2/6
f 228/1/6 225/1/6 229/1/6
f 227/1/6 222/1/6 230/1/6
f 226/2/6 227/2/6 230/2/6
f 230/1/6 222/1/6 231/1/6
f 231/1/6 222/1/6 232/1/6
f 228/2/6 229/2/6 233/2/6
f 232/1/6 222/1/6 233/1/6
f 222/2/6 228/2/6 233/2/6
f 233/2/6 229/2/6 234/2/6
f 234/2/6 229/2/6 235/2/6
f 235/2/6 229/2/6 236/2/6
f 236/2/6 229/2/6 237/2/6
f 231/1/6 232/1/6 238/1/6
f 230/2/6 231/2/6 238/2/6
f 232/2/6 233/2/6 239/2/6
f 238/1/6 232/1/6 239/1/6
f 233/2/6 234/2/6 239/2/6
f 234/1/6 235/1/6 240/1/6
f 239/2/6 234/2/6 240/2/6
f 235/2/6 236/2/6 241/2/6
f 240/1/6 235/1/6 241/1/6
f 237/2/6 229/2/6 242/2/6
f 236/1/6 237/1/6 242/1/6
f 242/2/6 229/2/6 243/2/6
f 241/2/6 236/2/6 244/2/6
f 240/2/6 241/2/6 244/2/6
f 242/1/6 243/1/6 244/1/6
f 236/1/6 242/1/6 244/1/6
f 238/2/6 239/2/6 244/2/6
f 239/2/6 240/2/6 244/2/6
f 243/2/6 229/2/6 245/2/6
f 244/1/6 243/1/6 245/1/6
f 238/2/6 244/2/6 246/2/6
f 230/2/6 238/2/6 246/2/6
f 244/2/6 245/2/6 246/2/6
f 226/2/6 230/2/6 246/2/6
f 246/2/6 245/2/6 247/2/6
f 247/2/6 245/2/6 248/2/6
f 245/2/6 229/2/6 249/2/6
f 248/2/6 245/2/6 249/2/6
f 247/2/6 248/2/6 250/2/6
f 250/2/6 248/2/6 251/2/6
f 251/2/6 248/2/6 252/2/6
f 248/1/6 249/1/6 253/1/6
f 252/2/6 248/2/6 253/2/6
f 249/2/6 229/2/6 254/2/6
f 253/1/6 249/1/6 254/1/6
f 254/2/6 229/2/6 255/2/6
f 247/2/6 250/2/6 256/2/6
f 250/1/6 251/1/6 256/1/6
f 251/2/6 252/2/6 257/2/6
f 256/1/6 251/1/6 257/1/6
f 257/2/6 252/2/6 258/2/6
f 258/2/6 252/2/6 259/2/6
f 252/1/6 253/1/6 260/1/6
f 255/2/6 229/2/6 260/2/6
f 254/1/6 255/1/6 260/1/6
f 253/1/6 254/1/6 260/1/6
f 260/2/6 229/2/6 261/2/6
f 246/1/6 247/1/6 262/1/6
f 247/2/6 256/2/6 263/2/6
f 262/1/6 247/1/6 263/1/6
f 257/2/6 258/2/6 263/2/6
f 256/2/6 257/2/6 263/2/6
f 263/2/6 258/2/6 264/2/6
f 258/1/6 259/1/6 265/1/6
f 264/2/6 258/2/6 265/2/6
f 259/2/6 252/2/6 266/2/6
f 265/1/6 259/1/6 266/1/6
f 266/2/6 252/2/6 267/2/6
f 260/1/6 261/1/6 268/1/6
f 267/2/6 252/2/6 268/2/6
f 252/1/6 260/1/6 268/1/6
f 268/1/6 261/1/6 269/1/6
f 269/1/6 261/1/6 270/1/6
f 261/2/6 229/2/6 271/2/6
f 270/1/6 261/1/6 271/1/6
f 263/2/6 264/2/6 272/2/6
f 262/2/6 263/2/6 272/2/6
f 264/1/6 265/1/6 273/1/6
f 272/2/6 264/2/6 273/2/6
f 266/1/6 267/1/6 273/1/6
f 265/1/6 266/1/6 273/1/6
f 268/2/6 269/2/6 274/2/6
f 273/1/6 267/1/6 274/1/6
f 267/2/6 268/2/6 274/2/6
f 274/2/6 269/2/6 275/2/6
f 269/1/6 270/1/6 276/1/6
f 275/2/6 269/2/6 276/2/6
f 270/2/6 271/2/6 277/2/6
f 276/1/6 270/1/6 277/1/6
f 262/2/6 272/2/6 278/2/6
f 274/1/6 275/1/6 279/1/6
f 278/2/6 272/2/6 279/2/6
f 272/1/6 273/1/6 279/1/6
f 273/1/6 274/1/6 279/1/6
f 262/2/6 278/2/6 280/2/6
f 278/1/6 279/1/6 280/1/6
f 279/1/6 275/1/6 281/1/6
f 280/1/6 279/1/6 281/1/6
f 281/1/6 275/1/6 282/1/6
f 276/2/6 277/2/6 283/2/6
f 282/1/6 275/1/6 283/1/6
f 275/2/6 276/2/6 283/2/6
f 281/1/6 282/1/6 284/1/6
f 280/2/6 281/2/6 284/2/6
f 282/2/6 283/2/6 285/2/6
f 284/1/6 282/1/6 285/1/6
f 262/2/6 280/2/6 286/2/6
f 280/2/6 284/2/6 286/2/6
f 284/2/6 285/2/6 286/2/6
f 277/2/6 271/2/6 287/2/6
f 286/2/6 285/2/6 287/2/6
f 285/2/6 283/2/6 287/2/6
f 283/2/6 277/2/6 287/2/6
f 271/2/6 229/2/6 287/2/6
f 288/3/6 289/3/6 293/3/6
f 290/3/6 291/3/6 294/3/6
f 292/3/6 293/3/6 296/3/6
f 293/3/6 289/3/6 297/3/6
f 296/3/6 293/3/6 297/3/6
f 294/3/6 295/3/6 298/3/6
f 290/3/6 294/3/6 298/3/6
f 298/3/6 295/3/6 299/3/6
f 300/3/6 301/3/6 305/3/6
f 302/3/6 303/3/6 306/3/6
f 304/3/6 305/3/6 308/3/6
f 305/3/6 301/3/6 309/3/6
f 308/3/6 305/3/6 309/3/6
f 306/3/6 307/3/6 310/3/6
f 302/3/6 306/3/6 310/3/6
f 310/3/6 307/3/6 311/3/6
f 312/3/6 313/3/6 316/3/6
f 316/3/6 313/3/6 317/3/6
f 314/3/6 315/3/6 318/3/6
f 318/3/6 315/3/6 319/3/6
