# MagicaVoxel @ Ephtracy

# group
g YAVD_Tiles-46

# material
mtllib YAVD_Tiles-46.mtl
usemtl palette

# normals
vn -1 0 0
vn 1 0 0
vn 0 0 1
vn 0 0 -1
vn 0 -1 0
vn 0 1 0

# texcoords
vt 0.0605469 0.5
vt 0.0878906 0.5
vt 0.0917969 0.5
vt 0.123047 0.5
vt 0.224609 0.5
vt 0.228516 0.5

# verts
v -4 0 1
v -4 0 -0
v -4 0 -1
v -4 1 1
v -4 1 -0
v -4 1 -1
v -4 7 1
v -4 7 -0
v -4 7 -1
v -4 8 1
v -4 8 -0
v -4 8 -1
v -3 8 -0
v -3 8 -1
v -3 9 -0
v -3 9 -1
v 2 8 -0
v 2 8 -1
v 2 9 -0
v 2 9 -1
v 3 1 1
v 3 1 -0
v 3 2 -0
v 3 3 -0
v 3 4 -0
v 3 5 -0
v 3 6 -0
v 3 7 1
v 3 7 -0
v -3 1 1
v -3 1 -0
v -3 2 -0
v -3 3 -0
v -3 4 -0
v -3 5 -0
v -3 6 -0
v -3 7 1
v -3 7 -0
v -2 8 -0
v -2 8 -1
v -2 9 -0
v -2 9 -1
v 3 8 -0
v 3 8 -1
v 3 9 -0
v 3 9 -1
v 4 0 1
v 4 0 -0
v 4 0 -1
v 4 1 1
v 4 1 -0
v 4 1 -1
v 4 7 1
v 4 7 -0
v 4 7 -1
v 4 8 1
v 4 8 -0
v 4 8 -1
v -4 0 1
v -4 1 1
v -4 7 1
v -4 8 1
v -3 0 1
v -3 1 1
v -3 7 1
v -3 8 1
v 3 0 1
v 3 1 1
v 3 7 1
v 3 8 1
v 4 0 1
v 4 1 1
v 4 7 1
v 4 8 1
v -3 1 -0
v -3 2 -0
v -3 3 -0
v -3 4 -0
v -3 5 -0
v -3 6 -0
v -3 7 -0
v -3 8 -0
v -3 9 -0
v -2 2 -0
v -2 3 -0
v -2 4 -0
v -2 5 -0
v -2 6 -0
v -2 7 -0
v -2 8 -0
v -2 9 -0
v -1 2 -0
v -1 4 -0
v -1 5 -0
v -1 6 -0
v -1 7 -0
v 1 2 -0
v 1 4 -0
v 1 5 -0
v 1 6 -0
v 1 7 -0
v 2 2 -0
v 2 3 -0
v 2 4 -0
v 2 5 -0
v 2 6 -0
v 2 7 -0
v 2 8 -0
v 2 9 -0
v 3 1 -0
v 3 2 -0
v 3 3 -0
v 3 4 -0
v 3 5 -0
v 3 6 -0
v 3 7 -0
v 3 8 -0
v 3 9 -0
v -4 0 -1
v -4 1 -1
v -4 7 -1
v -4 8 -1
v -3 0 -1
v -3 1 -1
v -3 2 -1
v -3 3 -1
v -3 4 -1
v -3 5 -1
v -3 6 -1
v -3 7 -1
v -3 8 -1
v -3 9 -1
v -2 2 -1
v -2 3 -1
v -2 4 -1
v -2 5 -1
v -2 6 -1
v -2 7 -1
v -2 8 -1
v -2 9 -1
v -1 2 -1
v -1 4 -1
v -1 5 -1
v -1 6 -1
v -1 7 -1
v 1 2 -1
v 1 4 -1
v 1 5 -1
v 1 6 -1
v 1 7 -1
v 2 2 -1
v 2 3 -1
v 2 4 -1
v 2 5 -1
v 2 6 -1
v 2 7 -1
v 2 8 -1
v 2 9 -1
v 3 0 -1
v 3 1 -1
v 3 2 -1
v 3 3 -1
v 3 4 -1
v 3 5 -1
v 3 6 -1
v 3 7 -1
v 3 8 -1
v 3 9 -1
v 4 0 -1
v 4 1 -1
v 4 7 -1
v 4 8 -1
v -4 0 1
v -3 0 1
v 3 0 1
v 4 0 1
v -4 0 -0
v -3 0 -0
v 3 0 -0
v 4 0 -0
v -4 0 -1
v -3 0 -1
v 3 0 -1
v 4 0 -1
v -3 7 1
v 3 7 1
v -3 7 -0
v -2 7 -0
v -1 7 -0
v 1 7 -0
v 2 7 -0
v 3 7 -0
v -3 1 1
v 3 1 1
v -3 1 -0
v 3 1 -0
v -4 8 1
v -3 8 1
v 3 8 1
v 4 8 1
v -4 8 -0
v -3 8 -0
v -2 8 -0
v 2 8 -0
v 3 8 -0
v 4 8 -0
v -4 8 -1
v -3 8 -1
v -2 8 -1
v 2 8 -1
v 3 8 -1
v 4 8 -1
v -3 9 -0
v -2 9 -0
v 2 9 -0
v 3 9 -0
v -3 9 -1
v -2 9 -1
v 2 9 -1
v 3 9 -1

# faces
f 4/5/1 2/5/1 1/5/1
f 5/6/1 3/6/1 2/6/1
f 5/5/1 2/5/1 4/5/1
f 6/6/1 3/6/1 5/6/1
f 7/6/1 5/6/1 4/6/1
f 8/5/1 6/5/1 5/5/1
f 8/6/1 5/6/1 7/6/1
f 9/5/1 6/5/1 8/5/1
f 10/5/1 8/5/1 7/5/1
f 11/6/1 9/6/1 8/6/1
f 11/5/1 8/5/1 10/5/1
f 12/6/1 9/6/1 11/6/1
f 15/1/1 14/1/1 13/1/1
f 16/1/1 14/1/1 15/1/1
f 19/1/1 18/1/1 17/1/1
f 20/1/1 18/1/1 19/1/1
f 23/6/1 22/6/1 21/6/1
f 24/6/1 23/6/1 21/6/1
f 25/6/1 24/6/1 21/6/1
f 26/6/1 25/6/1 21/6/1
f 27/6/1 26/6/1 21/6/1
f 28/6/1 27/6/1 21/6/1
f 29/6/1 27/6/1 28/6/1
f 30/6/2 31/6/2 32/6/2
f 30/6/2 32/6/2 33/6/2
f 30/6/2 33/6/2 34/6/2
f 30/6/2 34/6/2 35/6/2
f 30/6/2 35/6/2 36/6/2
f 30/6/2 36/6/2 37/6/2
f 37/6/2 36/6/2 38/6/2
f 39/1/2 40/1/2 41/1/2
f 41/1/2 40/1/2 42/1/2
f 43/1/2 44/1/2 45/1/2
f 45/1/2 44/1/2 46/1/2
f 47/5/2 48/5/2 50/5/2
f 48/6/2 49/6/2 51/6/2
f 50/5/2 48/5/2 51/5/2
f 51/6/2 49/6/2 52/6/2
f 50/6/2 51/6/2 53/6/2
f 51/5/2 52/5/2 54/5/2
f 53/6/2 51/6/2 54/6/2
f 54/5/2 52/5/2 55/5/2
f 53/5/2 54/5/2 56/5/2
f 54/6/2 55/6/2 57/6/2
f 56/5/2 54/5/2 57/5/2
f 57/6/2 55/6/2 58/6/2
f 63/5/3 60/5/3 59/5/3
f 64/6/3 61/6/3 60/6/3
f 64/5/3 60/5/3 63/5/3
f 65/5/3 62/5/3 61/5/3
f 65/6/3 61/6/3 64/6/3
f 66/5/3 62/5/3 65/5/3
f 67/6/3 64/6/3 63/6/3
f 68/6/3 64/6/3 67/6/3
f 69/6/3 66/6/3 65/6/3
f 70/6/3 66/6/3 69/6/3
f 71/5/3 68/5/3 67/5/3
f 72/6/3 69/6/3 68/6/3
f 72/5/3 68/5/3 71/5/3
f 73/5/3 70/5/3 69/5/3
f 73/6/3 69/6/3 72/6/3
f 74/5/3 70/5/3 73/5/3
f 84/3/3 76/3/3 75/3/3
f 84/4/3 77/4/3 76/4/3
f 85/3/3 78/3/3 77/3/3
f 85/4/3 77/4/3 84/4/3
f 86/2/3 79/2/3 78/2/3
f 86/3/3 78/3/3 85/3/3
f 87/4/3 80/4/3 79/4/3
f 87/2/3 79/2/3 86/2/3
f 88/2/3 81/2/3 80/2/3
f 88/4/3 80/4/3 87/4/3
f 89/2/3 81/2/3 88/2/3
f 90/1/3 83/1/3 82/1/3
f 91/1/3 83/1/3 90/1/3
f 92/3/3 84/3/3 75/3/3
f 92/3/3 85/3/3 84/3/3
f 92/3/3 86/3/3 85/3/3
f 93/4/3 87/4/3 86/4/3
f 93/3/3 86/3/3 92/3/3
f 94/2/3 88/2/3 87/2/3
f 94/4/3 87/4/3 93/4/3
f 95/4/3 89/4/3 88/4/3
f 95/2/3 88/2/3 94/2/3
f 96/4/3 89/4/3 95/4/3
f 97/4/3 94/4/3 93/4/3
f 97/3/3 92/3/3 75/3/3
f 97/4/3 93/4/3 92/4/3
f 97/4/3 95/4/3 94/4/3
f 98/4/3 95/4/3 97/4/3
f 99/4/3 95/4/3 98/4/3
f 100/2/3 96/2/3 95/2/3
f 100/4/3 95/4/3 99/4/3
f 101/2/3 96/2/3 100/2/3
f 102/3/3 97/3/3 75/3/3
f 102/3/3 98/3/3 97/3/3
f 103/3/3 98/3/3 102/3/3
f 104/4/3 99/4/3 98/4/3
f 104/3/3 98/3/3 103/3/3
f 105/2/3 100/2/3 99/2/3
f 105/4/3 99/4/3 104/4/3
f 106/4/3 101/4/3 100/4/3
f 106/2/3 100/2/3 105/2/3
f 107/4/3 101/4/3 106/4/3
f 110/3/3 102/3/3 75/3/3
f 111/4/3 103/4/3 102/4/3
f 111/3/3 102/3/3 110/3/3
f 112/3/3 104/3/3 103/3/3
f 112/4/3 103/4/3 111/4/3
f 113/2/3 105/2/3 104/2/3
f 113/3/3 104/3/3 112/3/3
f 114/4/3 106/4/3 105/4/3
f 114/2/3 105/2/3 113/2/3
f 115/2/3 107/2/3 106/2/3
f 115/4/3 106/4/3 114/4/3
f 116/2/3 107/2/3 115/2/3
f 117/1/3 109/1/3 108/1/3
f 118/1/3 109/1/3 117/1/3
f 119/6/4 120/6/4 123/6/4
f 120/5/4 121/5/4 124/5/4
f 123/6/4 120/6/4 124/6/4
f 124/5/4 121/5/4 125/5/4
f 125/5/4 121/5/4 126/5/4
f 126/5/4 121/5/4 127/5/4
f 127/5/4 121/5/4 128/5/4
f 128/5/4 121/5/4 129/5/4
f 121/6/4 122/6/4 130/6/4
f 129/5/4 121/5/4 130/5/4
f 130/6/4 122/6/4 131/6/4
f 124/3/4 125/3/4 133/3/4
f 125/4/4 126/4/4 133/4/4
f 126/3/4 127/3/4 134/3/4
f 133/4/4 126/4/4 134/4/4
f 127/2/4 128/2/4 135/2/4
f 134/3/4 127/3/4 135/3/4
f 128/4/4 129/4/4 136/4/4
f 135/2/4 128/2/4 136/2/4
f 129/2/4 130/2/4 137/2/4
f 136/4/4 129/4/4 137/4/4
f 130/5/4 131/5/4 138/5/4
f 137/2/4 130/2/4 138/2/4
f 131/1/4 132/1/4 139/1/4
f 138/5/4 131/5/4 139/5/4
f 139/1/4 132/1/4 140/1/4
f 134/3/4 135/3/4 141/3/4
f 124/3/4 133/3/4 141/3/4
f 133/3/4 134/3/4 141/3/4
f 135/4/4 136/4/4 142/4/4
f 141/3/4 135/3/4 142/3/4
f 136/2/4 137/2/4 143/2/4
f 142/4/4 136/4/4 143/4/4
f 137/4/4 138/4/4 144/4/4
f 143/2/4 137/2/4 144/2/4
f 138/5/4 139/5/4 145/5/4
f 144/4/4 138/4/4 145/4/4
f 142/4/4 143/4/4 146/4/4
f 141/4/4 142/4/4 146/4/4
f 143/4/4 144/4/4 146/4/4
f 124/3/4 141/3/4 146/3/4
f 146/4/4 144/4/4 147/4/4
f 147/4/4 144/4/4 148/4/4
f 144/2/4 145/2/4 149/2/4
f 148/4/4 144/4/4 149/4/4
f 145/5/4 139/5/4 150/5/4
f 149/2/4 145/2/4 150/2/4
f 124/3/4 146/3/4 151/3/4
f 146/3/4 147/3/4 151/3/4
f 151/3/4 147/3/4 152/3/4
f 147/4/4 148/4/4 153/4/4
f 152/3/4 147/3/4 153/3/4
f 148/2/4 149/2/4 154/2/4
f 153/4/4 148/4/4 154/4/4
f 149/4/4 150/4/4 155/4/4
f 154/2/4 149/2/4 155/2/4
f 150/5/4 139/5/4 156/5/4
f 155/4/4 150/4/4 156/4/4
f 156/5/4 139/5/4 157/5/4
f 123/5/4 124/5/4 159/5/4
f 124/3/4 151/3/4 160/3/4
f 159/5/4 124/5/4 160/5/4
f 151/4/4 152/4/4 161/4/4
f 160/3/4 151/3/4 161/3/4
f 152/3/4 153/3/4 162/3/4
f 161/4/4 152/4/4 162/4/4
f 153/2/4 154/2/4 163/2/4
f 162/3/4 153/3/4 163/3/4
f 154/4/4 155/4/4 164/4/4
f 163/2/4 154/2/4 164/2/4
f 155/2/4 156/2/4 165/2/4
f 164/4/4 155/4/4 165/4/4
f 156/5/4 157/5/4 166/5/4
f 165/2/4 156/2/4 166/2/4
f 157/1/4 158/1/4 167/1/4
f 166/5/4 157/5/4 167/5/4
f 167/1/4 158/1/4 168/1/4
f 159/6/4 160/6/4 169/6/4
f 165/5/4 166/5/4 170/5/4
f 169/6/4 160/6/4 170/6/4
f 160/5/4 161/5/4 170/5/4
f 162/5/4 163/5/4 170/5/4
f 164/5/4 165/5/4 170/5/4
f 163/5/4 164/5/4 170/5/4
f 161/5/4 162/5/4 170/5/4
f 166/6/4 167/6/4 171/6/4
f 170/5/4 166/5/4 171/5/4
f 171/6/4 167/6/4 172/6/4
f 177/5/5 174/5/5 173/5/5
f 178/6/5 175/6/5 174/6/5
f 178/5/5 174/5/5 177/5/5
f 179/5/5 176/5/5 175/5/5
f 179/6/5 175/6/5 178/6/5
f 180/5/5 176/5/5 179/5/5
f 181/6/5 178/6/5 177/6/5
f 182/5/5 179/5/5 178/5/5
f 182/6/5 178/6/5 181/6/5
f 183/6/5 180/6/5 179/6/5
f 183/5/5 179/5/5 182/5/5
f 184/6/5 180/6/5 183/6/5
f 187/6/5 186/6/5 185/6/5
f 188/6/5 186/6/5 187/6/5
f 189/6/5 186/6/5 188/6/5
f 190/6/5 186/6/5 189/6/5
f 191/6/5 186/6/5 190/6/5
f 192/6/5 186/6/5 191/6/5
f 193/6/6 194/6/6 195/6/6
f 195/6/6 194/6/6 196/6/6
f 197/5/6 198/5/6 201/5/6
f 198/6/6 199/6/6 202/6/6
f 201/5/6 198/5/6 202/5/6
f 202/6/6 199/6/6 203/6/6
f 203/6/6 199/6/6 204/6/6
f 199/5/6 200/5/6 205/5/6
f 204/6/6 199/6/6 205/6/6
f 205/5/6 200/5/6 206/5/6
f 201/6/6 202/6/6 207/6/6
f 207/6/6 202/6/6 208/6/6
f 203/5/6 204/5/6 209/5/6
f 209/5/6 204/5/6 210/5/6
f 205/6/6 206/6/6 211/6/6
f 211/6/6 206/6/6 212/6/6
f 213/1/6 214/1/6 217/1/6
f 217/1/6 214/1/6 218/1/6
f 215/1/6 216/1/6 219/1/6
f 219/1/6 216/1/6 220/1/6
