# MagicaVoxel @ Ephtracy

# group
g YAVD_Tiles-15

# material
mtllib YAVD_Tiles-15.mtl
usemtl palette

# normals
vn -1 0 0
vn 1 0 0
vn 0 0 1
vn 0 0 -1
vn 0 -1 0
vn 0 1 0

# texcoords
vt 0.115234 0.5
vt 0.123047 0.5
vt 0.623047 0.5

# verts
v -8 0 8
v -8 0 -8
v -8 2 8
v -8 2 -8
v 8 0 8
v 8 0 -8
v 8 2 8
v 8 2 -8
v -8 0 8
v -8 2 8
v 8 0 8
v 8 2 8
v -8 0 -8
v -8 2 -8
v 8 0 -8
v 8 2 -8
v -8 0 8
v 8 0 8
v -8 0 -8
v 8 0 -8
v -8 2 8
v 8 2 8
v 1 2 7
v 2 2 7
v 1 2 6
v 2 2 6
v 5 2 6
v 6 2 6
v 7 2 6
v -5 2 5
v -4 2 5
v -3 2 5
v -2 2 5
v 5 2 5
v 6 2 5
v 7 2 5
v -5 2 4
v -4 2 4
v -3 2 4
v -2 2 4
v -5 2 3
v -4 2 3
v 2 2 3
v 3 2 3
v 4 2 3
v 5 2 3
v -5 2 2
v -4 2 2
v 2 2 2
v 3 2 2
v 4 2 2
v 5 2 2
v -7 2 -0
v -6 2 -0
v -5 2 -0
v -4 2 -0
v -7 2 -1
v -6 2 -1
v -5 2 -1
v -4 2 -1
v 1 2 -1
v 2 2 -1
v 1 2 -2
v 2 2 -2
v -5 2 -3
v -4 2 -3
v -5 2 -4
v -4 2 -4
v 1 2 -4
v 2 2 -4
v 5 2 -4
v 6 2 -4
v 1 2 -5
v 2 2 -5
v 5 2 -5
v 6 2 -5
v 1 2 -6
v 2 2 -6
v -8 2 -8
v 8 2 -8

# faces
f 3/2/1 2/2/1 1/2/1
f 4/2/1 2/2/1 3/2/1
f 5/2/2 6/2/2 7/2/2
f 7/2/2 6/2/2 8/2/2
f 11/2/3 10/2/3 9/2/3
f 12/2/3 10/2/3 11/2/3
f 13/2/4 14/2/4 15/2/4
f 15/2/4 14/2/4 16/2/4
f 19/2/5 18/2/5 17/2/5
f 20/2/5 18/2/5 19/2/5
f 21/2/6 22/2/6 23/2/6
f 23/2/6 22/2/6 24/2/6
f 21/2/6 23/2/6 25/2/6
f 23/1/6 24/1/6 25/1/6
f 24/2/6 22/2/6 26/2/6
f 25/1/6 24/1/6 26/1/6
f 26/2/6 22/2/6 27/2/6
f 27/2/6 22/2/6 28/2/6
f 28/2/6 22/2/6 29/2/6
f 21/2/6 25/2/6 30/2/6
f 25/2/6 26/2/6 30/2/6
f 26/2/6 27/2/6 30/2/6
f 30/2/6 27/2/6 31/2/6
f 31/2/6 27/2/6 32/2/6
f 32/2/6 27/2/6 33/2/6
f 27/3/6 28/3/6 34/3/6
f 33/2/6 27/2/6 34/2/6
f 28/1/6 29/1/6 35/1/6
f 34/3/6 28/3/6 35/3/6
f 29/2/6 22/2/6 36/2/6
f 35/1/6 29/1/6 36/1/6
f 21/2/6 30/2/6 37/2/6
f 30/3/6 31/3/6 37/3/6
f 31/2/6 32/2/6 38/2/6
f 37/3/6 31/3/6 38/3/6
f 32/1/6 33/1/6 39/1/6
f 38/2/6 32/2/6 39/2/6
f 34/2/6 35/2/6 40/2/6
f 39/1/6 33/1/6 40/1/6
f 33/2/6 34/2/6 40/2/6
f 35/2/6 36/2/6 40/2/6
f 21/2/6 37/2/6 41/2/6
f 37/1/6 38/1/6 41/1/6
f 38/2/6 39/2/6 42/2/6
f 41/1/6 38/1/6 42/1/6
f 39/2/6 40/2/6 42/2/6
f 40/2/6 36/2/6 43/2/6
f 42/2/6 40/2/6 43/2/6
f 43/2/6 36/2/6 44/2/6
f 44/2/6 36/2/6 45/2/6
f 45/2/6 36/2/6 46/2/6
f 21/2/6 41/2/6 47/2/6
f 41/3/6 42/3/6 47/3/6
f 42/2/6 43/2/6 48/2/6
f 47/3/6 42/3/6 48/3/6
f 43/3/6 44/3/6 49/3/6
f 48/2/6 43/2/6 49/2/6
f 44/1/6 45/1/6 50/1/6
f 49/3/6 44/3/6 50/3/6
f 45/3/6 46/3/6 51/3/6
f 50/1/6 45/1/6 51/1/6
f 46/2/6 36/2/6 52/2/6
f 51/3/6 46/3/6 52/3/6
f 50/2/6 51/2/6 53/2/6
f 49/2/6 50/2/6 53/2/6
f 51/2/6 52/2/6 53/2/6
f 48/2/6 49/2/6 53/2/6
f 47/2/6 48/2/6 53/2/6
f 21/2/6 47/2/6 53/2/6
f 53/2/6 52/2/6 54/2/6
f 54/2/6 52/2/6 55/2/6
f 55/2/6 52/2/6 56/2/6
f 21/2/6 53/2/6 57/2/6
f 53/3/6 54/3/6 57/3/6
f 54/1/6 55/1/6 58/1/6
f 57/3/6 54/3/6 58/3/6
f 55/3/6 56/3/6 59/3/6
f 58/1/6 55/1/6 59/1/6
f 56/2/6 52/2/6 60/2/6
f 59/3/6 56/3/6 60/3/6
f 60/2/6 52/2/6 61/2/6
f 61/2/6 52/2/6 62/2/6
f 58/2/6 59/2/6 63/2/6
f 57/2/6 58/2/6 63/2/6
f 61/1/6 62/1/6 63/1/6
f 60/2/6 61/2/6 63/2/6
f 59/2/6 60/2/6 63/2/6
f 62/2/6 52/2/6 64/2/6
f 63/1/6 62/1/6 64/1/6
f 57/2/6 63/2/6 65/2/6
f 63/2/6 64/2/6 65/2/6
f 65/2/6 64/2/6 66/2/6
f 57/2/6 65/2/6 67/2/6
f 65/1/6 66/1/6 67/1/6
f 66/2/6 64/2/6 68/2/6
f 67/1/6 66/1/6 68/1/6
f 68/2/6 64/2/6 69/2/6
f 64/2/6 52/2/6 70/2/6
f 69/2/6 64/2/6 70/2/6
f 52/2/6 36/2/6 71/2/6
f 70/2/6 52/2/6 71/2/6
f 71/2/6 36/2/6 72/2/6
f 69/3/6 70/3/6 73/3/6
f 68/2/6 69/2/6 73/2/6
f 67/2/6 68/2/6 73/2/6
f 70/2/6 71/2/6 74/2/6
f 73/3/6 70/3/6 74/3/6
f 71/1/6 72/1/6 75/1/6
f 74/2/6 71/2/6 75/2/6
f 72/2/6 36/2/6 76/2/6
f 75/1/6 72/1/6 76/1/6
f 73/1/6 74/1/6 77/1/6
f 67/2/6 73/2/6 77/2/6
f 74/2/6 75/2/6 78/2/6
f 77/1/6 74/1/6 78/1/6
f 75/2/6 76/2/6 78/2/6
f 67/2/6 77/2/6 79/2/6
f 21/2/6 57/2/6 79/2/6
f 77/2/6 78/2/6 79/2/6
f 57/2/6 67/2/6 79/2/6
f 78/2/6 76/2/6 80/2/6
f 79/2/6 78/2/6 80/2/6
f 36/2/6 22/2/6 80/2/6
f 76/2/6 36/2/6 80/2/6
