# MagicaVoxel @ Ephtracy

# group
g YAVD_Tiles-43

# material
mtllib YAVD_Tiles-43.mtl
usemtl palette

# normals
vn -1 0 0
vn 1 0 0
vn 0 0 1
vn 0 0 -1
vn 0 -1 0
vn 0 1 0

# texcoords
vt 0.599609 0.5
vt 0.642578 0.5
vt 0.646484 0.5

# verts
v -2.5 1 0.5
v -2.5 1 -0.5
v -2.5 2 0.5
v -2.5 2 -0.5
v -0.5 0 0.5
v -0.5 0 -0.5
v -0.5 1 1.5
v -0.5 1 0.5
v -0.5 1 -0.5
v -0.5 1 -1.5
v -0.5 2 1.5
v -0.5 2 0.5
v -0.5 2 -0.5
v -0.5 2 -1.5
v -0.5 3 0.5
v -0.5 3 -0.5
v 1.5 0 0.5
v 1.5 0 -0.5
v 1.5 1 1.5
v 1.5 1 0.5
v 1.5 1 -0.5
v 1.5 1 -1.5
v 1.5 2 1.5
v 1.5 2 0.5
v 1.5 2 -0.5
v 1.5 2 -1.5
v 1.5 3 0.5
v 1.5 3 -0.5
v 2.5 1 0.5
v 2.5 1 -0.5
v 2.5 2 0.5
v 2.5 2 -0.5
v -0.5 1 1.5
v -0.5 2 1.5
v 0.5 1 1.5
v 0.5 2 1.5
v 1.5 1 1.5
v 1.5 2 1.5
v -2.5 1 0.5
v -2.5 2 0.5
v -0.5 0 0.5
v -0.5 1 0.5
v -0.5 2 0.5
v -0.5 3 0.5
v 0.5 0 0.5
v 0.5 1 0.5
v 0.5 2 0.5
v 0.5 3 0.5
v 1.5 0 0.5
v 1.5 1 0.5
v 1.5 2 0.5
v 1.5 3 0.5
v 2.5 1 0.5
v 2.5 2 0.5
v -2.5 1 -0.5
v -2.5 2 -0.5
v -0.5 0 -0.5
v -0.5 1 -0.5
v -0.5 2 -0.5
v -0.5 3 -0.5
v 0.5 0 -0.5
v 0.5 1 -0.5
v 0.5 2 -0.5
v 0.5 3 -0.5
v 1.5 0 -0.5
v 1.5 1 -0.5
v 1.5 2 -0.5
v 1.5 3 -0.5
v 2.5 1 -0.5
v 2.5 2 -0.5
v -0.5 1 -1.5
v -0.5 2 -1.5
v 0.5 1 -1.5
v 0.5 2 -1.5
v 1.5 1 -1.5
v 1.5 2 -1.5
v -0.5 0 0.5
v 0.5 0 0.5
v 1.5 0 0.5
v -0.5 0 -0.5
v 0.5 0 -0.5
v 1.5 0 -0.5
v -0.5 1 1.5
v 0.5 1 1.5
v 1.5 1 1.5
v -2.5 1 0.5
v -0.5 1 0.5
v 0.5 1 0.5
v 1.5 1 0.5
v 2.5 1 0.5
v -2.5 1 -0.5
v -0.5 1 -0.5
v 0.5 1 -0.5
v 1.5 1 -0.5
v 2.5 1 -0.5
v -0.5 1 -1.5
v 0.5 1 -1.5
v 1.5 1 -1.5
v -0.5 2 1.5
v 0.5 2 1.5
v 1.5 2 1.5
v -2.5 2 0.5
v -0.5 2 0.5
v 0.5 2 0.5
v 1.5 2 0.5
v 2.5 2 0.5
v -2.5 2 -0.5
v -0.5 2 -0.5
v 0.5 2 -0.5
v 1.5 2 -0.5
v 2.5 2 -0.5
v -0.5 2 -1.5
v 0.5 2 -1.5
v 1.5 2 -1.5
v -0.5 3 0.5
v 0.5 3 0.5
v 1.5 3 0.5
v -0.5 3 -0.5
v 0.5 3 -0.5
v 1.5 3 -0.5

# faces
f 3/2/1 2/2/1 1/2/1
f 4/2/1 2/2/1 3/2/1
f 8/2/1 6/2/1 5/2/1
f 9/2/1 6/2/1 8/2/1
f 11/2/1 8/2/1 7/2/1
f 12/2/1 8/2/1 11/2/1
f 13/2/1 10/2/1 9/2/1
f 14/2/1 10/2/1 13/2/1
f 15/2/1 13/2/1 12/2/1
f 16/2/1 13/2/1 15/2/1
f 17/3/2 18/3/2 20/3/2
f 20/3/2 18/3/2 21/3/2
f 19/3/2 20/3/2 23/3/2
f 23/3/2 20/3/2 24/3/2
f 21/3/2 22/3/2 25/3/2
f 25/3/2 22/3/2 26/3/2
f 24/3/2 25/3/2 27/3/2
f 27/3/2 25/3/2 28/3/2
f 29/1/2 30/1/2 31/1/2
f 31/1/2 30/1/2 32/1/2
f 35/2/3 34/2/3 33/2/3
f 36/2/3 34/2/3 35/2/3
f 37/3/3 36/3/3 35/3/3
f 38/3/3 36/3/3 37/3/3
f 42/2/3 40/2/3 39/2/3
f 43/2/3 40/2/3 42/2/3
f 45/2/3 42/2/3 41/2/3
f 46/2/3 42/2/3 45/2/3
f 47/2/3 44/2/3 43/2/3
f 48/2/3 44/2/3 47/2/3
f 49/3/3 46/3/3 45/3/3
f 50/3/3 46/3/3 49/3/3
f 51/3/3 48/3/3 47/3/3
f 52/3/3 48/3/3 51/3/3
f 53/1/3 51/1/3 50/1/3
f 54/1/3 51/1/3 53/1/3
f 55/2/4 56/2/4 58/2/4
f 58/2/4 56/2/4 59/2/4
f 57/2/4 58/2/4 61/2/4
f 61/2/4 58/2/4 62/2/4
f 59/2/4 60/2/4 63/2/4
f 63/2/4 60/2/4 64/2/4
f 61/3/4 62/3/4 65/3/4
f 65/3/4 62/3/4 66/3/4
f 63/3/4 64/3/4 67/3/4
f 67/3/4 64/3/4 68/3/4
f 66/1/4 67/1/4 69/1/4
f 69/1/4 67/1/4 70/1/4
f 71/2/4 72/2/4 73/2/4
f 73/2/4 72/2/4 74/2/4
f 73/3/4 74/3/4 75/3/4
f 75/3/4 74/3/4 76/3/4
f 80/2/5 78/2/5 77/2/5
f 81/3/5 79/3/5 78/3/5
f 81/2/5 78/2/5 80/2/5
f 82/3/5 79/3/5 81/3/5
f 87/2/5 84/2/5 83/2/5
f 88/3/5 85/3/5 84/3/5
f 88/2/5 84/2/5 87/2/5
f 89/3/5 85/3/5 88/3/5
f 91/2/5 87/2/5 86/2/5
f 92/2/5 87/2/5 91/2/5
f 94/1/5 90/1/5 89/1/5
f 95/1/5 90/1/5 94/1/5
f 96/2/5 93/2/5 92/2/5
f 97/3/5 94/3/5 93/3/5
f 97/2/5 93/2/5 96/2/5
f 98/3/5 94/3/5 97/3/5
f 99/2/6 100/2/6 103/2/6
f 100/3/6 101/3/6 104/3/6
f 103/2/6 100/2/6 104/2/6
f 104/3/6 101/3/6 105/3/6
f 102/2/6 103/2/6 107/2/6
f 107/2/6 103/2/6 108/2/6
f 105/1/6 106/1/6 110/1/6
f 110/1/6 106/1/6 111/1/6
f 108/2/6 109/2/6 112/2/6
f 109/3/6 110/3/6 113/3/6
f 112/2/6 109/2/6 113/2/6
f 113/3/6 110/3/6 114/3/6
f 115/2/6 116/2/6 118/2/6
f 116/3/6 117/3/6 119/3/6
f 118/2/6 116/2/6 119/2/6
f 119/3/6 117/3/6 120/3/6
