# MagicaVoxel @ Ephtracy

# group
g YAVD_Tiles-31

# material
mtllib YAVD_Tiles-31.mtl
usemtl palette

# normals
vn -1 0 0
vn 1 0 0
vn 0 0 1
vn 0 0 -1
vn 0 -1 0
vn 0 1 0

# texcoords
vt 0.0878906 0.5
vt 0.0917969 0.5

# verts
v -2.5 1 1.5
v -2.5 1 -1.5
v -2.5 3 1.5
v -2.5 3 -1.5
v -1.5 0 1.5
v -1.5 0 -1.5
v -1.5 1 2.5
v -1.5 1 1.5
v -1.5 1 -1.5
v -1.5 1 -2.5
v -1.5 3 2.5
v -1.5 3 1.5
v -1.5 3 -1.5
v -1.5 3 -2.5
v -1.5 4 1.5
v -1.5 4 -1.5
v -1.5 6 1.5
v -1.5 6 -1.5
v -1.5 7 1.5
v -1.5 7 -1.5
v -0.5 4 0.5
v -0.5 4 -0.5
v -0.5 6 0.5
v -0.5 6 -0.5
v 0.5 6 0.5
v 0.5 6 -0.5
v 0.5 7 0.5
v 0.5 7 -0.5
v -0.5 6 0.5
v -0.5 6 -0.5
v -0.5 7 0.5
v -0.5 7 -0.5
v 0.5 4 0.5
v 0.5 4 -0.5
v 0.5 6 0.5
v 0.5 6 -0.5
v 1.5 0 1.5
v 1.5 0 -1.5
v 1.5 1 2.5
v 1.5 1 1.5
v 1.5 1 -1.5
v 1.5 1 -2.5
v 1.5 3 2.5
v 1.5 3 1.5
v 1.5 3 -1.5
v 1.5 3 -2.5
v 1.5 4 1.5
v 1.5 4 -1.5
v 1.5 6 1.5
v 1.5 6 -1.5
v 1.5 7 1.5
v 1.5 7 -1.5
v 2.5 1 1.5
v 2.5 1 -1.5
v 2.5 3 1.5
v 2.5 3 -1.5
v -1.5 1 2.5
v -1.5 3 2.5
v 1.5 1 2.5
v 1.5 3 2.5
v -2.5 1 1.5
v -2.5 3 1.5
v -1.5 0 1.5
v -1.5 1 1.5
v -1.5 3 1.5
v -1.5 4 1.5
v -1.5 6 1.5
v -1.5 7 1.5
v 1.5 0 1.5
v 1.5 1 1.5
v 1.5 3 1.5
v 1.5 4 1.5
v 1.5 6 1.5
v 1.5 7 1.5
v 2.5 1 1.5
v 2.5 3 1.5
v -0.5 4 0.5
v -0.5 6 0.5
v 0.5 4 0.5
v 0.5 6 0.5
v -0.5 6 -0.5
v -0.5 7 -0.5
v 0.5 6 -0.5
v 0.5 7 -0.5
v -0.5 6 0.5
v -0.5 7 0.5
v 0.5 6 0.5
v 0.5 7 0.5
v -0.5 4 -0.5
v -0.5 6 -0.5
v 0.5 4 -0.5
v 0.5 6 -0.5
v -2.5 1 -1.5
v -2.5 3 -1.5
v -1.5 0 -1.5
v -1.5 1 -1.5
v -1.5 3 -1.5
v -1.5 4 -1.5
v -1.5 6 -1.5
v -1.5 7 -1.5
v 1.5 0 -1.5
v 1.5 1 -1.5
v 1.5 3 -1.5
v 1.5 4 -1.5
v 1.5 6 -1.5
v 1.5 7 -1.5
v 2.5 1 -1.5
v 2.5 3 -1.5
v -1.5 1 -2.5
v -1.5 3 -2.5
v 1.5 1 -2.5
v 1.5 3 -2.5
v -1.5 0 1.5
v 1.5 0 1.5
v -1.5 0 -1.5
v 1.5 0 -1.5
v -1.5 1 2.5
v 1.5 1 2.5
v -2.5 1 1.5
v -1.5 1 1.5
v 1.5 1 1.5
v 2.5 1 1.5
v -2.5 1 -1.5
v -1.5 1 -1.5
v 1.5 1 -1.5
v 2.5 1 -1.5
v -1.5 1 -2.5
v 1.5 1 -2.5
v -1.5 6 1.5
v 1.5 6 1.5
v -0.5 6 0.5
v 0.5 6 0.5
v -0.5 6 -0.5
v 0.5 6 -0.5
v -1.5 6 -1.5
v 1.5 6 -1.5
v -1.5 3 2.5
v 1.5 3 2.5
v -2.5 3 1.5
v -1.5 3 1.5
v 1.5 3 1.5
v 2.5 3 1.5
v -2.5 3 -1.5
v -1.5 3 -1.5
v 1.5 3 -1.5
v 2.5 3 -1.5
v -1.5 3 -2.5
v 1.5 3 -2.5
v -1.5 4 1.5
v 1.5 4 1.5
v -0.5 4 0.5
v 0.5 4 0.5
v -0.5 4 -0.5
v 0.5 4 -0.5
v -1.5 4 -1.5
v 1.5 4 -1.5
v -0.5 6 0.5
v 0.5 6 0.5
v -0.5 6 -0.5
v 0.5 6 -0.5
v -1.5 7 1.5
v 1.5 7 1.5
v -0.5 7 0.5
v 0.5 7 0.5
v -0.5 7 -0.5
v 0.5 7 -0.5
v -1.5 7 -1.5
v 1.5 7 -1.5

# faces
f 3/1/1 2/1/1 1/1/1
f 4/1/1 2/1/1 3/1/1
f 8/1/1 6/1/1 5/1/1
f 9/1/1 6/1/1 8/1/1
f 11/1/1 8/1/1 7/1/1
f 12/1/1 8/1/1 11/1/1
f 13/1/1 10/1/1 9/1/1
f 14/1/1 10/1/1 13/1/1
f 15/2/1 13/2/1 12/2/1
f 16/2/1 13/2/1 15/2/1
f 19/2/1 18/2/1 17/2/1
f 20/2/1 18/2/1 19/2/1
f 23/2/1 22/2/1 21/2/1
f 24/2/1 22/2/1 23/2/1
f 27/2/1 26/2/1 25/2/1
f 28/2/1 26/2/1 27/2/1
f 29/2/2 30/2/2 31/2/2
f 31/2/2 30/2/2 32/2/2
f 33/2/2 34/2/2 35/2/2
f 35/2/2 34/2/2 36/2/2
f 37/1/2 38/1/2 40/1/2
f 40/1/2 38/1/2 41/1/2
f 39/1/2 40/1/2 43/1/2
f 43/1/2 40/1/2 44/1/2
f 41/1/2 42/1/2 45/1/2
f 45/1/2 42/1/2 46/1/2
f 44/2/2 45/2/2 47/2/2
f 47/2/2 45/2/2 48/2/2
f 49/2/2 50/2/2 51/2/2
f 51/2/2 50/2/2 52/2/2
f 53/1/2 54/1/2 55/1/2
f 55/1/2 54/1/2 56/1/2
f 59/1/3 58/1/3 57/1/3
f 60/1/3 58/1/3 59/1/3
f 64/1/3 62/1/3 61/1/3
f 65/1/3 62/1/3 64/1/3
f 69/1/3 64/1/3 63/1/3
f 70/1/3 64/1/3 69/1/3
f 71/2/3 66/2/3 65/2/3
f 72/2/3 66/2/3 71/2/3
f 73/2/3 68/2/3 67/2/3
f 74/2/3 68/2/3 73/2/3
f 75/1/3 71/1/3 70/1/3
f 76/1/3 71/1/3 75/1/3
f 79/2/3 78/2/3 77/2/3
f 80/2/3 78/2/3 79/2/3
f 83/2/3 82/2/3 81/2/3
f 84/2/3 82/2/3 83/2/3
f 85/2/4 86/2/4 87/2/4
f 87/2/4 86/2/4 88/2/4
f 89/2/4 90/2/4 91/2/4
f 91/2/4 90/2/4 92/2/4
f 93/1/4 94/1/4 96/1/4
f 96/1/4 94/1/4 97/1/4
f 95/1/4 96/1/4 101/1/4
f 101/1/4 96/1/4 102/1/4
f 97/2/4 98/2/4 103/2/4
f 103/2/4 98/2/4 104/2/4
f 99/2/4 100/2/4 105/2/4
f 105/2/4 100/2/4 106/2/4
f 102/1/4 103/1/4 107/1/4
f 107/1/4 103/1/4 108/1/4
f 109/1/4 110/1/4 111/1/4
f 111/1/4 110/1/4 112/1/4
f 115/1/5 114/1/5 113/1/5
f 116/1/5 114/1/5 115/1/5
f 120/1/5 118/1/5 117/1/5
f 121/1/5 118/1/5 120/1/5
f 123/1/5 120/1/5 119/1/5
f 124/1/5 120/1/5 123/1/5
f 125/1/5 122/1/5 121/1/5
f 126/1/5 122/1/5 125/1/5
f 127/1/5 125/1/5 124/1/5
f 128/1/5 125/1/5 127/1/5
f 131/2/5 130/2/5 129/2/5
f 132/2/5 130/2/5 131/2/5
f 133/2/5 131/2/5 129/2/5
f 134/2/5 130/2/5 132/2/5
f 135/2/5 133/2/5 129/2/5
f 135/2/5 134/2/5 133/2/5
f 136/2/5 130/2/5 134/2/5
f 136/2/5 134/2/5 135/2/5
f 137/1/6 138/1/6 140/1/6
f 140/1/6 138/1/6 141/1/6
f 139/1/6 140/1/6 143/1/6
f 143/1/6 140/1/6 144/1/6
f 141/1/6 142/1/6 145/1/6
f 145/1/6 142/1/6 146/1/6
f 144/1/6 145/1/6 147/1/6
f 147/1/6 145/1/6 148/1/6
f 149/2/6 150/2/6 151/2/6
f 151/2/6 150/2/6 152/2/6
f 149/2/6 151/2/6 153/2/6
f 152/2/6 150/2/6 154/2/6
f 149/2/6 153/2/6 155/2/6
f 153/2/6 154/2/6 155/2/6
f 154/2/6 150/2/6 156/2/6
f 155/2/6 154/2/6 156/2/6
f 157/2/6 158/2/6 159/2/6
f 159/2/6 158/2/6 160/2/6
f 161/2/6 162/2/6 163/2/6
f 163/2/6 162/2/6 164/2/6
f 161/2/6 163/2/6 165/2/6
f 164/2/6 162/2/6 166/2/6
f 161/2/6 165/2/6 167/2/6
f 165/2/6 166/2/6 167/2/6
f 166/2/6 162/2/6 168/2/6
f 167/2/6 166/2/6 168/2/6
