# MagicaVoxel @ Ephtracy

# group
g YAVD_Tiles-23

# material
mtllib YAVD_Tiles-23.mtl
usemtl palette

# normals
vn -1 0 0
vn 1 0 0
vn 0 0 1
vn 0 0 -1
vn 0 -1 0
vn 0 1 0

# texcoords
vt 0.310547 0.5
vt 0.455078 0.5
vt 0.533203 0.5

# verts
v -3 2 5
v -3 2 -5
v -3 3 4
v -3 3 -4
v -3 4 1
v -3 4 -1
v -3 5 4
v -3 5 1
v -3 5 -1
v -3 5 -4
v -3 6 5
v -3 6 -5
v -2 6 5
v -2 6 4
v -2 6 -4
v -2 6 -5
v -2 7 5
v -2 7 4
v -2 7 -4
v -2 7 -5
v -1 7 5
v -1 7 4
v -1 7 -4
v -1 7 -5
v -1 8 5
v -1 8 4
v -1 8 -4
v -1 8 -5
v 1 7 5
v 1 7 4
v 1 7 -4
v 1 7 -5
v 1 8 5
v 1 8 4
v 1 8 -4
v 1 8 -5
v 2 6 5
v 2 6 4
v 2 6 -4
v 2 6 -5
v 2 7 5
v 2 7 4
v 2 7 -4
v 2 7 -5
v 3 2 5
v 3 2 -5
v 3 3 4
v 3 3 -4
v 3 5 4
v 3 5 -4
v 3 6 5
v 3 6 -5
v -3 2 5
v -3 6 5
v -2 3 5
v -2 5 5
v -2 6 5
v -2 7 5
v -1 6 5
v -1 7 5
v -1 8 5
v 1 6 5
v 1 7 5
v 1 8 5
v 2 3 5
v 2 5 5
v 2 6 5
v 2 7 5
v 3 2 5
v 3 6 5
v -3 2 -5
v -3 6 -5
v -2 3 -5
v -2 5 -5
v -2 6 -5
v -2 7 -5
v -1 6 -5
v -1 7 -5
v -1 8 -5
v 1 6 -5
v 1 7 -5
v 1 8 -5
v 2 3 -5
v 2 5 -5
v 2 6 -5
v 2 7 -5
v 3 2 -5
v 3 6 -5
v -3 2 5
v 3 2 5
v -2 2 4
v 2 2 4
v -2 2 -4
v 2 2 -4
v -3 2 -5
v 3 2 -5
v -3 6 5
v -2 6 5
v 2 6 5
v 3 6 5
v -2 6 4
v 2 6 4
v -2 6 -4
v 2 6 -4
v -3 6 -5
v -2 6 -5
v 2 6 -5
v 3 6 -5
v -2 7 5
v -1 7 5
v 1 7 5
v 2 7 5
v -2 7 4
v -1 7 4
v 1 7 4
v 2 7 4
v -2 7 -4
v -1 7 -4
v 1 7 -4
v 2 7 -4
v -2 7 -5
v -1 7 -5
v 1 7 -5
v 2 7 -5
v -1 8 5
v 1 8 5
v -1 8 4
v 1 8 4
v -1 8 -4
v 1 8 -4
v -1 8 -5
v 1 8 -5

# faces
f 3/2/1 2/2/1 1/2/1
f 4/2/1 2/2/1 3/2/1
f 5/3/1 4/3/1 3/3/1
f 6/3/1 4/3/1 5/3/1
f 7/2/1 3/2/1 1/2/1
f 7/3/1 5/3/1 3/3/1
f 8/2/1 6/2/1 5/2/1
f 8/3/1 5/3/1 7/3/1
f 9/3/1 4/3/1 6/3/1
f 9/2/1 6/2/1 8/2/1
f 10/2/1 2/2/1 4/2/1
f 10/3/1 4/3/1 9/3/1
f 11/2/1 8/2/1 7/2/1
f 11/2/1 9/2/1 8/2/1
f 11/2/1 10/2/1 9/2/1
f 11/2/1 7/2/1 1/2/1
f 12/2/1 2/2/1 10/2/1
f 12/2/1 10/2/1 11/2/1
f 17/2/1 14/2/1 13/2/1
f 18/3/1 15/3/1 14/3/1
f 18/2/1 14/2/1 17/2/1
f 19/2/1 16/2/1 15/2/1
f 19/3/1 15/3/1 18/3/1
f 20/2/1 16/2/1 19/2/1
f 25/2/1 22/2/1 21/2/1
f 26/3/1 23/3/1 22/3/1
f 26/2/1 22/2/1 25/2/1
f 27/2/1 24/2/1 23/2/1
f 27/3/1 23/3/1 26/3/1
f 28/2/1 24/2/1 27/2/1
f 29/2/2 30/2/2 33/2/2
f 30/3/2 31/3/2 34/3/2
f 33/2/2 30/2/2 34/2/2
f 31/2/2 32/2/2 35/2/2
f 34/3/2 31/3/2 35/3/2
f 35/2/2 32/2/2 36/2/2
f 37/2/2 38/2/2 41/2/2
f 38/3/2 39/3/2 42/3/2
f 41/2/2 38/2/2 42/2/2
f 39/2/2 40/2/2 43/2/2
f 42/3/2 39/3/2 43/3/2
f 43/2/2 40/2/2 44/2/2
f 45/2/2 46/2/2 47/2/2
f 47/2/2 46/2/2 48/2/2
f 45/2/2 47/2/2 49/2/2
f 47/3/2 48/3/2 49/3/2
f 48/2/2 46/2/2 50/2/2
f 49/3/2 48/3/2 50/3/2
f 45/2/2 49/2/2 51/2/2
f 49/2/2 50/2/2 51/2/2
f 50/2/2 46/2/2 52/2/2
f 51/2/2 50/2/2 52/2/2
f 55/2/3 54/2/3 53/2/3
f 56/2/3 54/2/3 55/2/3
f 57/2/3 54/2/3 56/2/3
f 59/2/3 57/2/3 56/2/3
f 59/2/3 58/2/3 57/2/3
f 60/2/3 58/2/3 59/2/3
f 62/2/3 59/2/3 56/2/3
f 62/3/3 60/3/3 59/3/3
f 63/2/3 61/2/3 60/2/3
f 63/3/3 60/3/3 62/3/3
f 64/2/3 61/2/3 63/2/3
f 65/2/3 55/2/3 53/2/3
f 65/3/3 56/3/3 55/3/3
f 66/2/3 63/2/3 62/2/3
f 66/3/3 56/3/3 65/3/3
f 66/2/3 62/2/3 56/2/3
f 67/2/3 63/2/3 66/2/3
f 68/2/3 63/2/3 67/2/3
f 69/2/3 65/2/3 53/2/3
f 69/2/3 66/2/3 65/2/3
f 69/2/3 67/2/3 66/2/3
f 70/2/3 67/2/3 69/2/3
f 71/2/4 72/2/4 73/2/4
f 73/2/4 72/2/4 74/2/4
f 74/2/4 72/2/4 75/2/4
f 74/2/4 75/2/4 77/2/4
f 75/2/4 76/2/4 77/2/4
f 77/2/4 76/2/4 78/2/4
f 74/2/4 77/2/4 80/2/4
f 77/3/4 78/3/4 80/3/4
f 78/2/4 79/2/4 81/2/4
f 80/3/4 78/3/4 81/3/4
f 81/2/4 79/2/4 82/2/4
f 71/2/4 73/2/4 83/2/4
f 73/3/4 74/3/4 83/3/4
f 80/2/4 81/2/4 84/2/4
f 83/3/4 74/3/4 84/3/4
f 74/2/4 80/2/4 84/2/4
f 84/2/4 81/2/4 85/2/4
f 85/2/4 81/2/4 86/2/4
f 71/2/4 83/2/4 87/2/4
f 83/2/4 84/2/4 87/2/4
f 84/2/4 85/2/4 87/2/4
f 87/2/4 85/2/4 88/2/4
f 91/2/5 90/2/5 89/2/5
f 92/2/5 90/2/5 91/2/5
f 93/2/5 91/2/5 89/2/5
f 93/1/5 92/1/5 91/1/5
f 94/2/5 90/2/5 92/2/5
f 94/1/5 92/1/5 93/1/5
f 95/2/5 93/2/5 89/2/5
f 95/2/5 94/2/5 93/2/5
f 96/2/5 90/2/5 94/2/5
f 96/2/5 94/2/5 95/2/5
f 97/2/6 98/2/6 101/2/6
f 99/2/6 100/2/6 102/2/6
f 97/2/6 101/2/6 103/2/6
f 102/2/6 100/2/6 104/2/6
f 97/2/6 103/2/6 105/2/6
f 105/2/6 103/2/6 106/2/6
f 104/2/6 100/2/6 107/2/6
f 107/2/6 100/2/6 108/2/6
f 109/2/6 110/2/6 113/2/6
f 113/2/6 110/2/6 114/2/6
f 111/2/6 112/2/6 115/2/6
f 115/2/6 112/2/6 116/2/6
f 113/3/6 114/3/6 117/3/6
f 117/3/6 114/3/6 118/3/6
f 115/3/6 116/3/6 119/3/6
f 119/3/6 116/3/6 120/3/6
f 117/2/6 118/2/6 121/2/6
f 121/2/6 118/2/6 122/2/6
f 119/2/6 120/2/6 123/2/6
f 123/2/6 120/2/6 124/2/6
f 125/2/6 126/2/6 127/2/6
f 127/2/6 126/2/6 128/2/6
f 127/3/6 128/3/6 129/3/6
f 129/3/6 128/3/6 130/3/6
f 129/2/6 130/2/6 131/2/6
f 131/2/6 130/2/6 132/2/6
