# MagicaVoxel @ Ephtracy

# group
g YAVD_Tiles-44

# material
mtllib YAVD_Tiles-44.mtl
usemtl palette

# normals
vn -1 0 0
vn 1 0 0
vn 0 0 1
vn 0 0 -1
vn 0 -1 0
vn 0 1 0

# texcoords
vt 0.841797 0.5
vt 0.916016 0.5
vt 0.919922 0.5

# verts
v -3.5 0 0.5
v -3.5 0 -0.5
v -3.5 1 0.5
v -3.5 1 -0.5
v -2.5 0 1.5
v -2.5 0 0.5
v -2.5 0 -0.5
v -2.5 0 -1.5
v -2.5 1 1.5
v -2.5 1 0.5
v -2.5 1 -0.5
v -2.5 1 -1.5
v -1.5 0 1.5
v -1.5 0 0.5
v -1.5 0 -0.5
v -1.5 0 -1.5
v -1.5 1 1.5
v -1.5 1 0.5
v -1.5 1 -0.5
v -1.5 1 -1.5
v 3.5 0 0.5
v 3.5 0 -0.5
v 3.5 1 0.5
v 3.5 1 -0.5
v -2.5 0 1.5
v -2.5 1 1.5
v -1.5 0 1.5
v -1.5 1 1.5
v -3.5 0 0.5
v -3.5 1 0.5
v -2.5 0 0.5
v -2.5 1 0.5
v -1.5 0 0.5
v -1.5 1 0.5
v -0.5 0 0.5
v -0.5 1 0.5
v 3.5 0 0.5
v 3.5 1 0.5
v -3.5 0 -0.5
v -3.5 1 -0.5
v -2.5 0 -0.5
v -2.5 1 -0.5
v -1.5 0 -0.5
v -1.5 1 -0.5
v -0.5 0 -0.5
v -0.5 1 -0.5
v 3.5 0 -0.5
v 3.5 1 -0.5
v -2.5 0 -1.5
v -2.5 1 -1.5
v -1.5 0 -1.5
v -1.5 1 -1.5
v -2.5 0 1.5
v -1.5 0 1.5
v -3.5 0 0.5
v -2.5 0 0.5
v -1.5 0 0.5
v -0.5 0 0.5
v 3.5 0 0.5
v -3.5 0 -0.5
v -2.5 0 -0.5
v -1.5 0 -0.5
v -0.5 0 -0.5
v 3.5 0 -0.5
v -2.5 0 -1.5
v -1.5 0 -1.5
v -2.5 1 1.5
v -1.5 1 1.5
v -3.5 1 0.5
v -2.5 1 0.5
v -1.5 1 0.5
v -0.5 1 0.5
v 3.5 1 0.5
v -3.5 1 -0.5
v -2.5 1 -0.5
v -1.5 1 -0.5
v -0.5 1 -0.5
v 3.5 1 -0.5
v -2.5 1 -1.5
v -1.5 1 -1.5

# faces
f 3/1/1 2/1/1 1/1/1
f 4/1/1 2/1/1 3/1/1
f 9/1/1 6/1/1 5/1/1
f 10/1/1 6/1/1 9/1/1
f 11/1/1 8/1/1 7/1/1
f 12/1/1 8/1/1 11/1/1
f 13/1/2 14/1/2 17/1/2
f 17/1/2 14/1/2 18/1/2
f 15/1/2 16/1/2 19/1/2
f 19/1/2 16/1/2 20/1/2
f 21/2/2 22/2/2 23/2/2
f 23/2/2 22/2/2 24/2/2
f 27/1/3 26/1/3 25/1/3
f 28/1/3 26/1/3 27/1/3
f 31/1/3 30/1/3 29/1/3
f 32/1/3 30/1/3 31/1/3
f 35/3/3 34/3/3 33/3/3
f 36/3/3 34/3/3 35/3/3
f 37/2/3 36/2/3 35/2/3
f 38/2/3 36/2/3 37/2/3
f 39/1/4 40/1/4 41/1/4
f 41/1/4 40/1/4 42/1/4
f 43/3/4 44/3/4 45/3/4
f 45/3/4 44/3/4 46/3/4
f 45/2/4 46/2/4 47/2/4
f 47/2/4 46/2/4 48/2/4
f 49/1/4 50/1/4 51/1/4
f 51/1/4 50/1/4 52/1/4
f 56/1/5 54/1/5 53/1/5
f 57/1/5 54/1/5 56/1/5
f 60/1/5 56/1/5 55/1/5
f 60/1/5 57/1/5 56/1/5
f 61/1/5 57/1/5 60/1/5
f 62/3/5 58/3/5 57/3/5
f 62/1/5 57/1/5 61/1/5
f 63/2/5 59/2/5 58/2/5
f 63/3/5 58/3/5 62/3/5
f 64/2/5 59/2/5 63/2/5
f 65/1/5 62/1/5 61/1/5
f 66/1/5 62/1/5 65/1/5
f 67/1/6 68/1/6 70/1/6
f 70/1/6 68/1/6 71/1/6
f 69/1/6 70/1/6 74/1/6
f 70/1/6 71/1/6 74/1/6
f 74/1/6 71/1/6 75/1/6
f 71/3/6 72/3/6 76/3/6
f 75/1/6 71/1/6 76/1/6
f 72/2/6 73/2/6 77/2/6
f 76/3/6 72/3/6 77/3/6
f 77/2/6 73/2/6 78/2/6
f 75/1/6 76/1/6 79/1/6
f 79/1/6 76/1/6 80/1/6
