# MagicaVoxel @ Ephtracy

# group
g YAVD_Tiles-16

# material
mtllib YAVD_Tiles-16.mtl
usemtl palette

# normals
vn -1 0 0
vn 1 0 0
vn 0 0 1
vn 0 0 -1
vn 0 -1 0
vn 0 1 0

# texcoords
vt 0.146484 0.5
vt 0.208984 0.5
vt 0.373047 0.5

# verts
v -8 0 8
v -8 0 -8
v -8 1 2
v -8 1 1
v -8 2 8
v -8 2 2
v -8 2 1
v -8 2 -8
v 8 0 8
v 8 0 -8
v 8 1 2
v 8 1 1
v 8 2 8
v 8 2 2
v 8 2 1
v 8 2 -8
v -8 0 8
v -8 2 8
v 0 1 8
v 0 2 8
v 1 1 8
v 1 2 8
v 8 0 8
v 8 2 8
v -8 0 -8
v -8 2 -8
v 8 0 -8
v 8 2 -8
v -8 0 8
v 8 0 8
v -8 0 -8
v 8 0 -8
v -8 2 8
v 0 2 8
v 1 2 8
v 8 2 8
v -5 2 7
v -4 2 7
v 0 2 7
v 1 2 7
v -5 2 6
v -4 2 6
v 5 2 6
v 6 2 6
v -7 2 5
v -6 2 5
v -5 2 5
v 5 2 5
v 6 2 5
v -7 2 4
v -6 2 4
v -5 2 4
v -1 2 4
v 0 2 4
v 1 2 4
v 2 2 4
v -1 2 3
v 0 2 3
v 1 2 3
v 2 2 3
v -8 2 2
v -7 2 2
v -1 2 2
v 0 2 2
v 6 2 2
v 7 2 2
v 8 2 2
v -8 2 1
v -7 2 1
v -5 2 1
v -4 2 1
v -1 2 1
v 0 2 1
v 3 2 1
v 4 2 1
v 6 2 1
v 7 2 1
v 8 2 1
v -5 2 -0
v -4 2 -0
v 3 2 -0
v 4 2 -0
v -6 2 -1
v -5 2 -1
v -3 2 -1
v -2 2 -1
v -1 2 -1
v 0 2 -1
v -6 2 -2
v -5 2 -2
v -3 2 -2
v -2 2 -2
v -1 2 -2
v 0 2 -2
v 5 2 -2
v 6 2 -2
v 5 2 -3
v 6 2 -3
v -1 2 -4
v 0 2 -4
v -7 2 -5
v -6 2 -5
v -1 2 -5
v 0 2 -5
v 5 2 -5
v 6 2 -5
v -7 2 -6
v -6 2 -6
v -2 2 -6
v -1 2 -6
v 5 2 -6
v 6 2 -6
v -2 2 -7
v -1 2 -7
v 5 2 -7
v 6 2 -7
v -8 2 -8
v 8 2 -8

# faces
f 3/1/1 2/1/1 1/1/1
f 4/1/1 2/1/1 3/1/1
f 5/1/1 3/1/1 1/1/1
f 6/2/1 4/2/1 3/2/1
f 6/1/1 3/1/1 5/1/1
f 7/1/1 2/1/1 4/1/1
f 7/2/1 4/2/1 6/2/1
f 8/1/1 2/1/1 7/1/1
f 9/1/2 10/1/2 11/1/2
f 11/1/2 10/1/2 12/1/2
f 9/1/2 11/1/2 13/1/2
f 11/3/2 12/3/2 14/3/2
f 13/1/2 11/1/2 14/1/2
f 12/1/2 10/1/2 15/1/2
f 14/3/2 12/3/2 15/3/2
f 15/1/2 10/1/2 16/1/2
f 19/1/3 18/1/3 17/1/3
f 20/1/3 18/1/3 19/1/3
f 21/1/3 19/1/3 17/1/3
f 21/3/3 20/3/3 19/3/3
f 22/3/3 20/3/3 21/3/3
f 23/1/3 21/1/3 17/1/3
f 23/1/3 22/1/3 21/1/3
f 24/1/3 22/1/3 23/1/3
f 25/1/4 26/1/4 27/1/4
f 27/1/4 26/1/4 28/1/4
f 31/1/5 30/1/5 29/1/5
f 32/1/5 30/1/5 31/1/5
f 33/1/6 34/1/6 37/1/6
f 37/1/6 34/1/6 38/1/6
f 34/3/6 35/3/6 39/3/6
f 38/1/6 34/1/6 39/1/6
f 35/1/6 36/1/6 40/1/6
f 39/3/6 35/3/6 40/3/6
f 37/2/6 38/2/6 41/2/6
f 33/1/6 37/1/6 41/1/6
f 38/1/6 39/1/6 42/1/6
f 41/2/6 38/2/6 42/2/6
f 39/1/6 40/1/6 42/1/6
f 40/1/6 36/1/6 43/1/6
f 42/1/6 40/1/6 43/1/6
f 43/1/6 36/1/6 44/1/6
f 33/1/6 41/1/6 45/1/6
f 41/1/6 42/1/6 45/1/6
f 42/1/6 43/1/6 45/1/6
f 45/1/6 43/1/6 46/1/6
f 46/1/6 43/1/6 47/1/6
f 43/3/6 44/3/6 48/3/6
f 47/1/6 43/1/6 48/1/6
f 44/1/6 36/1/6 49/1/6
f 48/3/6 44/3/6 49/3/6
f 33/1/6 45/1/6 50/1/6
f 45/2/6 46/2/6 50/2/6
f 46/3/6 47/3/6 51/3/6
f 50/2/6 46/2/6 51/2/6
f 47/1/6 48/1/6 52/1/6
f 51/3/6 47/3/6 52/3/6
f 48/1/6 49/1/6 52/1/6
f 52/1/6 49/1/6 53/1/6
f 53/1/6 49/1/6 54/1/6
f 54/1/6 49/1/6 55/1/6
f 55/1/6 49/1/6 56/1/6
f 50/1/6 51/1/6 57/1/6
f 51/1/6 52/1/6 57/1/6
f 52/1/6 53/1/6 57/1/6
f 53/2/6 54/2/6 57/2/6
f 54/1/6 55/1/6 58/1/6
f 57/2/6 54/2/6 58/2/6
f 55/3/6 56/3/6 59/3/6
f 58/1/6 55/1/6 59/1/6
f 56/1/6 49/1/6 60/1/6
f 59/3/6 56/3/6 60/3/6
f 33/1/6 50/1/6 61/1/6
f 50/1/6 57/1/6 61/1/6
f 61/1/6 57/1/6 62/1/6
f 57/3/6 58/3/6 63/3/6
f 62/1/6 57/1/6 63/1/6
f 58/1/6 59/1/6 64/1/6
f 63/3/6 58/3/6 64/3/6
f 59/1/6 60/1/6 64/1/6
f 60/1/6 49/1/6 65/1/6
f 64/1/6 60/1/6 65/1/6
f 49/1/6 36/1/6 65/1/6
f 65/1/6 36/1/6 66/1/6
f 66/1/6 36/1/6 67/1/6
f 61/2/6 62/2/6 68/2/6
f 62/1/6 63/1/6 69/1/6
f 68/2/6 62/2/6 69/2/6
f 69/1/6 63/1/6 70/1/6
f 70/1/6 63/1/6 71/1/6
f 63/2/6 64/2/6 72/2/6
f 71/1/6 63/1/6 72/1/6
f 64/1/6 65/1/6 73/1/6
f 72/2/6 64/2/6 73/2/6
f 73/1/6 65/1/6 74/1/6
f 74/1/6 65/1/6 75/1/6
f 65/2/6 66/2/6 76/2/6
f 75/1/6 65/1/6 76/1/6
f 66/3/6 67/3/6 77/3/6
f 76/2/6 66/2/6 77/2/6
f 77/3/6 67/3/6 78/3/6
f 70/3/6 71/3/6 79/3/6
f 68/1/6 69/1/6 79/1/6
f 69/1/6 70/1/6 79/1/6
f 71/1/6 72/1/6 80/1/6
f 79/3/6 71/3/6 80/3/6
f 72/1/6 73/1/6 80/1/6
f 73/1/6 74/1/6 80/1/6
f 74/2/6 75/2/6 81/2/6
f 80/1/6 74/1/6 81/1/6
f 75/1/6 76/1/6 82/1/6
f 81/2/6 75/2/6 82/2/6
f 77/1/6 78/1/6 82/1/6
f 76/1/6 77/1/6 82/1/6
f 68/1/6 79/1/6 83/1/6
f 79/1/6 80/1/6 83/1/6
f 81/1/6 82/1/6 83/1/6
f 80/1/6 81/1/6 83/1/6
f 83/1/6 82/1/6 84/1/6
f 84/1/6 82/1/6 85/1/6
f 85/1/6 82/1/6 86/1/6
f 86/1/6 82/1/6 87/1/6
f 87/1/6 82/1/6 88/1/6
f 68/1/6 83/1/6 89/1/6
f 83/2/6 84/2/6 89/2/6
f 84/1/6 85/1/6 90/1/6
f 89/2/6 84/2/6 90/2/6
f 85/2/6 86/2/6 91/2/6
f 90/1/6 85/1/6 91/1/6
f 86/3/6 87/3/6 92/3/6
f 91/2/6 86/2/6 92/2/6
f 87/2/6 88/2/6 93/2/6
f 92/3/6 87/3/6 93/3/6
f 88/1/6 82/1/6 94/1/6
f 93/2/6 88/2/6 94/2/6
f 82/1/6 78/1/6 95/1/6
f 94/1/6 82/1/6 95/1/6
f 95/1/6 78/1/6 96/1/6
f 93/1/6 94/1/6 97/1/6
f 92/1/6 93/1/6 97/1/6
f 95/3/6 96/3/6 97/3/6
f 94/1/6 95/1/6 97/1/6
f 90/1/6 91/1/6 97/1/6
f 89/1/6 90/1/6 97/1/6
f 91/1/6 92/1/6 97/1/6
f 96/1/6 78/1/6 98/1/6
f 97/3/6 96/3/6 98/3/6
f 89/1/6 97/1/6 99/1/6
f 97/1/6 98/1/6 99/1/6
f 99/1/6 98/1/6 100/1/6
f 68/1/6 89/1/6 101/1/6
f 89/1/6 99/1/6 101/1/6
f 101/1/6 99/1/6 102/1/6
f 99/3/6 100/3/6 103/3/6
f 102/1/6 99/1/6 103/1/6
f 100/1/6 98/1/6 104/1/6
f 103/3/6 100/3/6 104/3/6
f 104/1/6 98/1/6 105/1/6
f 98/1/6 78/1/6 106/1/6
f 105/1/6 98/1/6 106/1/6
f 101/3/6 102/3/6 107/3/6
f 68/1/6 101/1/6 107/1/6
f 104/1/6 105/1/6 108/1/6
f 107/3/6 102/3/6 108/3/6
f 102/1/6 103/1/6 108/1/6
f 103/1/6 104/1/6 108/1/6
f 108/1/6 105/1/6 109/1/6
f 109/1/6 105/1/6 110/1/6
f 105/2/6 106/2/6 111/2/6
f 110/1/6 105/1/6 111/1/6
f 106/1/6 78/1/6 112/1/6
f 111/2/6 106/2/6 112/2/6
f 109/2/6 110/2/6 113/2/6
f 107/1/6 108/1/6 113/1/6
f 108/1/6 109/1/6 113/1/6
f 110/1/6 111/1/6 114/1/6
f 113/2/6 110/2/6 114/2/6
f 111/3/6 112/3/6 115/3/6
f 114/1/6 111/1/6 115/1/6
f 112/1/6 78/1/6 116/1/6
f 115/3/6 112/3/6 116/3/6
f 68/1/6 107/1/6 117/1/6
f 114/1/6 115/1/6 117/1/6
f 115/1/6 116/1/6 117/1/6
f 113/1/6 114/1/6 117/1/6
f 107/1/6 113/1/6 117/1/6
f 116/1/6 78/1/6 118/1/6
f 117/1/6 116/1/6 118/1/6
