# MagicaVoxel @ Ephtracy

# group
g YAVD_Tiles-26

# material
mtllib YAVD_Tiles-26.mtl
usemtl palette

# normals
vn -1 0 0
vn 1 0 0
vn 0 0 1
vn 0 0 -1
vn 0 -1 0
vn 0 1 0

# texcoords
vt 0.267578 0.5
vt 0.310547 0.5
vt 0.583984 0.5
vt 0.607422 0.5
vt 0.994141 0.5

# verts
v -3.5 1 2
v -3.5 1 -0
v -3.5 2 1
v -3.5 2 -0
v -3.5 2 -1
v -3.5 3 2
v -3.5 3 1
v -3.5 3 -0
v -3.5 3 -1
v -3.5 3 -2
v -3.5 4 1
v -3.5 4 -0
v -3.5 4 -1
v -3.5 4 -2
v -3.5 4 -3
v -3.5 5 -0
v -3.5 5 -1
v -3.5 5 -2
v -3.5 5 -3
v -3.5 6 -1
v -3.5 6 -2
v -3.5 6 -3
v -2.5 1 -0
v -2.5 1 -1
v -2.5 2 -0
v -2.5 2 -1
v -2.5 5 1
v -2.5 5 -0
v -2.5 5 -1
v -2.5 6 2
v -2.5 6 1
v -2.5 6 -1
v -2.5 6 -2
v -2.5 8 2
v -2.5 8 1
v -2.5 8 -1
v -2.5 8 -2
v -2.5 9 1
v -2.5 9 -1
v -1.5 0 2
v -1.5 0 1
v -1.5 0 -1
v -1.5 0 -2
v -1.5 1 2
v -1.5 1 1
v -1.5 1 -1
v -1.5 1 -2
v -1.5 2 2
v -1.5 2 1
v -1.5 2 -1
v -1.5 2 -2
v -1.5 3 1
v -1.5 3 -1
v -1.5 4 2
v -1.5 4 1
v -1.5 4 -1
v -1.5 4 -2
v -1.5 5 2
v -1.5 5 1
v -1.5 5 -1
v -1.5 5 -2
v -1.5 6 3
v -1.5 6 2
v -1.5 6 1
v -1.5 6 -1
v -1.5 6 -2
v -1.5 6 -3
v -1.5 7 4
v -1.5 7 3
v -1.5 7 2
v -1.5 7 -2
v -1.5 7 -3
v -1.5 7 -4
v -1.5 8 4
v -1.5 8 2
v -1.5 8 1
v -1.5 8 -1
v -1.5 8 -2
v -1.5 8 -4
v -1.5 9 2
v -1.5 9 1
v -1.5 9 -1
v -1.5 9 -2
v -0.5 2 3
v -0.5 2 2
v -0.5 2 -2
v -0.5 2 -3
v -0.5 3 3
v -0.5 3 2
v -0.5 3 -2
v -0.5 3 -3
v 1.5 0 3
v 1.5 0 2
v 1.5 1 2
v 1.5 2 3
v 1.5 2 2
v 1.5 3 3
v 1.5 3 2
v 1.5 3 -2
v 1.5 3 -3
v 1.5 4 3
v 1.5 4 2
v 1.5 4 -2
v 1.5 4 -3
v 1.5 5 3
v 1.5 5 2
v 1.5 6 2
v 1.5 7 3
v 1.5 7 2
v 2.5 2 3
v 2.5 2 2
v 2.5 3 3
v 2.5 3 2
v 2.5 4 3
v 2.5 4 2
v 2.5 5 3
v 2.5 5 2
v -2.5 1 2
v -2.5 1 1
v -2.5 2 1
v -2.5 3 2
v -2.5 3 1
v -2.5 3 -1
v -2.5 3 -2
v -2.5 4 -0
v -2.5 4 -1
v -2.5 4 -2
v -2.5 4 -3
v -2.5 5 -0
v -2.5 5 -1
v -2.5 5 -2
v -2.5 5 -3
v -2.5 6 -1
v -2.5 6 -2
v -2.5 6 -3
v -0.5 6 3
v -0.5 6 2
v -0.5 6 -2
v -0.5 6 -3
v -0.5 7 4
v -0.5 7 3
v -0.5 7 2
v -0.5 7 -2
v -0.5 7 -3
v -0.5 7 -4
v -0.5 8 4
v -0.5 8 2
v -0.5 8 -2
v -0.5 8 -4
v 0.5 1 2
v 0.5 1 1
v 0.5 1 -1
v 0.5 1 -2
v 0.5 2 2
v 0.5 2 1
v 0.5 2 -1
v 0.5 2 -2
v 0.5 3 2
v 0.5 3 1
v 0.5 3 -1
v 0.5 3 -2
v 0.5 4 2
v 0.5 4 1
v 0.5 4 -1
v 0.5 4 -2
v 0.5 5 2
v 0.5 5 1
v 0.5 5 -1
v 0.5 5 -2
v 0.5 6 2
v 0.5 6 1
v 0.5 6 -1
v 0.5 6 -2
v 1.5 0 2
v 1.5 0 1
v 1.5 0 -1
v 1.5 0 -2
v 1.5 1 2
v 1.5 1 1
v 1.5 1 -1
v 1.5 1 -2
v 1.5 2 3
v 1.5 2 2
v 1.5 2 1
v 1.5 2 -1
v 1.5 2 -2
v 1.5 2 -3
v 1.5 3 3
v 1.5 3 2
v 1.5 3 1
v 1.5 3 -1
v 1.5 3 -2
v 1.5 3 -3
v 1.5 4 1
v 1.5 4 -1
v 1.5 5 1
v 1.5 5 -1
v 1.5 6 2
v 1.5 6 1
v 1.5 6 -1
v 1.5 6 -2
v 1.5 7 2
v 1.5 8 2
v 1.5 8 1
v 1.5 8 -1
v 1.5 8 -2
v 1.5 9 2
v 1.5 9 1
v 1.5 9 -1
v 1.5 9 -2
v 2.5 0 3
v 2.5 0 2
v 2.5 2 3
v 2.5 2 2
v 2.5 3 -2
v 2.5 3 -3
v 2.5 4 -2
v 2.5 4 -3
v 2.5 5 3
v 2.5 5 2
v 2.5 6 1
v 2.5 6 -1
v 2.5 7 3
v 2.5 7 2
v 2.5 9 1
v 2.5 9 -1
v 3.5 2 3
v 3.5 2 2
v 3.5 3 3
v 3.5 3 2
v 3.5 4 3
v 3.5 4 2
v 3.5 5 3
v 3.5 5 2
v -1.5 7 4
v -1.5 8 4
v -0.5 7 4
v -0.5 8 4
v -1.5 6 3
v -1.5 7 3
v -0.5 2 3
v -0.5 3 3
v -0.5 6 3
v -0.5 7 3
v 0.5 2 3
v 0.5 3 3
v 1.5 0 3
v 1.5 2 3
v 1.5 3 3
v 1.5 4 3
v 1.5 5 3
v 1.5 7 3
v 2.5 0 3
v 2.5 2 3
v 2.5 3 3
v 2.5 4 3
v 2.5 5 3
v 2.5 7 3
v 3.5 2 3
v 3.5 3 3
v 3.5 4 3
v 3.5 5 3
v -3.5 1 2
v -3.5 3 2
v -2.5 1 2
v -2.5 3 2
v -2.5 6 2
v -2.5 8 2
v -1.5 0 2
v -1.5 1 2
v -1.5 2 2
v -1.5 4 2
v -1.5 5 2
v -1.5 6 2
v -1.5 7 2
v -1.5 8 2
v -1.5 9 2
v -0.5 2 2
v -0.5 3 2
v -0.5 6 2
v -0.5 7 2
v -0.5 8 2
v 0.5 0 2
v 0.5 1 2
v 0.5 2 2
v 0.5 3 2
v 0.5 4 2
v 0.5 5 2
v 0.5 6 2
v 0.5 8 2
v 1.5 0 2
v 1.5 1 2
v 1.5 6 2
v 1.5 7 2
v 1.5 8 2
v 1.5 9 2
v -3.5 3 1
v -3.5 4 1
v -2.5 1 1
v -2.5 2 1
v -2.5 3 1
v -2.5 4 1
v -2.5 5 1
v -2.5 6 1
v -2.5 8 1
v -2.5 9 1
v -1.5 1 1
v -1.5 2 1
v -1.5 3 1
v -1.5 4 1
v -1.5 5 1
v -1.5 6 1
v -1.5 8 1
v -1.5 9 1
v -0.5 4 1
v -0.5 5 1
v 0.5 1 1
v 0.5 2 1
v 0.5 3 1
v 0.5 4 1
v 0.5 5 1
v 0.5 6 1
v 1.5 1 1
v 1.5 2 1
v 1.5 3 1
v 1.5 4 1
v 1.5 5 1
v 1.5 6 1
v 1.5 8 1
v 1.5 9 1
v 2.5 6 1
v 2.5 9 1
v -3.5 4 -0
v -3.5 5 -0
v -2.5 4 -0
v -2.5 5 -0
v -3.5 5 -1
v -3.5 6 -1
v -2.5 5 -1
v -2.5 6 -1
v -1.5 0 -1
v -1.5 1 -1
v 0.5 0 -1
v 0.5 1 -1
v 1.5 0 -1
v 1.5 1 -1
v 0.5 2 -2
v 0.5 3 -2
v 1.5 2 -2
v 1.5 3 -2
v 1.5 4 -2
v 2.5 3 -2
v 2.5 4 -2
v 0.5 2 2
v 0.5 3 2
v 1.5 0 2
v 1.5 1 2
v 1.5 2 2
v 1.5 3 2
v 1.5 4 2
v 1.5 5 2
v 1.5 6 2
v 1.5 7 2
v 2.5 0 2
v 2.5 2 2
v 2.5 3 2
v 2.5 4 2
v 2.5 5 2
v 2.5 7 2
v 3.5 2 2
v 3.5 3 2
v 3.5 4 2
v 3.5 5 2
v -1.5 0 1
v -1.5 1 1
v 0.5 0 1
v 0.5 1 1
v 1.5 0 1
v 1.5 1 1
v -3.5 1 -0
v -3.5 2 -0
v -2.5 1 -0
v -2.5 2 -0
v -3.5 2 -1
v -3.5 3 -1
v -2.5 1 -1
v -2.5 2 -1
v -2.5 3 -1
v -2.5 4 -1
v -2.5 5 -1
v -2.5 6 -1
v -2.5 8 -1
v -2.5 9 -1
v -1.5 1 -1
v -1.5 2 -1
v -1.5 3 -1
v -1.5 4 -1
v -1.5 5 -1
v -1.5 6 -1
v -1.5 8 -1
v -1.5 9 -1
v -0.5 4 -1
v -0.5 5 -1
v 0.5 1 -1
v 0.5 2 -1
v 0.5 3 -1
v 0.5 4 -1
v 0.5 5 -1
v 0.5 6 -1
v 1.5 1 -1
v 1.5 2 -1
v 1.5 3 -1
v 1.5 4 -1
v 1.5 5 -1
v 1.5 6 -1
v 1.5 8 -1
v 1.5 9 -1
v 2.5 6 -1
v 2.5 9 -1
v -3.5 3 -2
v -3.5 4 -2
v -2.5 3 -2
v -2.5 4 -2
v -2.5 6 -2
v -2.5 8 -2
v -1.5 0 -2
v -1.5 1 -2
v -1.5 2 -2
v -1.5 4 -2
v -1.5 5 -2
v -1.5 6 -2
v -1.5 7 -2
v -1.5 8 -2
v -1.5 9 -2
v -0.5 2 -2
v -0.5 3 -2
v -0.5 6 -2
v -0.5 7 -2
v -0.5 8 -2
v 0.5 0 -2
v 0.5 1 -2
v 0.5 2 -2
v 0.5 3 -2
v 0.5 4 -2
v 0.5 5 -2
v 0.5 6 -2
v 0.5 8 -2
v 1.5 0 -2
v 1.5 1 -2
v 1.5 6 -2
v 1.5 8 -2
v 1.5 9 -2
v -3.5 4 -3
v -3.5 5 -3
v -3.5 6 -3
v -2.5 4 -3
v -2.5 5 -3
v -2.5 6 -3
v -1.5 6 -3
v -1.5 7 -3
v -0.5 2 -3
v -0.5 3 -3
v -0.5 6 -3
v -0.5 7 -3
v 0.5 2 -3
v 0.5 3 -3
v 1.5 2 -3
v 1.5 3 -3
v 1.5 4 -3
v 2.5 3 -3
v 2.5 4 -3
v -1.5 7 -4
v -1.5 8 -4
v -0.5 7 -4
v -0.5 8 -4
v 1.5 0 3
v 2.5 0 3
v -1.5 0 2
v 0.5 0 2
v 1.5 0 2
v 2.5 0 2
v -1.5 0 1
v 0.5 0 1
v 1.5 0 1
v -1.5 0 -1
v 0.5 0 -1
v 1.5 0 -1
v -1.5 0 -2
v 0.5 0 -2
v 1.5 0 -2
v -3.5 1 2
v -2.5 1 2
v -2.5 1 1
v -1.5 1 1
v 0.5 1 1
v 1.5 1 1
v -3.5 1 -0
v -2.5 1 -0
v -2.5 1 -1
v -1.5 1 -1
v 0.5 1 -1
v 1.5 1 -1
v -0.5 2 3
v 0.5 2 3
v 1.5 2 3
v 2.5 2 3
v 3.5 2 3
v -0.5 2 2
v 0.5 2 2
v 1.5 2 2
v 2.5 2 2
v 3.5 2 2
v -3.5 2 -0
v -2.5 2 -0
v -3.5 2 -1
v -2.5 2 -1
v -0.5 2 -2
v 0.5 2 -2
v 1.5 2 -2
v -0.5 2 -3
v 0.5 2 -3
v 1.5 2 -3
v 1.5 3 3
v 2.5 3 3
v 1.5 3 2
v 2.5 3 2
v -3.5 3 -1
v -2.5 3 -1
v -3.5 3 -2
v -2.5 3 -2
v 1.5 3 -2
v 2.5 3 -2
v 1.5 3 -3
v 2.5 3 -3
v -3.5 4 -2
v -2.5 4 -2
v -3.5 4 -3
v -2.5 4 -3
v 1.5 5 3
v 2.5 5 3
v -1.5 5 2
v 0.5 5 2
v 1.5 5 2
v 2.5 5 2
v -2.5 5 1
v -1.5 5 1
v -0.5 5 1
v 0.5 5 1
v 1.5 5 1
v -2.5 5 -0
v -2.5 5 -1
v -1.5 5 -1
v -0.5 5 -1
v 0.5 5 -1
v 1.5 5 -1
v -1.5 5 -2
v 0.5 5 -2
v -1.5 6 3
v -0.5 6 3
v -2.5 6 2
v -1.5 6 2
v -0.5 6 2
v 0.5 6 2
v 1.5 6 2
v -2.5 6 1
v -1.5 6 1
v 0.5 6 1
v 1.5 6 1
v 2.5 6 1
v -2.5 6 -1
v -1.5 6 -1
v 0.5 6 -1
v 1.5 6 -1
v 2.5 6 -1
v -2.5 6 -2
v -1.5 6 -2
v -0.5 6 -2
v 0.5 6 -2
v 1.5 6 -2
v -1.5 6 -3
v -0.5 6 -3
v -1.5 7 4
v -0.5 7 4
v -1.5 7 3
v -0.5 7 3
v -1.5 7 -3
v -0.5 7 -3
v -1.5 7 -4
v -0.5 7 -4
v 0.5 1 2
v 1.5 1 2
v 0.5 1 1
v 1.5 1 1
v 0.5 1 -1
v 1.5 1 -1
v 0.5 1 -2
v 1.5 1 -2
v 1.5 2 3
v 2.5 2 3
v 1.5 2 2
v 2.5 2 2
v -0.5 3 3
v 0.5 3 3
v 1.5 3 3
v -3.5 3 2
v -2.5 3 2
v -0.5 3 2
v 0.5 3 2
v 1.5 3 2
v -3.5 3 1
v -2.5 3 1
v -0.5 3 -2
v 0.5 3 -2
v 1.5 3 -2
v -0.5 3 -3
v 0.5 3 -3
v 1.5 3 -3
v 1.5 4 3
v 2.5 4 3
v -1.5 4 2
v 0.5 4 2
v 1.5 4 2
v 2.5 4 2
v -3.5 4 1
v -2.5 4 1
v -1.5 4 1
v -0.5 4 1
v 0.5 4 1
v 1.5 4 1
v -3.5 4 -0
v -2.5 4 -0
v -2.5 4 -1
v -1.5 4 -1
v -0.5 4 -1
v 0.5 4 -1
v 1.5 4 -1
v -1.5 4 -2
v 0.5 4 -2
v 1.5 4 -2
v 2.5 4 -2
v 1.5 4 -3
v 2.5 4 -3
v 2.5 5 3
v 3.5 5 3
v 2.5 5 2
v 3.5 5 2
v -3.5 5 -0
v -2.5 5 -0
v -3.5 5 -1
v -2.5 5 -1
v -3.5 6 -1
v -2.5 6 -1
v -3.5 6 -2
v -2.5 6 -2
v -3.5 6 -3
v -2.5 6 -3
v 1.5 7 3
v 2.5 7 3
v 1.5 7 2
v 2.5 7 2
v -1.5 8 4
v -0.5 8 4
v -2.5 8 2
v -1.5 8 2
v -0.5 8 2
v -2.5 8 1
v -1.5 8 1
v -2.5 8 -1
v -1.5 8 -1
v -2.5 8 -2
v -1.5 8 -2
v -0.5 8 -2
v -1.5 8 -4
v -0.5 8 -4
v -1.5 9 2
v 1.5 9 2
v -2.5 9 1
v -1.5 9 1
v 1.5 9 1
v 2.5 9 1
v -2.5 9 -1
v -1.5 9 -1
v 1.5 9 -1
v 2.5 9 -1
v -1.5 9 -2
v 1.5 9 -2

# faces
f 3/2/1 2/2/1 1/2/1
f 4/2/1 2/2/1 3/2/1
f 6/2/1 3/2/1 1/2/1
f 7/1/1 4/1/1 3/1/1
f 7/2/1 3/2/1 6/2/1
f 8/2/1 5/2/1 4/2/1
f 8/1/1 4/1/1 7/1/1
f 9/2/1 5/2/1 8/2/1
f 11/2/1 8/2/1 7/2/1
f 12/1/1 9/1/1 8/1/1
f 12/2/1 8/2/1 11/2/1
f 13/2/1 10/2/1 9/2/1
f 13/1/1 9/1/1 12/1/1
f 14/2/1 10/2/1 13/2/1
f 16/2/1 13/2/1 12/2/1
f 17/1/1 14/1/1 13/1/1
f 17/2/1 13/2/1 16/2/1
f 18/2/1 15/2/1 14/2/1
f 18/1/1 14/1/1 17/1/1
f 19/2/1 15/2/1 18/2/1
f 20/2/1 18/2/1 17/2/1
f 21/1/1 19/1/1 18/1/1
f 21/2/1 18/2/1 20/2/1
f 22/1/1 19/1/1 21/1/1
f 25/1/1 24/1/1 23/1/1
f 26/1/1 24/1/1 25/1/1
f 31/3/1 28/3/1 27/3/1
f 31/3/1 29/3/1 28/3/1
f 32/3/1 29/3/1 31/3/1
f 34/3/1 31/3/1 30/3/1
f 35/4/1 32/4/1 31/4/1
f 35/3/1 31/3/1 34/3/1
f 36/3/1 33/3/1 32/3/1
f 36/4/1 32/4/1 35/4/1
f 37/3/1 33/3/1 36/3/1
f 38/3/1 36/3/1 35/3/1
f 39/3/1 36/3/1 38/3/1
f 44/4/1 41/4/1 40/4/1
f 45/4/1 41/4/1 44/4/1
f 46/4/1 43/4/1 42/4/1
f 47/4/1 43/4/1 46/4/1
f 48/1/1 45/1/1 44/1/1
f 49/1/1 45/1/1 48/1/1
f 50/1/1 47/1/1 46/1/1
f 51/1/1 47/1/1 50/1/1
f 52/3/1 49/3/1 48/3/1
f 53/3/1 51/3/1 50/3/1
f 54/3/1 52/3/1 48/3/1
f 55/3/1 52/3/1 54/3/1
f 56/3/1 51/3/1 53/3/1
f 57/3/1 51/3/1 56/3/1
f 59/4/1 56/4/1 55/4/1
f 60/4/1 56/4/1 59/4/1
f 63/3/1 59/3/1 58/3/1
f 64/3/1 59/3/1 63/3/1
f 65/3/1 61/3/1 60/3/1
f 66/3/1 61/3/1 65/3/1
f 69/4/1 63/4/1 62/4/1
f 70/4/1 63/4/1 69/4/1
f 71/4/1 67/4/1 66/4/1
f 72/4/1 67/4/1 71/4/1
f 74/3/1 70/3/1 69/3/1
f 74/3/1 69/3/1 68/3/1
f 75/3/1 70/3/1 74/3/1
f 78/3/1 73/3/1 72/3/1
f 78/3/1 72/3/1 71/3/1
f 79/3/1 73/3/1 78/3/1
f 80/3/1 76/3/1 75/3/1
f 81/3/1 76/3/1 80/3/1
f 82/3/1 78/3/1 77/3/1
f 83/3/1 78/3/1 82/3/1
f 88/3/1 85/3/1 84/3/1
f 89/3/1 85/3/1 88/3/1
f 90/3/1 87/3/1 86/3/1
f 91/3/1 87/3/1 90/3/1
f 94/2/1 93/2/1 92/2/1
f 95/2/1 94/2/1 92/2/1
f 96/2/1 94/2/1 95/2/1
f 101/3/1 98/3/1 97/3/1
f 102/3/1 98/3/1 101/3/1
f 103/3/1 100/3/1 99/3/1
f 104/3/1 100/3/1 103/3/1
f 107/2/1 106/2/1 105/2/1
f 108/2/1 107/2/1 105/2/1
f 109/2/1 107/2/1 108/2/1
f 112/2/1 111/2/1 110/2/1
f 113/2/1 111/2/1 112/2/1
f 116/2/1 115/2/1 114/2/1
f 117/2/1 115/2/1 116/2/1
f 118/2/2 119/2/2 120/2/2
f 118/2/2 120/2/2 121/2/2
f 121/2/2 120/2/2 122/2/2
f 123/2/2 124/2/2 126/2/2
f 126/2/2 124/2/2 127/2/2
f 125/2/2 126/2/2 129/2/2
f 126/1/2 127/1/2 130/1/2
f 129/2/2 126/2/2 130/2/2
f 127/2/2 128/2/2 131/2/2
f 130/1/2 127/1/2 131/1/2
f 131/2/2 128/2/2 132/2/2
f 130/2/2 131/2/2 133/2/2
f 131/1/2 132/1/2 134/1/2
f 133/2/2 131/2/2 134/2/2
f 134/1/2 132/1/2 135/1/2
f 136/4/2 137/4/2 141/4/2
f 141/4/2 137/4/2 142/4/2
f 138/4/2 139/4/2 143/4/2
f 143/4/2 139/4/2 144/4/2
f 141/3/2 142/3/2 146/3/2
f 140/3/2 141/3/2 146/3/2
f 146/3/2 142/3/2 147/3/2
f 144/3/2 145/3/2 148/3/2
f 143/3/2 144/3/2 148/3/2
f 148/3/2 145/3/2 149/3/2
f 150/1/2 151/1/2 154/1/2
f 154/1/2 151/1/2 155/1/2
f 152/1/2 153/1/2 156/1/2
f 156/1/2 153/1/2 157/1/2
f 154/3/2 155/3/2 158/3/2
f 158/3/2 155/3/2 159/3/2
f 156/3/2 157/3/2 160/3/2
f 160/3/2 157/3/2 161/3/2
f 158/3/2 159/3/2 162/3/2
f 162/3/2 159/3/2 163/3/2
f 160/3/2 161/3/2 164/3/2
f 164/3/2 161/3/2 165/3/2
f 163/3/2 164/3/2 167/3/2
f 167/3/2 164/3/2 168/3/2
f 166/3/2 167/3/2 170/3/2
f 170/3/2 167/3/2 171/3/2
f 168/3/2 169/3/2 172/3/2
f 172/3/2 169/3/2 173/3/2
f 174/3/2 175/3/2 178/3/2
f 178/3/2 175/3/2 179/3/2
f 176/3/2 177/3/2 180/3/2
f 180/3/2 177/3/2 181/3/2
f 179/1/2 180/1/2 184/1/2
f 184/1/2 180/1/2 185/1/2
f 182/4/2 183/4/2 188/4/2
f 188/4/2 183/4/2 189/4/2
f 184/4/2 185/4/2 190/4/2
f 190/4/2 185/4/2 191/4/2
f 186/4/2 187/4/2 192/4/2
f 192/4/2 187/4/2 193/4/2
f 190/3/2 191/3/2 194/3/2
f 194/3/2 191/3/2 195/3/2
f 196/4/2 197/4/2 199/4/2
f 199/4/2 197/4/2 200/4/2
f 198/5/2 199/5/2 202/5/2
f 202/5/2 199/5/2 203/5/2
f 203/5/2 199/5/2 204/5/2
f 200/5/2 201/5/2 205/5/2
f 205/5/2 201/5/2 206/5/2
f 203/3/2 204/3/2 207/3/2
f 207/3/2 204/3/2 208/3/2
f 205/3/2 206/3/2 209/3/2
f 209/3/2 206/3/2 210/3/2
f 211/2/2 212/2/2 213/2/2
f 213/2/2 212/2/2 214/2/2
f 215/3/2 216/3/2 217/3/2
f 217/3/2 216/3/2 218/3/2
f 219/2/2 220/2/2 223/2/2
f 223/2/2 220/2/2 224/2/2
f 221/3/2 222/3/2 225/3/2
f 225/3/2 222/3/2 226/3/2
f 227/2/2 228/2/2 229/2/2
f 229/2/2 228/2/2 230/2/2
f 229/1/2 230/1/2 231/1/2
f 231/1/2 230/1/2 232/1/2
f 231/2/2 232/2/2 233/2/2
f 233/2/2 232/2/2 234/2/2
f 237/3/3 236/3/3 235/3/3
f 238/3/3 236/3/3 237/3/3
f 243/4/3 240/4/3 239/4/3
f 244/4/3 240/4/3 243/4/3
f 245/3/3 242/3/3 241/3/3
f 246/3/3 242/3/3 245/3/3
f 248/4/3 246/4/3 245/4/3
f 249/4/3 246/4/3 248/4/3
f 253/2/3 248/2/3 247/2/3
f 254/2/3 248/2/3 253/2/3
f 255/3/3 250/3/3 249/3/3
f 256/3/3 250/3/3 255/3/3
f 257/2/3 252/2/3 251/2/3
f 258/2/3 252/2/3 257/2/3
f 259/2/3 255/2/3 254/2/3
f 260/1/3 256/1/3 255/1/3
f 260/2/3 255/2/3 259/2/3
f 261/2/3 257/2/3 256/2/3
f 261/1/3 256/1/3 260/1/3
f 262/2/3 257/2/3 261/2/3
f 265/2/3 264/2/3 263/2/3
f 266/2/3 264/2/3 265/2/3
f 274/3/3 268/3/3 267/3/3
f 275/3/3 268/3/3 274/3/3
f 276/3/3 268/3/3 275/3/3
f 278/3/3 272/3/3 271/3/3
f 278/1/3 271/1/3 270/1/3
f 279/3/3 272/3/3 278/3/3
f 280/3/3 274/3/3 273/3/3
f 282/3/3 277/3/3 276/3/3
f 283/4/3 270/4/3 269/4/3
f 284/1/3 278/1/3 270/1/3
f 284/4/3 270/4/3 283/4/3
f 285/1/3 278/1/3 284/1/3
f 286/3/3 272/3/3 279/3/3
f 287/3/3 272/3/3 286/3/3
f 288/3/3 281/3/3 280/3/3
f 288/3/3 282/3/3 281/3/3
f 288/3/3 280/3/3 273/3/3
f 289/3/3 282/3/3 288/3/3
f 290/3/3 277/3/3 282/3/3
f 290/3/3 282/3/3 289/3/3
f 291/3/3 284/3/3 283/3/3
f 292/3/3 284/3/3 291/3/3
f 293/5/3 290/5/3 289/5/3
f 294/5/3 290/5/3 293/5/3
f 295/3/3 277/3/3 290/3/3
f 295/5/3 290/5/3 294/5/3
f 296/3/3 277/3/3 295/3/3
f 301/2/3 298/2/3 297/2/3
f 302/2/3 298/2/3 301/2/3
f 307/1/3 300/1/3 299/1/3
f 308/3/3 301/3/3 300/3/3
f 308/1/3 300/1/3 307/1/3
f 309/4/3 302/4/3 301/4/3
f 309/3/3 301/3/3 308/3/3
f 310/4/3 302/4/3 309/4/3
f 311/3/3 304/3/3 303/3/3
f 312/3/3 304/3/3 311/3/3
f 313/3/3 306/3/3 305/3/3
f 314/3/3 306/3/3 313/3/3
f 315/4/3 311/4/3 310/4/3
f 316/4/3 311/4/3 315/4/3
f 320/3/3 316/3/3 315/3/3
f 321/3/3 316/3/3 320/3/3
f 323/1/3 318/1/3 317/1/3
f 324/4/3 319/4/3 318/4/3
f 324/1/3 318/1/3 323/1/3
f 325/3/3 320/3/3 319/3/3
f 325/4/3 319/4/3 324/4/3
f 326/3/3 320/3/3 325/3/3
f 327/4/3 322/4/3 321/4/3
f 328/4/3 322/4/3 327/4/3
f 331/3/3 330/3/3 329/3/3
f 331/3/3 329/3/3 328/3/3
f 332/3/3 330/3/3 331/3/3
f 335/2/3 334/2/3 333/2/3
f 336/2/3 334/2/3 335/2/3
f 339/2/3 338/2/3 337/2/3
f 340/2/3 338/2/3 339/2/3
f 343/4/3 342/4/3 341/4/3
f 344/4/3 342/4/3 343/4/3
f 345/3/3 344/3/3 343/3/3
f 346/3/3 344/3/3 345/3/3
f 349/4/3 348/4/3 347/4/3
f 350/4/3 348/4/3 349/4/3
f 352/3/3 351/3/3 350/3/3
f 353/3/3 351/3/3 352/3/3
f 354/4/4 355/4/4 358/4/4
f 358/4/4 355/4/4 359/4/4
f 356/2/4 357/2/4 364/2/4
f 357/2/4 358/2/4 364/2/4
f 364/2/4 358/2/4 365/2/4
f 359/3/4 360/3/4 366/3/4
f 366/3/4 360/3/4 367/3/4
f 362/2/4 363/2/4 368/2/4
f 361/2/4 362/2/4 368/2/4
f 368/2/4 363/2/4 369/2/4
f 365/2/4 366/2/4 370/2/4
f 366/1/4 367/1/4 371/1/4
f 370/2/4 366/2/4 371/2/4
f 367/2/4 368/2/4 372/2/4
f 371/1/4 367/1/4 372/1/4
f 372/2/4 368/2/4 373/2/4
f 374/4/4 375/4/4 376/4/4
f 376/4/4 375/4/4 377/4/4
f 376/3/4 377/3/4 378/3/4
f 378/3/4 377/3/4 379/3/4
f 380/2/4 381/2/4 382/2/4
f 382/2/4 381/2/4 383/2/4
f 384/2/4 385/2/4 387/2/4
f 387/2/4 385/2/4 388/2/4
f 386/1/4 387/1/4 394/1/4
f 387/3/4 388/3/4 395/3/4
f 394/1/4 387/1/4 395/1/4
f 388/4/4 389/4/4 396/4/4
f 395/3/4 388/3/4 396/3/4
f 396/4/4 389/4/4 397/4/4
f 390/3/4 391/3/4 398/3/4
f 398/3/4 391/3/4 399/3/4
f 392/3/4 393/3/4 400/3/4
f 400/3/4 393/3/4 401/3/4
f 397/4/4 398/4/4 402/4/4
f 402/4/4 398/4/4 403/4/4
f 402/3/4 403/3/4 407/3/4
f 407/3/4 403/3/4 408/3/4
f 404/1/4 405/1/4 410/1/4
f 405/4/4 406/4/4 411/4/4
f 410/1/4 405/1/4 411/1/4
f 406/3/4 407/3/4 412/3/4
f 411/4/4 406/4/4 412/4/4
f 412/3/4 407/3/4 413/3/4
f 408/4/4 409/4/4 414/4/4
f 414/4/4 409/4/4 415/4/4
f 416/3/4 417/3/4 418/3/4
f 415/3/4 416/3/4 418/3/4
f 418/3/4 417/3/4 419/3/4
f 420/2/4 421/2/4 422/2/4
f 422/2/4 421/2/4 423/2/4
f 424/3/4 425/3/4 431/3/4
f 431/3/4 425/3/4 432/3/4
f 432/3/4 425/3/4 433/3/4
f 428/3/4 429/3/4 435/3/4
f 427/1/4 428/1/4 435/1/4
f 435/3/4 429/3/4 436/3/4
f 430/3/4 431/3/4 437/3/4
f 433/3/4 434/3/4 439/3/4
f 426/4/4 427/4/4 440/4/4
f 427/1/4 435/1/4 441/1/4
f 440/4/4 427/4/4 441/4/4
f 441/1/4 435/1/4 442/1/4
f 436/3/4 429/3/4 443/3/4
f 443/3/4 429/3/4 444/3/4
f 437/3/4 438/3/4 445/3/4
f 438/3/4 439/3/4 445/3/4
f 430/3/4 437/3/4 445/3/4
f 445/3/4 439/3/4 446/3/4
f 439/3/4 434/3/4 447/3/4
f 446/3/4 439/3/4 447/3/4
f 440/3/4 441/3/4 448/3/4
f 448/3/4 441/3/4 449/3/4
f 446/5/4 447/5/4 450/5/4
f 447/3/4 434/3/4 451/3/4
f 450/5/4 447/5/4 451/5/4
f 451/3/4 434/3/4 452/3/4
f 453/2/4 454/2/4 456/2/4
f 454/1/4 455/1/4 457/1/4
f 456/2/4 454/2/4 457/2/4
f 457/1/4 455/1/4 458/1/4
f 459/4/4 460/4/4 463/4/4
f 463/4/4 460/4/4 464/4/4
f 461/3/4 462/3/4 465/3/4
f 465/3/4 462/3/4 466/3/4
f 465/4/4 466/4/4 467/4/4
f 467/4/4 466/4/4 468/4/4
f 468/3/4 469/3/4 470/3/4
f 470/3/4 469/3/4 471/3/4
f 472/3/4 473/3/4 474/3/4
f 474/3/4 473/3/4 475/3/4
f 480/2/5 477/2/5 476/2/5
f 481/2/5 477/2/5 480/2/5
f 482/4/5 479/4/5 478/4/5
f 483/3/5 480/3/5 479/3/5
f 483/4/5 479/4/5 482/4/5
f 484/3/5 480/3/5 483/3/5
f 488/4/5 486/4/5 485/4/5
f 489/3/5 487/3/5 486/3/5
f 489/4/5 486/4/5 488/4/5
f 490/3/5 487/3/5 489/3/5
f 493/2/5 492/2/5 491/2/5
f 497/2/5 493/2/5 491/2/5
f 498/1/5 496/1/5 495/1/5
f 498/2/5 493/2/5 497/2/5
f 498/1/5 494/1/5 493/1/5
f 498/1/5 495/1/5 494/1/5
f 499/1/5 496/1/5 498/1/5
f 500/1/5 496/1/5 499/1/5
f 501/1/5 496/1/5 500/1/5
f 502/1/5 496/1/5 501/1/5
f 508/3/5 504/3/5 503/3/5
f 509/4/5 505/4/5 504/4/5
f 509/3/5 504/3/5 508/3/5
f 510/4/5 505/4/5 509/4/5
f 511/2/5 507/2/5 506/2/5
f 512/2/5 507/2/5 511/2/5
f 515/2/5 514/2/5 513/2/5
f 516/2/5 514/2/5 515/2/5
f 520/3/5 518/3/5 517/3/5
f 521/4/5 519/4/5 518/4/5
f 521/3/5 518/3/5 520/3/5
f 522/4/5 519/4/5 521/4/5
f 525/3/5 524/3/5 523/3/5
f 526/3/5 524/3/5 525/3/5
f 529/2/5 528/2/5 527/2/5
f 530/2/5 528/2/5 529/2/5
f 533/3/5 532/3/5 531/3/5
f 534/3/5 532/3/5 533/3/5
f 537/2/5 536/2/5 535/2/5
f 538/2/5 536/2/5 537/2/5
f 543/2/5 540/2/5 539/2/5
f 544/2/5 540/2/5 543/2/5
f 546/3/5 542/3/5 541/3/5
f 547/3/5 542/3/5 546/3/5
f 548/3/5 542/3/5 547/3/5
f 550/3/5 546/3/5 545/3/5
f 551/3/5 546/3/5 550/3/5
f 552/3/5 546/3/5 551/3/5
f 554/4/5 549/4/5 548/4/5
f 555/4/5 549/4/5 554/4/5
f 556/3/5 553/3/5 552/3/5
f 556/3/5 554/3/5 553/3/5
f 557/3/5 554/3/5 556/3/5
f 561/4/5 559/4/5 558/4/5
f 562/4/5 559/4/5 561/4/5
f 565/3/5 561/3/5 560/3/5
f 566/3/5 561/3/5 565/3/5
f 567/5/5 564/5/5 563/5/5
f 568/5/5 564/5/5 567/5/5
f 573/3/5 569/3/5 568/3/5
f 574/3/5 569/3/5 573/3/5
f 575/3/5 571/3/5 570/3/5
f 576/3/5 571/3/5 575/3/5
f 578/5/5 573/5/5 572/5/5
f 579/5/5 573/5/5 578/5/5
f 580/4/5 577/4/5 576/4/5
f 581/4/5 577/4/5 580/4/5
f 584/3/5 583/3/5 582/3/5
f 585/3/5 583/3/5 584/3/5
f 588/3/5 587/3/5 586/3/5
f 589/3/5 587/3/5 588/3/5
f 590/3/6 591/3/6 592/3/6
f 592/3/6 591/3/6 593/3/6
f 594/3/6 595/3/6 596/3/6
f 596/3/6 595/3/6 597/3/6
f 598/2/6 599/2/6 600/2/6
f 600/2/6 599/2/6 601/2/6
f 602/3/6 603/3/6 607/3/6
f 603/4/6 604/4/6 608/4/6
f 607/3/6 603/3/6 608/3/6
f 608/4/6 604/4/6 609/4/6
f 605/2/6 606/2/6 610/2/6
f 610/2/6 606/2/6 611/2/6
f 612/3/6 613/3/6 615/3/6
f 613/4/6 614/4/6 616/4/6
f 615/3/6 613/3/6 616/3/6
f 616/4/6 614/4/6 617/4/6
f 618/3/6 619/3/6 622/3/6
f 622/3/6 619/3/6 623/3/6
f 620/3/6 621/3/6 626/3/6
f 626/3/6 621/3/6 627/3/6
f 627/3/6 621/3/6 628/3/6
f 624/2/6 625/2/6 630/2/6
f 625/4/6 626/4/6 631/4/6
f 630/2/6 625/2/6 631/2/6
f 631/4/6 626/4/6 632/4/6
f 632/4/6 626/4/6 633/4/6
f 628/3/6 629/3/6 635/3/6
f 635/3/6 629/3/6 636/3/6
f 633/3/6 634/3/6 637/3/6
f 634/3/6 635/3/6 637/3/6
f 637/3/6 635/3/6 638/3/6
f 639/3/6 640/3/6 641/3/6
f 641/3/6 640/3/6 642/3/6
f 643/2/6 644/2/6 645/2/6
f 645/2/6 644/2/6 646/2/6
f 647/2/6 648/2/6 649/2/6
f 649/2/6 648/2/6 650/2/6
f 651/2/6 652/2/6 653/2/6
f 653/2/6 652/2/6 654/2/6
f 653/1/6 654/1/6 655/1/6
f 655/1/6 654/1/6 656/1/6
f 657/2/6 658/2/6 659/2/6
f 659/2/6 658/2/6 660/2/6
f 661/3/6 662/3/6 664/3/6
f 664/3/6 662/3/6 665/3/6
f 663/3/6 664/3/6 666/3/6
f 666/3/6 664/3/6 667/3/6
f 668/3/6 669/3/6 670/3/6
f 670/3/6 669/3/6 671/3/6
f 671/3/6 672/3/6 673/3/6
f 673/3/6 672/3/6 674/3/6
f 675/3/6 676/3/6 678/3/6
f 678/3/6 676/3/6 679/3/6
f 677/3/6 678/3/6 681/3/6
f 678/4/6 679/4/6 682/4/6
f 681/3/6 678/3/6 682/3/6
f 679/3/6 680/3/6 683/3/6
f 682/4/6 679/4/6 683/4/6
f 683/3/6 680/3/6 684/3/6
f 682/3/6 683/3/6 685/3/6
f 685/3/6 683/3/6 686/3/6
