# MagicaVoxel @ Ephtracy

# group
g YAVD_Tiles-64

# material
mtllib YAVD_Tiles-64.mtl
usemtl palette

# normals
vn -1 0 0
vn 1 0 0
vn 0 0 1
vn 0 0 -1
vn 0 -1 0
vn 0 1 0

# texcoords
vt 0.310547 0.5
vt 0.341797 0.5
vt 0.986328 0.5

# verts
v -3 1 1
v -3 1 -1
v -3 2 1
v -3 2 -0
v -3 2 -1
v -3 4 1
v -3 4 -0
v -3 5 -0
v -3 5 -1
v -2 0 2
v -2 0 -1
v -2 0 -2
v -2 1 2
v -2 1 1
v -2 1 -1
v -2 1 -2
v -2 2 2
v -2 2 1
v -2 2 -1
v -2 2 -2
v -2 4 1
v -2 5 2
v -2 5 1
v -2 5 -1
v -2 5 -2
v -1 1 3
v -1 1 2
v -1 1 -2
v -1 1 -3
v -1 2 3
v -1 2 2
v -1 2 -2
v -1 2 -3
v -1 3 -2
v -1 3 -3
v -1 5 3
v -1 5 2
v 0 3 -2
v 0 3 -3
v 0 4 -2
v 0 4 -3
v 1 1 2
v 1 1 1
v 1 1 -1
v 1 1 -2
v 1 2 2
v 1 2 1
v 1 2 -1
v 1 2 -2
v 1 4 -1
v 1 4 -2
v 1 5 2
v 1 5 1
v 2 1 1
v 2 1 -1
v 2 2 1
v 2 2 -0
v 2 2 -1
v 2 4 -0
v 2 4 -1
v 2 5 1
v 2 5 -0
v -2 1 1
v -2 1 -1
v -2 2 1
v -2 2 -0
v -2 2 -1
v -2 4 1
v -2 4 -0
v -2 5 -0
v -2 5 -1
v -1 1 2
v -1 1 1
v -1 1 -1
v -1 1 -2
v -1 2 2
v -1 2 1
v -1 2 -1
v -1 2 -2
v -1 3 -2
v -1 5 2
v -1 5 1
v -1 5 -1
v -1 5 -2
v 1 1 3
v 1 1 2
v 1 1 -2
v 1 1 -3
v 1 2 3
v 1 2 2
v 1 2 -2
v 1 2 -3
v 1 4 -2
v 1 4 -3
v 1 5 3
v 1 5 2
v 2 0 2
v 2 0 1
v 2 0 -2
v 2 1 2
v 2 1 1
v 2 1 -1
v 2 1 -2
v 2 2 2
v 2 2 1
v 2 2 -1
v 2 2 -2
v 2 4 -1
v 2 4 -2
v 2 5 2
v 2 5 1
v 3 1 1
v 3 1 -1
v 3 2 1
v 3 2 -0
v 3 2 -1
v 3 4 -0
v 3 4 -1
v 3 5 1
v 3 5 -0
v -1 1 3
v -1 2 3
v -1 5 3
v 0 2 3
v 0 5 3
v 1 1 3
v 1 2 3
v 1 5 3
v -2 0 2
v -2 1 2
v -2 2 2
v -2 5 2
v -1 1 2
v -1 2 2
v -1 5 2
v 1 0 2
v 1 1 2
v 1 2 2
v 1 5 2
v 2 0 2
v 2 1 2
v 2 2 2
v 2 5 2
v -3 1 1
v -3 2 1
v -3 4 1
v -2 1 1
v -2 2 1
v -2 4 1
v 2 1 1
v 2 2 1
v 2 5 1
v 3 1 1
v 3 2 1
v 3 5 1
v -3 4 -0
v -3 5 -0
v -2 4 -0
v -2 5 -0
v -2 1 -1
v -2 2 -1
v -2 5 -1
v -1 1 -1
v -1 2 -1
v -1 5 -1
v 1 1 -1
v 1 2 -1
v 1 4 -1
v 2 1 -1
v 2 2 -1
v 2 4 -1
v -1 1 -2
v -1 2 -2
v -1 3 -2
v 0 2 -2
v 0 3 -2
v 0 4 -2
v 1 1 -2
v 1 2 -2
v 1 4 -2
v -1 1 2
v -1 2 2
v -1 5 2
v 0 2 2
v 0 5 2
v 1 1 2
v 1 2 2
v 1 5 2
v -2 1 1
v -2 2 1
v -2 4 1
v -2 5 1
v -1 1 1
v -1 2 1
v -1 5 1
v 1 1 1
v 1 2 1
v 1 5 1
v 2 1 1
v 2 2 1
v 2 5 1
v 2 4 -0
v 2 5 -0
v 3 4 -0
v 3 5 -0
v -3 1 -1
v -3 2 -1
v -3 5 -1
v -2 1 -1
v -2 2 -1
v -2 5 -1
v 2 1 -1
v 2 2 -1
v 2 4 -1
v 3 1 -1
v 3 2 -1
v 3 4 -1
v -2 0 -2
v -2 1 -2
v -2 2 -2
v -2 5 -2
v -1 0 -2
v -1 1 -2
v -1 2 -2
v -1 3 -2
v -1 5 -2
v 1 1 -2
v 1 2 -2
v 1 4 -2
v 2 0 -2
v 2 1 -2
v 2 2 -2
v 2 4 -2
v -1 1 -3
v -1 2 -3
v -1 3 -3
v 0 2 -3
v 0 3 -3
v 0 4 -3
v 1 1 -3
v 1 2 -3
v 1 4 -3
v -2 0 2
v 1 0 2
v 2 0 2
v 1 0 1
v 2 0 1
v -2 0 -1
v -1 0 -1
v -2 0 -2
v -1 0 -2
v 2 0 -2
v -1 1 3
v 1 1 3
v -1 1 2
v 1 1 2
v -3 1 1
v -2 1 1
v 2 1 1
v 3 1 1
v -3 1 -1
v -2 1 -1
v 2 1 -1
v 3 1 -1
v -1 1 -2
v 1 1 -2
v -1 1 -3
v 1 1 -3
v -1 1 2
v 1 1 2
v -2 1 1
v -1 1 1
v 1 1 1
v 2 1 1
v -2 1 -1
v -1 1 -1
v 1 1 -1
v 2 1 -1
v -1 1 -2
v 1 1 -2
v -1 3 -2
v 0 3 -2
v -1 3 -3
v 0 3 -3
v -3 4 1
v -2 4 1
v -3 4 -0
v -2 4 -0
v 2 4 -0
v 3 4 -0
v 1 4 -1
v 2 4 -1
v 3 4 -1
v 0 4 -2
v 1 4 -2
v 2 4 -2
v 0 4 -3
v 1 4 -3
v -1 5 3
v 0 5 3
v 1 5 3
v -2 5 2
v -1 5 2
v 0 5 2
v 1 5 2
v 2 5 2
v -2 5 1
v -1 5 1
v 1 5 1
v 2 5 1
v 3 5 1
v -3 5 -0
v -2 5 -0
v 2 5 -0
v 3 5 -0
v -3 5 -1
v -2 5 -1
v -1 5 -1
v -2 5 -2
v -1 5 -2

# faces
f 3/3/1 2/3/1 1/3/1
f 4/3/1 2/3/1 3/3/1
f 5/3/1 2/3/1 4/3/1
f 6/2/1 4/2/1 3/2/1
f 7/1/1 5/1/1 4/1/1
f 7/2/1 4/2/1 6/2/1
f 8/1/1 5/1/1 7/1/1
f 9/1/1 5/1/1 8/1/1
f 13/1/1 11/1/1 10/1/1
f 14/1/1 11/1/1 13/1/1
f 15/2/1 12/2/1 11/2/1
f 15/1/1 11/1/1 14/1/1
f 16/2/1 12/2/1 15/2/1
f 17/3/1 14/3/1 13/3/1
f 18/3/1 14/3/1 17/3/1
f 19/3/1 16/3/1 15/3/1
f 20/3/1 16/3/1 19/3/1
f 21/1/1 18/1/1 17/1/1
f 22/1/1 21/1/1 17/1/1
f 23/1/1 21/1/1 22/1/1
f 24/2/1 20/2/1 19/2/1
f 25/2/1 20/2/1 24/2/1
f 30/3/1 27/3/1 26/3/1
f 31/3/1 27/3/1 30/3/1
f 32/3/1 29/3/1 28/3/1
f 33/3/1 29/3/1 32/3/1
f 34/1/1 33/1/1 32/1/1
f 35/1/1 33/1/1 34/1/1
f 36/2/1 31/2/1 30/2/1
f 37/2/1 31/2/1 36/2/1
f 40/2/1 39/2/1 38/2/1
f 41/2/1 39/2/1 40/2/1
f 46/3/1 43/3/1 42/3/1
f 47/3/1 43/3/1 46/3/1
f 48/3/1 45/3/1 44/3/1
f 49/3/1 45/3/1 48/3/1
f 50/1/1 49/1/1 48/1/1
f 51/1/1 49/1/1 50/1/1
f 52/2/1 47/2/1 46/2/1
f 53/2/1 47/2/1 52/2/1
f 56/3/1 55/3/1 54/3/1
f 57/3/1 55/3/1 56/3/1
f 58/3/1 55/3/1 57/3/1
f 59/1/1 57/1/1 56/1/1
f 59/2/1 58/2/1 57/2/1
f 60/2/1 58/2/1 59/2/1
f 61/1/1 59/1/1 56/1/1
f 62/1/1 59/1/1 61/1/1
f 63/3/2 64/3/2 65/3/2
f 65/3/2 64/3/2 66/3/2
f 66/3/2 64/3/2 67/3/2
f 65/2/2 66/2/2 68/2/2
f 66/1/2 67/1/2 69/1/2
f 68/2/2 66/2/2 69/2/2
f 69/1/2 67/1/2 70/1/2
f 70/1/2 67/1/2 71/1/2
f 72/3/2 73/3/2 76/3/2
f 76/3/2 73/3/2 77/3/2
f 74/3/2 75/3/2 78/3/2
f 78/3/2 75/3/2 79/3/2
f 78/2/2 79/2/2 80/2/2
f 76/1/2 77/1/2 81/1/2
f 81/1/2 77/1/2 82/1/2
f 78/2/2 80/2/2 83/2/2
f 83/2/2 80/2/2 84/2/2
f 85/3/2 86/3/2 89/3/2
f 89/3/2 86/3/2 90/3/2
f 87/3/2 88/3/2 91/3/2
f 91/3/2 88/3/2 92/3/2
f 91/2/2 92/2/2 93/2/2
f 93/2/2 92/2/2 94/2/2
f 89/1/2 90/1/2 95/1/2
f 95/1/2 90/1/2 96/1/2
f 97/2/2 98/2/2 100/2/2
f 98/1/2 99/1/2 101/1/2
f 100/2/2 98/2/2 101/2/2
f 101/1/2 99/1/2 102/1/2
f 102/1/2 99/1/2 103/1/2
f 100/3/2 101/3/2 104/3/2
f 104/3/2 101/3/2 105/3/2
f 102/3/2 103/3/2 106/3/2
f 106/3/2 103/3/2 107/3/2
f 106/1/2 107/1/2 108/1/2
f 108/1/2 107/1/2 109/1/2
f 104/2/2 105/2/2 110/2/2
f 110/2/2 105/2/2 111/2/2
f 112/3/2 113/3/2 114/3/2
f 114/3/2 113/3/2 115/3/2
f 115/3/2 113/3/2 116/3/2
f 114/1/2 115/1/2 117/1/2
f 115/2/2 116/2/2 117/2/2
f 117/2/2 116/2/2 118/2/2
f 114/1/2 117/1/2 119/1/2
f 119/1/2 117/1/2 120/1/2
f 124/3/3 122/3/3 121/3/3
f 124/2/3 123/2/3 122/2/3
f 125/2/3 123/2/3 124/2/3
f 126/3/3 124/3/3 121/3/3
f 127/1/3 125/1/3 124/1/3
f 127/3/3 124/3/3 126/3/3
f 128/1/3 125/1/3 127/1/3
f 133/1/3 130/1/3 129/1/3
f 133/3/3 131/3/3 130/3/3
f 134/1/3 132/1/3 131/1/3
f 134/3/3 131/3/3 133/3/3
f 135/1/3 132/1/3 134/1/3
f 136/1/3 133/1/3 129/1/3
f 137/1/3 133/1/3 136/1/3
f 140/2/3 137/2/3 136/2/3
f 141/3/3 138/3/3 137/3/3
f 141/2/3 137/2/3 140/2/3
f 142/2/3 139/2/3 138/2/3
f 142/3/3 138/3/3 141/3/3
f 143/2/3 139/2/3 142/2/3
f 147/3/3 145/3/3 144/3/3
f 148/2/3 146/2/3 145/2/3
f 148/3/3 145/3/3 147/3/3
f 149/2/3 146/2/3 148/2/3
f 153/3/3 151/3/3 150/3/3
f 154/1/3 152/1/3 151/1/3
f 154/3/3 151/3/3 153/3/3
f 155/1/3 152/1/3 154/1/3
f 158/1/3 157/1/3 156/1/3
f 159/1/3 157/1/3 158/1/3
f 163/3/3 161/3/3 160/3/3
f 164/2/3 162/2/3 161/2/3
f 164/3/3 161/3/3 163/3/3
f 165/2/3 162/2/3 164/2/3
f 169/3/3 167/3/3 166/3/3
f 170/1/3 168/1/3 167/1/3
f 170/3/3 167/3/3 169/3/3
f 171/1/3 168/1/3 170/1/3
f 175/3/3 173/3/3 172/3/3
f 175/1/3 174/1/3 173/1/3
f 176/1/3 174/1/3 175/1/3
f 178/3/3 175/3/3 172/3/3
f 179/2/3 177/2/3 176/2/3
f 179/3/3 175/3/3 178/3/3
f 179/2/3 176/2/3 175/2/3
f 180/2/3 177/2/3 179/2/3
f 181/3/4 182/3/4 184/3/4
f 182/2/4 183/2/4 184/2/4
f 184/2/4 183/2/4 185/2/4
f 181/3/4 184/3/4 186/3/4
f 184/1/4 185/1/4 187/1/4
f 186/3/4 184/3/4 187/3/4
f 187/1/4 185/1/4 188/1/4
f 189/3/4 190/3/4 193/3/4
f 191/1/4 192/1/4 194/1/4
f 193/3/4 190/3/4 194/3/4
f 190/1/4 191/1/4 194/1/4
f 194/1/4 192/1/4 195/1/4
f 196/3/4 197/3/4 199/3/4
f 197/2/4 198/2/4 200/2/4
f 199/3/4 197/3/4 200/3/4
f 200/2/4 198/2/4 201/2/4
f 202/1/4 203/1/4 204/1/4
f 204/1/4 203/1/4 205/1/4
f 206/3/4 207/3/4 209/3/4
f 207/1/4 208/1/4 210/1/4
f 209/3/4 207/3/4 210/3/4
f 210/1/4 208/1/4 211/1/4
f 212/3/4 213/3/4 215/3/4
f 213/2/4 214/2/4 216/2/4
f 215/3/4 213/3/4 216/3/4
f 216/2/4 214/2/4 217/2/4
f 218/2/4 219/2/4 222/2/4
f 219/3/4 220/3/4 223/3/4
f 222/2/4 219/2/4 223/2/4
f 220/2/4 221/2/4 224/2/4
f 223/3/4 220/3/4 224/3/4
f 224/2/4 221/2/4 225/2/4
f 225/2/4 221/2/4 226/2/4
f 222/1/4 223/1/4 227/1/4
f 222/1/4 227/1/4 230/1/4
f 227/3/4 228/3/4 231/3/4
f 230/1/4 227/1/4 231/1/4
f 228/1/4 229/1/4 232/1/4
f 231/3/4 228/3/4 232/3/4
f 232/1/4 229/1/4 233/1/4
f 234/3/4 235/3/4 237/3/4
f 235/1/4 236/1/4 237/1/4
f 237/1/4 236/1/4 238/1/4
f 234/3/4 237/3/4 240/3/4
f 238/2/4 239/2/4 241/2/4
f 240/3/4 237/3/4 241/3/4
f 237/2/4 238/2/4 241/2/4
f 241/2/4 239/2/4 242/2/4
f 246/1/5 244/1/5 243/1/5
f 246/2/5 245/2/5 244/2/5
f 247/2/5 245/2/5 246/2/5
f 248/1/5 246/1/5 243/1/5
f 248/1/5 247/1/5 246/1/5
f 249/1/5 247/1/5 248/1/5
f 250/2/5 249/2/5 248/2/5
f 251/1/5 247/1/5 249/1/5
f 251/2/5 249/2/5 250/2/5
f 252/1/5 247/1/5 251/1/5
f 255/3/5 254/3/5 253/3/5
f 256/3/5 254/3/5 255/3/5
f 261/3/5 258/3/5 257/3/5
f 262/3/5 258/3/5 261/3/5
f 263/3/5 260/3/5 259/3/5
f 264/3/5 260/3/5 263/3/5
f 267/3/5 266/3/5 265/3/5
f 268/3/5 266/3/5 267/3/5
f 269/1/6 270/1/6 272/1/6
f 272/1/6 270/1/6 273/1/6
f 271/1/6 272/1/6 275/1/6
f 273/1/6 274/1/6 275/1/6
f 272/1/6 273/1/6 275/1/6
f 275/1/6 274/1/6 276/1/6
f 276/1/6 274/1/6 277/1/6
f 277/1/6 274/1/6 278/1/6
f 276/1/6 277/1/6 279/1/6
f 279/1/6 277/1/6 280/1/6
f 281/1/6 282/1/6 283/1/6
f 283/1/6 282/1/6 284/1/6
f 285/2/6 286/2/6 287/2/6
f 287/2/6 286/2/6 288/2/6
f 289/2/6 290/2/6 292/2/6
f 292/2/6 290/2/6 293/2/6
f 291/1/6 292/1/6 295/1/6
f 295/1/6 292/1/6 296/1/6
f 294/2/6 295/2/6 297/2/6
f 297/2/6 295/2/6 298/2/6
f 299/2/6 300/2/6 303/2/6
f 300/1/6 301/1/6 304/1/6
f 303/2/6 300/2/6 304/2/6
f 304/1/6 301/1/6 305/1/6
f 302/1/6 303/1/6 307/1/6
f 307/1/6 303/1/6 308/1/6
f 305/2/6 306/2/6 309/2/6
f 309/2/6 306/2/6 310/2/6
f 310/1/6 311/1/6 314/1/6
f 314/1/6 311/1/6 315/1/6
f 312/1/6 313/1/6 316/1/6
f 316/1/6 313/1/6 317/1/6
f 317/2/6 318/2/6 319/2/6
f 319/2/6 318/2/6 320/2/6
