# MagicaVoxel @ Ephtracy

# group
g YAVD_Tiles-45

# material
mtllib YAVD_Tiles-45.mtl
usemtl palette

# normals
vn -1 0 0
vn 1 0 0
vn 0 0 1
vn 0 0 -1
vn 0 -1 0
vn 0 1 0

# texcoords
vt 0.501953 0.5
vt 0.908203 0.5
vt 0.916016 0.5
vt 0.919922 0.5

# verts
v -4.5 0 0.5
v -4.5 0 -0.5
v -4.5 1 0.5
v -4.5 1 -0.5
v -3.5 0 1.5
v -3.5 0 0.5
v -3.5 0 -0.5
v -3.5 0 -1.5
v -3.5 1 1.5
v -3.5 1 0.5
v -3.5 1 -0.5
v -3.5 1 -1.5
v -2.5 0 2.5
v -2.5 0 1.5
v -2.5 0 -1.5
v -2.5 0 -2.5
v -2.5 1 2.5
v -2.5 1 1.5
v -2.5 1 -1.5
v -2.5 1 -2.5
v -1.5 0 2.5
v -1.5 0 1.5
v -1.5 0 -1.5
v -1.5 0 -2.5
v -1.5 1 2.5
v -1.5 1 1.5
v -1.5 1 -1.5
v -1.5 1 -2.5
v 3.5 0 1.5
v 3.5 0 0.5
v 3.5 0 -0.5
v 3.5 0 -1.5
v 3.5 1 1.5
v 3.5 1 0.5
v 3.5 1 -0.5
v 3.5 1 -1.5
v 4.5 0 0.5
v 4.5 0 -0.5
v 4.5 1 0.5
v 4.5 1 -0.5
v -2.5 0 2.5
v -2.5 1 2.5
v -1.5 0 2.5
v -1.5 1 2.5
v -3.5 0 1.5
v -3.5 1 1.5
v -2.5 0 1.5
v -2.5 1 1.5
v -1.5 0 1.5
v -1.5 1 1.5
v 3.5 0 1.5
v 3.5 1 1.5
v -4.5 0 0.5
v -4.5 1 0.5
v -3.5 0 0.5
v -3.5 1 0.5
v 3.5 0 0.5
v 3.5 1 0.5
v 4.5 0 0.5
v 4.5 1 0.5
v -4.5 0 -0.5
v -4.5 1 -0.5
v -3.5 0 -0.5
v -3.5 1 -0.5
v 3.5 0 -0.5
v 3.5 1 -0.5
v 4.5 0 -0.5
v 4.5 1 -0.5
v -3.5 0 -1.5
v -3.5 1 -1.5
v -2.5 0 -1.5
v -2.5 1 -1.5
v -1.5 0 -1.5
v -1.5 1 -1.5
v 3.5 0 -1.5
v 3.5 1 -1.5
v -2.5 0 -2.5
v -2.5 1 -2.5
v -1.5 0 -2.5
v -1.5 1 -2.5
v -2.5 0 2.5
v -1.5 0 2.5
v -3.5 0 1.5
v -2.5 0 1.5
v -1.5 0 1.5
v 3.5 0 1.5
v -4.5 0 0.5
v -3.5 0 0.5
v -2.5 0 0.5
v -1.5 0 0.5
v 3.5 0 0.5
v 4.5 0 0.5
v -4.5 0 -0.5
v -3.5 0 -0.5
v -2.5 0 -0.5
v -1.5 0 -0.5
v 3.5 0 -0.5
v 4.5 0 -0.5
v -3.5 0 -1.5
v -2.5 0 -1.5
v -1.5 0 -1.5
v 3.5 0 -1.5
v -2.5 0 -2.5
v -1.5 0 -2.5
v -2.5 1 2.5
v -1.5 1 2.5
v -3.5 1 1.5
v -2.5 1 1.5
v -1.5 1 1.5
v 3.5 1 1.5
v -4.5 1 0.5
v -3.5 1 0.5
v -2.5 1 0.5
v -1.5 1 0.5
v 3.5 1 0.5
v 4.5 1 0.5
v -4.5 1 -0.5
v -3.5 1 -0.5
v -2.5 1 -0.5
v -1.5 1 -0.5
v 3.5 1 -0.5
v 4.5 1 -0.5
v -3.5 1 -1.5
v -2.5 1 -1.5
v -1.5 1 -1.5
v 3.5 1 -1.5
v -2.5 1 -2.5
v -1.5 1 -2.5

# faces
f 3/2/1 2/2/1 1/2/1
f 4/2/1 2/2/1 3/2/1
f 9/2/1 6/2/1 5/2/1
f 10/2/1 6/2/1 9/2/1
f 11/2/1 8/2/1 7/2/1
f 12/2/1 8/2/1 11/2/1
f 17/2/1 14/2/1 13/2/1
f 18/2/1 14/2/1 17/2/1
f 19/2/1 16/2/1 15/2/1
f 20/2/1 16/2/1 19/2/1
f 21/2/2 22/2/2 25/2/2
f 25/2/2 22/2/2 26/2/2
f 23/2/2 24/2/2 27/2/2
f 27/2/2 24/2/2 28/2/2
f 29/3/2 30/3/2 33/3/2
f 33/3/2 30/3/2 34/3/2
f 31/3/2 32/3/2 35/3/2
f 35/3/2 32/3/2 36/3/2
f 37/3/2 38/3/2 39/3/2
f 39/3/2 38/3/2 40/3/2
f 43/2/3 42/2/3 41/2/3
f 44/2/3 42/2/3 43/2/3
f 47/2/3 46/2/3 45/2/3
f 48/2/3 46/2/3 47/2/3
f 51/3/3 50/3/3 49/3/3
f 52/3/3 50/3/3 51/3/3
f 55/2/3 54/2/3 53/2/3
f 56/2/3 54/2/3 55/2/3
f 59/3/3 58/3/3 57/3/3
f 60/3/3 58/3/3 59/3/3
f 61/2/4 62/2/4 63/2/4
f 63/2/4 62/2/4 64/2/4
f 65/3/4 66/3/4 67/3/4
f 67/3/4 66/3/4 68/3/4
f 69/2/4 70/2/4 71/2/4
f 71/2/4 70/2/4 72/2/4
f 73/3/4 74/3/4 75/3/4
f 75/3/4 74/3/4 76/3/4
f 77/2/4 78/2/4 79/2/4
f 79/2/4 78/2/4 80/2/4
f 84/2/5 82/2/5 81/2/5
f 85/2/5 82/2/5 84/2/5
f 88/2/5 84/2/5 83/2/5
f 89/4/5 85/4/5 84/4/5
f 89/2/5 84/2/5 88/2/5
f 90/3/5 86/3/5 85/3/5
f 90/4/5 85/4/5 89/4/5
f 91/3/5 86/3/5 90/3/5
f 93/2/5 88/2/5 87/2/5
f 94/1/5 89/1/5 88/1/5
f 94/2/5 88/2/5 93/2/5
f 95/4/5 90/4/5 89/4/5
f 95/1/5 89/1/5 94/1/5
f 95/4/5 91/4/5 90/4/5
f 96/4/5 91/4/5 95/4/5
f 97/3/5 92/3/5 91/3/5
f 97/4/5 91/4/5 96/4/5
f 98/3/5 92/3/5 97/3/5
f 99/2/5 95/2/5 94/2/5
f 100/4/5 96/4/5 95/4/5
f 100/2/5 95/2/5 99/2/5
f 101/3/5 97/3/5 96/3/5
f 101/4/5 96/4/5 100/4/5
f 102/3/5 97/3/5 101/3/5
f 103/2/5 101/2/5 100/2/5
f 104/2/5 101/2/5 103/2/5
f 105/2/6 106/2/6 108/2/6
f 108/2/6 106/2/6 109/2/6
f 107/2/6 108/2/6 112/2/6
f 108/4/6 109/4/6 113/4/6
f 112/2/6 108/2/6 113/2/6
f 109/3/6 110/3/6 114/3/6
f 113/4/6 109/4/6 114/4/6
f 114/3/6 110/3/6 115/3/6
f 111/2/6 112/2/6 117/2/6
f 112/1/6 113/1/6 118/1/6
f 117/2/6 112/2/6 118/2/6
f 113/4/6 114/4/6 119/4/6
f 118/1/6 113/1/6 119/1/6
f 114/4/6 115/4/6 119/4/6
f 119/4/6 115/4/6 120/4/6
f 115/3/6 116/3/6 121/3/6
f 120/4/6 115/4/6 121/4/6
f 121/3/6 116/3/6 122/3/6
f 118/2/6 119/2/6 123/2/6
f 119/4/6 120/4/6 124/4/6
f 123/2/6 119/2/6 124/2/6
f 120/3/6 121/3/6 125/3/6
f 124/4/6 120/4/6 125/4/6
f 125/3/6 121/3/6 126/3/6
f 124/2/6 125/2/6 127/2/6
f 127/2/6 125/2/6 128/2/6
