# MagicaVoxel @ Ephtracy

# group
g YAVD_Tiles-60

# material
mtllib YAVD_Tiles-60.mtl
usemtl palette

# normals
vn -1 0 0
vn 1 0 0
vn 0 0 1
vn 0 0 -1
vn 0 -1 0
vn 0 1 0

# texcoords
vt 0.646484 0.5
vt 0.669922 0.5
vt 0.677734 0.5
vt 0.689453 0.5
vt 0.748047 0.5
vt 0.994141 0.5

# verts
v -8 0 8
v -8 0 -8
v -8 1 8
v -8 1 7
v -8 1 6
v -8 1 5
v -8 1 4
v -8 1 3
v -8 1 2
v -8 1 1
v -8 1 -0
v -8 1 -1
v -8 1 -2
v -8 1 -3
v -8 1 -4
v -8 1 -5
v -8 1 -6
v -8 1 -7
v -8 1 -8
v -8 2 8
v -8 2 7
v -8 2 6
v -8 2 5
v -8 2 4
v -8 2 3
v -8 2 2
v -8 2 1
v -8 2 -0
v -8 2 -1
v -8 2 -2
v -8 2 -3
v -8 2 -4
v -8 2 -5
v -8 2 -6
v -8 2 -7
v -8 2 -8
v 8 0 8
v 8 0 -8
v 8 1 8
v 8 1 7
v 8 1 6
v 8 1 5
v 8 1 4
v 8 1 3
v 8 1 2
v 8 1 1
v 8 1 -0
v 8 1 -1
v 8 1 -2
v 8 1 -3
v 8 1 -4
v 8 1 -5
v 8 1 -6
v 8 1 -7
v 8 1 -8
v 8 2 8
v 8 2 7
v 8 2 6
v 8 2 5
v 8 2 4
v 8 2 3
v 8 2 2
v 8 2 1
v 8 2 -0
v 8 2 -1
v 8 2 -2
v 8 2 -3
v 8 2 -4
v 8 2 -5
v 8 2 -6
v 8 2 -7
v 8 2 -8
v -8 0 8
v -8 1 8
v -8 2 8
v -7 1 8
v -7 2 8
v -6 1 8
v -6 2 8
v -5 1 8
v -5 2 8
v -4 1 8
v -4 2 8
v -3 1 8
v -3 2 8
v -2 1 8
v -2 2 8
v -1 1 8
v -1 2 8
v 0 1 8
v 0 2 8
v 1 1 8
v 1 2 8
v 2 1 8
v 2 2 8
v 3 1 8
v 3 2 8
v 4 1 8
v 4 2 8
v 5 1 8
v 5 2 8
v 6 1 8
v 6 2 8
v 7 1 8
v 7 2 8
v 8 0 8
v 8 1 8
v 8 2 8
v -8 0 -8
v -8 1 -8
v -8 2 -8
v -5 1 -8
v -5 2 -8
v -4 1 -8
v -4 2 -8
v -3 1 -8
v -3 2 -8
v -2 1 -8
v -2 2 -8
v -1 1 -8
v -1 2 -8
v 0 1 -8
v 0 2 -8
v 1 1 -8
v 1 2 -8
v 2 1 -8
v 2 2 -8
v 3 1 -8
v 3 2 -8
v 4 1 -8
v 4 2 -8
v 5 1 -8
v 5 2 -8
v 6 1 -8
v 6 2 -8
v 7 1 -8
v 7 2 -8
v 8 0 -8
v 8 1 -8
v 8 2 -8
v -8 0 8
v 8 0 8
v -8 0 -8
v 8 0 -8
v -8 2 8
v -7 2 8
v -6 2 8
v -5 2 8
v -4 2 8
v -3 2 8
v -2 2 8
v -1 2 8
v 0 2 8
v 1 2 8
v 2 2 8
v 3 2 8
v 4 2 8
v 5 2 8
v 6 2 8
v 7 2 8
v 8 2 8
v -8 2 7
v -7 2 7
v -6 2 7
v -5 2 7
v -4 2 7
v -3 2 7
v -2 2 7
v -1 2 7
v 0 2 7
v 1 2 7
v 2 2 7
v 3 2 7
v 4 2 7
v 5 2 7
v 6 2 7
v 7 2 7
v 8 2 7
v -8 2 6
v -7 2 6
v -6 2 6
v -5 2 6
v -4 2 6
v -3 2 6
v -2 2 6
v -1 2 6
v 0 2 6
v 1 2 6
v 2 2 6
v 3 2 6
v 4 2 6
v 5 2 6
v 6 2 6
v 7 2 6
v 8 2 6
v -8 2 5
v -7 2 5
v -6 2 5
v -5 2 5
v -4 2 5
v -3 2 5
v -2 2 5
v -1 2 5
v 0 2 5
v 1 2 5
v 2 2 5
v 3 2 5
v 4 2 5
v 5 2 5
v 6 2 5
v 7 2 5
v 8 2 5
v -8 2 4
v -7 2 4
v -6 2 4
v -5 2 4
v -4 2 4
v -3 2 4
v -2 2 4
v -1 2 4
v 0 2 4
v 1 2 4
v 2 2 4
v 3 2 4
v 4 2 4
v 5 2 4
v 6 2 4
v 7 2 4
v 8 2 4
v -8 2 3
v -7 2 3
v -6 2 3
v -5 2 3
v -4 2 3
v -3 2 3
v -2 2 3
v -1 2 3
v 0 2 3
v 1 2 3
v 2 2 3
v 3 2 3
v 4 2 3
v 5 2 3
v 6 2 3
v 7 2 3
v 8 2 3
v -8 2 2
v -7 2 2
v -6 2 2
v -5 2 2
v -4 2 2
v -3 2 2
v -2 2 2
v -1 2 2
v 0 2 2
v 1 2 2
v 2 2 2
v 3 2 2
v 4 2 2
v 5 2 2
v 6 2 2
v 7 2 2
v 8 2 2
v -8 2 1
v -7 2 1
v -6 2 1
v -5 2 1
v -4 2 1
v -3 2 1
v -2 2 1
v -1 2 1
v 0 2 1
v 1 2 1
v 2 2 1
v 3 2 1
v 4 2 1
v 5 2 1
v 6 2 1
v 7 2 1
v 8 2 1
v -8 2 -0
v -7 2 -0
v -6 2 -0
v -5 2 -0
v -4 2 -0
v -3 2 -0
v -2 2 -0
v -1 2 -0
v 0 2 -0
v 1 2 -0
v 2 2 -0
v 3 2 -0
v 4 2 -0
v 5 2 -0
v 6 2 -0
v 7 2 -0
v 8 2 -0
v -8 2 -1
v -7 2 -1
v -6 2 -1
v -5 2 -1
v -4 2 -1
v -3 2 -1
v -2 2 -1
v -1 2 -1
v 0 2 -1
v 1 2 -1
v 2 2 -1
v 3 2 -1
v 4 2 -1
v 5 2 -1
v 6 2 -1
v 7 2 -1
v 8 2 -1
v -8 2 -2
v -7 2 -2
v -6 2 -2
v -5 2 -2
v -4 2 -2
v -3 2 -2
v -2 2 -2
v -1 2 -2
v 0 2 -2
v 1 2 -2
v 2 2 -2
v 3 2 -2
v 4 2 -2
v 5 2 -2
v 6 2 -2
v 7 2 -2
v 8 2 -2
v -8 2 -3
v -7 2 -3
v -6 2 -3
v -5 2 -3
v -4 2 -3
v -3 2 -3
v -2 2 -3
v -1 2 -3
v 0 2 -3
v 1 2 -3
v 2 2 -3
v 3 2 -3
v 4 2 -3
v 5 2 -3
v 6 2 -3
v 7 2 -3
v 8 2 -3
v -8 2 -4
v -7 2 -4
v -6 2 -4
v -5 2 -4
v -4 2 -4
v -3 2 -4
v -2 2 -4
v -1 2 -4
v 0 2 -4
v 1 2 -4
v 2 2 -4
v 3 2 -4
v 4 2 -4
v 5 2 -4
v 6 2 -4
v 7 2 -4
v 8 2 -4
v -8 2 -5
v -7 2 -5
v -6 2 -5
v -5 2 -5
v -4 2 -5
v -3 2 -5
v -2 2 -5
v -1 2 -5
v 0 2 -5
v 1 2 -5
v 2 2 -5
v 3 2 -5
v 4 2 -5
v 5 2 -5
v 6 2 -5
v 7 2 -5
v 8 2 -5
v -8 2 -6
v -7 2 -6
v -6 2 -6
v -5 2 -6
v -4 2 -6
v -3 2 -6
v -2 2 -6
v -1 2 -6
v 0 2 -6
v 1 2 -6
v 2 2 -6
v 3 2 -6
v 4 2 -6
v 5 2 -6
v 6 2 -6
v 7 2 -6
v 8 2 -6
v -8 2 -7
v -7 2 -7
v -6 2 -7
v -5 2 -7
v -4 2 -7
v -3 2 -7
v -2 2 -7
v -1 2 -7
v 0 2 -7
v 1 2 -7
v 2 2 -7
v 3 2 -7
v 4 2 -7
v 5 2 -7
v 6 2 -7
v 7 2 -7
v 8 2 -7
v -8 2 -8
v -5 2 -8
v -4 2 -8
v -3 2 -8
v -2 2 -8
v -1 2 -8
v 0 2 -8
v 1 2 -8
v 2 2 -8
v 3 2 -8
v 4 2 -8
v 5 2 -8
v 6 2 -8
v 7 2 -8
v 8 2 -8

# faces
f 3/6/1 2/6/1 1/6/1
f 4/6/1 2/6/1 3/6/1
f 5/6/1 2/6/1 4/6/1
f 6/6/1 2/6/1 5/6/1
f 7/6/1 2/6/1 6/6/1
f 8/6/1 2/6/1 7/6/1
f 9/6/1 2/6/1 8/6/1
f 10/6/1 2/6/1 9/6/1
f 11/6/1 2/6/1 10/6/1
f 12/6/1 2/6/1 11/6/1
f 13/6/1 2/6/1 12/6/1
f 14/6/1 2/6/1 13/6/1
f 15/6/1 2/6/1 14/6/1
f 16/6/1 2/6/1 15/6/1
f 17/6/1 2/6/1 16/6/1
f 18/6/1 2/6/1 17/6/1
f 19/6/1 2/6/1 18/6/1
f 20/2/1 4/2/1 3/2/1
f 21/5/1 5/5/1 4/5/1
f 21/2/1 4/2/1 20/2/1
f 22/2/1 6/2/1 5/2/1
f 22/5/1 5/5/1 21/5/1
f 23/5/1 7/5/1 6/5/1
f 23/2/1 6/2/1 22/2/1
f 24/2/1 8/2/1 7/2/1
f 24/5/1 7/5/1 23/5/1
f 25/5/1 9/5/1 8/5/1
f 25/2/1 8/2/1 24/2/1
f 26/3/1 10/3/1 9/3/1
f 26/5/1 9/5/1 25/5/1
f 27/5/1 11/5/1 10/5/1
f 27/3/1 10/3/1 26/3/1
f 28/4/1 12/4/1 11/4/1
f 28/5/1 11/5/1 27/5/1
f 29/5/1 13/5/1 12/5/1
f 29/4/1 12/4/1 28/4/1
f 30/2/1 14/2/1 13/2/1
f 30/5/1 13/5/1 29/5/1
f 31/5/1 15/5/1 14/5/1
f 31/2/1 14/2/1 30/2/1
f 32/2/1 16/2/1 15/2/1
f 32/5/1 15/5/1 31/5/1
f 33/5/1 17/5/1 16/5/1
f 33/2/1 16/2/1 32/2/1
f 34/1/1 18/1/1 17/1/1
f 34/5/1 17/5/1 33/5/1
f 35/5/1 19/5/1 18/5/1
f 35/1/1 18/1/1 34/1/1
f 36/5/1 19/5/1 35/5/1
f 37/6/2 38/6/2 39/6/2
f 39/6/2 38/6/2 40/6/2
f 40/6/2 38/6/2 41/6/2
f 41/6/2 38/6/2 42/6/2
f 42/6/2 38/6/2 43/6/2
f 43/6/2 38/6/2 44/6/2
f 44/6/2 38/6/2 45/6/2
f 45/6/2 38/6/2 46/6/2
f 46/6/2 38/6/2 47/6/2
f 47/6/2 38/6/2 48/6/2
f 48/6/2 38/6/2 49/6/2
f 49/6/2 38/6/2 50/6/2
f 50/6/2 38/6/2 51/6/2
f 51/6/2 38/6/2 52/6/2
f 52/6/2 38/6/2 53/6/2
f 53/6/2 38/6/2 54/6/2
f 54/6/2 38/6/2 55/6/2
f 39/5/2 40/5/2 56/5/2
f 40/2/2 41/2/2 57/2/2
f 56/5/2 40/5/2 57/5/2
f 41/5/2 42/5/2 58/5/2
f 57/2/2 41/2/2 58/2/2
f 42/4/2 43/4/2 59/4/2
f 58/5/2 42/5/2 59/5/2
f 43/5/2 44/5/2 60/5/2
f 59/4/2 43/4/2 60/4/2
f 44/3/2 45/3/2 61/3/2
f 60/5/2 44/5/2 61/5/2
f 45/5/2 46/5/2 62/5/2
f 61/3/2 45/3/2 62/3/2
f 46/2/2 47/2/2 63/2/2
f 62/5/2 46/5/2 63/5/2
f 47/5/2 48/5/2 64/5/2
f 63/2/2 47/2/2 64/2/2
f 48/2/2 49/2/2 65/2/2
f 64/5/2 48/5/2 65/5/2
f 49/5/2 50/5/2 66/5/2
f 65/2/2 49/2/2 66/2/2
f 50/3/2 51/3/2 67/3/2
f 66/5/2 50/5/2 67/5/2
f 51/5/2 52/5/2 68/5/2
f 67/3/2 51/3/2 68/3/2
f 52/2/2 53/2/2 69/2/2
f 68/5/2 52/5/2 69/5/2
f 53/5/2 54/5/2 70/5/2
f 69/2/2 53/2/2 70/2/2
f 54/2/2 55/2/2 71/2/2
f 70/5/2 54/5/2 71/5/2
f 71/2/2 55/2/2 72/2/2
f 76/6/3 74/6/3 73/6/3
f 76/2/3 75/2/3 74/2/3
f 77/2/3 75/2/3 76/2/3
f 78/6/3 76/6/3 73/6/3
f 78/5/3 77/5/3 76/5/3
f 79/5/3 77/5/3 78/5/3
f 80/6/3 78/6/3 73/6/3
f 80/4/3 79/4/3 78/4/3
f 81/4/3 79/4/3 80/4/3
f 82/6/3 80/6/3 73/6/3
f 82/5/3 81/5/3 80/5/3
f 83/5/3 81/5/3 82/5/3
f 84/6/3 82/6/3 73/6/3
f 84/2/3 83/2/3 82/2/3
f 85/2/3 83/2/3 84/2/3
f 86/6/3 84/6/3 73/6/3
f 86/5/3 85/5/3 84/5/3
f 87/5/3 85/5/3 86/5/3
f 88/6/3 86/6/3 73/6/3
f 88/3/3 87/3/3 86/3/3
f 89/3/3 87/3/3 88/3/3
f 90/6/3 88/6/3 73/6/3
f 90/5/3 89/5/3 88/5/3
f 91/5/3 89/5/3 90/5/3
f 92/6/3 90/6/3 73/6/3
f 92/3/3 91/3/3 90/3/3
f 93/3/3 91/3/3 92/3/3
f 94/6/3 92/6/3 73/6/3
f 94/5/3 93/5/3 92/5/3
f 95/5/3 93/5/3 94/5/3
f 96/6/3 94/6/3 73/6/3
f 96/2/3 95/2/3 94/2/3
f 97/2/3 95/2/3 96/2/3
f 98/6/3 96/6/3 73/6/3
f 98/5/3 97/5/3 96/5/3
f 99/5/3 97/5/3 98/5/3
f 100/6/3 98/6/3 73/6/3
f 100/4/3 99/4/3 98/4/3
f 101/4/3 99/4/3 100/4/3
f 102/6/3 100/6/3 73/6/3
f 102/5/3 101/5/3 100/5/3
f 103/5/3 101/5/3 102/5/3
f 104/6/3 102/6/3 73/6/3
f 104/3/3 103/3/3 102/3/3
f 105/3/3 103/3/3 104/3/3
f 106/6/3 104/6/3 73/6/3
f 107/5/3 105/5/3 104/5/3
f 107/6/3 104/6/3 106/6/3
f 108/5/3 105/5/3 107/5/3
f 109/6/4 110/6/4 112/6/4
f 110/5/4 111/5/4 112/5/4
f 112/5/4 111/5/4 113/5/4
f 109/6/4 112/6/4 114/6/4
f 112/3/4 113/3/4 114/3/4
f 114/3/4 113/3/4 115/3/4
f 109/6/4 114/6/4 116/6/4
f 114/5/4 115/5/4 116/5/4
f 116/5/4 115/5/4 117/5/4
f 109/6/4 116/6/4 118/6/4
f 116/1/4 117/1/4 118/1/4
f 118/1/4 117/1/4 119/1/4
f 109/6/4 118/6/4 120/6/4
f 118/5/4 119/5/4 120/5/4
f 120/5/4 119/5/4 121/5/4
f 109/6/4 120/6/4 122/6/4
f 120/3/4 121/3/4 122/3/4
f 122/3/4 121/3/4 123/3/4
f 109/6/4 122/6/4 124/6/4
f 122/5/4 123/5/4 124/5/4
f 124/5/4 123/5/4 125/5/4
f 109/6/4 124/6/4 126/6/4
f 124/3/4 125/3/4 126/3/4
f 126/3/4 125/3/4 127/3/4
f 109/6/4 126/6/4 128/6/4
f 126/5/4 127/5/4 128/5/4
f 128/5/4 127/5/4 129/5/4
f 109/6/4 128/6/4 130/6/4
f 128/3/4 129/3/4 130/3/4
f 130/3/4 129/3/4 131/3/4
f 109/6/4 130/6/4 132/6/4
f 130/5/4 131/5/4 132/5/4
f 132/5/4 131/5/4 133/5/4
f 109/6/4 132/6/4 134/6/4
f 132/4/4 133/4/4 134/4/4
f 134/4/4 133/4/4 135/4/4
f 109/6/4 134/6/4 136/6/4
f 134/5/4 135/5/4 136/5/4
f 136/5/4 135/5/4 137/5/4
f 109/6/4 136/6/4 138/6/4
f 136/2/4 137/2/4 139/2/4
f 138/6/4 136/6/4 139/6/4
f 139/2/4 137/2/4 140/2/4
f 143/6/5 142/6/5 141/6/5
f 144/6/5 142/6/5 143/6/5
f 145/2/6 146/2/6 162/2/6
f 146/5/6 147/5/6 163/5/6
f 162/2/6 146/2/6 163/2/6
f 147/4/6 148/4/6 164/4/6
f 163/5/6 147/5/6 164/5/6
f 148/5/6 149/5/6 165/5/6
f 164/4/6 148/4/6 165/4/6
f 149/2/6 150/2/6 166/2/6
f 165/5/6 149/5/6 166/5/6
f 150/5/6 151/5/6 167/5/6
f 166/2/6 150/2/6 167/2/6
f 151/3/6 152/3/6 168/3/6
f 167/5/6 151/5/6 168/5/6
f 152/5/6 153/5/6 169/5/6
f 168/3/6 152/3/6 169/3/6
f 153/3/6 154/3/6 170/3/6
f 169/5/6 153/5/6 170/5/6
f 154/5/6 155/5/6 171/5/6
f 170/3/6 154/3/6 171/3/6
f 155/2/6 156/2/6 172/2/6
f 171/5/6 155/5/6 172/5/6
f 156/5/6 157/5/6 173/5/6
f 172/2/6 156/2/6 173/2/6
f 157/4/6 158/4/6 174/4/6
f 173/5/6 157/5/6 174/5/6
f 158/5/6 159/5/6 175/5/6
f 174/4/6 158/4/6 175/4/6
f 159/3/6 160/3/6 176/3/6
f 175/5/6 159/5/6 176/5/6
f 160/5/6 161/5/6 177/5/6
f 176/3/6 160/3/6 177/3/6
f 177/5/6 161/5/6 178/5/6
f 162/5/6 163/5/6 179/5/6
f 163/2/6 164/2/6 180/2/6
f 179/5/6 163/5/6 180/5/6
f 164/5/6 165/5/6 181/5/6
f 180/2/6 164/2/6 181/2/6
f 165/2/6 166/2/6 182/2/6
f 181/5/6 165/5/6 182/5/6
f 166/5/6 167/5/6 183/5/6
f 182/2/6 166/2/6 183/2/6
f 167/3/6 168/3/6 184/3/6
f 183/5/6 167/5/6 184/5/6
f 168/5/6 169/5/6 185/5/6
f 184/3/6 168/3/6 185/3/6
f 169/3/6 170/3/6 186/3/6
f 185/5/6 169/5/6 186/5/6
f 170/5/6 171/5/6 187/5/6
f 186/3/6 170/3/6 187/3/6
f 171/3/6 172/3/6 188/3/6
f 187/5/6 171/5/6 188/5/6
f 172/5/6 173/5/6 189/5/6
f 188/3/6 172/3/6 189/3/6
f 173/2/6 174/2/6 190/2/6
f 189/5/6 173/5/6 190/5/6
f 174/5/6 175/5/6 191/5/6
f 190/2/6 174/2/6 191/2/6
f 175/4/6 176/4/6 192/4/6
f 191/5/6 175/5/6 192/5/6
f 176/5/6 177/5/6 193/5/6
f 192/4/6 176/4/6 193/4/6
f 177/2/6 178/2/6 194/2/6
f 193/5/6 177/5/6 194/5/6
f 194/2/6 178/2/6 195/2/6
f 179/2/6 180/2/6 196/2/6
f 180/5/6 181/5/6 197/5/6
f 196/2/6 180/2/6 197/2/6
f 181/3/6 182/3/6 198/3/6
f 197/5/6 181/5/6 198/5/6
f 182/5/6 183/5/6 199/5/6
f 198/3/6 182/3/6 199/3/6
f 183/1/6 184/1/6 200/1/6
f 199/5/6 183/5/6 200/5/6
f 184/5/6 185/5/6 201/5/6
f 200/1/6 184/1/6 201/1/6
f 185/2/6 186/2/6 202/2/6
f 201/5/6 185/5/6 202/5/6
f 186/5/6 187/5/6 203/5/6
f 202/2/6 186/2/6 203/2/6
f 187/2/6 188/2/6 204/2/6
f 203/5/6 187/5/6 204/5/6
f 188/5/6 189/5/6 205/5/6
f 204/2/6 188/2/6 205/2/6
f 189/3/6 190/3/6 206/3/6
f 205/5/6 189/5/6 206/5/6
f 190/5/6 191/5/6 207/5/6
f 206/3/6 190/3/6 207/3/6
f 191/2/6 192/2/6 208/2/6
f 207/5/6 191/5/6 208/5/6
f 192/5/6 193/5/6 209/5/6
f 208/2/6 192/2/6 209/2/6
f 193/3/6 194/3/6 210/3/6
f 209/5/6 193/5/6 210/5/6
f 194/5/6 195/5/6 211/5/6
f 210/3/6 194/3/6 211/3/6
f 211/5/6 195/5/6 212/5/6
f 196/5/6 197/5/6 213/5/6
f 197/3/6 198/3/6 214/3/6
f 213/5/6 197/5/6 214/5/6
f 198/5/6 199/5/6 215/5/6
f 214/3/6 198/3/6 215/3/6
f 199/2/6 200/2/6 216/2/6
f 215/5/6 199/5/6 216/5/6
f 200/5/6 201/5/6 217/5/6
f 216/2/6 200/2/6 217/2/6
f 201/3/6 202/3/6 218/3/6
f 217/5/6 201/5/6 218/5/6
f 202/5/6 203/5/6 219/5/6
f 218/3/6 202/3/6 219/3/6
f 203/2/6 204/2/6 220/2/6
f 219/5/6 203/5/6 220/5/6
f 204/5/6 205/5/6 221/5/6
f 220/2/6 204/2/6 221/2/6
f 205/3/6 206/3/6 222/3/6
f 221/5/6 205/5/6 222/5/6
f 206/5/6 207/5/6 223/5/6
f 222/3/6 206/3/6 223/3/6
f 207/2/6 208/2/6 224/2/6
f 223/5/6 207/5/6 224/5/6
f 208/5/6 209/5/6 225/5/6
f 224/2/6 208/2/6 225/2/6
f 209/2/6 210/2/6 226/2/6
f 225/5/6 209/5/6 226/5/6
f 210/5/6 211/5/6 227/5/6
f 226/2/6 210/2/6 227/2/6
f 211/4/6 212/4/6 228/4/6
f 227/5/6 211/5/6 228/5/6
f 228/4/6 212/4/6 229/4/6
f 213/2/6 214/2/6 230/2/6
f 214/5/6 215/5/6 231/5/6
f 230/2/6 214/2/6 231/2/6
f 215/3/6 216/3/6 232/3/6
f 231/5/6 215/5/6 232/5/6
f 216/5/6 217/5/6 233/5/6
f 232/3/6 216/3/6 233/3/6
f 217/2/6 218/2/6 234/2/6
f 233/5/6 217/5/6 234/5/6
f 218/5/6 219/5/6 235/5/6
f 234/2/6 218/2/6 235/2/6
f 219/3/6 220/3/6 236/3/6
f 235/5/6 219/5/6 236/5/6
f 220/5/6 221/5/6 237/5/6
f 236/3/6 220/3/6 237/3/6
f 221/2/6 222/2/6 238/2/6
f 237/5/6 221/5/6 238/5/6
f 222/5/6 223/5/6 239/5/6
f 238/2/6 222/2/6 239/2/6
f 223/3/6 224/3/6 240/3/6
f 239/5/6 223/5/6 240/5/6
f 224/5/6 225/5/6 241/5/6
f 240/3/6 224/3/6 241/3/6
f 225/4/6 226/4/6 242/4/6
f 241/5/6 225/5/6 242/5/6
f 226/5/6 227/5/6 243/5/6
f 242/4/6 226/4/6 243/4/6
f 227/1/6 228/1/6 244/1/6
f 243/5/6 227/5/6 244/5/6
f 228/5/6 229/5/6 245/5/6
f 244/1/6 228/1/6 245/1/6
f 245/5/6 229/5/6 246/5/6
f 230/5/6 231/5/6 247/5/6
f 231/3/6 232/3/6 248/3/6
f 247/5/6 231/5/6 248/5/6
f 232/5/6 233/5/6 249/5/6
f 248/3/6 232/3/6 249/3/6
f 233/5/6 234/5/6 249/5/6
f 234/5/6 235/5/6 249/5/6
f 249/5/6 235/5/6 250/5/6
f 250/5/6 235/5/6 251/5/6
f 235/1/6 236/1/6 252/1/6
f 251/5/6 235/5/6 252/5/6
f 236/5/6 237/5/6 253/5/6
f 252/1/6 236/1/6 253/1/6
f 237/4/6 238/4/6 254/4/6
f 253/5/6 237/5/6 254/5/6
f 238/5/6 239/5/6 255/5/6
f 254/4/6 238/4/6 255/4/6
f 239/3/6 240/3/6 256/3/6
f 255/5/6 239/5/6 256/5/6
f 240/5/6 241/5/6 257/5/6
f 256/3/6 240/3/6 257/3/6
f 241/3/6 242/3/6 258/3/6
f 257/5/6 241/5/6 258/5/6
f 242/5/6 243/5/6 259/5/6
f 258/3/6 242/3/6 259/3/6
f 243/4/6 244/4/6 260/4/6
f 259/5/6 243/5/6 260/5/6
f 244/5/6 245/5/6 261/5/6
f 260/4/6 244/4/6 261/4/6
f 245/3/6 246/3/6 262/3/6
f 261/5/6 245/5/6 262/5/6
f 262/3/6 246/3/6 263/3/6
f 247/3/6 248/3/6 264/3/6
f 248/5/6 249/5/6 265/5/6
f 264/3/6 248/3/6 265/3/6
f 249/2/6 250/2/6 266/2/6
f 265/5/6 249/5/6 266/5/6
f 250/5/6 251/5/6 267/5/6
f 266/2/6 250/2/6 267/2/6
f 251/2/6 252/2/6 268/2/6
f 267/5/6 251/5/6 268/5/6
f 252/5/6 253/5/6 269/5/6
f 268/2/6 252/2/6 269/2/6
f 253/1/6 254/1/6 270/1/6
f 269/5/6 253/5/6 270/5/6
f 254/5/6 255/5/6 271/5/6
f 270/1/6 254/1/6 271/1/6
f 255/4/6 256/4/6 272/4/6
f 271/5/6 255/5/6 272/5/6
f 256/5/6 257/5/6 273/5/6
f 272/4/6 256/4/6 273/4/6
f 257/3/6 258/3/6 274/3/6
f 273/5/6 257/5/6 274/5/6
f 258/5/6 259/5/6 275/5/6
f 274/3/6 258/3/6 275/3/6
f 259/3/6 260/3/6 276/3/6
f 275/5/6 259/5/6 276/5/6
f 260/5/6 261/5/6 277/5/6
f 276/3/6 260/3/6 277/3/6
f 261/4/6 262/4/6 278/4/6
f 277/5/6 261/5/6 278/5/6
f 262/5/6 263/5/6 279/5/6
f 278/4/6 262/4/6 279/4/6
f 279/5/6 263/5/6 280/5/6
f 264/5/6 265/5/6 281/5/6
f 265/4/6 266/4/6 282/4/6
f 281/5/6 265/5/6 282/5/6
f 266/5/6 267/5/6 283/5/6
f 282/4/6 266/4/6 283/4/6
f 267/4/6 268/4/6 284/4/6
f 283/5/6 267/5/6 284/5/6
f 268/5/6 269/5/6 285/5/6
f 284/4/6 268/4/6 285/4/6
f 269/1/6 270/1/6 286/1/6
f 285/5/6 269/5/6 286/5/6
f 270/5/6 271/5/6 287/5/6
f 286/1/6 270/1/6 287/1/6
f 271/1/6 272/1/6 288/1/6
f 287/5/6 271/5/6 288/5/6
f 272/5/6 273/5/6 289/5/6
f 288/1/6 272/1/6 289/1/6
f 273/3/6 274/3/6 290/3/6
f 289/5/6 273/5/6 290/5/6
f 274/5/6 275/5/6 291/5/6
f 290/3/6 274/3/6 291/3/6
f 275/1/6 276/1/6 292/1/6
f 291/5/6 275/5/6 292/5/6
f 276/5/6 277/5/6 293/5/6
f 292/1/6 276/1/6 293/1/6
f 277/1/6 278/1/6 294/1/6
f 293/5/6 277/5/6 294/5/6
f 278/5/6 279/5/6 295/5/6
f 294/1/6 278/1/6 295/1/6
f 279/2/6 280/2/6 296/2/6
f 295/5/6 279/5/6 296/5/6
f 296/2/6 280/2/6 297/2/6
f 281/4/6 282/4/6 298/4/6
f 282/5/6 283/5/6 299/5/6
f 298/4/6 282/4/6 299/4/6
f 283/4/6 284/4/6 300/4/6
f 299/5/6 283/5/6 300/5/6
f 284/5/6 285/5/6 301/5/6
f 300/4/6 284/4/6 301/4/6
f 285/2/6 286/2/6 302/2/6
f 301/5/6 285/5/6 302/5/6
f 286/5/6 287/5/6 303/5/6
f 302/2/6 286/2/6 303/2/6
f 287/1/6 288/1/6 304/1/6
f 303/5/6 287/5/6 304/5/6
f 288/5/6 289/5/6 305/5/6
f 304/1/6 288/1/6 305/1/6
f 289/4/6 290/4/6 306/4/6
f 305/5/6 289/5/6 306/5/6
f 290/5/6 291/5/6 307/5/6
f 306/4/6 290/4/6 307/4/6
f 291/3/6 292/3/6 308/3/6
f 307/5/6 291/5/6 308/5/6
f 292/5/6 293/5/6 309/5/6
f 308/3/6 292/3/6 309/3/6
f 293/4/6 294/4/6 310/4/6
f 309/5/6 293/5/6 310/5/6
f 294/5/6 295/5/6 311/5/6
f 310/4/6 294/4/6 311/4/6
f 295/4/6 296/4/6 312/4/6
f 311/5/6 295/5/6 312/5/6
f 296/5/6 297/5/6 313/5/6
f 312/4/6 296/4/6 313/4/6
f 313/5/6 297/5/6 314/5/6
f 298/5/6 299/5/6 315/5/6
f 299/3/6 300/3/6 316/3/6
f 315/5/6 299/5/6 316/5/6
f 300/5/6 301/5/6 317/5/6
f 316/3/6 300/3/6 317/3/6
f 301/4/6 302/4/6 318/4/6
f 317/5/6 301/5/6 318/5/6
f 302/5/6 303/5/6 319/5/6
f 318/4/6 302/4/6 319/4/6
f 303/3/6 304/3/6 320/3/6
f 319/5/6 303/5/6 320/5/6
f 304/5/6 305/5/6 321/5/6
f 320/3/6 304/3/6 321/3/6
f 305/3/6 306/3/6 322/3/6
f 321/5/6 305/5/6 322/5/6
f 306/5/6 307/5/6 323/5/6
f 322/3/6 306/3/6 323/3/6
f 307/2/6 308/2/6 324/2/6
f 323/5/6 307/5/6 324/5/6
f 308/5/6 309/5/6 325/5/6
f 324/2/6 308/2/6 325/2/6
f 309/3/6 310/3/6 326/3/6
f 325/5/6 309/5/6 326/5/6
f 310/5/6 311/5/6 327/5/6
f 326/3/6 310/3/6 327/3/6
f 311/3/6 312/3/6 328/3/6
f 327/5/6 311/5/6 328/5/6
f 312/5/6 313/5/6 329/5/6
f 328/3/6 312/3/6 329/3/6
f 313/2/6 314/2/6 330/2/6
f 329/5/6 313/5/6 330/5/6
f 330/2/6 314/2/6 331/2/6
f 315/2/6 316/2/6 332/2/6
f 316/5/6 317/5/6 333/5/6
f 332/2/6 316/2/6 333/2/6
f 317/2/6 318/2/6 334/2/6
f 333/5/6 317/5/6 334/5/6
f 318/5/6 319/5/6 335/5/6
f 334/2/6 318/2/6 335/2/6
f 319/4/6 320/4/6 336/4/6
f 335/5/6 319/5/6 336/5/6
f 320/5/6 321/5/6 337/5/6
f 336/4/6 320/4/6 337/4/6
f 321/2/6 322/2/6 338/2/6
f 337/5/6 321/5/6 338/5/6
f 322/5/6 323/5/6 339/5/6
f 338/2/6 322/2/6 339/2/6
f 323/3/6 324/3/6 340/3/6
f 339/5/6 323/5/6 340/5/6
f 324/5/6 325/5/6 341/5/6
f 340/3/6 324/3/6 341/3/6
f 325/2/6 326/2/6 342/2/6
f 341/5/6 325/5/6 342/5/6
f 326/5/6 327/5/6 343/5/6
f 342/2/6 326/2/6 343/2/6
f 327/4/6 328/4/6 344/4/6
f 343/5/6 327/5/6 344/5/6
f 328/5/6 329/5/6 345/5/6
f 344/4/6 328/4/6 345/4/6
f 329/2/6 330/2/6 346/2/6
f 345/5/6 329/5/6 346/5/6
f 330/5/6 331/5/6 347/5/6
f 346/2/6 330/2/6 347/2/6
f 347/5/6 331/5/6 348/5/6
f 332/5/6 333/5/6 349/5/6
f 333/3/6 334/3/6 350/3/6
f 349/5/6 333/5/6 350/5/6
f 334/5/6 335/5/6 351/5/6
f 350/3/6 334/3/6 351/3/6
f 335/4/6 336/4/6 352/4/6
f 351/5/6 335/5/6 352/5/6
f 336/5/6 337/5/6 353/5/6
f 352/4/6 336/4/6 353/4/6
f 337/4/6 338/4/6 354/4/6
f 353/5/6 337/5/6 354/5/6
f 338/5/6 339/5/6 355/5/6
f 354/4/6 338/4/6 355/4/6
f 339/3/6 340/3/6 356/3/6
f 355/5/6 339/5/6 356/5/6
f 340/5/6 341/5/6 357/5/6
f 356/3/6 340/3/6 357/3/6
f 341/4/6 342/4/6 358/4/6
f 357/5/6 341/5/6 358/5/6
f 342/2/6 343/2/6 359/2/6
f 358/4/6 342/4/6 359/4/6
f 343/2/6 344/2/6 359/2/6
f 359/2/6 344/2/6 360/2/6
f 344/4/6 345/4/6 361/4/6
f 360/2/6 344/2/6 361/2/6
f 345/2/6 346/2/6 362/2/6
f 361/4/6 345/4/6 362/4/6
f 346/5/6 347/5/6 363/5/6
f 362/2/6 346/2/6 363/2/6
f 347/3/6 348/3/6 364/3/6
f 363/5/6 347/5/6 364/5/6
f 364/3/6 348/3/6 365/3/6
f 349/2/6 350/2/6 366/2/6
f 350/5/6 351/5/6 367/5/6
f 366/2/6 350/2/6 367/2/6
f 351/3/6 352/3/6 368/3/6
f 367/5/6 351/5/6 368/5/6
f 352/5/6 353/5/6 369/5/6
f 368/3/6 352/3/6 369/3/6
f 353/3/6 354/3/6 370/3/6
f 369/5/6 353/5/6 370/5/6
f 354/5/6 355/5/6 371/5/6
f 370/3/6 354/3/6 371/3/6
f 355/3/6 356/3/6 372/3/6
f 371/5/6 355/5/6 372/5/6
f 356/5/6 357/5/6 373/5/6
f 372/3/6 356/3/6 373/3/6
f 357/4/6 358/4/6 374/4/6
f 373/5/6 357/5/6 374/5/6
f 358/5/6 359/5/6 375/5/6
f 374/4/6 358/4/6 375/4/6
f 359/3/6 360/3/6 376/3/6
f 375/5/6 359/5/6 376/5/6
f 360/5/6 361/5/6 377/5/6
f 376/3/6 360/3/6 377/3/6
f 361/4/6 362/4/6 378/4/6
f 377/5/6 361/5/6 378/5/6
f 362/5/6 363/5/6 379/5/6
f 378/4/6 362/4/6 379/4/6
f 363/2/6 364/2/6 380/2/6
f 379/5/6 363/5/6 380/5/6
f 364/5/6 365/5/6 381/5/6
f 380/2/6 364/2/6 381/2/6
f 381/5/6 365/5/6 382/5/6
f 366/5/6 367/5/6 383/5/6
f 367/4/6 368/4/6 384/4/6
f 383/5/6 367/5/6 384/5/6
f 368/5/6 369/5/6 385/5/6
f 384/4/6 368/4/6 385/4/6
f 369/1/6 370/1/6 386/1/6
f 385/5/6 369/5/6 386/5/6
f 370/5/6 371/5/6 387/5/6
f 386/1/6 370/1/6 387/1/6
f 371/4/6 372/4/6 388/4/6
f 387/5/6 371/5/6 388/5/6
f 372/5/6 373/5/6 389/5/6
f 388/4/6 372/4/6 389/4/6
f 373/3/6 374/3/6 390/3/6
f 389/5/6 373/5/6 390/5/6
f 374/5/6 375/5/6 391/5/6
f 390/3/6 374/3/6 391/3/6
f 375/3/6 376/3/6 392/3/6
f 391/5/6 375/5/6 392/5/6
f 376/5/6 377/5/6 393/5/6
f 392/3/6 376/3/6 393/3/6
f 377/3/6 378/3/6 394/3/6
f 393/5/6 377/5/6 394/5/6
f 378/5/6 379/5/6 395/5/6
f 394/3/6 378/3/6 395/3/6
f 379/2/6 380/2/6 396/2/6
f 395/5/6 379/5/6 396/5/6
f 380/5/6 381/5/6 397/5/6
f 396/2/6 380/2/6 397/2/6
f 381/2/6 382/2/6 398/2/6
f 397/5/6 381/5/6 398/5/6
f 398/2/6 382/2/6 399/2/6
f 383/1/6 384/1/6 400/1/6
f 384/5/6 385/5/6 401/5/6
f 400/1/6 384/1/6 401/1/6
f 385/4/6 386/4/6 402/4/6
f 401/5/6 385/5/6 402/5/6
f 386/5/6 387/5/6 403/5/6
f 402/4/6 386/4/6 403/4/6
f 387/3/6 388/3/6 404/3/6
f 403/5/6 387/5/6 404/5/6
f 388/5/6 389/5/6 405/5/6
f 404/3/6 388/3/6 405/3/6
f 389/4/6 390/4/6 406/4/6
f 405/5/6 389/5/6 406/5/6
f 390/5/6 391/5/6 407/5/6
f 406/4/6 390/4/6 407/4/6
f 391/4/6 392/4/6 408/4/6
f 407/5/6 391/5/6 408/5/6
f 392/5/6 393/5/6 409/5/6
f 408/4/6 392/4/6 409/4/6
f 393/3/6 394/3/6 410/3/6
f 409/5/6 393/5/6 410/5/6
f 394/5/6 395/5/6 411/5/6
f 410/3/6 394/3/6 411/3/6
f 395/4/6 396/4/6 412/4/6
f 411/5/6 395/5/6 412/5/6
f 396/5/6 397/5/6 413/5/6
f 412/4/6 396/4/6 413/4/6
f 397/3/6 398/3/6 414/3/6
f 413/5/6 397/5/6 414/5/6
f 398/5/6 399/5/6 415/5/6
f 414/3/6 398/3/6 415/3/6
f 415/5/6 399/5/6 416/5/6
f 400/5/6 401/5/6 417/5/6
f 401/5/6 402/5/6 417/5/6
f 402/5/6 403/5/6 417/5/6
f 403/3/6 404/3/6 418/3/6
f 417/5/6 403/5/6 418/5/6
f 404/5/6 405/5/6 419/5/6
f 418/3/6 404/3/6 419/3/6
f 405/1/6 406/1/6 420/1/6
f 419/5/6 405/5/6 420/5/6
f 406/5/6 407/5/6 421/5/6
f 420/1/6 406/1/6 421/1/6
f 407/3/6 408/3/6 422/3/6
f 421/5/6 407/5/6 422/5/6
f 408/5/6 409/5/6 423/5/6
f 422/3/6 408/3/6 423/3/6
f 409/3/6 410/3/6 424/3/6
f 423/5/6 409/5/6 424/5/6
f 410/5/6 411/5/6 425/5/6
f 424/3/6 410/3/6 425/3/6
f 411/3/6 412/3/6 426/3/6
f 425/5/6 411/5/6 426/5/6
f 412/5/6 413/5/6 427/5/6
f 426/3/6 412/3/6 427/3/6
f 413/4/6 414/4/6 428/4/6
f 427/5/6 413/5/6 428/5/6
f 414/5/6 415/5/6 429/5/6
f 428/4/6 414/4/6 429/4/6
f 415/2/6 416/2/6 430/2/6
f 429/5/6 415/5/6 430/5/6
f 430/2/6 416/2/6 431/2/6
