# MagicaVoxel @ Ephtracy

# group
g YAVD_Tiles-27

# material
mtllib YAVD_Tiles-27.mtl
usemtl palette

# normals
vn -1 0 0
vn 1 0 0
vn 0 0 1
vn 0 0 -1
vn 0 -1 0
vn 0 1 0

# texcoords
vt 0.0449219 0.5
vt 0.115234 0.5
vt 0.248047 0.5
vt 0.533203 0.5
vt 0.560547 0.5
vt 0.591797 0.5
vt 0.869141 0.5
vt 0.923828 0.5
vt 0.958984 0.5

# verts
v -5 0 1
v -5 0 -1
v -5 1 1
v -5 1 -1
v -4 1 1
v -4 1 -1
v -4 3 1
v -4 3 -1
v -4 4 -0
v -4 4 -1
v -4 5 1
v -4 5 -0
v -4 9 -0
v -4 9 -1
v -4 10 1
v -4 10 -0
v -3 0 2
v -3 0 1
v -3 0 -1
v -3 0 -2
v -3 2 2
v -3 2 1
v -3 2 -1
v -3 2 -2
v -3 3 1
v -3 3 -1
v -3 4 -0
v -3 4 -1
v -3 5 1
v -3 5 -0
v -3 7 2
v -3 7 1
v -3 7 -1
v -3 7 -2
v -3 8 2
v -3 8 1
v -3 8 -1
v -3 8 -2
v -3 9 -0
v -3 9 -1
v -3 10 1
v -3 10 -0
v -3 11 2
v -3 11 -2
v -2 2 2
v -2 2 1
v -2 2 -1
v -2 2 -2
v -2 5 1
v -2 5 -1
v -2 6 2
v -2 6 1
v -2 6 -1
v -2 6 -2
v -2 8 3
v -2 8 2
v -2 8 -2
v -2 8 -3
v -2 10 3
v -2 10 2
v -2 10 -2
v -2 10 -3
v -2 11 2
v -2 11 1
v -2 11 -1
v -2 11 -2
v -2 12 2
v -2 12 1
v -2 12 -1
v -2 12 -2
v -1 1 -3
v -1 1 -4
v -1 2 -3
v -1 2 -4
v -1 4 3
v -1 4 2
v -1 4 -2
v -1 4 -3
v -1 4 -4
v -1 5 3
v -1 5 2
v -1 5 -2
v -1 5 -3
v 1 5 3
v 1 5 2
v 1 6 3
v 1 6 2
v 2 6 3
v 2 6 2
v 2 7 3
v 2 7 2
v 2 9 3
v 2 9 2
v 2 10 3
v 2 10 2
v 3 0 3
v 3 0 2
v 3 6 3
v 3 6 2
v 3 7 3
v 3 7 2
v 3 8 3
v 3 8 2
v 3 9 4
v 3 9 3
v 3 9 2
v 3 9 1
v 3 10 4
v 3 10 3
v 3 10 2
v 3 10 1
v 3 11 3
v 3 11 2
v -1 8 3
v -1 8 2
v -1 8 -2
v -1 8 -3
v -1 9 2
v -1 9 -2
v -1 10 3
v -1 10 2
v -1 10 -2
v -1 10 -3
v -1 11 2
v -1 11 1
v -1 11 -1
v -1 11 -2
v -1 12 2
v -1 12 1
v -1 12 -1
v -1 12 -2
v 0 0 2
v 0 0 1
v 0 0 -1
v 0 0 -2
v 0 1 -3
v 0 1 -4
v 0 2 -3
v 0 2 -4
v 0 3 1
v 0 3 -1
v 0 4 2
v 0 4 1
v 0 4 -1
v 0 4 -2
v 0 4 -3
v 0 4 -4
v 0 5 2
v 0 5 1
v 0 5 -1
v 0 5 -2
v 0 5 -3
v 0 6 2
v 0 6 1
v 0 6 -1
v 0 6 -2
v 0 7 1
v 0 7 -1
v 1 0 1
v 1 0 -1
v 1 3 1
v 1 3 -1
v 1 4 3
v 1 4 2
v 1 4 1
v 1 4 -1
v 1 5 3
v 1 5 2
v 1 5 1
v 1 5 -1
v 1 7 2
v 1 7 1
v 1 7 -1
v 1 7 -2
v 1 8 2
v 1 8 1
v 1 8 -1
v 1 8 -2
v 1 10 2
v 1 10 1
v 1 10 -1
v 1 10 -2
v 1 11 2
v 1 11 -2
v 2 5 3
v 2 5 2
v 2 6 3
v 2 6 2
v 4 0 3
v 4 0 2
v 4 8 3
v 4 8 2
v 4 9 4
v 4 9 3
v 4 9 2
v 4 9 1
v 4 10 4
v 4 10 3
v 4 10 2
v 4 10 1
v 4 11 3
v 4 11 2
v 5 9 3
v 5 9 2
v 5 10 3
v 5 10 2
v 3 9 4
v 3 10 4
v 4 9 4
v 4 10 4
v -2 8 3
v -2 10 3
v -1 4 3
v -1 5 3
v -1 8 3
v -1 10 3
v 1 4 3
v 1 5 3
v 1 6 3
v 2 5 3
v 2 6 3
v 2 7 3
v 2 9 3
v 2 10 3
v 3 0 3
v 3 6 3
v 3 7 3
v 3 8 3
v 3 9 3
v 3 10 3
v 3 11 3
v 4 0 3
v 4 8 3
v 4 9 3
v 4 10 3
v 4 11 3
v 5 9 3
v 5 10 3
v -3 0 2
v -3 2 2
v -3 7 2
v -3 8 2
v -3 11 2
v -2 2 2
v -2 6 2
v -2 8 2
v -2 10 2
v -2 11 2
v -2 12 2
v -1 4 2
v -1 5 2
v -1 8 2
v -1 9 2
v -1 10 2
v -1 11 2
v -1 12 2
v 0 0 2
v 0 4 2
v 0 5 2
v 0 6 2
v 0 8 2
v 0 9 2
v 0 10 2
v 0 11 2
v 1 7 2
v 1 8 2
v 1 10 2
v 1 11 2
v -5 0 1
v -5 1 1
v -4 1 1
v -4 3 1
v -4 5 1
v -4 10 1
v -3 0 1
v -3 2 1
v -3 3 1
v -3 5 1
v -3 7 1
v -3 8 1
v -3 10 1
v -2 2 1
v -2 5 1
v -2 6 1
v -2 7 1
v 0 0 1
v 0 3 1
v 0 4 1
v 0 5 1
v 0 6 1
v 0 7 1
v 1 0 1
v 1 3 1
v 1 4 1
v 1 5 1
v -4 4 -0
v -4 5 -0
v -3 4 -0
v -3 5 -0
v -2 11 -1
v -2 12 -1
v -1 11 -1
v -1 12 -1
v -1 1 -3
v -1 2 -3
v -1 4 -3
v 0 1 -3
v 0 2 -3
v 0 4 -3
v 0 4 2
v 0 5 2
v 1 4 2
v 1 5 2
v 1 6 2
v 2 5 2
v 2 6 2
v 2 7 2
v 2 9 2
v 2 10 2
v 3 0 2
v 3 6 2
v 3 7 2
v 3 8 2
v 3 9 2
v 3 10 2
v 3 11 2
v 4 0 2
v 4 8 2
v 4 9 2
v 4 10 2
v 4 11 2
v 5 9 2
v 5 10 2
v -2 11 1
v -2 12 1
v -1 11 1
v -1 12 1
v 3 9 1
v 3 10 1
v 4 9 1
v 4 10 1
v -4 9 -0
v -4 10 -0
v -3 9 -0
v -3 10 -0
v -5 0 -1
v -5 1 -1
v -4 1 -1
v -4 3 -1
v -4 4 -1
v -4 9 -1
v -3 0 -1
v -3 2 -1
v -3 3 -1
v -3 4 -1
v -3 5 -1
v -3 7 -1
v -3 8 -1
v -3 9 -1
v -2 2 -1
v -2 5 -1
v -2 6 -1
v -2 7 -1
v 0 0 -1
v 0 3 -1
v 0 4 -1
v 0 5 -1
v 0 6 -1
v 0 7 -1
v 1 0 -1
v 1 3 -1
v 1 4 -1
v 1 5 -1
v -3 0 -2
v -3 2 -2
v -3 7 -2
v -3 8 -2
v -3 11 -2
v -2 2 -2
v -2 6 -2
v -2 8 -2
v -2 10 -2
v -2 11 -2
v -2 12 -2
v -1 4 -2
v -1 5 -2
v -1 8 -2
v -1 9 -2
v -1 10 -2
v -1 11 -2
v -1 12 -2
v 0 0 -2
v 0 4 -2
v 0 5 -2
v 0 6 -2
v 0 8 -2
v 0 9 -2
v 0 10 -2
v 0 11 -2
v 1 7 -2
v 1 8 -2
v 1 10 -2
v 1 11 -2
v -2 8 -3
v -2 10 -3
v -1 4 -3
v -1 5 -3
v -1 8 -3
v -1 10 -3
v 0 4 -3
v 0 5 -3
v -1 1 -4
v -1 2 -4
v -1 4 -4
v 0 1 -4
v 0 2 -4
v 0 4 -4
v 3 0 3
v 4 0 3
v -3 0 2
v 0 0 2
v 3 0 2
v 4 0 2
v -5 0 1
v -3 0 1
v 0 0 1
v 1 0 1
v -5 0 -1
v -3 0 -1
v 0 0 -1
v 1 0 -1
v -3 0 -2
v 0 0 -2
v -1 1 -3
v 0 1 -3
v -1 1 -4
v 0 1 -4
v -1 4 3
v 1 4 3
v -1 4 2
v 0 4 2
v 1 4 2
v 0 4 1
v 1 4 1
v -4 4 -0
v -3 4 -0
v -4 4 -1
v -3 4 -1
v 0 4 -1
v 1 4 -1
v -1 4 -2
v 0 4 -2
v -1 4 -3
v 0 4 -3
v 1 5 3
v 2 5 3
v 1 5 2
v 2 5 2
v -4 5 1
v -3 5 1
v -4 5 -0
v -3 5 -0
v 2 6 3
v 3 6 3
v 2 6 2
v 3 6 2
v -3 7 2
v 1 7 2
v -3 7 1
v -2 7 1
v 0 7 1
v 1 7 1
v -3 7 -1
v -2 7 -1
v 0 7 -1
v 1 7 -1
v -3 7 -2
v 1 7 -2
v -2 8 3
v -1 8 3
v -2 8 2
v -1 8 2
v -2 8 -2
v -1 8 -2
v -2 8 -3
v -1 8 -3
v 3 9 4
v 4 9 4
v 2 9 3
v 3 9 3
v 4 9 3
v 5 9 3
v 2 9 2
v 3 9 2
v 4 9 2
v 5 9 2
v 3 9 1
v 4 9 1
v -5 1 1
v -4 1 1
v -5 1 -1
v -4 1 -1
v -3 2 2
v -2 2 2
v -3 2 1
v -2 2 1
v -3 2 -1
v -2 2 -1
v -3 2 -2
v -2 2 -2
v -4 3 1
v -3 3 1
v 0 3 1
v 1 3 1
v -4 3 -1
v -3 3 -1
v 0 3 -1
v 1 3 -1
v -1 4 -3
v 0 4 -3
v -1 4 -4
v 0 4 -4
v -1 5 3
v 1 5 3
v -1 5 2
v 0 5 2
v 1 5 2
v 0 5 1
v 1 5 1
v 0 5 -1
v 1 5 -1
v -1 5 -2
v 0 5 -2
v -1 5 -3
v 0 5 -3
v 1 6 3
v 2 6 3
v -2 6 2
v 0 6 2
v 1 6 2
v 2 6 2
v -2 6 1
v 0 6 1
v -2 6 -1
v 0 6 -1
v -2 6 -2
v 0 6 -2
v 2 7 3
v 3 7 3
v 2 7 2
v 3 7 2
v -4 9 -0
v -3 9 -0
v -4 9 -1
v -3 9 -1
v 3 10 4
v 4 10 4
v -2 10 3
v -1 10 3
v 2 10 3
v 3 10 3
v 4 10 3
v 5 10 3
v -2 10 2
v -1 10 2
v 2 10 2
v 3 10 2
v 4 10 2
v 5 10 2
v -4 10 1
v -3 10 1
v 3 10 1
v 4 10 1
v -4 10 -0
v -3 10 -0
v -2 10 -2
v -1 10 -2
v -2 10 -3
v -1 10 -3
v 3 11 3
v 4 11 3
v -3 11 2
v -2 11 2
v -1 11 2
v 0 11 2
v 1 11 2
v 3 11 2
v 4 11 2
v -2 11 1
v -1 11 1
v -2 11 -1
v -1 11 -1
v -3 11 -2
v -2 11 -2
v -1 11 -2
v 0 11 -2
v 1 11 -2
v -2 12 2
v -1 12 2
v -2 12 1
v -1 12 1
v -2 12 -1
v -1 12 -1
v -2 12 -2
v -1 12 -2

# faces
f 3/2/1 2/2/1 1/2/1
f 4/2/1 2/2/1 3/2/1
f 7/2/1 6/2/1 5/2/1
f 8/2/1 6/2/1 7/2/1
f 12/1/1 10/1/1 9/1/1
f 13/1/1 10/1/1 12/1/1
f 13/1/1 12/1/1 11/1/1
f 14/1/1 10/1/1 13/1/1
f 15/1/1 13/1/1 11/1/1
f 16/1/1 13/1/1 15/1/1
f 21/2/1 18/2/1 17/2/1
f 22/2/1 18/2/1 21/2/1
f 23/2/1 20/2/1 19/2/1
f 24/2/1 20/2/1 23/2/1
f 27/2/1 26/2/1 25/2/1
f 28/2/1 26/2/1 27/2/1
f 29/2/1 27/2/1 25/2/1
f 30/2/1 27/2/1 29/2/1
f 35/3/1 32/3/1 31/3/1
f 36/3/1 32/3/1 35/3/1
f 37/3/1 34/3/1 33/3/1
f 38/3/1 34/3/1 37/3/1
f 40/1/1 38/1/1 37/1/1
f 41/1/1 36/1/1 35/1/1
f 42/1/1 40/1/1 39/1/1
f 43/1/1 41/1/1 35/1/1
f 43/1/1 42/1/1 41/1/1
f 44/1/1 40/1/1 42/1/1
f 44/1/1 42/1/1 43/1/1
f 44/1/1 38/1/1 40/1/1
f 49/2/1 46/2/1 45/2/1
f 50/2/1 48/2/1 47/2/1
f 51/2/1 49/2/1 45/2/1
f 52/2/1 49/2/1 51/2/1
f 53/2/1 48/2/1 50/2/1
f 54/2/1 48/2/1 53/2/1
f 59/3/1 56/3/1 55/3/1
f 60/3/1 56/3/1 59/3/1
f 61/3/1 58/3/1 57/3/1
f 62/3/1 58/3/1 61/3/1
f 67/8/1 64/8/1 63/8/1
f 68/8/1 64/8/1 67/8/1
f 69/8/1 66/8/1 65/8/1
f 70/8/1 66/8/1 69/8/1
f 73/3/1 72/3/1 71/3/1
f 74/3/1 72/3/1 73/3/1
f 78/2/1 74/2/1 73/2/1
f 79/2/1 74/2/1 78/2/1
f 80/2/1 76/2/1 75/2/1
f 81/2/1 76/2/1 80/2/1
f 82/2/1 78/2/1 77/2/1
f 83/2/1 78/2/1 82/2/1
f 86/2/1 85/2/1 84/2/1
f 87/2/1 85/2/1 86/2/1
f 90/3/1 89/3/1 88/3/1
f 91/3/1 89/3/1 90/3/1
f 94/5/1 93/5/1 92/5/1
f 95/5/1 93/5/1 94/5/1
f 98/7/1 97/7/1 96/7/1
f 99/7/1 97/7/1 98/7/1
f 102/7/1 101/7/1 100/7/1
f 103/7/1 101/7/1 102/7/1
f 105/6/1 103/6/1 102/6/1
f 106/6/1 103/6/1 105/6/1
f 108/6/1 105/6/1 104/6/1
f 109/6/1 105/6/1 108/6/1
f 110/6/1 107/6/1 106/6/1
f 111/6/1 107/6/1 110/6/1
f 112/6/1 110/6/1 109/6/1
f 113/6/1 110/6/1 112/6/1
f 114/3/2 115/3/2 118/3/2
f 116/3/2 117/3/2 119/3/2
f 114/3/2 118/3/2 120/3/2
f 120/3/2 118/3/2 121/3/2
f 119/3/2 117/3/2 122/3/2
f 122/3/2 117/3/2 123/3/2
f 124/8/2 125/8/2 128/8/2
f 128/8/2 125/8/2 129/8/2
f 126/8/2 127/8/2 130/8/2
f 130/8/2 127/8/2 131/8/2
f 136/3/2 137/3/2 138/3/2
f 138/3/2 137/3/2 139/3/2
f 132/2/2 133/2/2 140/2/2
f 134/2/2 135/2/2 141/2/2
f 132/2/2 140/2/2 142/2/2
f 140/2/2 141/2/2 142/2/2
f 142/2/2 141/2/2 143/2/2
f 141/2/2 135/2/2 144/2/2
f 143/2/2 141/2/2 144/2/2
f 144/2/2 135/2/2 145/2/2
f 138/2/2 139/2/2 146/2/2
f 146/2/2 139/2/2 147/2/2
f 142/2/2 143/2/2 148/2/2
f 148/2/2 143/2/2 149/2/2
f 144/2/2 145/2/2 150/2/2
f 145/2/2 146/2/2 150/2/2
f 150/2/2 146/2/2 151/2/2
f 151/2/2 146/2/2 152/2/2
f 148/2/2 149/2/2 153/2/2
f 149/2/2 150/2/2 153/2/2
f 150/2/2 151/2/2 153/2/2
f 153/2/2 151/2/2 154/2/2
f 154/2/2 151/2/2 155/2/2
f 155/2/2 151/2/2 156/2/2
f 154/3/2 155/3/2 157/3/2
f 157/3/2 155/3/2 158/3/2
f 159/2/2 160/2/2 161/2/2
f 161/2/2 160/2/2 162/2/2
f 163/2/2 164/2/2 167/2/2
f 167/2/2 164/2/2 168/2/2
f 165/2/2 166/2/2 169/2/2
f 169/2/2 166/2/2 170/2/2
f 171/3/2 172/3/2 175/3/2
f 172/4/2 173/4/2 176/4/2
f 175/3/2 172/3/2 176/3/2
f 173/3/2 174/3/2 177/3/2
f 176/4/2 173/4/2 177/4/2
f 177/3/2 174/3/2 178/3/2
f 175/9/2 176/9/2 179/9/2
f 176/3/2 177/3/2 180/3/2
f 179/9/2 176/9/2 180/9/2
f 177/9/2 178/9/2 181/9/2
f 180/3/2 177/3/2 181/3/2
f 181/9/2 178/9/2 182/9/2
f 179/3/2 180/3/2 183/3/2
f 180/3/2 181/3/2 183/3/2
f 181/3/2 182/3/2 183/3/2
f 183/3/2 182/3/2 184/3/2
f 185/2/2 186/2/2 187/2/2
f 187/2/2 186/2/2 188/2/2
f 189/7/2 190/7/2 191/7/2
f 191/7/2 190/7/2 192/7/2
f 191/6/2 192/6/2 194/6/2
f 194/6/2 192/6/2 195/6/2
f 193/6/2 194/6/2 197/6/2
f 197/6/2 194/6/2 198/6/2
f 195/6/2 196/6/2 199/6/2
f 199/6/2 196/6/2 200/6/2
f 198/6/2 199/6/2 201/6/2
f 201/6/2 199/6/2 202/6/2
f 203/5/2 204/5/2 205/5/2
f 205/5/2 204/5/2 206/5/2
f 209/6/3 208/6/3 207/6/3
f 210/6/3 208/6/3 209/6/3
f 215/3/3 212/3/3 211/3/3
f 216/3/3 212/3/3 215/3/3
f 217/2/3 214/2/3 213/2/3
f 218/2/3 214/2/3 217/2/3
f 220/2/3 219/2/3 218/2/3
f 221/2/3 219/2/3 220/2/3
f 226/3/3 222/3/3 221/3/3
f 227/3/3 222/3/3 226/3/3
f 229/5/3 224/5/3 223/5/3
f 230/5/3 224/5/3 229/5/3
f 232/7/3 228/7/3 227/7/3
f 232/7/3 226/7/3 225/7/3
f 232/7/3 227/7/3 226/7/3
f 233/6/3 229/6/3 228/6/3
f 233/7/3 228/7/3 232/7/3
f 234/6/3 229/6/3 233/6/3
f 235/6/3 231/6/3 230/6/3
f 236/6/3 231/6/3 235/6/3
f 237/5/3 235/5/3 234/5/3
f 238/5/3 235/5/3 237/5/3
f 244/2/3 240/2/3 239/2/3
f 246/1/3 243/1/3 242/1/3
f 246/3/3 242/3/3 241/3/3
f 247/1/3 243/1/3 246/1/3
f 248/1/3 243/1/3 247/1/3
f 250/2/3 245/2/3 244/2/3
f 251/2/3 245/2/3 250/2/3
f 252/3/3 246/3/3 241/3/3
f 254/1/3 248/1/3 247/1/3
f 255/8/3 249/8/3 248/8/3
f 255/1/3 248/1/3 254/1/3
f 256/8/3 249/8/3 255/8/3
f 257/2/3 244/2/3 239/2/3
f 257/2/3 250/2/3 244/2/3
f 258/2/3 250/2/3 257/2/3
f 259/2/3 245/2/3 251/2/3
f 260/2/3 245/2/3 259/2/3
f 261/3/3 253/3/3 252/3/3
f 261/3/3 252/3/3 241/3/3
f 262/1/3 254/1/3 253/1/3
f 262/3/3 253/3/3 261/3/3
f 262/1/3 255/1/3 254/1/3
f 263/1/3 255/1/3 262/1/3
f 264/1/3 255/1/3 263/1/3
f 265/3/3 261/3/3 241/3/3
f 266/9/3 263/9/3 262/9/3
f 266/3/3 261/3/3 265/3/3
f 266/9/3 262/9/3 261/9/3
f 267/3/3 264/3/3 263/3/3
f 267/9/3 263/9/3 266/9/3
f 268/3/3 264/3/3 267/3/3
f 271/2/3 270/2/3 269/2/3
f 275/2/3 271/2/3 269/2/3
f 275/2/3 272/2/3 271/2/3
f 276/2/3 272/2/3 275/2/3
f 277/2/3 272/2/3 276/2/3
f 278/1/3 274/1/3 273/1/3
f 279/1/3 274/1/3 278/1/3
f 280/1/3 274/1/3 279/1/3
f 281/1/3 274/1/3 280/1/3
f 282/2/3 277/2/3 276/2/3
f 282/2/3 278/2/3 277/2/3
f 283/1/3 279/1/3 278/1/3
f 283/2/3 278/2/3 282/2/3
f 284/1/3 279/1/3 283/1/3
f 285/1/3 279/1/3 284/1/3
f 290/3/3 285/3/3 284/3/3
f 291/3/3 285/3/3 290/3/3
f 292/2/3 287/2/3 286/2/3
f 293/2/3 287/2/3 292/2/3
f 294/2/3 289/2/3 288/2/3
f 295/2/3 289/2/3 294/2/3
f 298/1/3 297/1/3 296/1/3
f 299/1/3 297/1/3 298/1/3
f 302/8/3 301/8/3 300/8/3
f 303/8/3 301/8/3 302/8/3
f 307/3/3 305/3/3 304/3/3
f 308/2/3 306/2/3 305/2/3
f 308/3/3 305/3/3 307/3/3
f 309/2/3 306/2/3 308/2/3
f 310/2/4 311/2/4 312/2/4
f 312/2/4 311/2/4 313/2/4
f 313/2/4 314/2/4 315/2/4
f 315/2/4 314/2/4 316/2/4
f 316/3/4 317/3/4 321/3/4
f 321/3/4 317/3/4 322/3/4
f 318/5/4 319/5/4 324/5/4
f 324/5/4 319/5/4 325/5/4
f 322/7/4 323/7/4 327/7/4
f 320/7/4 321/7/4 327/7/4
f 321/7/4 322/7/4 327/7/4
f 323/6/4 324/6/4 328/6/4
f 327/7/4 323/7/4 328/7/4
f 328/6/4 324/6/4 329/6/4
f 325/6/4 326/6/4 330/6/4
f 330/6/4 326/6/4 331/6/4
f 329/5/4 330/5/4 332/5/4
f 332/5/4 330/5/4 333/5/4
f 334/8/4 335/8/4 336/8/4
f 336/8/4 335/8/4 337/8/4
f 338/6/4 339/6/4 340/6/4
f 340/6/4 339/6/4 341/6/4
f 342/1/4 343/1/4 344/1/4
f 344/1/4 343/1/4 345/1/4
f 346/2/4 347/2/4 348/2/4
f 346/2/4 348/2/4 352/2/4
f 348/2/4 349/2/4 352/2/4
f 352/2/4 349/2/4 353/2/4
f 353/2/4 349/2/4 354/2/4
f 350/1/4 351/1/4 355/1/4
f 355/1/4 351/1/4 356/1/4
f 356/1/4 351/1/4 357/1/4
f 357/1/4 351/1/4 358/1/4
f 358/1/4 351/1/4 359/1/4
f 353/2/4 354/2/4 360/2/4
f 354/2/4 355/2/4 360/2/4
f 355/2/4 356/2/4 360/2/4
f 356/1/4 357/1/4 361/1/4
f 360/2/4 356/2/4 361/2/4
f 361/1/4 357/1/4 362/1/4
f 362/1/4 357/1/4 363/1/4
f 362/3/4 363/3/4 368/3/4
f 368/3/4 363/3/4 369/3/4
f 364/2/4 365/2/4 370/2/4
f 370/2/4 365/2/4 371/2/4
f 366/2/4 367/2/4 372/2/4
f 372/2/4 367/2/4 373/2/4
f 374/2/4 375/2/4 379/2/4
f 377/1/4 378/1/4 381/1/4
f 376/3/4 377/3/4 381/3/4
f 381/1/4 378/1/4 382/1/4
f 382/1/4 378/1/4 383/1/4
f 379/2/4 380/2/4 385/2/4
f 385/2/4 380/2/4 386/2/4
f 376/3/4 381/3/4 387/3/4
f 382/1/4 383/1/4 389/1/4
f 383/8/4 384/8/4 390/8/4
f 389/1/4 383/1/4 390/1/4
f 390/8/4 384/8/4 391/8/4
f 374/2/4 379/2/4 392/2/4
f 379/2/4 385/2/4 392/2/4
f 392/2/4 385/2/4 393/2/4
f 386/2/4 380/2/4 394/2/4
f 394/2/4 380/2/4 395/2/4
f 387/3/4 388/3/4 396/3/4
f 376/3/4 387/3/4 396/3/4
f 388/1/4 389/1/4 397/1/4
f 396/3/4 388/3/4 397/3/4
f 389/1/4 390/1/4 397/1/4
f 397/1/4 390/1/4 398/1/4
f 398/1/4 390/1/4 399/1/4
f 376/3/4 396/3/4 400/3/4
f 397/9/4 398/9/4 401/9/4
f 400/3/4 396/3/4 401/3/4
f 396/9/4 397/9/4 401/9/4
f 398/3/4 399/3/4 402/3/4
f 401/9/4 398/9/4 402/9/4
f 402/3/4 399/3/4 403/3/4
f 404/3/4 405/3/4 408/3/4
f 408/3/4 405/3/4 409/3/4
f 406/2/4 407/2/4 410/2/4
f 410/2/4 407/2/4 411/2/4
f 412/3/4 413/3/4 415/3/4
f 413/2/4 414/2/4 416/2/4
f 415/3/4 413/3/4 416/3/4
f 416/2/4 414/2/4 417/2/4
f 422/7/5 419/7/5 418/7/5
f 423/7/5 419/7/5 422/7/5
f 425/2/5 421/2/5 420/2/5
f 426/2/5 421/2/5 425/2/5
f 428/2/5 425/2/5 424/2/5
f 429/3/5 426/3/5 425/3/5
f 429/2/5 425/2/5 428/2/5
f 430/2/5 427/2/5 426/2/5
f 430/3/5 426/3/5 429/3/5
f 431/2/5 427/2/5 430/2/5
f 432/2/5 430/2/5 429/2/5
f 433/2/5 430/2/5 432/2/5
f 436/3/5 435/3/5 434/3/5
f 437/3/5 435/3/5 436/3/5
f 440/2/5 439/2/5 438/2/5
f 441/2/5 439/2/5 440/2/5
f 442/2/5 439/2/5 441/2/5
f 447/1/5 446/1/5 445/1/5
f 448/1/5 446/1/5 447/1/5
f 449/2/5 444/2/5 443/2/5
f 450/2/5 444/2/5 449/2/5
f 453/2/5 452/2/5 451/2/5
f 454/2/5 452/2/5 453/2/5
f 457/2/5 456/2/5 455/2/5
f 458/2/5 456/2/5 457/2/5
f 461/1/5 460/1/5 459/1/5
f 462/1/5 460/1/5 461/1/5
f 465/3/5 464/3/5 463/3/5
f 466/3/5 464/3/5 465/3/5
f 469/3/5 468/3/5 467/3/5
f 470/3/5 468/3/5 469/3/5
f 471/3/5 468/3/5 470/3/5
f 472/3/5 468/3/5 471/3/5
f 475/4/5 472/4/5 471/4/5
f 476/4/5 472/4/5 475/4/5
f 477/3/5 474/3/5 473/3/5
f 477/3/5 475/3/5 474/3/5
f 477/3/5 476/3/5 475/3/5
f 478/3/5 476/3/5 477/3/5
f 481/3/5 480/3/5 479/3/5
f 482/3/5 480/3/5 481/3/5
f 485/3/5 484/3/5 483/3/5
f 486/3/5 484/3/5 485/3/5
f 490/6/5 488/6/5 487/6/5
f 491/6/5 488/6/5 490/6/5
f 493/5/5 490/5/5 489/5/5
f 494/5/5 490/5/5 493/5/5
f 495/5/5 492/5/5 491/5/5
f 496/5/5 492/5/5 495/5/5
f 497/6/5 495/6/5 494/6/5
f 498/6/5 495/6/5 497/6/5
f 499/2/6 500/2/6 501/2/6
f 501/2/6 500/2/6 502/2/6
f 503/2/6 504/2/6 505/2/6
f 505/2/6 504/2/6 506/2/6
f 507/2/6 508/2/6 509/2/6
f 509/2/6 508/2/6 510/2/6
f 511/2/6 512/2/6 515/2/6
f 515/2/6 512/2/6 516/2/6
f 513/2/6 514/2/6 517/2/6
f 517/2/6 514/2/6 518/2/6
f 519/2/6 520/2/6 521/2/6
f 521/2/6 520/2/6 522/2/6
f 523/2/6 524/2/6 525/2/6
f 525/2/6 524/2/6 526/2/6
f 526/2/6 524/2/6 527/2/6
f 528/2/6 529/2/6 530/2/6
f 530/2/6 529/2/6 531/2/6
f 532/2/6 533/2/6 534/2/6
f 534/2/6 533/2/6 535/2/6
f 536/2/6 537/2/6 540/2/6
f 540/2/6 537/2/6 541/2/6
f 538/2/6 539/2/6 542/2/6
f 542/2/6 539/2/6 543/2/6
f 544/2/6 545/2/6 546/2/6
f 546/2/6 545/2/6 547/2/6
f 548/3/6 549/3/6 550/3/6
f 550/3/6 549/3/6 551/3/6
f 552/1/6 553/1/6 554/1/6
f 554/1/6 553/1/6 555/1/6
f 556/6/6 557/6/6 561/6/6
f 561/6/6 557/6/6 562/6/6
f 558/3/6 559/3/6 564/3/6
f 564/3/6 559/3/6 565/3/6
f 560/5/6 561/5/6 566/5/6
f 566/5/6 561/5/6 567/5/6
f 562/5/6 563/5/6 568/5/6
f 568/5/6 563/5/6 569/5/6
f 567/6/6 568/6/6 572/6/6
f 572/6/6 568/6/6 573/6/6
f 570/1/6 571/1/6 574/1/6
f 574/1/6 571/1/6 575/1/6
f 576/3/6 577/3/6 578/3/6
f 578/3/6 577/3/6 579/3/6
f 580/6/6 581/6/6 587/6/6
f 587/6/6 581/6/6 588/6/6
f 582/1/6 583/1/6 589/1/6
f 584/1/6 585/1/6 590/1/6
f 582/1/6 589/1/6 591/1/6
f 589/1/6 590/1/6 591/1/6
f 590/1/6 585/1/6 592/1/6
f 591/1/6 590/1/6 592/1/6
f 582/1/6 591/1/6 593/1/6
f 593/1/6 591/1/6 594/1/6
f 592/1/6 585/1/6 595/1/6
f 585/3/6 586/3/6 596/3/6
f 595/1/6 585/1/6 596/1/6
f 596/3/6 586/3/6 597/3/6
f 598/8/6 599/8/6 600/8/6
f 600/8/6 599/8/6 601/8/6
f 602/8/6 603/8/6 604/8/6
f 604/8/6 603/8/6 605/8/6
