# MagicaVoxel @ Ephtracy

# group
g YAVD_Tiles-6

# material
mtllib YAVD_Tiles-6.mtl
usemtl palette

# normals
vn -1 0 0
vn 1 0 0
vn 0 0 1
vn 0 0 -1
vn 0 -1 0
vn 0 1 0

# texcoords
vt 0.224609 0.5
vt 0.310547 0.5
vt 0.935547 0.5
vt 0.986328 0.5
vt 0.990234 0.5
vt 0.994141 0.5

# verts
v -8 0 8
v -8 0 -8
v -8 1 8
v -8 1 5
v -8 1 1
v -8 1 -3
v -8 1 -5
v -8 1 -6
v -8 1 -8
v -8 2 8
v -8 2 5
v -8 2 1
v -8 2 -3
v -8 2 -5
v -8 2 -6
v -8 3 -6
v -8 3 -7
v -8 3 -8
v -8 4 -6
v -8 4 -7
v -8 4 -8
v -8 6 -6
v -8 6 -7
v -8 6 -8
v -8 7 -6
v -8 7 -7
v -8 7 -8
v -8 9 -6
v -8 9 -8
v -6 3 -6
v -6 3 -7
v -6 4 -6
v -6 4 -7
v -6 6 -6
v -6 6 -7
v -6 8 -6
v -6 8 -7
v -6 9 -6
v -6 9 -7
v -6 9 -8
v -6 11 -6
v -6 11 -8
v -6 12 -6
v -6 12 -8
v -6 15 -6
v -6 15 -8
v -5 15 -6
v -5 15 -8
v -5 16 -6
v -5 16 -8
v -2 14 -5
v -2 14 -6
v -2 16 -5
v -2 16 -6
v 4 2 -6
v 4 2 -8
v 4 5 -6
v 4 5 -8
v 4 6 -6
v 4 6 -8
v 4 8 -6
v 4 8 -8
v 4 9 -6
v 4 9 -8
v 4 11 -6
v 4 11 -8
v 4 12 -6
v 4 12 -8
v 4 14 -6
v 4 14 -8
v 7 4 -6
v 7 4 -7
v 7 6 -6
v 7 6 -7
v -7 7 -6
v -7 7 -7
v -7 9 -6
v -7 9 -7
v -4 2 -6
v -4 2 -8
v -4 5 -6
v -4 5 -8
v -4 6 -6
v -4 6 -8
v -4 8 -6
v -4 8 -8
v -4 9 -6
v -4 9 -8
v -4 11 -6
v -4 11 -8
v -4 12 -6
v -4 12 -8
v -4 14 -6
v -4 14 -8
v 2 14 -5
v 2 14 -6
v 2 16 -5
v 2 16 -6
v 5 15 -6
v 5 15 -8
v 5 16 -6
v 5 16 -8
v 6 3 -6
v 6 3 -7
v 6 5 -6
v 6 5 -7
v 6 6 -6
v 6 6 -7
v 6 7 -6
v 6 7 -7
v 6 9 -6
v 6 9 -8
v 6 11 -6
v 6 11 -8
v 6 12 -6
v 6 12 -8
v 6 15 -6
v 6 15 -8
v 8 0 8
v 8 0 -8
v 8 1 8
v 8 1 5
v 8 1 -5
v 8 1 -6
v 8 1 -8
v 8 2 8
v 8 2 5
v 8 2 -5
v 8 2 -6
v 8 3 -6
v 8 3 -7
v 8 3 -8
v 8 4 -6
v 8 4 -7
v 8 4 -8
v 8 6 -6
v 8 6 -7
v 8 6 -8
v 8 7 -6
v 8 7 -7
v 8 7 -8
v 8 9 -6
v 8 9 -8
v -8 0 8
v -8 1 8
v -8 2 8
v -5 1 8
v -5 2 8
v 0 1 8
v 0 2 8
v 2 1 8
v 2 2 8
v 5 1 8
v 5 2 8
v 8 0 8
v 8 1 8
v 8 2 8
v -2 14 -5
v -2 16 -5
v 2 14 -5
v 2 16 -5
v -8 2 -6
v -8 3 -6
v -8 4 -6
v -8 6 -6
v -8 7 -6
v -8 9 -6
v -7 7 -6
v -7 9 -6
v -6 3 -6
v -6 4 -6
v -6 5 -6
v -6 6 -6
v -6 8 -6
v -6 9 -6
v -6 11 -6
v -6 12 -6
v -6 15 -6
v -5 2 -6
v -5 14 -6
v -5 15 -6
v -5 16 -6
v -4 2 -6
v -4 5 -6
v -4 6 -6
v -4 8 -6
v -4 9 -6
v -4 11 -6
v -4 12 -6
v -4 14 -6
v -4 15 -6
v -2 14 -6
v -2 16 -6
v 2 14 -6
v 2 16 -6
v 4 2 -6
v 4 5 -6
v 4 6 -6
v 4 8 -6
v 4 9 -6
v 4 11 -6
v 4 12 -6
v 4 14 -6
v 4 15 -6
v 5 14 -6
v 5 15 -6
v 5 16 -6
v 6 2 -6
v 6 3 -6
v 6 5 -6
v 6 6 -6
v 6 7 -6
v 6 8 -6
v 6 9 -6
v 6 11 -6
v 6 12 -6
v 6 15 -6
v 7 4 -6
v 7 6 -6
v 8 2 -6
v 8 3 -6
v 8 4 -6
v 8 6 -6
v 8 7 -6
v 8 9 -6
v -8 3 -7
v -8 4 -7
v -8 6 -7
v -8 7 -7
v -7 7 -7
v -7 9 -7
v -6 3 -7
v -6 4 -7
v -6 6 -7
v -6 8 -7
v -6 9 -7
v 6 3 -7
v 6 5 -7
v 6 6 -7
v 6 7 -7
v 7 4 -7
v 7 6 -7
v 8 3 -7
v 8 4 -7
v 8 6 -7
v 8 7 -7
v -8 0 -8
v -8 1 -8
v -8 3 -8
v -8 4 -8
v -8 6 -8
v -8 7 -8
v -8 9 -8
v -7 7 -8
v -7 9 -8
v -6 3 -8
v -6 4 -8
v -6 5 -8
v -6 6 -8
v -6 8 -8
v -6 9 -8
v -6 11 -8
v -6 12 -8
v -6 15 -8
v -5 14 -8
v -5 15 -8
v -5 16 -8
v -4 1 -8
v -4 2 -8
v -4 5 -8
v -4 6 -8
v -4 8 -8
v -4 9 -8
v -4 11 -8
v -4 12 -8
v -4 14 -8
v -4 15 -8
v -3 1 -8
v -3 2 -8
v -2 14 -8
v -2 16 -8
v -1 14 -8
v -1 16 -8
v 0 1 -8
v 0 2 -8
v 1 1 -8
v 1 2 -8
v 1 14 -8
v 1 16 -8
v 2 14 -8
v 2 16 -8
v 3 1 -8
v 3 2 -8
v 4 1 -8
v 4 2 -8
v 4 5 -8
v 4 6 -8
v 4 8 -8
v 4 9 -8
v 4 11 -8
v 4 12 -8
v 4 14 -8
v 4 15 -8
v 5 14 -8
v 5 15 -8
v 5 16 -8
v 6 3 -8
v 6 5 -8
v 6 6 -8
v 6 7 -8
v 6 8 -8
v 6 9 -8
v 6 11 -8
v 6 12 -8
v 6 15 -8
v 7 4 -8
v 7 6 -8
v 8 0 -8
v 8 1 -8
v 8 3 -8
v 8 4 -8
v 8 6 -8
v 8 7 -8
v 8 9 -8
v -8 0 8
v 8 0 8
v -8 0 -8
v 8 0 -8
v -8 4 -6
v -6 4 -6
v 7 4 -6
v 8 4 -6
v -8 4 -7
v -6 4 -7
v 7 4 -7
v 8 4 -7
v -8 7 -6
v -7 7 -6
v 6 7 -6
v 8 7 -6
v -8 7 -7
v -7 7 -7
v 6 7 -7
v 8 7 -7
v -2 14 -5
v 2 14 -5
v -4 14 -6
v -2 14 -6
v -1 14 -6
v 1 14 -6
v 2 14 -6
v 4 14 -6
v -4 14 -8
v -2 14 -8
v -1 14 -8
v 1 14 -8
v 2 14 -8
v 4 14 -8
v -8 2 8
v -5 2 8
v 0 2 8
v 2 2 8
v 5 2 8
v 8 2 8
v 0 2 7
v 2 2 7
v -6 2 6
v -5 2 6
v 5 2 6
v 6 2 6
v -8 2 5
v -6 2 5
v 6 2 5
v 8 2 5
v 0 2 4
v 3 2 4
v -1 2 3
v 0 2 3
v 3 2 3
v 4 2 3
v -7 2 2
v -3 2 2
v -8 2 1
v -7 2 1
v -1 2 1
v 0 2 1
v 3 2 1
v 4 2 1
v -3 2 -0
v -2 2 -0
v 0 2 -0
v 3 2 -0
v -3 2 -2
v -2 2 -2
v 3 2 -2
v 5 2 -2
v -8 2 -3
v -3 2 -3
v 2 2 -3
v 3 2 -3
v 4 2 -4
v 5 2 -4
v -8 2 -5
v -5 2 -5
v 2 2 -5
v 4 2 -5
v 6 2 -5
v 8 2 -5
v -8 2 -6
v -5 2 -6
v -4 2 -6
v -3 2 -6
v 0 2 -6
v 1 2 -6
v 3 2 -6
v 4 2 -6
v 6 2 -6
v 8 2 -6
v -4 2 -8
v -3 2 -8
v 0 2 -8
v 1 2 -8
v 3 2 -8
v 4 2 -8
v -8 3 -6
v -6 3 -6
v 6 3 -6
v 8 3 -6
v -8 3 -7
v -6 3 -7
v 6 3 -7
v 8 3 -7
v -8 6 -6
v -6 6 -6
v 7 6 -6
v 8 6 -6
v -8 6 -7
v -6 6 -7
v 7 6 -7
v 8 6 -7
v -8 9 -6
v -7 9 -6
v 6 9 -6
v 8 9 -6
v -7 9 -7
v -6 9 -7
v -8 9 -8
v -7 9 -8
v -6 9 -8
v 6 9 -8
v 8 9 -8
v -6 15 -6
v -5 15 -6
v 5 15 -6
v 6 15 -6
v -6 15 -8
v -5 15 -8
v 5 15 -8
v 6 15 -8
v -2 16 -5
v 2 16 -5
v -5 16 -6
v -2 16 -6
v -1 16 -6
v 1 16 -6
v 2 16 -6
v 5 16 -6
v -5 16 -8
v -2 16 -8
v -1 16 -8
v 1 16 -8
v 2 16 -8
v 5 16 -8

# faces
f 3/6/1 2/6/1 1/6/1
f 4/6/1 2/6/1 3/6/1
f 5/6/1 2/6/1 4/6/1
f 6/6/1 2/6/1 5/6/1
f 7/6/1 2/6/1 6/6/1
f 8/6/1 2/6/1 7/6/1
f 9/6/1 2/6/1 8/6/1
f 10/1/1 4/1/1 3/1/1
f 11/2/1 5/2/1 4/2/1
f 11/1/1 4/1/1 10/1/1
f 12/1/1 6/1/1 5/1/1
f 12/2/1 5/2/1 11/2/1
f 13/2/1 7/2/1 6/2/1
f 13/1/1 6/1/1 12/1/1
f 14/1/1 8/1/1 7/1/1
f 14/2/1 7/2/1 13/2/1
f 15/3/1 9/3/1 8/3/1
f 15/1/1 8/1/1 14/1/1
f 16/3/1 9/3/1 15/3/1
f 17/3/1 9/3/1 16/3/1
f 18/3/1 9/3/1 17/3/1
f 20/5/1 18/5/1 17/5/1
f 21/5/1 18/5/1 20/5/1
f 22/3/1 20/3/1 19/3/1
f 22/3/1 21/3/1 20/3/1
f 23/3/1 21/3/1 22/3/1
f 24/3/1 21/3/1 23/3/1
f 26/5/1 24/5/1 23/5/1
f 27/5/1 24/5/1 26/5/1
f 28/3/1 26/3/1 25/3/1
f 28/3/1 27/3/1 26/3/1
f 29/3/1 27/3/1 28/3/1
f 32/3/1 31/3/1 30/3/1
f 33/3/1 31/3/1 32/3/1
f 36/3/1 35/3/1 34/3/1
f 37/3/1 35/3/1 36/3/1
f 38/4/1 37/4/1 36/4/1
f 39/4/1 37/4/1 38/4/1
f 41/3/1 39/3/1 38/3/1
f 41/3/1 40/3/1 39/3/1
f 42/3/1 40/3/1 41/3/1
f 43/4/1 42/4/1 41/4/1
f 44/4/1 42/4/1 43/4/1
f 45/3/1 44/3/1 43/3/1
f 46/3/1 44/3/1 45/3/1
f 49/3/1 48/3/1 47/3/1
f 50/3/1 48/3/1 49/3/1
f 53/3/1 52/3/1 51/3/1
f 54/3/1 52/3/1 53/3/1
f 57/3/1 56/3/1 55/3/1
f 58/3/1 56/3/1 57/3/1
f 59/4/1 58/4/1 57/4/1
f 60/4/1 58/4/1 59/4/1
f 61/3/1 60/3/1 59/3/1
f 62/3/1 60/3/1 61/3/1
f 63/4/1 62/4/1 61/4/1
f 64/4/1 62/4/1 63/4/1
f 65/3/1 64/3/1 63/3/1
f 66/3/1 64/3/1 65/3/1
f 67/4/1 66/4/1 65/4/1
f 68/4/1 66/4/1 67/4/1
f 69/3/1 68/3/1 67/3/1
f 70/3/1 68/3/1 69/3/1
f 73/3/1 72/3/1 71/3/1
f 74/3/1 72/3/1 73/3/1
f 75/3/2 76/3/2 77/3/2
f 77/3/2 76/3/2 78/3/2
f 79/3/2 80/3/2 81/3/2
f 81/3/2 80/3/2 82/3/2
f 81/4/2 82/4/2 83/4/2
f 83/4/2 82/4/2 84/4/2
f 83/3/2 84/3/2 85/3/2
f 85/3/2 84/3/2 86/3/2
f 85/4/2 86/4/2 87/4/2
f 87/4/2 86/4/2 88/4/2
f 87/3/2 88/3/2 89/3/2
f 89/3/2 88/3/2 90/3/2
f 89/4/2 90/4/2 91/4/2
f 91/4/2 90/4/2 92/4/2
f 91/3/2 92/3/2 93/3/2
f 93/3/2 92/3/2 94/3/2
f 95/3/2 96/3/2 97/3/2
f 97/3/2 96/3/2 98/3/2
f 99/3/2 100/3/2 101/3/2
f 101/3/2 100/3/2 102/3/2
f 103/3/2 104/3/2 105/3/2
f 105/3/2 104/3/2 106/3/2
f 105/4/2 106/4/2 107/4/2
f 107/4/2 106/4/2 108/4/2
f 107/3/2 108/3/2 109/3/2
f 109/3/2 108/3/2 110/3/2
f 111/3/2 112/3/2 113/3/2
f 113/3/2 112/3/2 114/3/2
f 113/4/2 114/4/2 115/4/2
f 115/4/2 114/4/2 116/4/2
f 115/3/2 116/3/2 117/3/2
f 117/3/2 116/3/2 118/3/2
f 119/6/2 120/6/2 121/6/2
f 121/6/2 120/6/2 122/6/2
f 122/6/2 120/6/2 123/6/2
f 123/6/2 120/6/2 124/6/2
f 124/6/2 120/6/2 125/6/2
f 121/1/2 122/1/2 126/1/2
f 122/2/2 123/2/2 127/2/2
f 126/1/2 122/1/2 127/1/2
f 123/1/2 124/1/2 128/1/2
f 127/2/2 123/2/2 128/2/2
f 124/3/2 125/3/2 129/3/2
f 128/1/2 124/1/2 129/1/2
f 129/3/2 125/3/2 130/3/2
f 130/3/2 125/3/2 131/3/2
f 131/3/2 125/3/2 132/3/2
f 131/5/2 132/5/2 134/5/2
f 134/5/2 132/5/2 135/5/2
f 133/3/2 134/3/2 136/3/2
f 134/3/2 135/3/2 136/3/2
f 136/3/2 135/3/2 137/3/2
f 137/3/2 135/3/2 138/3/2
f 137/5/2 138/5/2 140/5/2
f 140/5/2 138/5/2 141/5/2
f 139/3/2 140/3/2 142/3/2
f 140/3/2 141/3/2 142/3/2
f 142/3/2 141/3/2 143/3/2
f 147/6/3 145/6/3 144/6/3
f 147/1/3 146/1/3 145/1/3
f 148/1/3 146/1/3 147/1/3
f 149/6/3 147/6/3 144/6/3
f 149/2/3 148/2/3 147/2/3
f 150/2/3 148/2/3 149/2/3
f 151/6/3 149/6/3 144/6/3
f 151/1/3 150/1/3 149/1/3
f 152/1/3 150/1/3 151/1/3
f 153/6/3 151/6/3 144/6/3
f 153/2/3 152/2/3 151/2/3
f 154/2/3 152/2/3 153/2/3
f 155/6/3 153/6/3 144/6/3
f 156/1/3 154/1/3 153/1/3
f 156/6/3 153/6/3 155/6/3
f 157/1/3 154/1/3 156/1/3
f 160/3/3 159/3/3 158/3/3
f 161/3/3 159/3/3 160/3/3
f 168/3/3 167/3/3 166/3/3
f 169/3/3 167/3/3 168/3/3
f 170/3/3 163/3/3 162/3/3
f 171/3/3 165/3/3 164/3/3
f 172/3/3 165/3/3 171/3/3
f 173/3/3 165/3/3 172/3/3
f 179/3/3 170/3/3 162/3/3
f 179/3/3 171/3/3 170/3/3
f 179/3/3 172/3/3 171/3/3
f 180/3/3 178/3/3 177/3/3
f 181/3/3 178/3/3 180/3/3
f 183/3/3 172/3/3 179/3/3
f 184/4/3 173/4/3 172/4/3
f 184/3/3 172/3/3 183/3/3
f 185/3/3 174/3/3 173/3/3
f 185/4/3 173/4/3 184/4/3
f 186/4/3 175/4/3 174/4/3
f 186/3/3 174/3/3 185/3/3
f 187/3/3 176/3/3 175/3/3
f 187/4/3 175/4/3 186/4/3
f 188/4/3 177/4/3 176/4/3
f 188/3/3 176/3/3 187/3/3
f 189/3/3 180/3/3 177/3/3
f 189/4/3 177/4/3 188/4/3
f 190/4/3 181/4/3 180/4/3
f 190/3/3 180/3/3 189/3/3
f 191/3/3 182/3/3 181/3/3
f 191/4/3 181/4/3 190/4/3
f 192/3/3 191/3/3 190/3/3
f 193/3/3 182/3/3 191/3/3
f 193/3/3 191/3/3 192/3/3
f 203/3/3 195/3/3 194/3/3
f 204/3/3 195/3/3 203/3/3
f 205/3/3 203/3/3 202/3/3
f 205/4/3 204/4/3 203/4/3
f 206/3/3 195/3/3 204/3/3
f 206/4/3 204/4/3 205/4/3
f 207/3/3 195/3/3 206/3/3
f 208/3/3 197/3/3 196/3/3
f 209/3/3 197/3/3 208/3/3
f 210/4/3 198/4/3 197/4/3
f 210/3/3 197/3/3 209/3/3
f 211/3/3 199/3/3 198/3/3
f 211/4/3 198/4/3 210/4/3
f 212/3/3 199/3/3 211/3/3
f 213/4/3 200/4/3 199/4/3
f 213/3/3 199/3/3 212/3/3
f 214/3/3 201/3/3 200/3/3
f 214/4/3 200/4/3 213/4/3
f 215/4/3 202/4/3 201/4/3
f 215/3/3 201/3/3 214/3/3
f 216/3/3 205/3/3 202/3/3
f 216/4/3 202/4/3 215/4/3
f 216/3/3 206/3/3 205/3/3
f 217/3/3 206/3/3 216/3/3
f 220/3/3 209/3/3 208/3/3
f 221/3/3 209/3/3 220/3/3
f 222/3/3 219/3/3 218/3/3
f 223/3/3 219/3/3 222/3/3
f 224/3/3 214/3/3 213/3/3
f 224/3/3 213/3/3 212/3/3
f 225/3/3 214/3/3 224/3/3
f 230/5/3 229/5/3 228/5/3
f 232/5/3 227/5/3 226/5/3
f 233/5/3 227/5/3 232/5/3
f 234/5/3 231/5/3 230/5/3
f 234/5/3 230/5/3 228/5/3
f 235/5/3 231/5/3 234/5/3
f 236/5/3 231/5/3 235/5/3
f 241/5/3 238/5/3 237/5/3
f 241/5/3 240/5/3 239/5/3
f 241/5/3 239/5/3 238/5/3
f 242/5/3 240/5/3 241/5/3
f 243/5/3 241/5/3 237/5/3
f 244/5/3 241/5/3 243/5/3
f 245/5/3 240/5/3 242/5/3
f 246/5/3 240/5/3 245/5/3
f 251/5/4 252/5/4 254/5/4
f 252/3/4 253/3/4 254/3/4
f 254/3/4 253/3/4 255/3/4
f 248/3/4 249/3/4 256/3/4
f 249/5/4 250/5/4 256/5/4
f 250/3/4 251/3/4 257/3/4
f 256/5/4 250/5/4 257/5/4
f 257/3/4 251/3/4 258/3/4
f 254/5/4 255/5/4 259/5/4
f 258/3/4 251/3/4 259/3/4
f 251/5/4 254/5/4 259/5/4
f 259/5/4 255/5/4 260/5/4
f 260/5/4 255/5/4 261/5/4
f 263/3/4 264/3/4 265/3/4
f 265/3/4 264/3/4 266/3/4
f 247/6/4 248/6/4 268/6/4
f 257/3/4 258/3/4 268/3/4
f 248/3/4 256/3/4 268/3/4
f 256/3/4 257/3/4 268/3/4
f 268/3/4 258/3/4 269/3/4
f 258/4/4 259/4/4 270/4/4
f 269/3/4 258/3/4 270/3/4
f 259/3/4 260/3/4 271/3/4
f 270/4/4 259/4/4 271/4/4
f 260/4/4 261/4/4 272/4/4
f 271/3/4 260/3/4 272/3/4
f 261/3/4 262/3/4 273/3/4
f 272/4/4 261/4/4 273/4/4
f 262/4/4 263/4/4 274/4/4
f 273/3/4 262/3/4 274/3/4
f 263/3/4 265/3/4 275/3/4
f 274/4/4 263/4/4 275/4/4
f 265/4/4 266/4/4 276/4/4
f 275/3/4 265/3/4 276/3/4
f 266/3/4 267/3/4 277/3/4
f 276/4/4 266/4/4 277/4/4
f 247/6/4 268/6/4 278/6/4
f 268/4/4 269/4/4 278/4/4
f 278/4/4 269/4/4 279/4/4
f 276/3/4 277/3/4 280/3/4
f 277/3/4 267/3/4 281/3/4
f 280/3/4 277/3/4 281/3/4
f 280/4/4 281/4/4 282/4/4
f 282/4/4 281/4/4 283/4/4
f 278/3/4 279/3/4 284/3/4
f 247/6/4 278/6/4 284/6/4
f 284/3/4 279/3/4 285/3/4
f 247/6/4 284/6/4 286/6/4
f 284/4/4 285/4/4 286/4/4
f 286/4/4 285/4/4 287/4/4
f 282/3/4 283/3/4 288/3/4
f 288/3/4 283/3/4 289/3/4
f 288/4/4 289/4/4 290/4/4
f 290/4/4 289/4/4 291/4/4
f 286/3/4 287/3/4 292/3/4
f 247/6/4 286/6/4 292/6/4
f 292/3/4 287/3/4 293/3/4
f 247/6/4 292/6/4 294/6/4
f 292/4/4 293/4/4 294/4/4
f 294/4/4 293/4/4 295/4/4
f 290/3/4 291/3/4 302/3/4
f 302/3/4 291/3/4 303/3/4
f 301/3/4 302/3/4 304/3/4
f 302/4/4 303/4/4 304/4/4
f 303/3/4 291/3/4 305/3/4
f 304/4/4 303/4/4 305/4/4
f 305/3/4 291/3/4 306/3/4
f 294/3/4 295/3/4 307/3/4
f 295/3/4 296/3/4 307/3/4
f 296/4/4 297/4/4 308/4/4
f 307/3/4 296/3/4 308/3/4
f 297/3/4 298/3/4 309/3/4
f 308/4/4 297/4/4 309/4/4
f 309/3/4 298/3/4 310/3/4
f 298/4/4 299/4/4 311/4/4
f 310/3/4 298/3/4 311/3/4
f 299/3/4 300/3/4 312/3/4
f 311/4/4 299/4/4 312/4/4
f 300/4/4 301/4/4 313/4/4
f 312/3/4 300/3/4 313/3/4
f 304/3/4 305/3/4 314/3/4
f 313/4/4 301/4/4 314/4/4
f 301/3/4 304/3/4 314/3/4
f 314/3/4 305/3/4 315/3/4
f 307/5/4 308/5/4 316/5/4
f 308/5/4 309/5/4 316/5/4
f 309/5/4 310/5/4 316/5/4
f 316/5/4 310/5/4 317/5/4
f 247/6/4 294/6/4 318/6/4
f 294/3/4 307/3/4 319/3/4
f 318/6/4 294/6/4 319/6/4
f 307/5/4 316/5/4 320/5/4
f 319/3/4 307/3/4 320/3/4
f 316/3/4 317/3/4 321/3/4
f 320/5/4 316/5/4 321/5/4
f 317/5/4 310/5/4 322/5/4
f 321/3/4 317/3/4 322/3/4
f 311/3/4 312/3/4 323/3/4
f 322/5/4 310/5/4 323/5/4
f 310/3/4 311/3/4 323/3/4
f 323/3/4 312/3/4 324/3/4
f 327/6/5 326/6/5 325/6/5
f 328/6/5 326/6/5 327/6/5
f 333/3/5 330/3/5 329/3/5
f 334/3/5 330/3/5 333/3/5
f 335/3/5 332/3/5 331/3/5
f 336/3/5 332/3/5 335/3/5
f 341/3/5 338/3/5 337/3/5
f 342/3/5 338/3/5 341/3/5
f 343/3/5 340/3/5 339/3/5
f 344/3/5 340/3/5 343/3/5
f 348/3/5 346/3/5 345/3/5
f 349/3/5 346/3/5 348/3/5
f 350/3/5 346/3/5 349/3/5
f 351/3/5 346/3/5 350/3/5
f 353/3/5 348/3/5 347/3/5
f 354/4/5 349/4/5 348/4/5
f 354/3/5 348/3/5 353/3/5
f 355/3/5 350/3/5 349/3/5
f 355/4/5 349/4/5 354/4/5
f 356/4/5 351/4/5 350/4/5
f 356/3/5 350/3/5 355/3/5
f 357/3/5 352/3/5 351/3/5
f 357/4/5 351/4/5 356/4/5
f 358/3/5 352/3/5 357/3/5
f 360/2/6 361/2/6 365/2/6
f 361/1/6 362/1/6 365/1/6
f 362/2/6 363/2/6 366/2/6
f 365/1/6 362/1/6 366/1/6
f 359/1/6 360/1/6 367/1/6
f 360/2/6 365/2/6 368/2/6
f 367/1/6 360/1/6 368/1/6
f 365/2/6 366/2/6 368/2/6
f 366/2/6 363/2/6 369/2/6
f 368/2/6 366/2/6 369/2/6
f 363/1/6 364/1/6 369/1/6
f 369/1/6 364/1/6 370/1/6
f 359/1/6 367/1/6 371/1/6
f 367/2/6 368/2/6 372/2/6
f 371/1/6 367/1/6 372/1/6
f 368/2/6 369/2/6 372/2/6
f 369/2/6 370/2/6 372/2/6
f 370/1/6 364/1/6 373/1/6
f 372/2/6 370/2/6 373/2/6
f 373/1/6 364/1/6 374/1/6
f 371/2/6 372/2/6 375/2/6
f 372/2/6 373/2/6 375/2/6
f 373/2/6 374/2/6 375/2/6
f 375/2/6 374/2/6 376/2/6
f 371/2/6 375/2/6 377/2/6
f 375/1/6 376/1/6 378/1/6
f 377/2/6 375/2/6 378/2/6
f 376/2/6 374/2/6 379/2/6
f 378/1/6 376/1/6 379/1/6
f 379/2/6 374/2/6 380/2/6
f 371/2/6 377/2/6 381/2/6
f 381/2/6 377/2/6 382/2/6
f 371/2/6 381/2/6 383/2/6
f 381/1/6 382/1/6 384/1/6
f 383/2/6 381/2/6 384/2/6
f 377/1/6 378/1/6 385/1/6
f 378/1/6 379/1/6 385/1/6
f 379/1/6 380/1/6 385/1/6
f 382/2/6 377/2/6 385/2/6
f 385/1/6 380/1/6 386/1/6
f 386/1/6 380/1/6 387/1/6
f 380/2/6 374/2/6 388/2/6
f 387/1/6 380/1/6 388/1/6
f 384/1/6 382/1/6 389/1/6
f 383/1/6 384/1/6 389/1/6
f 382/2/6 385/2/6 389/2/6
f 385/2/6 386/2/6 389/2/6
f 389/2/6 386/2/6 390/2/6
f 386/1/6 387/1/6 391/1/6
f 390/2/6 386/2/6 391/2/6
f 387/2/6 388/2/6 392/2/6
f 391/1/6 387/1/6 392/1/6
f 389/1/6 390/1/6 393/1/6
f 383/1/6 389/1/6 393/1/6
f 390/2/6 391/2/6 394/2/6
f 393/1/6 390/1/6 394/1/6
f 391/2/6 392/2/6 394/2/6
f 392/2/6 388/2/6 395/2/6
f 394/2/6 392/2/6 395/2/6
f 388/2/6 374/2/6 396/2/6
f 395/2/6 388/2/6 396/2/6
f 383/1/6 393/1/6 397/1/6
f 394/2/6 395/2/6 398/2/6
f 397/1/6 393/1/6 398/1/6
f 393/2/6 394/2/6 398/2/6
f 398/2/6 395/2/6 399/2/6
f 395/1/6 396/1/6 400/1/6
f 399/2/6 395/2/6 400/2/6
f 399/1/6 400/1/6 401/1/6
f 400/1/6 396/1/6 401/1/6
f 396/2/6 374/2/6 402/2/6
f 401/1/6 396/1/6 402/1/6
f 398/2/6 399/2/6 403/2/6
f 397/2/6 398/2/6 403/2/6
f 403/2/6 399/2/6 404/2/6
f 399/1/6 401/1/6 405/1/6
f 404/2/6 399/2/6 405/2/6
f 401/2/6 402/2/6 406/2/6
f 405/1/6 401/1/6 406/1/6
f 402/2/6 374/2/6 407/2/6
f 406/2/6 402/2/6 407/2/6
f 407/2/6 374/2/6 408/2/6
f 403/1/6 404/1/6 409/1/6
f 405/2/6 406/2/6 410/2/6
f 409/1/6 404/1/6 410/1/6
f 404/2/6 405/2/6 410/2/6
f 406/2/6 407/2/6 410/2/6
f 410/2/6 407/2/6 411/2/6
f 411/2/6 407/2/6 412/2/6
f 412/2/6 407/2/6 413/2/6
f 413/2/6 407/2/6 414/2/6
f 414/2/6 407/2/6 415/2/6
f 415/2/6 407/2/6 416/2/6
f 407/1/6 408/1/6 417/1/6
f 416/2/6 407/2/6 417/2/6
f 417/1/6 408/1/6 418/1/6
f 411/4/6 412/4/6 419/4/6
f 412/3/6 413/3/6 420/3/6
f 419/4/6 412/4/6 420/4/6
f 413/4/6 414/4/6 421/4/6
f 420/3/6 413/3/6 421/3/6
f 414/3/6 415/3/6 422/3/6
f 421/4/6 414/4/6 422/4/6
f 415/4/6 416/4/6 423/4/6
f 422/3/6 415/3/6 423/3/6
f 423/4/6 416/4/6 424/4/6
f 425/3/6 426/3/6 429/3/6
f 429/3/6 426/3/6 430/3/6
f 427/3/6 428/3/6 431/3/6
f 431/3/6 428/3/6 432/3/6
f 433/3/6 434/3/6 437/3/6
f 437/3/6 434/3/6 438/3/6
f 435/3/6 436/3/6 439/3/6
f 439/3/6 436/3/6 440/3/6
f 441/3/6 442/3/6 445/3/6
f 441/3/6 445/3/6 447/3/6
f 445/5/6 446/5/6 448/5/6
f 447/3/6 445/3/6 448/3/6
f 448/5/6 446/5/6 449/5/6
f 443/3/6 444/3/6 450/3/6
f 450/3/6 444/3/6 451/3/6
f 452/3/6 453/3/6 456/3/6
f 456/3/6 453/3/6 457/3/6
f 454/3/6 455/3/6 458/3/6
f 458/3/6 455/3/6 459/3/6
f 460/3/6 461/3/6 463/3/6
f 463/3/6 461/3/6 464/3/6
f 464/3/6 461/3/6 465/3/6
f 465/3/6 461/3/6 466/3/6
f 462/3/6 463/3/6 468/3/6
f 463/4/6 464/4/6 469/4/6
f 468/3/6 463/3/6 469/3/6
f 464/3/6 465/3/6 470/3/6
f 469/4/6 464/4/6 470/4/6
f 465/4/6 466/4/6 471/4/6
f 470/3/6 465/3/6 471/3/6
f 466/3/6 467/3/6 472/3/6
f 471/4/6 466/4/6 472/4/6
f 472/3/6 467/3/6 473/3/6
