# MagicaVoxel @ Ephtracy

# group
g YAVD_Tiles-4

# material
mtllib YAVD_Tiles-4.mtl
usemtl palette

# normals
vn -1 0 0
vn 1 0 0
vn 0 0 1
vn 0 0 -1
vn 0 -1 0
vn 0 1 0

# texcoords
vt 0.224609 0.5
vt 0.310547 0.5
vt 0.935547 0.5
vt 0.990234 0.5
vt 0.994141 0.5

# verts
v -8 0 8
v -8 0 -8
v -8 1 8
v -8 1 4
v -8 1 -6
v -8 1 -8
v -8 3 8
v -8 3 4
v -8 3 -6
v -8 3 -8
v -8 4 8
v -8 4 6
v -8 4 -6
v -8 4 -8
v -8 6 8
v -8 6 6
v -8 6 -6
v -8 6 -8
v -8 7 8
v -8 7 4
v -8 7 3
v -8 7 1
v -8 7 -0
v -8 7 -4
v -8 7 -5
v -8 7 -8
v -8 9 8
v -8 9 4
v -8 9 3
v -8 9 1
v -8 9 -0
v -8 9 -4
v -8 9 -5
v -8 9 -8
v -5 2 -6
v -5 2 -7
v -5 3 -6
v -5 3 -7
v -5 7 -6
v -5 7 -7
v -5 9 -6
v -5 9 -7
v -3 4 -6
v -3 4 -7
v -3 6 -6
v -3 6 -7
v -1 7 -6
v -1 7 -7
v -1 9 -6
v -1 9 -7
v 0 2 -6
v 0 2 -7
v 0 3 -6
v 0 3 -7
v 2 4 -6
v 2 4 -7
v 2 6 -6
v 2 6 -7
v 4 7 -6
v 4 7 -7
v 4 9 -6
v 4 9 -7
v 5 2 -6
v 5 2 -7
v 5 3 -6
v 5 3 -7
v 7 4 -6
v 7 4 -7
v 7 6 -6
v 7 6 -7
v -7 2 4
v -7 2 3
v -7 2 1
v -7 2 -0
v -7 2 -5
v -7 2 -6
v -7 3 8
v -7 3 4
v -7 3 3
v -7 3 1
v -7 3 -0
v -7 3 -5
v -7 3 -6
v -7 4 8
v -7 4 6
v -7 4 5
v -7 4 -1
v -7 4 -2
v -7 4 -5
v -7 4 -6
v -7 6 8
v -7 6 6
v -7 6 5
v -7 6 -1
v -7 6 -2
v -7 6 -5
v -7 6 -6
v -7 7 8
v -7 7 4
v -7 7 3
v -7 7 1
v -7 7 -0
v -7 7 -4
v -7 7 -5
v -7 7 -6
v -7 9 4
v -7 9 3
v -7 9 1
v -7 9 -0
v -7 9 -4
v -7 9 -5
v -6 2 8
v -6 2 4
v -6 2 3
v -6 2 2
v -6 2 1
v -6 2 -0
v -6 2 -3
v -6 2 -4
v -6 2 -5
v -6 2 -6
v -6 2 -7
v -6 3 8
v -6 3 4
v -6 3 3
v -6 3 1
v -6 3 -0
v -6 3 -5
v -6 3 -6
v -6 3 -7
v -6 4 8
v -6 4 6
v -6 4 5
v -6 4 -1
v -6 4 -2
v -6 4 -5
v -6 4 -6
v -6 4 -7
v -6 6 8
v -6 6 6
v -6 6 5
v -6 6 -1
v -6 6 -2
v -6 6 -5
v -6 6 -6
v -6 6 -7
v -6 7 8
v -6 7 4
v -6 7 3
v -6 7 1
v -6 7 -0
v -6 7 -4
v -6 7 -5
v -6 7 -6
v -6 7 -7
v -6 9 8
v -6 9 4
v -6 9 3
v -6 9 1
v -6 9 -0
v -6 9 -4
v -6 9 -5
v -6 9 -7
v -4 4 -6
v -4 4 -7
v -4 6 -6
v -4 6 -7
v -2 7 -6
v -2 7 -7
v -2 9 -6
v -2 9 -7
v -1 2 -6
v -1 2 -7
v -1 3 -6
v -1 3 -7
v 1 4 -6
v 1 4 -7
v 1 6 -6
v 1 6 -7
v 3 7 -6
v 3 7 -7
v 3 9 -6
v 3 9 -7
v 4 2 -6
v 4 2 -7
v 4 3 -6
v 4 3 -7
v 6 4 -6
v 6 4 -7
v 6 6 -6
v 6 6 -7
v 8 0 8
v 8 0 -8
v 8 1 8
v 8 1 -5
v 8 1 -6
v 8 1 -8
v 8 2 8
v 8 2 -5
v 8 2 -6
v 8 3 -6
v 8 3 -7
v 8 3 -8
v 8 4 -6
v 8 4 -7
v 8 4 -8
v 8 6 -6
v 8 6 -7
v 8 6 -8
v 8 7 -6
v 8 7 -7
v 8 7 -8
v 8 9 -6
v 8 9 -8
v -8 0 8
v -8 1 8
v -8 3 8
v -8 4 8
v -8 6 8
v -8 7 8
v -8 9 8
v -7 3 8
v -7 4 8
v -7 6 8
v -7 7 8
v -6 1 8
v -6 2 8
v -6 3 8
v -6 4 8
v -6 6 8
v -6 7 8
v -6 9 8
v 8 0 8
v 8 1 8
v 8 2 8
v -7 4 5
v -7 6 5
v -6 4 5
v -6 6 5
v -7 2 3
v -7 3 3
v -7 7 3
v -7 9 3
v -6 2 3
v -6 3 3
v -6 7 3
v -6 9 3
v -7 2 -0
v -7 3 -0
v -7 7 -0
v -7 9 -0
v -6 2 -0
v -6 3 -0
v -6 7 -0
v -6 9 -0
v -7 4 -2
v -7 6 -2
v -6 4 -2
v -6 6 -2
v -7 7 -5
v -7 9 -5
v -6 7 -5
v -6 9 -5
v -7 2 -6
v -7 3 -6
v -7 4 -6
v -7 6 -6
v -7 7 -6
v -6 2 -6
v -6 3 -6
v -6 4 -6
v -6 6 -6
v -6 7 -6
v -5 2 -6
v -5 3 -6
v -5 7 -6
v -5 9 -6
v -4 4 -6
v -4 6 -6
v -3 2 -6
v -3 4 -6
v -3 6 -6
v -2 7 -6
v -2 9 -6
v -1 2 -6
v -1 3 -6
v -1 7 -6
v -1 9 -6
v 0 2 -6
v 0 3 -6
v 1 4 -6
v 1 6 -6
v 2 4 -6
v 2 6 -6
v 3 7 -6
v 3 9 -6
v 4 2 -6
v 4 3 -6
v 4 7 -6
v 4 9 -6
v 5 2 -6
v 5 3 -6
v 6 2 -6
v 6 4 -6
v 6 6 -6
v 7 4 -6
v 7 6 -6
v 8 2 -6
v 8 3 -6
v 8 4 -6
v 8 6 -6
v 8 7 -6
v 8 9 -6
v -6 2 -7
v -6 3 -7
v -6 4 -7
v -6 6 -7
v -6 7 -7
v -6 9 -7
v -5 2 -7
v -5 3 -7
v -5 7 -7
v -5 9 -7
v -4 4 -7
v -4 6 -7
v -3 4 -7
v -3 6 -7
v -2 7 -7
v -2 9 -7
v -1 2 -7
v -1 3 -7
v -1 7 -7
v -1 9 -7
v 0 2 -7
v 0 3 -7
v 1 4 -7
v 1 6 -7
v 2 4 -7
v 2 6 -7
v 3 7 -7
v 3 9 -7
v 4 2 -7
v 4 3 -7
v 4 7 -7
v 4 9 -7
v 5 2 -7
v 5 3 -7
v 6 4 -7
v 6 6 -7
v 7 4 -7
v 7 6 -7
v 8 3 -7
v 8 4 -7
v 8 6 -7
v 8 7 -7
v -7 4 6
v -7 6 6
v -6 4 6
v -6 6 6
v -7 2 4
v -7 3 4
v -7 7 4
v -7 9 4
v -6 2 4
v -6 3 4
v -6 7 4
v -6 9 4
v -7 2 1
v -7 3 1
v -7 7 1
v -7 9 1
v -6 2 1
v -6 3 1
v -6 7 1
v -6 9 1
v -7 4 -1
v -7 6 -1
v -6 4 -1
v -6 6 -1
v -7 7 -4
v -7 9 -4
v -6 7 -4
v -6 9 -4
v -7 2 -5
v -7 3 -5
v -7 4 -5
v -7 6 -5
v -6 2 -5
v -6 3 -5
v -6 4 -5
v -6 6 -5
v -8 0 -8
v -8 1 -8
v -8 3 -8
v -8 4 -8
v -8 6 -8
v -8 7 -8
v -8 9 -8
v -6 1 -8
v -6 3 -8
v -6 7 -8
v -6 9 -8
v -5 8 -8
v -5 9 -8
v -4 4 -8
v -4 6 -8
v -2 8 -8
v -2 9 -8
v -1 8 -8
v -1 9 -8
v 3 8 -8
v 3 9 -8
v 4 7 -8
v 4 9 -8
v 5 1 -8
v 5 3 -8
v 7 4 -8
v 7 6 -8
v 8 0 -8
v 8 1 -8
v 8 3 -8
v 8 4 -8
v 8 6 -8
v 8 7 -8
v 8 9 -8
v -8 0 8
v 8 0 8
v -8 0 -8
v 8 0 -8
v -7 4 8
v -6 4 8
v -7 4 6
v -6 4 6
v -7 4 5
v -6 4 5
v -7 4 -1
v -6 4 -1
v -7 4 -2
v -6 4 -2
v -7 4 -5
v -6 4 -5
v -6 4 -6
v -4 4 -6
v -3 4 -6
v 1 4 -6
v 2 4 -6
v 6 4 -6
v 7 4 -6
v 8 4 -6
v -6 4 -7
v -4 4 -7
v -3 4 -7
v 1 4 -7
v 2 4 -7
v 6 4 -7
v 7 4 -7
v 8 4 -7
v -7 7 8
v -6 7 8
v -7 7 4
v -6 7 4
v -7 7 3
v -6 7 3
v -7 7 1
v -6 7 1
v -7 7 -0
v -6 7 -0
v -7 7 -4
v -6 7 -4
v -7 7 -5
v -6 7 -5
v -7 7 -6
v -6 7 -6
v -5 7 -6
v -2 7 -6
v -1 7 -6
v 3 7 -6
v 4 7 -6
v 8 7 -6
v -5 7 -7
v -2 7 -7
v -1 7 -7
v 3 7 -7
v 4 7 -7
v 8 7 -7
v -6 2 8
v 8 2 8
v -5 2 7
v -3 2 7
v -3 2 6
v -2 2 6
v 3 2 6
v 6 2 6
v -5 2 5
v -4 2 5
v 2 2 5
v 3 2 5
v 6 2 5
v 7 2 5
v -7 2 4
v -6 2 4
v -4 2 4
v -2 2 4
v 1 2 4
v 2 2 4
v -7 2 3
v -6 2 3
v 6 2 3
v 7 2 3
v -6 2 2
v -3 2 2
v 1 2 2
v 2 2 2
v 5 2 2
v 6 2 2
v -7 2 1
v -6 2 1
v 2 2 1
v 5 2 1
v -7 2 -0
v -6 2 -0
v -3 2 -0
v -2 2 -0
v -3 2 -2
v -2 2 -2
v 3 2 -2
v 5 2 -2
v -6 2 -3
v -3 2 -3
v 2 2 -3
v 3 2 -3
v -6 2 -4
v -4 2 -4
v 4 2 -4
v 5 2 -4
v -7 2 -5
v -6 2 -5
v -4 2 -5
v -3 2 -5
v 2 2 -5
v 4 2 -5
v 6 2 -5
v 8 2 -5
v -7 2 -6
v -6 2 -6
v -5 2 -6
v -3 2 -6
v -1 2 -6
v 0 2 -6
v 4 2 -6
v 5 2 -6
v 6 2 -6
v 8 2 -6
v -6 2 -7
v -5 2 -7
v -1 2 -7
v 0 2 -7
v 4 2 -7
v 5 2 -7
v -7 3 8
v -6 3 8
v -7 3 4
v -6 3 4
v -7 3 3
v -6 3 3
v -7 3 1
v -6 3 1
v -7 3 -0
v -6 3 -0
v -7 3 -5
v -6 3 -5
v -5 3 -6
v -1 3 -6
v 0 3 -6
v 4 3 -6
v 5 3 -6
v 8 3 -6
v -5 3 -7
v -1 3 -7
v 0 3 -7
v 4 3 -7
v 5 3 -7
v 8 3 -7
v -7 6 8
v -6 6 8
v -7 6 6
v -6 6 6
v -7 6 5
v -6 6 5
v -7 6 -1
v -6 6 -1
v -7 6 -2
v -6 6 -2
v -7 6 -5
v -6 6 -5
v -6 6 -6
v -4 6 -6
v -3 6 -6
v 1 6 -6
v 2 6 -6
v 6 6 -6
v 7 6 -6
v 8 6 -6
v -6 6 -7
v -4 6 -7
v -3 6 -7
v 1 6 -7
v 2 6 -7
v 6 6 -7
v 7 6 -7
v 8 6 -7
v -8 9 8
v -6 9 8
v -8 9 4
v -7 9 4
v -6 9 4
v -8 9 3
v -7 9 3
v -6 9 3
v -8 9 1
v -7 9 1
v -6 9 1
v -8 9 -0
v -7 9 -0
v -6 9 -0
v -8 9 -4
v -7 9 -4
v -6 9 -4
v -8 9 -5
v -7 9 -5
v -6 9 -5
v -5 9 -6
v -2 9 -6
v -1 9 -6
v 3 9 -6
v 4 9 -6
v 8 9 -6
v -6 9 -7
v -5 9 -7
v -2 9 -7
v -1 9 -7
v 3 9 -7
v 4 9 -7
v -8 9 -8
v -6 9 -8
v -5 9 -8
v -2 9 -8
v -1 9 -8
v 3 9 -8
v 4 9 -8
v 8 9 -8

# faces
f 3/5/1 2/5/1 1/5/1
f 4/5/1 2/5/1 3/5/1
f 5/5/1 2/5/1 4/5/1
f 6/5/1 2/5/1 5/5/1
f 7/3/1 4/3/1 3/3/1
f 8/4/1 5/4/1 4/4/1
f 8/3/1 4/3/1 7/3/1
f 9/3/1 6/3/1 5/3/1
f 9/4/1 5/4/1 8/4/1
f 10/3/1 6/3/1 9/3/1
f 11/4/1 8/4/1 7/4/1
f 11/4/1 9/4/1 8/4/1
f 11/4/1 10/4/1 9/4/1
f 12/4/1 10/4/1 11/4/1
f 13/4/1 10/4/1 12/4/1
f 14/4/1 10/4/1 13/4/1
f 15/3/1 12/3/1 11/3/1
f 16/4/1 13/4/1 12/4/1
f 16/3/1 12/3/1 15/3/1
f 17/3/1 14/3/1 13/3/1
f 17/4/1 13/4/1 16/4/1
f 18/3/1 14/3/1 17/3/1
f 19/4/1 16/4/1 15/4/1
f 19/4/1 17/4/1 16/4/1
f 19/4/1 18/4/1 17/4/1
f 20/4/1 18/4/1 19/4/1
f 21/4/1 18/4/1 20/4/1
f 22/4/1 18/4/1 21/4/1
f 23/4/1 18/4/1 22/4/1
f 24/4/1 18/4/1 23/4/1
f 25/4/1 18/4/1 24/4/1
f 26/4/1 18/4/1 25/4/1
f 27/3/1 20/3/1 19/3/1
f 28/4/1 21/4/1 20/4/1
f 28/3/1 20/3/1 27/3/1
f 29/3/1 22/3/1 21/3/1
f 29/4/1 21/4/1 28/4/1
f 30/4/1 23/4/1 22/4/1
f 30/3/1 22/3/1 29/3/1
f 31/3/1 24/3/1 23/3/1
f 31/4/1 23/4/1 30/4/1
f 32/4/1 25/4/1 24/4/1
f 32/3/1 24/3/1 31/3/1
f 33/3/1 26/3/1 25/3/1
f 33/4/1 25/4/1 32/4/1
f 34/3/1 26/3/1 33/3/1
f 37/3/1 36/3/1 35/3/1
f 38/3/1 36/3/1 37/3/1
f 41/3/1 40/3/1 39/3/1
f 42/3/1 40/3/1 41/3/1
f 45/3/1 44/3/1 43/3/1
f 46/3/1 44/3/1 45/3/1
f 49/3/1 48/3/1 47/3/1
f 50/3/1 48/3/1 49/3/1
f 53/3/1 52/3/1 51/3/1
f 54/3/1 52/3/1 53/3/1
f 57/3/1 56/3/1 55/3/1
f 58/3/1 56/3/1 57/3/1
f 61/3/1 60/3/1 59/3/1
f 62/3/1 60/3/1 61/3/1
f 65/3/1 64/3/1 63/3/1
f 66/3/1 64/3/1 65/3/1
f 69/3/1 68/3/1 67/3/1
f 70/3/1 68/3/1 69/3/1
f 71/4/2 72/4/2 78/4/2
f 78/4/2 72/4/2 79/4/2
f 73/4/2 74/4/2 80/4/2
f 80/4/2 74/4/2 81/4/2
f 75/4/2 76/4/2 82/4/2
f 82/4/2 76/4/2 83/4/2
f 80/4/2 81/4/2 84/4/2
f 78/4/2 79/4/2 84/4/2
f 82/4/2 83/4/2 84/4/2
f 81/4/2 82/4/2 84/4/2
f 77/4/2 78/4/2 84/4/2
f 79/4/2 80/4/2 84/4/2
f 84/4/2 83/4/2 85/4/2
f 85/4/2 83/4/2 86/4/2
f 86/4/2 83/4/2 87/4/2
f 87/4/2 83/4/2 88/4/2
f 88/4/2 83/4/2 89/4/2
f 89/4/2 83/4/2 90/4/2
f 85/4/2 86/4/2 92/4/2
f 92/4/2 86/4/2 93/4/2
f 87/4/2 88/4/2 94/4/2
f 94/4/2 88/4/2 95/4/2
f 89/4/2 90/4/2 96/4/2
f 96/4/2 90/4/2 97/4/2
f 92/4/2 93/4/2 98/4/2
f 94/4/2 95/4/2 98/4/2
f 96/4/2 97/4/2 98/4/2
f 95/4/2 96/4/2 98/4/2
f 91/4/2 92/4/2 98/4/2
f 93/4/2 94/4/2 98/4/2
f 98/4/2 97/4/2 99/4/2
f 99/4/2 97/4/2 100/4/2
f 100/4/2 97/4/2 101/4/2
f 101/4/2 97/4/2 102/4/2
f 102/4/2 97/4/2 103/4/2
f 103/4/2 97/4/2 104/4/2
f 104/4/2 97/4/2 105/4/2
f 99/4/2 100/4/2 106/4/2
f 106/4/2 100/4/2 107/4/2
f 101/4/2 102/4/2 108/4/2
f 108/4/2 102/4/2 109/4/2
f 103/4/2 104/4/2 110/4/2
f 110/4/2 104/4/2 111/4/2
f 112/3/2 113/3/2 123/3/2
f 123/3/2 113/3/2 124/3/2
f 114/3/2 115/3/2 125/3/2
f 115/3/2 116/3/2 125/3/2
f 125/3/2 116/3/2 126/3/2
f 117/3/2 118/3/2 127/3/2
f 118/3/2 119/3/2 127/3/2
f 119/3/2 120/3/2 127/3/2
f 127/3/2 120/3/2 128/3/2
f 121/3/2 122/3/2 129/3/2
f 129/3/2 122/3/2 130/3/2
f 129/4/2 130/4/2 137/4/2
f 137/4/2 130/4/2 138/4/2
f 131/3/2 132/3/2 139/3/2
f 139/3/2 132/3/2 140/3/2
f 133/3/2 134/3/2 141/3/2
f 141/3/2 134/3/2 142/3/2
f 135/3/2 136/3/2 143/3/2
f 143/3/2 136/3/2 144/3/2
f 145/4/2 146/4/2 154/4/2
f 154/4/2 146/4/2 155/4/2
f 147/3/2 148/3/2 156/3/2
f 156/3/2 148/3/2 157/3/2
f 149/3/2 150/3/2 158/3/2
f 158/3/2 150/3/2 159/3/2
f 151/3/2 152/3/2 160/3/2
f 160/3/2 152/3/2 161/3/2
f 153/3/2 154/3/2 162/3/2
f 154/3/2 155/3/2 162/3/2
f 162/3/2 155/3/2 163/3/2
f 164/3/2 165/3/2 166/3/2
f 166/3/2 165/3/2 167/3/2
f 168/3/2 169/3/2 170/3/2
f 170/3/2 169/3/2 171/3/2
f 172/3/2 173/3/2 174/3/2
f 174/3/2 173/3/2 175/3/2
f 176/3/2 177/3/2 178/3/2
f 178/3/2 177/3/2 179/3/2
f 180/3/2 181/3/2 182/3/2
f 182/3/2 181/3/2 183/3/2
f 184/3/2 185/3/2 186/3/2
f 186/3/2 185/3/2 187/3/2
f 188/3/2 189/3/2 190/3/2
f 190/3/2 189/3/2 191/3/2
f 192/5/2 193/5/2 194/5/2
f 194/5/2 193/5/2 195/5/2
f 195/5/2 193/5/2 196/5/2
f 196/5/2 193/5/2 197/5/2
f 194/2/2 195/2/2 198/2/2
f 195/1/2 196/1/2 199/1/2
f 198/2/2 195/2/2 199/2/2
f 196/3/2 197/3/2 200/3/2
f 199/1/2 196/1/2 200/1/2
f 200/3/2 197/3/2 201/3/2
f 201/3/2 197/3/2 202/3/2
f 202/3/2 197/3/2 203/3/2
f 202/4/2 203/4/2 205/4/2
f 205/4/2 203/4/2 206/4/2
f 204/3/2 205/3/2 207/3/2
f 205/3/2 206/3/2 207/3/2
f 207/3/2 206/3/2 208/3/2
f 208/3/2 206/3/2 209/3/2
f 208/4/2 209/4/2 211/4/2
f 211/4/2 209/4/2 212/4/2
f 210/3/2 211/3/2 213/3/2
f 211/3/2 212/3/2 213/3/2
f 213/3/2 212/3/2 214/3/2
f 222/3/3 217/3/3 216/3/3
f 222/4/3 218/4/3 217/4/3
f 223/3/3 219/3/3 218/3/3
f 223/4/3 218/4/3 222/4/3
f 224/4/3 220/4/3 219/4/3
f 224/3/3 219/3/3 223/3/3
f 225/3/3 221/3/3 220/3/3
f 225/4/3 220/4/3 224/4/3
f 226/5/3 216/5/3 215/5/3
f 226/3/3 222/3/3 216/3/3
f 227/3/3 222/3/3 226/3/3
f 228/3/3 222/3/3 227/3/3
f 229/3/3 224/3/3 223/3/3
f 230/3/3 224/3/3 229/3/3
f 231/3/3 221/3/3 225/3/3
f 232/3/3 221/3/3 231/3/3
f 233/5/3 226/5/3 215/5/3
f 234/2/3 227/2/3 226/2/3
f 234/5/3 226/5/3 233/5/3
f 235/2/3 227/2/3 234/2/3
f 238/3/3 237/3/3 236/3/3
f 239/3/3 237/3/3 238/3/3
f 244/3/3 241/3/3 240/3/3
f 245/3/3 241/3/3 244/3/3
f 246/3/3 243/3/3 242/3/3
f 247/3/3 243/3/3 246/3/3
f 252/3/3 249/3/3 248/3/3
f 253/3/3 249/3/3 252/3/3
f 254/3/3 251/3/3 250/3/3
f 255/3/3 251/3/3 254/3/3
f 258/3/3 257/3/3 256/3/3
f 259/3/3 257/3/3 258/3/3
f 262/3/3 261/3/3 260/3/3
f 263/3/3 261/3/3 262/3/3
f 269/3/3 265/3/3 264/3/3
f 270/4/3 266/4/3 265/4/3
f 270/3/3 265/3/3 269/3/3
f 271/3/3 267/3/3 266/3/3
f 271/4/3 266/4/3 270/4/3
f 272/4/3 268/4/3 267/4/3
f 272/3/3 267/3/3 271/3/3
f 273/4/3 268/4/3 272/4/3
f 278/3/3 272/3/3 271/3/3
f 279/3/3 272/3/3 278/3/3
f 280/3/3 275/3/3 274/3/3
f 283/3/3 277/3/3 276/3/3
f 284/3/3 277/3/3 283/3/3
f 285/3/3 275/3/3 280/3/3
f 286/3/3 275/3/3 285/3/3
f 291/3/3 282/3/3 281/3/3
f 292/3/3 282/3/3 291/3/3
f 295/3/3 288/3/3 287/3/3
f 296/3/3 288/3/3 295/3/3
f 297/3/3 290/3/3 289/3/3
f 298/3/3 290/3/3 297/3/3
f 303/3/3 302/3/3 301/3/3
f 304/3/3 294/3/3 293/3/3
f 305/3/3 294/3/3 304/3/3
f 308/3/3 302/3/3 303/3/3
f 309/3/3 302/3/3 308/3/3
f 310/3/3 307/3/3 306/3/3
f 311/3/3 307/3/3 310/3/3
f 312/3/3 300/3/3 299/3/3
f 313/3/3 300/3/3 312/3/3
f 320/4/3 315/4/3 314/4/3
f 320/4/3 316/4/3 315/4/3
f 321/4/3 316/4/3 320/4/3
f 322/4/3 319/4/3 318/4/3
f 322/4/3 318/4/3 317/4/3
f 323/4/3 319/4/3 322/4/3
f 324/4/3 316/4/3 321/4/3
f 325/4/3 322/4/3 317/4/3
f 326/4/3 324/4/3 321/4/3
f 326/4/3 325/4/3 324/4/3
f 327/4/3 322/4/3 325/4/3
f 327/4/3 325/4/3 326/4/3
f 328/4/3 322/4/3 327/4/3
f 331/4/3 326/4/3 321/4/3
f 332/4/3 329/4/3 328/4/3
f 332/4/3 328/4/3 327/4/3
f 333/4/3 329/4/3 332/4/3
f 334/4/3 331/4/3 330/4/3
f 335/4/3 326/4/3 331/4/3
f 335/4/3 331/4/3 334/4/3
f 336/4/3 326/4/3 335/4/3
f 337/4/3 332/4/3 327/4/3
f 338/4/3 336/4/3 335/4/3
f 338/4/3 337/4/3 336/4/3
f 339/4/3 332/4/3 337/4/3
f 339/4/3 337/4/3 338/4/3
f 340/4/3 332/4/3 339/4/3
f 343/4/3 338/4/3 335/4/3
f 344/4/3 341/4/3 340/4/3
f 344/4/3 340/4/3 339/4/3
f 345/4/3 341/4/3 344/4/3
f 346/4/3 343/4/3 342/4/3
f 347/4/3 338/4/3 343/4/3
f 347/4/3 343/4/3 346/4/3
f 348/4/3 338/4/3 347/4/3
f 349/4/3 344/4/3 339/4/3
f 350/4/3 348/4/3 347/4/3
f 350/4/3 349/4/3 348/4/3
f 351/4/3 344/4/3 349/4/3
f 351/4/3 349/4/3 350/4/3
f 352/4/3 350/4/3 347/4/3
f 353/4/3 350/4/3 352/4/3
f 354/4/3 344/4/3 351/4/3
f 355/4/3 344/4/3 354/4/3
f 356/3/4 357/3/4 358/3/4
f 358/3/4 357/3/4 359/3/4
f 360/3/4 361/3/4 364/3/4
f 364/3/4 361/3/4 365/3/4
f 362/3/4 363/3/4 366/3/4
f 366/3/4 363/3/4 367/3/4
f 368/3/4 369/3/4 372/3/4
f 372/3/4 369/3/4 373/3/4
f 370/3/4 371/3/4 374/3/4
f 374/3/4 371/3/4 375/3/4
f 376/3/4 377/3/4 378/3/4
f 378/3/4 377/3/4 379/3/4
f 380/3/4 381/3/4 382/3/4
f 382/3/4 381/3/4 383/3/4
f 384/3/4 385/3/4 388/3/4
f 388/3/4 385/3/4 389/3/4
f 386/3/4 387/3/4 390/3/4
f 390/3/4 387/3/4 391/3/4
f 392/5/4 393/5/4 399/5/4
f 393/3/4 394/3/4 399/3/4
f 394/4/4 395/4/4 400/4/4
f 399/3/4 394/3/4 400/3/4
f 397/3/4 398/3/4 401/3/4
f 396/4/4 397/4/4 401/4/4
f 401/3/4 398/3/4 402/3/4
f 401/4/4 402/4/4 403/4/4
f 403/4/4 402/4/4 404/4/4
f 400/4/4 395/4/4 405/4/4
f 399/4/4 400/4/4 405/4/4
f 395/3/4 396/3/4 405/3/4
f 401/4/4 403/4/4 406/4/4
f 405/3/4 396/3/4 406/3/4
f 396/4/4 401/4/4 406/4/4
f 403/3/4 404/3/4 407/3/4
f 406/4/4 403/4/4 407/4/4
f 405/4/4 406/4/4 407/4/4
f 407/3/4 404/3/4 408/3/4
f 405/4/4 407/4/4 409/4/4
f 407/4/4 408/4/4 409/4/4
f 409/4/4 408/4/4 410/4/4
f 405/4/4 409/4/4 411/4/4
f 409/3/4 410/3/4 411/3/4
f 411/3/4 410/3/4 412/3/4
f 405/4/4 411/4/4 413/4/4
f 411/4/4 412/4/4 413/4/4
f 413/4/4 412/4/4 414/4/4
f 392/5/4 399/5/4 415/5/4
f 399/4/4 405/4/4 415/4/4
f 405/4/4 413/4/4 415/4/4
f 415/4/4 413/4/4 416/4/4
f 416/4/4 413/4/4 417/4/4
f 417/4/4 413/4/4 418/4/4
f 392/5/4 415/5/4 419/5/4
f 415/3/4 416/3/4 420/3/4
f 419/5/4 415/5/4 420/5/4
f 416/4/4 417/4/4 421/4/4
f 420/3/4 416/3/4 421/3/4
f 417/3/4 418/3/4 422/3/4
f 421/4/4 417/4/4 422/4/4
f 418/4/4 413/4/4 423/4/4
f 422/3/4 418/3/4 423/3/4
f 413/3/4 414/3/4 424/3/4
f 423/4/4 413/4/4 424/4/4
f 424/3/4 414/3/4 425/3/4
f 428/5/5 427/5/5 426/5/5
f 429/5/5 427/5/5 428/5/5
f 432/3/5 431/3/5 430/3/5
f 433/3/5 431/3/5 432/3/5
f 436/3/5 435/3/5 434/3/5
f 437/3/5 435/3/5 436/3/5
f 440/3/5 439/3/5 438/3/5
f 441/3/5 439/3/5 440/3/5
f 450/3/5 443/3/5 442/3/5
f 451/3/5 443/3/5 450/3/5
f 452/3/5 445/3/5 444/3/5
f 453/3/5 445/3/5 452/3/5
f 454/3/5 447/3/5 446/3/5
f 455/3/5 447/3/5 454/3/5
f 456/3/5 449/3/5 448/3/5
f 457/3/5 449/3/5 456/3/5
f 460/3/5 459/3/5 458/3/5
f 461/3/5 459/3/5 460/3/5
f 464/3/5 463/3/5 462/3/5
f 465/3/5 463/3/5 464/3/5
f 468/3/5 467/3/5 466/3/5
f 469/3/5 467/3/5 468/3/5
f 472/3/5 471/3/5 470/3/5
f 473/3/5 471/3/5 472/3/5
f 480/3/5 475/3/5 474/3/5
f 481/3/5 475/3/5 480/3/5
f 482/3/5 477/3/5 476/3/5
f 483/3/5 477/3/5 482/3/5
f 484/3/5 479/3/5 478/3/5
f 485/3/5 479/3/5 484/3/5
f 486/2/6 487/2/6 488/2/6
f 488/2/6 487/2/6 489/2/6
f 488/1/6 489/1/6 490/1/6
f 489/2/6 487/2/6 490/2/6
f 490/2/6 487/2/6 491/2/6
f 491/2/6 487/2/6 492/2/6
f 492/2/6 487/2/6 493/2/6
f 486/2/6 488/2/6 494/2/6
f 488/1/6 490/1/6 494/1/6
f 490/1/6 491/1/6 494/1/6
f 494/1/6 491/1/6 495/1/6
f 491/2/6 492/2/6 496/2/6
f 492/1/6 493/1/6 497/1/6
f 496/2/6 492/2/6 497/2/6
f 493/2/6 487/2/6 498/2/6
f 497/1/6 493/1/6 498/1/6
f 498/2/6 487/2/6 499/2/6
f 486/2/6 494/2/6 501/2/6
f 494/2/6 495/2/6 501/2/6
f 495/1/6 491/1/6 502/1/6
f 501/2/6 495/2/6 502/2/6
f 491/2/6 496/2/6 503/2/6
f 502/1/6 491/1/6 503/1/6
f 503/2/6 496/2/6 504/2/6
f 496/1/6 497/1/6 505/1/6
f 504/2/6 496/2/6 505/2/6
f 498/1/6 499/1/6 505/1/6
f 497/1/6 498/1/6 505/1/6
f 500/4/6 501/4/6 506/4/6
f 503/2/6 504/2/6 507/2/6
f 506/4/6 501/4/6 507/4/6
f 501/2/6 502/2/6 507/2/6
f 502/2/6 503/2/6 507/2/6
f 504/1/6 505/1/6 508/1/6
f 505/1/6 499/1/6 508/1/6
f 499/2/6 487/2/6 509/2/6
f 508/1/6 499/1/6 509/1/6
f 507/2/6 504/2/6 510/2/6
f 510/2/6 504/2/6 511/2/6
f 504/1/6 508/1/6 512/1/6
f 511/2/6 504/2/6 512/2/6
f 512/1/6 508/1/6 513/1/6
f 513/1/6 508/1/6 514/1/6
f 508/2/6 509/2/6 515/2/6
f 514/1/6 508/1/6 515/1/6
f 510/1/6 511/1/6 517/1/6
f 513/1/6 514/1/6 518/1/6
f 511/2/6 512/2/6 518/2/6
f 512/2/6 513/2/6 518/2/6
f 514/2/6 515/2/6 519/2/6
f 518/1/6 514/1/6 519/1/6
f 516/4/6 517/4/6 520/4/6
f 517/1/6 511/1/6 521/1/6
f 520/4/6 517/4/6 521/4/6
f 511/2/6 518/2/6 522/2/6
f 521/1/6 511/1/6 522/1/6
f 518/2/6 519/2/6 522/2/6
f 522/2/6 519/2/6 523/2/6
f 521/1/6 522/1/6 524/1/6
f 522/1/6 523/1/6 524/1/6
f 523/2/6 519/2/6 525/2/6
f 524/1/6 523/1/6 525/1/6
f 525/2/6 519/2/6 526/2/6
f 519/2/6 515/2/6 527/2/6
f 526/2/6 519/2/6 527/2/6
f 521/1/6 524/1/6 528/1/6
f 525/2/6 526/2/6 529/2/6
f 528/1/6 524/1/6 529/1/6
f 524/2/6 525/2/6 529/2/6
f 529/2/6 526/2/6 530/2/6
f 526/1/6 527/1/6 531/1/6
f 530/2/6 526/2/6 531/2/6
f 529/2/6 530/2/6 532/2/6
f 528/2/6 529/2/6 532/2/6
f 532/2/6 530/2/6 533/2/6
f 531/1/6 527/1/6 534/1/6
f 530/1/6 531/1/6 534/1/6
f 527/2/6 515/2/6 535/2/6
f 534/1/6 527/1/6 535/1/6
f 532/1/6 533/1/6 537/1/6
f 533/2/6 530/2/6 538/2/6
f 537/1/6 533/1/6 538/1/6
f 538/2/6 530/2/6 539/2/6
f 530/1/6 534/1/6 540/1/6
f 539/2/6 530/2/6 540/2/6
f 534/2/6 535/2/6 541/2/6
f 540/1/6 534/1/6 541/1/6
f 515/2/6 509/2/6 542/2/6
f 541/2/6 535/2/6 542/2/6
f 535/2/6 515/2/6 542/2/6
f 509/2/6 487/2/6 543/2/6
f 542/2/6 509/2/6 543/2/6
f 536/4/6 537/4/6 544/4/6
f 538/1/6 539/1/6 545/1/6
f 544/4/6 537/4/6 545/4/6
f 537/1/6 538/1/6 545/1/6
f 545/1/6 539/1/6 546/1/6
f 541/2/6 542/2/6 547/2/6
f 546/1/6 539/1/6 547/1/6
f 540/2/6 541/2/6 547/2/6
f 539/2/6 540/2/6 547/2/6
f 547/2/6 542/2/6 548/2/6
f 548/2/6 542/2/6 549/2/6
f 549/2/6 542/2/6 550/2/6
f 550/2/6 542/2/6 551/2/6
f 542/1/6 543/1/6 552/1/6
f 551/2/6 542/2/6 552/2/6
f 552/1/6 543/1/6 553/1/6
f 545/4/6 546/4/6 554/4/6
f 554/4/6 546/4/6 555/4/6
f 548/4/6 549/4/6 556/4/6
f 556/4/6 549/4/6 557/4/6
f 550/4/6 551/4/6 558/4/6
f 558/4/6 551/4/6 559/4/6
f 560/3/6 561/3/6 562/3/6
f 562/3/6 561/3/6 563/3/6
f 564/3/6 565/3/6 566/3/6
f 566/3/6 565/3/6 567/3/6
f 568/3/6 569/3/6 570/3/6
f 570/3/6 569/3/6 571/3/6
f 572/3/6 573/3/6 578/3/6
f 578/3/6 573/3/6 579/3/6
f 574/3/6 575/3/6 580/3/6
f 580/3/6 575/3/6 581/3/6
f 576/3/6 577/3/6 582/3/6
f 582/3/6 577/3/6 583/3/6
f 584/3/6 585/3/6 586/3/6
f 586/3/6 585/3/6 587/3/6
f 588/3/6 589/3/6 590/3/6
f 590/3/6 589/3/6 591/3/6
f 592/3/6 593/3/6 594/3/6
f 594/3/6 593/3/6 595/3/6
f 596/3/6 597/3/6 604/3/6
f 604/3/6 597/3/6 605/3/6
f 598/3/6 599/3/6 606/3/6
f 606/3/6 599/3/6 607/3/6
f 600/3/6 601/3/6 608/3/6
f 608/3/6 601/3/6 609/3/6
f 602/3/6 603/3/6 610/3/6
f 610/3/6 603/3/6 611/3/6
f 612/3/6 613/3/6 614/3/6
f 614/3/6 613/3/6 615/3/6
f 615/3/6 613/3/6 616/3/6
f 614/4/6 615/4/6 617/4/6
f 617/4/6 615/4/6 618/4/6
f 617/3/6 618/3/6 620/3/6
f 618/3/6 619/3/6 620/3/6
f 620/3/6 619/3/6 621/3/6
f 621/3/6 619/3/6 622/3/6
f 620/4/6 621/4/6 623/4/6
f 623/4/6 621/4/6 624/4/6
f 623/3/6 624/3/6 626/3/6
f 624/3/6 625/3/6 626/3/6
f 626/3/6 625/3/6 627/3/6
f 627/3/6 625/3/6 628/3/6
f 626/4/6 627/4/6 629/4/6
f 629/4/6 627/4/6 630/4/6
f 630/3/6 631/3/6 638/3/6
f 629/3/6 630/3/6 638/3/6
f 632/3/6 633/3/6 639/3/6
f 639/3/6 633/3/6 640/3/6
f 634/3/6 635/3/6 641/3/6
f 641/3/6 635/3/6 642/3/6
f 636/3/6 637/3/6 643/3/6
f 629/3/6 638/3/6 644/3/6
f 638/4/6 639/4/6 645/4/6
f 644/3/6 638/3/6 645/3/6
f 639/3/6 640/3/6 646/3/6
f 645/4/6 639/4/6 646/4/6
f 640/4/6 641/4/6 647/4/6
f 646/3/6 640/3/6 647/3/6
f 641/3/6 642/3/6 648/3/6
f 647/4/6 641/4/6 648/4/6
f 642/4/6 643/4/6 649/4/6
f 648/3/6 642/3/6 649/3/6
f 643/3/6 637/3/6 650/3/6
f 649/4/6 643/4/6 650/4/6
f 650/3/6 637/3/6 651/3/6
