# MagicaVoxel @ Ephtracy

# group
g YAVD_Tiles-12

# material
mtllib YAVD_Tiles-12.mtl
usemtl palette

# normals
vn -1 0 0
vn 1 0 0
vn 0 0 1
vn 0 0 -1
vn 0 -1 0
vn 0 1 0

# texcoords
vt 0.939453 0.5
vt 0.943359 0.5

# verts
v -4 2 -0
v -4 2 -1
v -4 3 -0
v -4 3 -1
v -4 5 -0
v -4 5 -1
v -4 6 -0
v -4 6 -1
v -4 8 -0
v -4 8 -1
v -4 9 -0
v -4 9 -1
v -4 11 -0
v -4 11 -1
v -4 12 -0
v -4 12 -1
v -3 0 -0
v -3 0 -1
v -3 1 -0
v -3 1 -1
v -3 2 1
v -3 2 -0
v -3 2 -1
v -3 3 1
v -3 3 -0
v -3 3 -1
v -3 5 1
v -3 5 -0
v -3 5 -1
v -3 6 1
v -3 6 -0
v -3 6 -1
v -3 8 1
v -3 8 -0
v -3 8 -1
v -3 9 1
v -3 9 -0
v -3 9 -1
v -3 11 1
v -3 11 -0
v -3 11 -1
v -3 12 1
v -3 12 -0
v -1 0 -0
v -1 0 -1
v -1 1 -0
v -1 1 -1
v -1 2 1
v -1 2 -0
v -1 2 -1
v -1 3 1
v -1 3 -0
v -1 3 -1
v -1 5 -0
v -1 5 -1
v -1 6 -0
v -1 6 -1
v -1 8 1
v -1 8 -0
v -1 8 -1
v -1 9 1
v -1 9 -0
v -1 9 -1
v -1 11 -0
v -1 11 -1
v 0 5 1
v 0 5 -0
v 0 6 1
v 0 6 -0
v 0 11 1
v 0 11 -0
v 0 12 1
v 0 12 -0
v 2 0 -0
v 2 0 -1
v 2 1 -0
v 2 1 -1
v 2 2 1
v 2 2 -0
v 2 2 -1
v 2 3 1
v 2 3 -0
v 2 3 -1
v 2 5 1
v 2 5 -0
v 2 5 -1
v 2 6 1
v 2 6 -0
v 2 6 -1
v 2 8 1
v 2 8 -0
v 2 8 -1
v 2 9 1
v 2 9 -0
v 2 9 -1
v 2 11 1
v 2 11 -0
v 2 11 -1
v 2 12 1
v 2 12 -0
v -2 0 -0
v -2 0 -1
v -2 1 -0
v -2 1 -1
v -2 2 1
v -2 2 -0
v -2 2 -1
v -2 3 1
v -2 3 -0
v -2 3 -1
v -2 5 1
v -2 5 -0
v -2 5 -1
v -2 6 1
v -2 6 -0
v -2 6 -1
v -2 8 1
v -2 8 -0
v -2 8 -1
v -2 9 1
v -2 9 -0
v -2 9 -1
v -2 11 1
v -2 11 -0
v -2 11 -1
v -2 12 1
v -2 12 -0
v 0 2 1
v 0 2 -0
v 0 3 1
v 0 3 -0
v 0 8 1
v 0 8 -0
v 0 9 1
v 0 9 -0
v 1 0 -0
v 1 0 -1
v 1 1 -0
v 1 1 -1
v 1 2 -0
v 1 2 -1
v 1 3 -0
v 1 3 -1
v 1 5 1
v 1 5 -0
v 1 5 -1
v 1 6 1
v 1 6 -0
v 1 6 -1
v 1 8 -0
v 1 8 -1
v 1 9 -0
v 1 9 -1
v 1 11 1
v 1 11 -0
v 1 11 -1
v 1 12 1
v 1 12 -0
v 3 0 -0
v 3 0 -1
v 3 1 -0
v 3 1 -1
v 3 2 1
v 3 2 -0
v 3 2 -1
v 3 3 1
v 3 3 -0
v 3 3 -1
v 3 5 1
v 3 5 -0
v 3 5 -1
v 3 6 1
v 3 6 -0
v 3 6 -1
v 3 8 1
v 3 8 -0
v 3 8 -1
v 3 9 1
v 3 9 -0
v 3 9 -1
v 3 11 1
v 3 11 -0
v 3 11 -1
v 3 12 1
v 3 12 -0
v 4 2 -0
v 4 2 -1
v 4 3 -0
v 4 3 -1
v 4 5 -0
v 4 5 -1
v 4 6 -0
v 4 6 -1
v 4 8 -0
v 4 8 -1
v 4 9 -0
v 4 9 -1
v 4 11 -0
v 4 11 -1
v 4 12 -0
v 4 12 -1
v -3 2 1
v -3 3 1
v -3 5 1
v -3 6 1
v -3 8 1
v -3 9 1
v -3 11 1
v -3 12 1
v -2 2 1
v -2 3 1
v -2 5 1
v -2 6 1
v -2 8 1
v -2 9 1
v -2 11 1
v -2 12 1
v -1 2 1
v -1 3 1
v -1 8 1
v -1 9 1
v 0 2 1
v 0 3 1
v 0 5 1
v 0 6 1
v 0 8 1
v 0 9 1
v 0 11 1
v 0 12 1
v 1 5 1
v 1 6 1
v 1 11 1
v 1 12 1
v 2 2 1
v 2 3 1
v 2 5 1
v 2 6 1
v 2 8 1
v 2 9 1
v 2 11 1
v 2 12 1
v 3 2 1
v 3 3 1
v 3 5 1
v 3 6 1
v 3 8 1
v 3 9 1
v 3 11 1
v 3 12 1
v -4 2 -0
v -4 3 -0
v -4 5 -0
v -4 6 -0
v -4 8 -0
v -4 9 -0
v -4 11 -0
v -4 12 -0
v -3 0 -0
v -3 1 -0
v -3 2 -0
v -3 3 -0
v -3 5 -0
v -3 6 -0
v -3 8 -0
v -3 9 -0
v -3 11 -0
v -3 12 -0
v -2 0 -0
v -2 1 -0
v -2 2 -0
v -2 3 -0
v -2 5 -0
v -2 6 -0
v -2 8 -0
v -2 9 -0
v -2 11 -0
v -2 12 -0
v -1 0 -0
v -1 1 -0
v -1 2 -0
v -1 3 -0
v -1 5 -0
v -1 6 -0
v -1 8 -0
v -1 9 -0
v -1 11 -0
v -1 12 -0
v 0 2 -0
v 0 3 -0
v 0 5 -0
v 0 6 -0
v 0 8 -0
v 0 9 -0
v 0 11 -0
v 0 12 -0
v 1 0 -0
v 1 1 -0
v 1 2 -0
v 1 3 -0
v 1 5 -0
v 1 6 -0
v 1 8 -0
v 1 9 -0
v 1 11 -0
v 1 12 -0
v 2 0 -0
v 2 1 -0
v 2 2 -0
v 2 3 -0
v 2 5 -0
v 2 6 -0
v 2 8 -0
v 2 9 -0
v 2 11 -0
v 2 12 -0
v 3 0 -0
v 3 1 -0
v 3 2 -0
v 3 3 -0
v 3 5 -0
v 3 6 -0
v 3 8 -0
v 3 9 -0
v 3 11 -0
v 3 12 -0
v 4 2 -0
v 4 3 -0
v 4 5 -0
v 4 6 -0
v 4 8 -0
v 4 9 -0
v 4 11 -0
v 4 12 -0
v -4 2 -1
v -4 3 -1
v -4 5 -1
v -4 6 -1
v -4 8 -1
v -4 9 -1
v -4 11 -1
v -4 12 -1
v -3 0 -1
v -3 1 -1
v -3 2 -1
v -3 3 -1
v -3 5 -1
v -3 6 -1
v -3 8 -1
v -3 9 -1
v -3 11 -1
v -3 12 -1
v -2 0 -1
v -2 1 -1
v -2 2 -1
v -2 3 -1
v -2 5 -1
v -2 6 -1
v -2 8 -1
v -2 9 -1
v -2 11 -1
v -2 12 -1
v -1 0 -1
v -1 1 -1
v -1 2 -1
v -1 3 -1
v -1 5 -1
v -1 6 -1
v -1 8 -1
v -1 9 -1
v -1 11 -1
v -1 12 -1
v 1 0 -1
v 1 1 -1
v 1 2 -1
v 1 3 -1
v 1 5 -1
v 1 6 -1
v 1 8 -1
v 1 9 -1
v 1 11 -1
v 1 12 -1
v 2 0 -1
v 2 1 -1
v 2 2 -1
v 2 3 -1
v 2 5 -1
v 2 6 -1
v 2 8 -1
v 2 9 -1
v 2 11 -1
v 2 12 -1
v 3 0 -1
v 3 1 -1
v 3 2 -1
v 3 3 -1
v 3 5 -1
v 3 6 -1
v 3 8 -1
v 3 9 -1
v 3 11 -1
v 3 12 -1
v 4 2 -1
v 4 3 -1
v 4 5 -1
v 4 6 -1
v 4 8 -1
v 4 9 -1
v 4 11 -1
v 4 12 -1
v -3 0 -0
v -2 0 -0
v -1 0 -0
v 1 0 -0
v 2 0 -0
v 3 0 -0
v -3 0 -1
v -2 0 -1
v -1 0 -1
v 1 0 -1
v 2 0 -1
v 3 0 -1
v -3 2 1
v -2 2 1
v -1 2 1
v 0 2 1
v 2 2 1
v 3 2 1
v -4 2 -0
v -3 2 -0
v -2 2 -0
v -1 2 -0
v 0 2 -0
v 1 2 -0
v 2 2 -0
v 3 2 -0
v 4 2 -0
v -4 2 -1
v -3 2 -1
v -2 2 -1
v -1 2 -1
v 1 2 -1
v 2 2 -1
v 3 2 -1
v 4 2 -1
v -3 5 1
v -2 5 1
v 0 5 1
v 1 5 1
v 2 5 1
v 3 5 1
v -4 5 -0
v -3 5 -0
v -2 5 -0
v -1 5 -0
v 0 5 -0
v 1 5 -0
v 2 5 -0
v 3 5 -0
v 4 5 -0
v -4 5 -1
v -3 5 -1
v -2 5 -1
v -1 5 -1
v 1 5 -1
v 2 5 -1
v 3 5 -1
v 4 5 -1
v -3 8 1
v -2 8 1
v -1 8 1
v 0 8 1
v 2 8 1
v 3 8 1
v -4 8 -0
v -3 8 -0
v -2 8 -0
v -1 8 -0
v 0 8 -0
v 1 8 -0
v 2 8 -0
v 3 8 -0
v 4 8 -0
v -4 8 -1
v -3 8 -1
v -2 8 -1
v -1 8 -1
v 1 8 -1
v 2 8 -1
v 3 8 -1
v 4 8 -1
v -3 11 1
v -2 11 1
v 0 11 1
v 1 11 1
v 2 11 1
v 3 11 1
v -4 11 -0
v -3 11 -0
v -2 11 -0
v -1 11 -0
v 0 11 -0
v 1 11 -0
v 2 11 -0
v 3 11 -0
v 4 11 -0
v -4 11 -1
v -3 11 -1
v -2 11 -1
v -1 11 -1
v 1 11 -1
v 2 11 -1
v 3 11 -1
v 4 11 -1
v -3 3 1
v -2 3 1
v -1 3 1
v 0 3 1
v 2 3 1
v 3 3 1
v -4 3 -0
v -3 3 -0
v -2 3 -0
v -1 3 -0
v 0 3 -0
v 1 3 -0
v 2 3 -0
v 3 3 -0
v 4 3 -0
v -4 3 -1
v -3 3 -1
v -2 3 -1
v -1 3 -1
v 1 3 -1
v 2 3 -1
v 3 3 -1
v 4 3 -1
v -3 6 1
v -2 6 1
v 0 6 1
v 1 6 1
v 2 6 1
v 3 6 1
v -4 6 -0
v -3 6 -0
v -2 6 -0
v -1 6 -0
v 0 6 -0
v 1 6 -0
v 2 6 -0
v 3 6 -0
v 4 6 -0
v -4 6 -1
v -3 6 -1
v -2 6 -1
v -1 6 -1
v 1 6 -1
v 2 6 -1
v 3 6 -1
v 4 6 -1
v -3 9 1
v -2 9 1
v -1 9 1
v 0 9 1
v 2 9 1
v 3 9 1
v -4 9 -0
v -3 9 -0
v -2 9 -0
v -1 9 -0
v 0 9 -0
v 1 9 -0
v 2 9 -0
v 3 9 -0
v 4 9 -0
v -4 9 -1
v -3 9 -1
v -2 9 -1
v -1 9 -1
v 1 9 -1
v 2 9 -1
v 3 9 -1
v 4 9 -1
v -3 12 1
v -2 12 1
v 0 12 1
v 1 12 1
v 2 12 1
v 3 12 1
v -4 12 -0
v -3 12 -0
v -2 12 -0
v -1 12 -0
v 0 12 -0
v 1 12 -0
v 2 12 -0
v 3 12 -0
v 4 12 -0
v -4 12 -1
v -3 12 -1
v -2 12 -1
v -1 12 -1
v 1 12 -1
v 2 12 -1
v 3 12 -1
v 4 12 -1

# faces
f 3/1/1 2/1/1 1/1/1
f 4/1/1 2/1/1 3/1/1
f 7/1/1 6/1/1 5/1/1
f 8/1/1 6/1/1 7/1/1
f 11/1/1 10/1/1 9/1/1
f 12/1/1 10/1/1 11/1/1
f 15/1/1 14/1/1 13/1/1
f 16/1/1 14/1/1 15/1/1
f 19/2/1 18/2/1 17/2/1
f 20/2/1 18/2/1 19/2/1
f 22/1/1 20/1/1 19/1/1
f 23/1/1 20/1/1 22/1/1
f 24/2/1 22/2/1 21/2/1
f 25/2/1 22/2/1 24/2/1
f 28/1/1 26/1/1 25/1/1
f 29/1/1 26/1/1 28/1/1
f 30/2/1 28/2/1 27/2/1
f 31/2/1 28/2/1 30/2/1
f 34/1/1 32/1/1 31/1/1
f 35/1/1 32/1/1 34/1/1
f 36/2/1 34/2/1 33/2/1
f 37/2/1 34/2/1 36/2/1
f 40/1/1 38/1/1 37/1/1
f 41/1/1 38/1/1 40/1/1
f 42/2/1 40/2/1 39/2/1
f 43/2/1 40/2/1 42/2/1
f 46/2/1 45/2/1 44/2/1
f 47/2/1 45/2/1 46/2/1
f 49/1/1 47/1/1 46/1/1
f 50/1/1 47/1/1 49/1/1
f 51/2/1 49/2/1 48/2/1
f 52/2/1 49/2/1 51/2/1
f 54/1/1 53/1/1 52/1/1
f 55/1/1 53/1/1 54/1/1
f 59/1/1 57/1/1 56/1/1
f 60/1/1 57/1/1 59/1/1
f 61/2/1 59/2/1 58/2/1
f 62/2/1 59/2/1 61/2/1
f 64/1/1 63/1/1 62/1/1
f 65/1/1 63/1/1 64/1/1
f 68/2/1 67/2/1 66/2/1
f 69/2/1 67/2/1 68/2/1
f 72/2/1 71/2/1 70/2/1
f 73/2/1 71/2/1 72/2/1
f 76/2/1 75/2/1 74/2/1
f 77/2/1 75/2/1 76/2/1
f 79/1/1 77/1/1 76/1/1
f 80/1/1 77/1/1 79/1/1
f 81/2/1 79/2/1 78/2/1
f 82/2/1 79/2/1 81/2/1
f 85/1/1 83/1/1 82/1/1
f 86/1/1 83/1/1 85/1/1
f 87/2/1 85/2/1 84/2/1
f 88/2/1 85/2/1 87/2/1
f 91/1/1 89/1/1 88/1/1
f 92/1/1 89/1/1 91/1/1
f 93/2/1 91/2/1 90/2/1
f 94/2/1 91/2/1 93/2/1
f 97/1/1 95/1/1 94/1/1
f 98/1/1 95/1/1 97/1/1
f 99/2/1 97/2/1 96/2/1
f 100/2/1 97/2/1 99/2/1
f 101/2/2 102/2/2 103/2/2
f 103/2/2 102/2/2 104/2/2
f 103/1/2 104/1/2 106/1/2
f 106/1/2 104/1/2 107/1/2
f 105/2/2 106/2/2 108/2/2
f 108/2/2 106/2/2 109/2/2
f 109/1/2 110/1/2 112/1/2
f 112/1/2 110/1/2 113/1/2
f 111/2/2 112/2/2 114/2/2
f 114/2/2 112/2/2 115/2/2
f 115/1/2 116/1/2 118/1/2
f 118/1/2 116/1/2 119/1/2
f 117/2/2 118/2/2 120/2/2
f 120/2/2 118/2/2 121/2/2
f 121/1/2 122/1/2 124/1/2
f 124/1/2 122/1/2 125/1/2
f 123/2/2 124/2/2 126/2/2
f 126/2/2 124/2/2 127/2/2
f 128/2/2 129/2/2 130/2/2
f 130/2/2 129/2/2 131/2/2
f 132/2/2 133/2/2 134/2/2
f 134/2/2 133/2/2 135/2/2
f 136/2/2 137/2/2 138/2/2
f 138/2/2 137/2/2 139/2/2
f 138/1/2 139/1/2 140/1/2
f 140/1/2 139/1/2 141/1/2
f 142/1/2 143/1/2 145/1/2
f 145/1/2 143/1/2 146/1/2
f 144/2/2 145/2/2 147/2/2
f 147/2/2 145/2/2 148/2/2
f 148/1/2 149/1/2 150/1/2
f 150/1/2 149/1/2 151/1/2
f 152/1/2 153/1/2 155/1/2
f 155/1/2 153/1/2 156/1/2
f 154/2/2 155/2/2 157/2/2
f 157/2/2 155/2/2 158/2/2
f 159/2/2 160/2/2 161/2/2
f 161/2/2 160/2/2 162/2/2
f 161/1/2 162/1/2 164/1/2
f 164/1/2 162/1/2 165/1/2
f 163/2/2 164/2/2 166/2/2
f 166/2/2 164/2/2 167/2/2
f 167/1/2 168/1/2 170/1/2
f 170/1/2 168/1/2 171/1/2
f 169/2/2 170/2/2 172/2/2
f 172/2/2 170/2/2 173/2/2
f 173/1/2 174/1/2 176/1/2
f 176/1/2 174/1/2 177/1/2
f 175/2/2 176/2/2 178/2/2
f 178/2/2 176/2/2 179/2/2
f 179/1/2 180/1/2 182/1/2
f 182/1/2 180/1/2 183/1/2
f 181/2/2 182/2/2 184/2/2
f 184/2/2 182/2/2 185/2/2
f 186/1/2 187/1/2 188/1/2
f 188/1/2 187/1/2 189/1/2
f 190/1/2 191/1/2 192/1/2
f 192/1/2 191/1/2 193/1/2
f 194/1/2 195/1/2 196/1/2
f 196/1/2 195/1/2 197/1/2
f 198/1/2 199/1/2 200/1/2
f 200/1/2 199/1/2 201/1/2
f 210/2/3 203/2/3 202/2/3
f 211/2/3 203/2/3 210/2/3
f 212/2/3 205/2/3 204/2/3
f 213/2/3 205/2/3 212/2/3
f 214/2/3 207/2/3 206/2/3
f 215/2/3 207/2/3 214/2/3
f 216/2/3 209/2/3 208/2/3
f 217/2/3 209/2/3 216/2/3
f 222/2/3 219/2/3 218/2/3
f 223/2/3 219/2/3 222/2/3
f 226/2/3 221/2/3 220/2/3
f 227/2/3 221/2/3 226/2/3
f 230/2/3 225/2/3 224/2/3
f 231/2/3 225/2/3 230/2/3
f 232/2/3 229/2/3 228/2/3
f 233/2/3 229/2/3 232/2/3
f 242/2/3 235/2/3 234/2/3
f 243/2/3 235/2/3 242/2/3
f 244/2/3 237/2/3 236/2/3
f 245/2/3 237/2/3 244/2/3
f 246/2/3 239/2/3 238/2/3
f 247/2/3 239/2/3 246/2/3
f 248/2/3 241/2/3 240/2/3
f 249/2/3 241/2/3 248/2/3
f 260/1/3 251/1/3 250/1/3
f 261/1/3 251/1/3 260/1/3
f 262/1/3 253/1/3 252/1/3
f 263/1/3 253/1/3 262/1/3
f 264/1/3 255/1/3 254/1/3
f 265/1/3 255/1/3 264/1/3
f 266/1/3 257/1/3 256/1/3
f 267/1/3 257/1/3 266/1/3
f 268/2/3 259/2/3 258/2/3
f 269/1/3 260/1/3 259/1/3
f 269/2/3 259/2/3 268/2/3
f 270/1/3 260/1/3 269/1/3
f 271/1/3 262/1/3 261/1/3
f 272/1/3 262/1/3 271/1/3
f 273/1/3 264/1/3 263/1/3
f 274/1/3 264/1/3 273/1/3
f 275/1/3 266/1/3 265/1/3
f 276/1/3 266/1/3 275/1/3
f 280/1/3 271/1/3 270/1/3
f 281/1/3 271/1/3 280/1/3
f 282/1/3 273/1/3 272/1/3
f 283/1/3 273/1/3 282/1/3
f 284/1/3 275/1/3 274/1/3
f 285/1/3 275/1/3 284/1/3
f 286/1/3 277/1/3 276/1/3
f 287/1/3 277/1/3 286/1/3
f 288/1/3 280/1/3 279/1/3
f 289/1/3 282/1/3 281/1/3
f 290/2/3 283/2/3 282/2/3
f 290/1/3 282/1/3 289/1/3
f 291/1/3 284/1/3 283/1/3
f 291/2/3 283/2/3 290/2/3
f 292/1/3 284/1/3 291/1/3
f 293/1/3 286/1/3 285/1/3
f 294/2/3 287/2/3 286/2/3
f 294/1/3 286/1/3 293/1/3
f 295/2/3 287/2/3 294/2/3
f 296/2/3 279/2/3 278/2/3
f 297/1/3 288/1/3 279/1/3
f 297/2/3 279/2/3 296/2/3
f 298/2/3 289/2/3 288/2/3
f 298/1/3 288/1/3 297/1/3
f 299/1/3 290/1/3 289/1/3
f 299/2/3 289/2/3 298/2/3
f 300/1/3 290/1/3 299/1/3
f 301/1/3 292/1/3 291/1/3
f 302/2/3 293/2/3 292/2/3
f 302/1/3 292/1/3 301/1/3
f 303/1/3 294/1/3 293/1/3
f 303/2/3 293/2/3 302/2/3
f 304/1/3 294/1/3 303/1/3
f 308/1/3 299/1/3 298/1/3
f 309/1/3 299/1/3 308/1/3
f 310/1/3 301/1/3 300/1/3
f 311/1/3 301/1/3 310/1/3
f 312/1/3 303/1/3 302/1/3
f 313/1/3 303/1/3 312/1/3
f 314/1/3 305/1/3 304/1/3
f 315/1/3 305/1/3 314/1/3
f 316/2/3 307/2/3 306/2/3
f 317/1/3 308/1/3 307/1/3
f 317/2/3 307/2/3 316/2/3
f 318/1/3 308/1/3 317/1/3
f 319/1/3 310/1/3 309/1/3
f 320/1/3 310/1/3 319/1/3
f 321/1/3 312/1/3 311/1/3
f 322/1/3 312/1/3 321/1/3
f 323/1/3 314/1/3 313/1/3
f 324/1/3 314/1/3 323/1/3
f 326/1/3 319/1/3 318/1/3
f 327/1/3 319/1/3 326/1/3
f 328/1/3 321/1/3 320/1/3
f 329/1/3 321/1/3 328/1/3
f 330/1/3 323/1/3 322/1/3
f 331/1/3 323/1/3 330/1/3
f 332/1/3 325/1/3 324/1/3
f 333/1/3 325/1/3 332/1/3
f 334/1/4 335/1/4 344/1/4
f 344/1/4 335/1/4 345/1/4
f 336/1/4 337/1/4 346/1/4
f 346/1/4 337/1/4 347/1/4
f 338/1/4 339/1/4 348/1/4
f 348/1/4 339/1/4 349/1/4
f 340/1/4 341/1/4 350/1/4
f 350/1/4 341/1/4 351/1/4
f 342/2/4 343/2/4 352/2/4
f 343/1/4 344/1/4 353/1/4
f 352/2/4 343/2/4 353/2/4
f 344/2/4 345/2/4 354/2/4
f 353/1/4 344/1/4 354/1/4
f 345/1/4 346/1/4 355/1/4
f 354/2/4 345/2/4 355/2/4
f 346/2/4 347/2/4 356/2/4
f 355/1/4 346/1/4 356/1/4
f 347/1/4 348/1/4 357/1/4
f 356/2/4 347/2/4 357/2/4
f 348/2/4 349/2/4 358/2/4
f 357/1/4 348/1/4 358/1/4
f 349/1/4 350/1/4 359/1/4
f 358/2/4 349/2/4 359/2/4
f 350/2/4 351/2/4 360/2/4
f 359/1/4 350/1/4 360/1/4
f 360/2/4 351/2/4 361/2/4
f 354/1/4 355/1/4 364/1/4
f 364/1/4 355/1/4 365/1/4
f 356/1/4 357/1/4 366/1/4
f 366/1/4 357/1/4 367/1/4
f 358/1/4 359/1/4 368/1/4
f 368/1/4 359/1/4 369/1/4
f 360/1/4 361/1/4 370/1/4
f 370/1/4 361/1/4 371/1/4
f 362/2/4 363/2/4 372/2/4
f 363/1/4 364/1/4 373/1/4
f 372/2/4 363/2/4 373/2/4
f 364/2/4 365/2/4 374/2/4
f 373/1/4 364/1/4 374/1/4
f 365/1/4 366/1/4 375/1/4
f 374/2/4 365/2/4 375/2/4
f 366/2/4 367/2/4 376/2/4
f 375/1/4 366/1/4 376/1/4
f 367/1/4 368/1/4 377/1/4
f 376/2/4 367/2/4 377/2/4
f 368/2/4 369/2/4 378/2/4
f 377/1/4 368/1/4 378/1/4
f 369/1/4 370/1/4 379/1/4
f 378/2/4 369/2/4 379/2/4
f 370/2/4 371/2/4 380/2/4
f 379/1/4 370/1/4 380/1/4
f 380/2/4 371/2/4 381/2/4
f 374/1/4 375/1/4 384/1/4
f 384/1/4 375/1/4 385/1/4
f 376/1/4 377/1/4 386/1/4
f 386/1/4 377/1/4 387/1/4
f 378/1/4 379/1/4 388/1/4
f 388/1/4 379/1/4 389/1/4
f 380/1/4 381/1/4 390/1/4
f 390/1/4 381/1/4 391/1/4
f 382/2/4 383/2/4 392/2/4
f 383/1/4 384/1/4 393/1/4
f 392/2/4 383/2/4 393/2/4
f 384/2/4 385/2/4 394/2/4
f 393/1/4 384/1/4 394/1/4
f 385/1/4 386/1/4 395/1/4
f 394/2/4 385/2/4 395/2/4
f 386/2/4 387/2/4 396/2/4
f 395/1/4 386/1/4 396/1/4
f 387/1/4 388/1/4 397/1/4
f 396/2/4 387/2/4 397/2/4
f 388/2/4 389/2/4 398/2/4
f 397/1/4 388/1/4 398/1/4
f 389/1/4 390/1/4 399/1/4
f 398/2/4 389/2/4 399/2/4
f 390/2/4 391/2/4 400/2/4
f 399/1/4 390/1/4 400/1/4
f 400/2/4 391/2/4 401/2/4
f 394/1/4 395/1/4 402/1/4
f 402/1/4 395/1/4 403/1/4
f 396/1/4 397/1/4 404/1/4
f 404/1/4 397/1/4 405/1/4
f 398/1/4 399/1/4 406/1/4
f 406/1/4 399/1/4 407/1/4
f 400/1/4 401/1/4 408/1/4
f 408/1/4 401/1/4 409/1/4
f 416/2/5 411/2/5 410/2/5
f 417/2/5 411/2/5 416/2/5
f 418/2/5 413/2/5 412/2/5
f 419/2/5 413/2/5 418/2/5
f 420/2/5 415/2/5 414/2/5
f 421/2/5 415/2/5 420/2/5
f 429/2/5 423/2/5 422/2/5
f 430/2/5 423/2/5 429/2/5
f 431/2/5 425/2/5 424/2/5
f 432/2/5 425/2/5 431/2/5
f 434/2/5 427/2/5 426/2/5
f 435/2/5 427/2/5 434/2/5
f 437/1/5 429/1/5 428/1/5
f 438/1/5 429/1/5 437/1/5
f 439/1/5 431/1/5 430/1/5
f 440/1/5 431/1/5 439/1/5
f 441/1/5 434/1/5 433/1/5
f 442/1/5 434/1/5 441/1/5
f 443/1/5 436/1/5 435/1/5
f 444/1/5 436/1/5 443/1/5
f 452/2/5 446/2/5 445/2/5
f 453/2/5 446/2/5 452/2/5
f 455/2/5 448/2/5 447/2/5
f 456/2/5 448/2/5 455/2/5
f 457/2/5 450/2/5 449/2/5
f 458/2/5 450/2/5 457/2/5
f 460/1/5 452/1/5 451/1/5
f 461/1/5 452/1/5 460/1/5
f 462/1/5 454/1/5 453/1/5
f 463/1/5 454/1/5 462/1/5
f 464/1/5 457/1/5 456/1/5
f 465/1/5 457/1/5 464/1/5
f 466/1/5 459/1/5 458/1/5
f 467/1/5 459/1/5 466/1/5
f 475/2/5 469/2/5 468/2/5
f 476/2/5 469/2/5 475/2/5
f 477/2/5 471/2/5 470/2/5
f 478/2/5 471/2/5 477/2/5
f 480/2/5 473/2/5 472/2/5
f 481/2/5 473/2/5 480/2/5
f 483/1/5 475/1/5 474/1/5
f 484/1/5 475/1/5 483/1/5
f 485/1/5 477/1/5 476/1/5
f 486/1/5 477/1/5 485/1/5
f 487/1/5 480/1/5 479/1/5
f 488/1/5 480/1/5 487/1/5
f 489/1/5 482/1/5 481/1/5
f 490/1/5 482/1/5 489/1/5
f 498/2/5 492/2/5 491/2/5
f 499/2/5 492/2/5 498/2/5
f 501/2/5 494/2/5 493/2/5
f 502/2/5 494/2/5 501/2/5
f 503/2/5 496/2/5 495/2/5
f 504/2/5 496/2/5 503/2/5
f 506/1/5 498/1/5 497/1/5
f 507/1/5 498/1/5 506/1/5
f 508/1/5 500/1/5 499/1/5
f 509/1/5 500/1/5 508/1/5
f 510/1/5 503/1/5 502/1/5
f 511/1/5 503/1/5 510/1/5
f 512/1/5 505/1/5 504/1/5
f 513/1/5 505/1/5 512/1/5
f 514/2/6 515/2/6 521/2/6
f 521/2/6 515/2/6 522/2/6
f 516/2/6 517/2/6 523/2/6
f 523/2/6 517/2/6 524/2/6
f 518/2/6 519/2/6 526/2/6
f 526/2/6 519/2/6 527/2/6
f 520/1/6 521/1/6 529/1/6
f 529/1/6 521/1/6 530/1/6
f 522/1/6 523/1/6 531/1/6
f 531/1/6 523/1/6 532/1/6
f 525/1/6 526/1/6 533/1/6
f 533/1/6 526/1/6 534/1/6
f 527/1/6 528/1/6 535/1/6
f 535/1/6 528/1/6 536/1/6
f 537/2/6 538/2/6 544/2/6
f 544/2/6 538/2/6 545/2/6
f 539/2/6 540/2/6 547/2/6
f 547/2/6 540/2/6 548/2/6
f 541/2/6 542/2/6 549/2/6
f 549/2/6 542/2/6 550/2/6
f 543/1/6 544/1/6 552/1/6
f 552/1/6 544/1/6 553/1/6
f 545/1/6 546/1/6 554/1/6
f 554/1/6 546/1/6 555/1/6
f 548/1/6 549/1/6 556/1/6
f 556/1/6 549/1/6 557/1/6
f 550/1/6 551/1/6 558/1/6
f 558/1/6 551/1/6 559/1/6
f 560/2/6 561/2/6 567/2/6
f 567/2/6 561/2/6 568/2/6
f 562/2/6 563/2/6 569/2/6
f 569/2/6 563/2/6 570/2/6
f 564/2/6 565/2/6 572/2/6
f 572/2/6 565/2/6 573/2/6
f 566/1/6 567/1/6 575/1/6
f 575/1/6 567/1/6 576/1/6
f 568/1/6 569/1/6 577/1/6
f 577/1/6 569/1/6 578/1/6
f 571/1/6 572/1/6 579/1/6
f 579/1/6 572/1/6 580/1/6
f 573/1/6 574/1/6 581/1/6
f 581/1/6 574/1/6 582/1/6
f 583/2/6 584/2/6 590/2/6
f 590/2/6 584/2/6 591/2/6
f 585/2/6 586/2/6 593/2/6
f 593/2/6 586/2/6 594/2/6
f 587/2/6 588/2/6 595/2/6
f 595/2/6 588/2/6 596/2/6
f 589/1/6 590/1/6 598/1/6
f 590/2/6 591/2/6 599/2/6
f 598/1/6 590/1/6 599/1/6
f 591/1/6 592/1/6 600/1/6
f 599/2/6 591/2/6 600/2/6
f 593/2/6 594/2/6 601/2/6
f 600/1/6 592/1/6 601/1/6
f 592/2/6 593/2/6 601/2/6
f 594/1/6 595/1/6 602/1/6
f 601/2/6 594/2/6 602/2/6
f 595/2/6 596/2/6 603/2/6
f 602/1/6 595/1/6 603/1/6
f 596/1/6 597/1/6 604/1/6
f 603/2/6 596/2/6 604/2/6
f 604/1/6 597/1/6 605/1/6
