# MagicaVoxel @ Ephtracy

# group
g YAVD_Tiles-18

# material
mtllib YAVD_Tiles-18.mtl
usemtl palette

# normals
vn -1 0 0
vn 1 0 0
vn 0 0 1
vn 0 0 -1
vn 0 -1 0
vn 0 1 0

# texcoords
vt 0.115234 0.5
vt 0.123047 0.5
vt 0.623047 0.5

# verts
v -6 0 6
v -6 0 -6
v -6 1 -0
v -6 1 -1
v -6 2 6
v -6 2 -0
v -6 2 -1
v -6 2 -6
v 6 0 6
v 6 0 -6
v 6 1 6
v 6 1 5
v 6 1 -4
v 6 1 -5
v 6 2 6
v 6 2 5
v 6 2 -4
v 6 2 -5
v 6 2 -6
v -6 0 6
v -6 2 6
v 5 1 6
v 5 2 6
v 6 0 6
v 6 1 6
v 6 2 6
v -6 0 -6
v -6 2 -6
v 1 1 -6
v 1 2 -6
v 2 1 -6
v 2 2 -6
v 6 0 -6
v 6 2 -6
v -6 0 6
v 6 0 6
v -6 0 -6
v 6 0 -6
v -6 2 6
v 5 2 6
v 6 2 6
v -5 2 5
v -4 2 5
v -3 2 5
v -2 2 5
v 5 2 5
v 6 2 5
v -5 2 4
v -4 2 4
v -3 2 4
v -2 2 4
v -5 2 3
v -4 2 3
v 2 2 3
v 3 2 3
v 4 2 3
v 5 2 3
v -5 2 2
v -4 2 2
v 2 2 2
v 3 2 2
v 4 2 2
v 5 2 2
v -6 2 -0
v -5 2 -0
v -4 2 -0
v -6 2 -1
v -5 2 -1
v -4 2 -1
v 1 2 -1
v 2 2 -1
v 1 2 -2
v 2 2 -2
v -5 2 -3
v -4 2 -3
v -5 2 -4
v -4 2 -4
v 1 2 -4
v 2 2 -4
v 5 2 -4
v 6 2 -4
v 1 2 -5
v 2 2 -5
v 5 2 -5
v 6 2 -5
v -6 2 -6
v 1 2 -6
v 2 2 -6
v 6 2 -6

# faces
f 3/2/1 2/2/1 1/2/1
f 4/2/1 2/2/1 3/2/1
f 5/2/1 3/2/1 1/2/1
f 6/1/1 4/1/1 3/1/1
f 6/2/1 3/2/1 5/2/1
f 7/2/1 2/2/1 4/2/1
f 7/1/1 4/1/1 6/1/1
f 8/2/1 2/2/1 7/2/1
f 9/2/2 10/2/2 11/2/2
f 11/2/2 10/2/2 12/2/2
f 12/2/2 10/2/2 13/2/2
f 13/2/2 10/2/2 14/2/2
f 11/3/2 12/3/2 15/3/2
f 12/2/2 13/2/2 16/2/2
f 15/3/2 12/3/2 16/3/2
f 13/1/2 14/1/2 17/1/2
f 16/2/2 13/2/2 17/2/2
f 14/2/2 10/2/2 18/2/2
f 17/1/2 14/1/2 18/1/2
f 18/2/2 10/2/2 19/2/2
f 22/2/3 21/2/3 20/2/3
f 23/2/3 21/2/3 22/2/3
f 24/2/3 22/2/3 20/2/3
f 25/3/3 23/3/3 22/3/3
f 25/2/3 22/2/3 24/2/3
f 26/3/3 23/3/3 25/3/3
f 27/2/4 28/2/4 29/2/4
f 29/2/4 28/2/4 30/2/4
f 27/2/4 29/2/4 31/2/4
f 29/1/4 30/1/4 31/1/4
f 31/1/4 30/1/4 32/1/4
f 27/2/4 31/2/4 33/2/4
f 31/2/4 32/2/4 33/2/4
f 33/2/4 32/2/4 34/2/4
f 37/2/5 36/2/5 35/2/5
f 38/2/5 36/2/5 37/2/5
f 39/2/6 40/2/6 42/2/6
f 42/2/6 40/2/6 43/2/6
f 43/2/6 40/2/6 44/2/6
f 44/2/6 40/2/6 45/2/6
f 40/3/6 41/3/6 46/3/6
f 45/2/6 40/2/6 46/2/6
f 46/3/6 41/3/6 47/3/6
f 39/2/6 42/2/6 48/2/6
f 42/3/6 43/3/6 48/3/6
f 43/2/6 44/2/6 49/2/6
f 48/3/6 43/3/6 49/3/6
f 44/1/6 45/1/6 50/1/6
f 49/2/6 44/2/6 50/2/6
f 46/2/6 47/2/6 51/2/6
f 50/1/6 45/1/6 51/1/6
f 45/2/6 46/2/6 51/2/6
f 48/1/6 49/1/6 52/1/6
f 39/2/6 48/2/6 52/2/6
f 49/2/6 50/2/6 53/2/6
f 52/1/6 49/1/6 53/1/6
f 50/2/6 51/2/6 53/2/6
f 51/2/6 47/2/6 54/2/6
f 53/2/6 51/2/6 54/2/6
f 54/2/6 47/2/6 55/2/6
f 55/2/6 47/2/6 56/2/6
f 56/2/6 47/2/6 57/2/6
f 52/3/6 53/3/6 58/3/6
f 39/2/6 52/2/6 58/2/6
f 53/2/6 54/2/6 59/2/6
f 58/3/6 53/3/6 59/3/6
f 54/3/6 55/3/6 60/3/6
f 59/2/6 54/2/6 60/2/6
f 55/1/6 56/1/6 61/1/6
f 60/3/6 55/3/6 61/3/6
f 56/3/6 57/3/6 62/3/6
f 61/1/6 56/1/6 62/1/6
f 57/2/6 47/2/6 63/2/6
f 62/3/6 57/3/6 63/3/6
f 61/2/6 62/2/6 64/2/6
f 60/2/6 61/2/6 64/2/6
f 62/2/6 63/2/6 64/2/6
f 59/2/6 60/2/6 64/2/6
f 58/2/6 59/2/6 64/2/6
f 39/2/6 58/2/6 64/2/6
f 64/2/6 63/2/6 65/2/6
f 65/2/6 63/2/6 66/2/6
f 64/1/6 65/1/6 67/1/6
f 65/3/6 66/3/6 68/3/6
f 67/1/6 65/1/6 68/1/6
f 66/2/6 63/2/6 69/2/6
f 68/3/6 66/3/6 69/3/6
f 69/2/6 63/2/6 70/2/6
f 70/2/6 63/2/6 71/2/6
f 67/2/6 68/2/6 72/2/6
f 68/2/6 69/2/6 72/2/6
f 70/1/6 71/1/6 72/1/6
f 69/2/6 70/2/6 72/2/6
f 71/2/6 63/2/6 73/2/6
f 72/1/6 71/1/6 73/1/6
f 67/2/6 72/2/6 74/2/6
f 72/2/6 73/2/6 74/2/6
f 74/2/6 73/2/6 75/2/6
f 67/2/6 74/2/6 76/2/6
f 74/1/6 75/1/6 76/1/6
f 75/2/6 73/2/6 77/2/6
f 76/1/6 75/1/6 77/1/6
f 77/2/6 73/2/6 78/2/6
f 73/2/6 63/2/6 79/2/6
f 78/2/6 73/2/6 79/2/6
f 63/2/6 47/2/6 80/2/6
f 79/2/6 63/2/6 80/2/6
f 80/2/6 47/2/6 81/2/6
f 78/3/6 79/3/6 82/3/6
f 77/2/6 78/2/6 82/2/6
f 76/2/6 77/2/6 82/2/6
f 79/2/6 80/2/6 83/2/6
f 82/3/6 79/3/6 83/3/6
f 80/1/6 81/1/6 84/1/6
f 83/2/6 80/2/6 84/2/6
f 84/1/6 81/1/6 85/1/6
f 67/2/6 76/2/6 86/2/6
f 76/2/6 82/2/6 86/2/6
f 82/1/6 83/1/6 87/1/6
f 86/2/6 82/2/6 87/2/6
f 84/2/6 85/2/6 88/2/6
f 87/1/6 83/1/6 88/1/6
f 83/2/6 84/2/6 88/2/6
f 88/2/6 85/2/6 89/2/6
