# MagicaVoxel @ Ephtracy

# group
g YAVD_Tiles-2

# material
mtllib YAVD_Tiles-2.mtl
usemtl palette

# normals
vn -1 0 0
vn 1 0 0
vn 0 0 1
vn 0 0 -1
vn 0 -1 0
vn 0 1 0

# texcoords
vt 0.224609 0.5
vt 0.310547 0.5
vt 0.935547 0.5
vt 0.990234 0.5
vt 0.994141 0.5

# verts
v -8 0 8
v -8 0 -8
v -8 1 8
v -8 1 6
v -8 1 5
v -8 1 1
v -8 1 -3
v -8 1 -5
v -8 1 -6
v -8 1 -8
v -8 2 6
v -8 2 5
v -8 2 1
v -8 2 -3
v -8 2 -5
v -8 2 -6
v -8 3 8
v -8 3 7
v -8 3 6
v -8 3 -6
v -8 3 -7
v -8 3 -8
v -8 4 8
v -8 4 7
v -8 4 6
v -8 4 -6
v -8 4 -7
v -8 4 -8
v -8 6 8
v -8 6 7
v -8 6 6
v -8 6 -6
v -8 6 -7
v -8 6 -8
v -8 7 8
v -8 7 7
v -8 7 6
v -8 7 -6
v -8 7 -7
v -8 7 -8
v -8 9 8
v -8 9 6
v -8 9 -6
v -8 9 -8
v -6 4 7
v -6 4 6
v -6 6 7
v -6 6 6
v -5 2 -6
v -5 2 -7
v -5 3 -6
v -5 3 -7
v -5 7 7
v -5 7 6
v -5 7 -6
v -5 7 -7
v -5 9 7
v -5 9 6
v -5 9 -6
v -5 9 -7
v -4 2 7
v -4 2 6
v -4 3 7
v -4 3 6
v -3 4 -6
v -3 4 -7
v -3 6 -6
v -3 6 -7
v -2 4 7
v -2 4 6
v -2 6 7
v -2 6 6
v -1 7 -6
v -1 7 -7
v -1 9 -6
v -1 9 -7
v 0 2 7
v 0 2 6
v 0 2 -6
v 0 2 -7
v 0 3 7
v 0 3 6
v 0 3 -6
v 0 3 -7
v 0 7 7
v 0 7 6
v 0 9 7
v 0 9 6
v 2 4 7
v 2 4 6
v 2 4 -6
v 2 4 -7
v 2 6 7
v 2 6 6
v 2 6 -6
v 2 6 -7
v 4 7 -6
v 4 7 -7
v 4 9 -6
v 4 9 -7
v 5 2 -6
v 5 2 -7
v 5 3 -6
v 5 3 -7
v 5 7 7
v 5 7 6
v 5 9 7
v 5 9 6
v 6 4 7
v 6 4 6
v 6 6 7
v 6 6 6
v 7 2 7
v 7 2 6
v 7 3 7
v 7 3 6
v 7 4 -6
v 7 4 -7
v 7 6 -6
v 7 6 -7
v -7 4 7
v -7 4 6
v -7 6 7
v -7 6 6
v -6 2 -6
v -6 2 -7
v -6 3 -6
v -6 3 -7
v -6 7 7
v -6 7 6
v -6 7 -6
v -6 7 -7
v -6 9 7
v -6 9 6
v -6 9 -6
v -6 9 -7
v -5 2 7
v -5 2 6
v -5 3 7
v -5 3 6
v -4 4 -6
v -4 4 -7
v -4 6 -6
v -4 6 -7
v -3 4 7
v -3 4 6
v -3 6 7
v -3 6 6
v -2 7 -6
v -2 7 -7
v -2 9 -6
v -2 9 -7
v -1 2 7
v -1 2 6
v -1 2 -6
v -1 2 -7
v -1 3 7
v -1 3 6
v -1 3 -6
v -1 3 -7
v -1 7 7
v -1 7 6
v -1 9 7
v -1 9 6
v 1 4 7
v 1 4 6
v 1 4 -6
v 1 4 -7
v 1 6 7
v 1 6 6
v 1 6 -6
v 1 6 -7
v 3 7 -6
v 3 7 -7
v 3 9 -6
v 3 9 -7
v 4 2 -6
v 4 2 -7
v 4 3 -6
v 4 3 -7
v 4 7 7
v 4 7 6
v 4 9 7
v 4 9 6
v 5 4 7
v 5 4 6
v 5 6 7
v 5 6 6
v 6 2 7
v 6 2 6
v 6 3 7
v 6 3 6
v 6 4 -6
v 6 4 -7
v 6 6 -6
v 6 6 -7
v 8 0 8
v 8 0 -8
v 8 1 8
v 8 1 6
v 8 1 5
v 8 1 -5
v 8 1 -6
v 8 1 -8
v 8 2 6
v 8 2 5
v 8 2 -5
v 8 2 -6
v 8 3 8
v 8 3 7
v 8 3 6
v 8 3 -6
v 8 3 -7
v 8 3 -8
v 8 4 8
v 8 4 7
v 8 4 6
v 8 4 -6
v 8 4 -7
v 8 4 -8
v 8 6 8
v 8 6 7
v 8 6 6
v 8 6 -6
v 8 6 -7
v 8 6 -8
v 8 7 8
v 8 7 7
v 8 7 6
v 8 7 -6
v 8 7 -7
v 8 7 -8
v 8 9 8
v 8 9 6
v 8 9 -6
v 8 9 -8
v -8 0 8
v -8 1 8
v -8 3 8
v -8 4 8
v -8 6 8
v -8 7 8
v -8 9 8
v -7 4 8
v -7 6 8
v -6 7 8
v -6 9 8
v -5 1 8
v -5 3 8
v -5 7 8
v -5 9 8
v -1 7 8
v -1 9 8
v 0 7 8
v 0 9 8
v 4 7 8
v 4 9 8
v 5 7 8
v 5 9 8
v 6 4 8
v 6 6 8
v 7 1 8
v 7 3 8
v 8 0 8
v 8 1 8
v 8 3 8
v 8 4 8
v 8 6 8
v 8 7 8
v 8 9 8
v -8 2 -6
v -8 3 -6
v -8 4 -6
v -8 6 -6
v -8 7 -6
v -8 9 -6
v -6 2 -6
v -6 3 -6
v -6 7 -6
v -6 9 -6
v -5 2 -6
v -5 3 -6
v -5 7 -6
v -5 9 -6
v -4 4 -6
v -4 6 -6
v -3 4 -6
v -3 6 -6
v -2 7 -6
v -2 9 -6
v -1 2 -6
v -1 3 -6
v -1 7 -6
v -1 9 -6
v 0 2 -6
v 0 3 -6
v 1 4 -6
v 1 6 -6
v 2 4 -6
v 2 6 -6
v 3 7 -6
v 3 9 -6
v 4 2 -6
v 4 3 -6
v 4 7 -6
v 4 9 -6
v 5 2 -6
v 5 3 -6
v 6 2 -6
v 6 4 -6
v 6 6 -6
v 7 4 -6
v 7 6 -6
v 8 2 -6
v 8 3 -6
v 8 4 -6
v 8 6 -6
v 8 7 -6
v 8 9 -6
v -8 3 -7
v -8 4 -7
v -8 6 -7
v -8 7 -7
v -6 2 -7
v -6 3 -7
v -6 7 -7
v -6 9 -7
v -5 2 -7
v -5 3 -7
v -5 7 -7
v -5 9 -7
v -4 4 -7
v -4 6 -7
v -3 4 -7
v -3 6 -7
v -2 7 -7
v -2 9 -7
v -1 2 -7
v -1 3 -7
v -1 7 -7
v -1 9 -7
v 0 2 -7
v 0 3 -7
v 1 4 -7
v 1 6 -7
v 2 4 -7
v 2 6 -7
v 3 7 -7
v 3 9 -7
v 4 2 -7
v 4 3 -7
v 4 7 -7
v 4 9 -7
v 5 2 -7
v 5 3 -7
v 6 4 -7
v 6 6 -7
v 7 4 -7
v 7 6 -7
v 8 3 -7
v 8 4 -7
v 8 6 -7
v 8 7 -7
v -8 3 7
v -8 4 7
v -8 6 7
v -8 7 7
v -7 4 7
v -7 6 7
v -6 4 7
v -6 6 7
v -6 7 7
v -6 9 7
v -5 2 7
v -5 3 7
v -5 7 7
v -5 9 7
v -4 2 7
v -4 3 7
v -3 4 7
v -3 6 7
v -2 4 7
v -2 6 7
v -1 2 7
v -1 3 7
v -1 7 7
v -1 9 7
v 0 2 7
v 0 3 7
v 0 7 7
v 0 9 7
v 1 4 7
v 1 6 7
v 2 4 7
v 2 6 7
v 4 7 7
v 4 9 7
v 5 4 7
v 5 6 7
v 5 7 7
v 5 9 7
v 6 2 7
v 6 3 7
v 6 4 7
v 6 6 7
v 7 2 7
v 7 3 7
v 8 3 7
v 8 4 7
v 8 6 7
v 8 7 7
v -8 2 6
v -8 3 6
v -8 4 6
v -8 6 6
v -8 7 6
v -8 9 6
v -7 4 6
v -7 6 6
v -6 2 6
v -6 4 6
v -6 6 6
v -6 7 6
v -6 9 6
v -5 2 6
v -5 3 6
v -5 7 6
v -5 9 6
v -4 2 6
v -4 3 6
v -3 4 6
v -3 6 6
v -2 4 6
v -2 6 6
v -1 2 6
v -1 3 6
v -1 7 6
v -1 9 6
v 0 2 6
v 0 3 6
v 0 7 6
v 0 9 6
v 1 4 6
v 1 6 6
v 2 4 6
v 2 6 6
v 4 7 6
v 4 9 6
v 5 4 6
v 5 6 6
v 5 7 6
v 5 9 6
v 6 2 6
v 6 3 6
v 6 4 6
v 6 6 6
v 7 2 6
v 7 3 6
v 8 2 6
v 8 3 6
v 8 4 6
v 8 6 6
v 8 7 6
v 8 9 6
v -8 0 -8
v -8 1 -8
v -8 3 -8
v -8 4 -8
v -8 6 -8
v -8 7 -8
v -8 9 -8
v -6 1 -8
v -6 3 -8
v -6 7 -8
v -6 9 -8
v -5 8 -8
v -5 9 -8
v -4 4 -8
v -4 6 -8
v -2 8 -8
v -2 9 -8
v -1 8 -8
v -1 9 -8
v 3 8 -8
v 3 9 -8
v 4 7 -8
v 4 9 -8
v 7 1 -8
v 7 3 -8
v 7 4 -8
v 7 6 -8
v 8 0 -8
v 8 1 -8
v 8 3 -8
v 8 4 -8
v 8 6 -8
v 8 7 -8
v 8 9 -8
v -8 0 8
v 8 0 8
v -8 0 -8
v 8 0 -8
v -8 4 7
v -7 4 7
v -6 4 7
v -3 4 7
v -2 4 7
v 1 4 7
v 2 4 7
v 5 4 7
v 6 4 7
v 8 4 7
v -8 4 6
v -7 4 6
v -6 4 6
v -3 4 6
v -2 4 6
v 1 4 6
v 2 4 6
v 5 4 6
v 6 4 6
v 8 4 6
v -8 4 -6
v -4 4 -6
v -3 4 -6
v 1 4 -6
v 2 4 -6
v 6 4 -6
v 7 4 -6
v 8 4 -6
v -8 4 -7
v -4 4 -7
v -3 4 -7
v 1 4 -7
v 2 4 -7
v 6 4 -7
v 7 4 -7
v 8 4 -7
v -8 7 7
v -6 7 7
v -5 7 7
v -1 7 7
v 0 7 7
v 4 7 7
v 5 7 7
v 8 7 7
v -8 7 6
v -6 7 6
v -5 7 6
v -1 7 6
v 0 7 6
v 4 7 6
v 5 7 6
v 8 7 6
v -8 7 -6
v -6 7 -6
v -5 7 -6
v -2 7 -6
v -1 7 -6
v 3 7 -6
v 4 7 -6
v 8 7 -6
v -8 7 -7
v -6 7 -7
v -5 7 -7
v -2 7 -7
v -1 7 -7
v 3 7 -7
v 4 7 -7
v 8 7 -7
v -5 2 7
v -4 2 7
v -1 2 7
v 0 2 7
v 6 2 7
v 7 2 7
v -8 2 6
v -6 2 6
v -5 2 6
v -4 2 6
v -1 2 6
v 0 2 6
v 6 2 6
v 7 2 6
v 8 2 6
v -8 2 5
v -6 2 5
v 6 2 5
v 8 2 5
v 0 2 4
v 3 2 4
v -1 2 3
v 0 2 3
v 3 2 3
v 4 2 3
v -7 2 2
v -4 2 2
v -8 2 1
v -7 2 1
v -4 2 1
v -3 2 1
v -1 2 1
v 0 2 1
v 3 2 1
v 4 2 1
v 0 2 -0
v 3 2 -0
v 3 2 -1
v 6 2 -1
v -5 2 -2
v -3 2 -2
v 1 2 -2
v 3 2 -2
v -8 2 -3
v -5 2 -3
v 5 2 -3
v 6 2 -3
v 1 2 -4
v 2 2 -4
v 4 2 -4
v 5 2 -4
v -8 2 -5
v -5 2 -5
v 2 2 -5
v 4 2 -5
v 6 2 -5
v 8 2 -5
v -8 2 -6
v -6 2 -6
v -5 2 -6
v -1 2 -6
v 0 2 -6
v 4 2 -6
v 5 2 -6
v 6 2 -6
v 8 2 -6
v -6 2 -7
v -5 2 -7
v -1 2 -7
v 0 2 -7
v 4 2 -7
v 5 2 -7
v -8 3 7
v -5 3 7
v -4 3 7
v -1 3 7
v 0 3 7
v 6 3 7
v 7 3 7
v 8 3 7
v -8 3 6
v -5 3 6
v -4 3 6
v -1 3 6
v 0 3 6
v 6 3 6
v 7 3 6
v 8 3 6
v -8 3 -6
v -6 3 -6
v -5 3 -6
v -1 3 -6
v 0 3 -6
v 4 3 -6
v 5 3 -6
v 8 3 -6
v -8 3 -7
v -6 3 -7
v -5 3 -7
v -1 3 -7
v 0 3 -7
v 4 3 -7
v 5 3 -7
v 8 3 -7
v -8 6 7
v -7 6 7
v -6 6 7
v -3 6 7
v -2 6 7
v 1 6 7
v 2 6 7
v 5 6 7
v 6 6 7
v 8 6 7
v -8 6 6
v -7 6 6
v -6 6 6
v -3 6 6
v -2 6 6
v 1 6 6
v 2 6 6
v 5 6 6
v 6 6 6
v 8 6 6
v -8 6 -6
v -4 6 -6
v -3 6 -6
v 1 6 -6
v 2 6 -6
v 6 6 -6
v 7 6 -6
v 8 6 -6
v -8 6 -7
v -4 6 -7
v -3 6 -7
v 1 6 -7
v 2 6 -7
v 6 6 -7
v 7 6 -7
v 8 6 -7
v -8 9 8
v -6 9 8
v -5 9 8
v -1 9 8
v 0 9 8
v 4 9 8
v 5 9 8
v 8 9 8
v -6 9 7
v -5 9 7
v -1 9 7
v 0 9 7
v 4 9 7
v 5 9 7
v -8 9 6
v -6 9 6
v -5 9 6
v -1 9 6
v 0 9 6
v 4 9 6
v 5 9 6
v 8 9 6
v -8 9 -6
v -6 9 -6
v -5 9 -6
v -2 9 -6
v -1 9 -6
v 3 9 -6
v 4 9 -6
v 8 9 -6
v -6 9 -7
v -5 9 -7
v -2 9 -7
v -1 9 -7
v 3 9 -7
v 4 9 -7
v -8 9 -8
v -6 9 -8
v -5 9 -8
v -2 9 -8
v -1 9 -8
v 3 9 -8
v 4 9 -8
v 8 9 -8

# faces
f 3/5/1 2/5/1 1/5/1
f 4/5/1 2/5/1 3/5/1
f 5/5/1 2/5/1 4/5/1
f 6/5/1 2/5/1 5/5/1
f 7/5/1 2/5/1 6/5/1
f 8/5/1 2/5/1 7/5/1
f 9/5/1 2/5/1 8/5/1
f 10/5/1 2/5/1 9/5/1
f 11/3/1 4/3/1 3/3/1
f 11/1/1 5/1/1 4/1/1
f 12/2/1 6/2/1 5/2/1
f 12/1/1 5/1/1 11/1/1
f 13/1/1 7/1/1 6/1/1
f 13/2/1 6/2/1 12/2/1
f 14/2/1 8/2/1 7/2/1
f 14/1/1 7/1/1 13/1/1
f 15/1/1 9/1/1 8/1/1
f 15/2/1 8/2/1 14/2/1
f 16/3/1 10/3/1 9/3/1
f 16/1/1 9/1/1 15/1/1
f 17/3/1 11/3/1 3/3/1
f 18/3/1 11/3/1 17/3/1
f 19/3/1 11/3/1 18/3/1
f 20/3/1 10/3/1 16/3/1
f 21/3/1 10/3/1 20/3/1
f 22/3/1 10/3/1 21/3/1
f 23/4/1 18/4/1 17/4/1
f 24/4/1 18/4/1 23/4/1
f 27/4/1 22/4/1 21/4/1
f 28/4/1 22/4/1 27/4/1
f 29/3/1 25/3/1 24/3/1
f 29/3/1 24/3/1 23/3/1
f 30/3/1 25/3/1 29/3/1
f 31/3/1 25/3/1 30/3/1
f 32/3/1 28/3/1 27/3/1
f 32/3/1 27/3/1 26/3/1
f 33/3/1 28/3/1 32/3/1
f 34/3/1 28/3/1 33/3/1
f 35/4/1 30/4/1 29/4/1
f 36/4/1 30/4/1 35/4/1
f 39/4/1 34/4/1 33/4/1
f 40/4/1 34/4/1 39/4/1
f 41/3/1 37/3/1 36/3/1
f 41/3/1 36/3/1 35/3/1
f 42/3/1 37/3/1 41/3/1
f 43/3/1 40/3/1 39/3/1
f 43/3/1 39/3/1 38/3/1
f 44/3/1 40/3/1 43/3/1
f 47/3/1 46/3/1 45/3/1
f 48/3/1 46/3/1 47/3/1
f 51/3/1 50/3/1 49/3/1
f 52/3/1 50/3/1 51/3/1
f 57/3/1 54/3/1 53/3/1
f 58/3/1 54/3/1 57/3/1
f 59/3/1 56/3/1 55/3/1
f 60/3/1 56/3/1 59/3/1
f 63/3/1 62/3/1 61/3/1
f 64/3/1 62/3/1 63/3/1
f 67/3/1 66/3/1 65/3/1
f 68/3/1 66/3/1 67/3/1
f 71/3/1 70/3/1 69/3/1
f 72/3/1 70/3/1 71/3/1
f 75/3/1 74/3/1 73/3/1
f 76/3/1 74/3/1 75/3/1
f 81/3/1 78/3/1 77/3/1
f 82/3/1 78/3/1 81/3/1
f 83/3/1 80/3/1 79/3/1
f 84/3/1 80/3/1 83/3/1
f 87/3/1 86/3/1 85/3/1
f 88/3/1 86/3/1 87/3/1
f 93/3/1 90/3/1 89/3/1
f 94/3/1 90/3/1 93/3/1
f 95/3/1 92/3/1 91/3/1
f 96/3/1 92/3/1 95/3/1
f 99/3/1 98/3/1 97/3/1
f 100/3/1 98/3/1 99/3/1
f 103/3/1 102/3/1 101/3/1
f 104/3/1 102/3/1 103/3/1
f 107/3/1 106/3/1 105/3/1
f 108/3/1 106/3/1 107/3/1
f 111/3/1 110/3/1 109/3/1
f 112/3/1 110/3/1 111/3/1
f 115/3/1 114/3/1 113/3/1
f 116/3/1 114/3/1 115/3/1
f 119/3/1 118/3/1 117/3/1
f 120/3/1 118/3/1 119/3/1
f 121/3/2 122/3/2 123/3/2
f 123/3/2 122/3/2 124/3/2
f 125/3/2 126/3/2 127/3/2
f 127/3/2 126/3/2 128/3/2
f 129/3/2 130/3/2 133/3/2
f 133/3/2 130/3/2 134/3/2
f 131/3/2 132/3/2 135/3/2
f 135/3/2 132/3/2 136/3/2
f 137/3/2 138/3/2 139/3/2
f 139/3/2 138/3/2 140/3/2
f 141/3/2 142/3/2 143/3/2
f 143/3/2 142/3/2 144/3/2
f 145/3/2 146/3/2 147/3/2
f 147/3/2 146/3/2 148/3/2
f 149/3/2 150/3/2 151/3/2
f 151/3/2 150/3/2 152/3/2
f 153/3/2 154/3/2 157/3/2
f 157/3/2 154/3/2 158/3/2
f 155/3/2 156/3/2 159/3/2
f 159/3/2 156/3/2 160/3/2
f 161/3/2 162/3/2 163/3/2
f 163/3/2 162/3/2 164/3/2
f 165/3/2 166/3/2 169/3/2
f 169/3/2 166/3/2 170/3/2
f 167/3/2 168/3/2 171/3/2
f 171/3/2 168/3/2 172/3/2
f 173/3/2 174/3/2 175/3/2
f 175/3/2 174/3/2 176/3/2
f 177/3/2 178/3/2 179/3/2
f 179/3/2 178/3/2 180/3/2
f 181/3/2 182/3/2 183/3/2
f 183/3/2 182/3/2 184/3/2
f 185/3/2 186/3/2 187/3/2
f 187/3/2 186/3/2 188/3/2
f 189/3/2 190/3/2 191/3/2
f 191/3/2 190/3/2 192/3/2
f 193/3/2 194/3/2 195/3/2
f 195/3/2 194/3/2 196/3/2
f 197/5/2 198/5/2 199/5/2
f 199/5/2 198/5/2 200/5/2
f 200/5/2 198/5/2 201/5/2
f 201/5/2 198/5/2 202/5/2
f 202/5/2 198/5/2 203/5/2
f 203/5/2 198/5/2 204/5/2
f 199/3/2 200/3/2 205/3/2
f 200/1/2 201/1/2 205/1/2
f 201/2/2 202/2/2 206/2/2
f 205/1/2 201/1/2 206/1/2
f 202/1/2 203/1/2 207/1/2
f 206/2/2 202/2/2 207/2/2
f 203/3/2 204/3/2 208/3/2
f 207/1/2 203/1/2 208/1/2
f 199/3/2 205/3/2 209/3/2
f 209/3/2 205/3/2 210/3/2
f 210/3/2 205/3/2 211/3/2
f 208/3/2 204/3/2 212/3/2
f 212/3/2 204/3/2 213/3/2
f 213/3/2 204/3/2 214/3/2
f 209/4/2 210/4/2 215/4/2
f 215/4/2 210/4/2 216/4/2
f 213/4/2 214/4/2 219/4/2
f 219/4/2 214/4/2 220/4/2
f 216/3/2 217/3/2 221/3/2
f 215/3/2 216/3/2 221/3/2
f 221/3/2 217/3/2 222/3/2
f 222/3/2 217/3/2 223/3/2
f 219/3/2 220/3/2 224/3/2
f 218/3/2 219/3/2 224/3/2
f 224/3/2 220/3/2 225/3/2
f 225/3/2 220/3/2 226/3/2
f 221/4/2 222/4/2 227/4/2
f 227/4/2 222/4/2 228/4/2
f 225/4/2 226/4/2 231/4/2
f 231/4/2 226/4/2 232/4/2
f 228/3/2 229/3/2 233/3/2
f 227/3/2 228/3/2 233/3/2
f 233/3/2 229/3/2 234/3/2
f 231/3/2 232/3/2 235/3/2
f 230/3/2 231/3/2 235/3/2
f 235/3/2 232/3/2 236/3/2
f 244/4/3 240/4/3 239/4/3
f 244/3/3 241/3/3 240/3/3
f 245/4/3 242/4/3 241/4/3
f 245/3/3 241/3/3 244/3/3
f 246/3/3 243/3/3 242/3/3
f 246/4/3 242/4/3 245/4/3
f 246/4/3 245/4/3 244/4/3
f 247/3/3 243/3/3 246/3/3
f 248/5/3 238/5/3 237/5/3
f 248/3/3 239/3/3 238/3/3
f 249/4/3 247/4/3 246/4/3
f 249/3/3 239/3/3 248/3/3
f 249/4/3 244/4/3 239/4/3
f 249/4/3 246/4/3 244/4/3
f 250/4/3 247/4/3 249/4/3
f 251/4/3 247/4/3 250/4/3
f 252/4/3 249/4/3 248/4/3
f 252/4/3 250/4/3 249/4/3
f 252/3/3 251/3/3 250/3/3
f 253/3/3 251/3/3 252/3/3
f 254/4/3 252/4/3 248/4/3
f 254/4/3 253/4/3 252/4/3
f 255/4/3 253/4/3 254/4/3
f 256/4/3 254/4/3 248/4/3
f 256/3/3 255/3/3 254/3/3
f 257/3/3 255/3/3 256/3/3
f 258/4/3 256/4/3 248/4/3
f 258/4/3 257/4/3 256/4/3
f 259/4/3 257/4/3 258/4/3
f 260/4/3 258/4/3 248/4/3
f 261/4/3 258/4/3 260/4/3
f 262/5/3 248/5/3 237/5/3
f 262/4/3 260/4/3 248/4/3
f 263/4/3 260/4/3 262/4/3
f 264/5/3 262/5/3 237/5/3
f 265/3/3 263/3/3 262/3/3
f 265/5/3 262/5/3 264/5/3
f 266/4/3 260/4/3 263/4/3
f 266/3/3 263/3/3 265/3/3
f 267/3/3 261/3/3 260/3/3
f 267/4/3 260/4/3 266/4/3
f 268/4/3 258/4/3 261/4/3
f 268/3/3 261/3/3 267/3/3
f 269/3/3 259/3/3 258/3/3
f 269/4/3 258/4/3 268/4/3
f 270/3/3 259/3/3 269/3/3
f 277/3/3 272/3/3 271/3/3
f 278/3/3 272/3/3 277/3/3
f 279/3/3 276/3/3 275/3/3
f 280/3/3 276/3/3 279/3/3
f 285/3/3 274/3/3 273/3/3
f 286/3/3 274/3/3 285/3/3
f 289/3/3 284/3/3 283/3/3
f 290/3/3 284/3/3 289/3/3
f 291/3/3 282/3/3 281/3/3
f 292/3/3 282/3/3 291/3/3
f 297/3/3 288/3/3 287/3/3
f 298/3/3 288/3/3 297/3/3
f 301/3/3 294/3/3 293/3/3
f 302/3/3 294/3/3 301/3/3
f 303/3/3 296/3/3 295/3/3
f 304/3/3 296/3/3 303/3/3
f 309/3/3 308/3/3 307/3/3
f 310/3/3 300/3/3 299/3/3
f 311/3/3 300/3/3 310/3/3
f 314/3/3 308/3/3 309/3/3
f 315/3/3 308/3/3 314/3/3
f 316/3/3 313/3/3 312/3/3
f 317/3/3 313/3/3 316/3/3
f 318/3/3 306/3/3 305/3/3
f 319/3/3 306/3/3 318/3/3
f 325/4/3 321/4/3 320/4/3
f 326/4/3 323/4/3 322/4/3
f 328/4/3 325/4/3 324/4/3
f 329/4/3 321/4/3 325/4/3
f 329/4/3 325/4/3 328/4/3
f 330/4/3 327/4/3 326/4/3
f 330/4/3 326/4/3 322/4/3
f 331/4/3 327/4/3 330/4/3
f 332/4/3 321/4/3 329/4/3
f 333/4/3 330/4/3 322/4/3
f 334/4/3 332/4/3 329/4/3
f 334/4/3 333/4/3 332/4/3
f 335/4/3 330/4/3 333/4/3
f 335/4/3 333/4/3 334/4/3
f 336/4/3 330/4/3 335/4/3
f 339/4/3 334/4/3 329/4/3
f 340/4/3 337/4/3 336/4/3
f 340/4/3 336/4/3 335/4/3
f 341/4/3 337/4/3 340/4/3
f 342/4/3 339/4/3 338/4/3
f 343/4/3 334/4/3 339/4/3
f 343/4/3 339/4/3 342/4/3
f 344/4/3 334/4/3 343/4/3
f 345/4/3 340/4/3 335/4/3
f 346/4/3 344/4/3 343/4/3
f 346/4/3 345/4/3 344/4/3
f 347/4/3 340/4/3 345/4/3
f 347/4/3 345/4/3 346/4/3
f 348/4/3 340/4/3 347/4/3
f 351/4/3 346/4/3 343/4/3
f 352/4/3 349/4/3 348/4/3
f 352/4/3 348/4/3 347/4/3
f 353/4/3 349/4/3 352/4/3
f 354/4/3 351/4/3 350/4/3
f 355/4/3 346/4/3 351/4/3
f 355/4/3 351/4/3 354/4/3
f 356/4/3 346/4/3 355/4/3
f 357/4/3 352/4/3 347/4/3
f 358/4/3 356/4/3 355/4/3
f 358/4/3 357/4/3 356/4/3
f 359/4/3 352/4/3 357/4/3
f 359/4/3 357/4/3 358/4/3
f 360/4/3 358/4/3 355/4/3
f 361/4/3 358/4/3 360/4/3
f 362/4/3 352/4/3 359/4/3
f 363/4/3 352/4/3 362/4/3
f 364/4/4 365/4/4 368/4/4
f 366/4/4 367/4/4 369/4/4
f 364/4/4 368/4/4 370/4/4
f 368/4/4 369/4/4 370/4/4
f 369/4/4 367/4/4 371/4/4
f 370/4/4 369/4/4 371/4/4
f 371/4/4 367/4/4 372/4/4
f 364/4/4 370/4/4 375/4/4
f 371/4/4 372/4/4 376/4/4
f 372/4/4 373/4/4 376/4/4
f 376/4/4 373/4/4 377/4/4
f 374/4/4 375/4/4 378/4/4
f 375/4/4 370/4/4 379/4/4
f 378/4/4 375/4/4 379/4/4
f 379/4/4 370/4/4 380/4/4
f 371/4/4 376/4/4 381/4/4
f 379/4/4 380/4/4 382/4/4
f 380/4/4 381/4/4 382/4/4
f 381/4/4 376/4/4 383/4/4
f 382/4/4 381/4/4 383/4/4
f 379/4/4 382/4/4 385/4/4
f 383/4/4 376/4/4 386/4/4
f 384/4/4 385/4/4 388/4/4
f 385/4/4 382/4/4 389/4/4
f 388/4/4 385/4/4 389/4/4
f 386/4/4 387/4/4 390/4/4
f 383/4/4 386/4/4 390/4/4
f 390/4/4 387/4/4 391/4/4
f 389/4/4 382/4/4 392/4/4
f 383/4/4 390/4/4 393/4/4
f 389/4/4 392/4/4 394/4/4
f 392/4/4 393/4/4 394/4/4
f 393/4/4 390/4/4 395/4/4
f 394/4/4 393/4/4 395/4/4
f 395/4/4 390/4/4 396/4/4
f 389/4/4 394/4/4 398/4/4
f 396/4/4 397/4/4 399/4/4
f 395/4/4 396/4/4 399/4/4
f 399/4/4 397/4/4 400/4/4
f 400/4/4 397/4/4 401/4/4
f 389/4/4 398/4/4 403/4/4
f 398/4/4 399/4/4 403/4/4
f 399/4/4 400/4/4 403/4/4
f 403/4/4 400/4/4 404/4/4
f 404/4/4 400/4/4 405/4/4
f 402/4/4 403/4/4 406/4/4
f 403/4/4 404/4/4 406/4/4
f 406/4/4 404/4/4 407/4/4
f 407/4/4 404/4/4 408/4/4
f 408/4/4 404/4/4 409/4/4
f 405/4/4 400/4/4 410/4/4
f 410/4/4 400/4/4 411/4/4
f 414/3/4 415/3/4 418/3/4
f 418/3/4 415/3/4 419/3/4
f 412/3/4 413/3/4 420/3/4
f 416/3/4 417/3/4 423/3/4
f 423/3/4 417/3/4 424/3/4
f 420/3/4 413/3/4 425/3/4
f 425/3/4 413/3/4 426/3/4
f 421/3/4 422/3/4 431/3/4
f 431/3/4 422/3/4 432/3/4
f 429/3/4 430/3/4 435/3/4
f 435/3/4 430/3/4 436/3/4
f 427/3/4 428/3/4 437/3/4
f 437/3/4 428/3/4 438/3/4
f 433/3/4 434/3/4 443/3/4
f 443/3/4 434/3/4 444/3/4
f 441/3/4 442/3/4 447/3/4
f 447/3/4 442/3/4 448/3/4
f 445/3/4 446/3/4 449/3/4
f 449/3/4 446/3/4 450/3/4
f 439/3/4 440/3/4 453/3/4
f 453/3/4 440/3/4 454/3/4
f 457/3/4 458/3/4 459/3/4
f 459/3/4 458/3/4 460/3/4
f 455/3/4 456/3/4 461/3/4
f 461/3/4 456/3/4 462/3/4
f 451/3/4 452/3/4 463/3/4
f 463/3/4 452/3/4 464/3/4
f 465/5/4 466/5/4 472/5/4
f 466/3/4 467/3/4 472/3/4
f 467/4/4 468/4/4 473/4/4
f 472/3/4 467/3/4 473/3/4
f 470/3/4 471/3/4 474/3/4
f 469/4/4 470/4/4 474/4/4
f 474/3/4 471/3/4 475/3/4
f 474/4/4 475/4/4 476/4/4
f 476/4/4 475/4/4 477/4/4
f 473/4/4 468/4/4 478/4/4
f 472/4/4 473/4/4 478/4/4
f 468/3/4 469/3/4 478/3/4
f 474/4/4 476/4/4 479/4/4
f 478/3/4 469/3/4 479/3/4
f 469/4/4 474/4/4 479/4/4
f 476/3/4 477/3/4 480/3/4
f 479/4/4 476/4/4 480/4/4
f 478/4/4 479/4/4 480/4/4
f 480/3/4 477/3/4 481/3/4
f 478/4/4 480/4/4 482/4/4
f 480/4/4 481/4/4 482/4/4
f 482/4/4 481/4/4 483/4/4
f 478/4/4 482/4/4 484/4/4
f 482/3/4 483/3/4 484/3/4
f 484/3/4 483/3/4 485/3/4
f 478/4/4 484/4/4 486/4/4
f 484/4/4 485/4/4 486/4/4
f 486/4/4 485/4/4 487/4/4
f 465/5/4 472/5/4 488/5/4
f 472/4/4 478/4/4 488/4/4
f 478/4/4 486/4/4 488/4/4
f 488/4/4 486/4/4 489/4/4
f 489/4/4 486/4/4 490/4/4
f 490/4/4 486/4/4 491/4/4
f 465/5/4 488/5/4 492/5/4
f 488/3/4 489/3/4 493/3/4
f 492/5/4 488/5/4 493/5/4
f 489/4/4 490/4/4 494/4/4
f 493/3/4 489/3/4 494/3/4
f 490/3/4 491/3/4 495/3/4
f 494/4/4 490/4/4 495/4/4
f 491/4/4 486/4/4 496/4/4
f 495/3/4 491/3/4 496/3/4
f 486/3/4 487/3/4 497/3/4
f 496/4/4 486/4/4 497/4/4
f 497/3/4 487/3/4 498/3/4
f 501/5/5 500/5/5 499/5/5
f 502/5/5 500/5/5 501/5/5
f 513/3/5 504/3/5 503/3/5
f 514/3/5 504/3/5 513/3/5
f 515/3/5 506/3/5 505/3/5
f 516/3/5 506/3/5 515/3/5
f 517/3/5 508/3/5 507/3/5
f 518/3/5 508/3/5 517/3/5
f 519/3/5 510/3/5 509/3/5
f 520/3/5 510/3/5 519/3/5
f 521/3/5 512/3/5 511/3/5
f 522/3/5 512/3/5 521/3/5
f 531/3/5 524/3/5 523/3/5
f 532/3/5 524/3/5 531/3/5
f 533/3/5 526/3/5 525/3/5
f 534/3/5 526/3/5 533/3/5
f 535/3/5 528/3/5 527/3/5
f 536/3/5 528/3/5 535/3/5
f 537/3/5 530/3/5 529/3/5
f 538/3/5 530/3/5 537/3/5
f 547/3/5 540/3/5 539/3/5
f 548/3/5 540/3/5 547/3/5
f 549/3/5 542/3/5 541/3/5
f 550/3/5 542/3/5 549/3/5
f 551/3/5 544/3/5 543/3/5
f 552/3/5 544/3/5 551/3/5
f 553/3/5 546/3/5 545/3/5
f 554/3/5 546/3/5 553/3/5
f 563/3/5 556/3/5 555/3/5
f 564/3/5 556/3/5 563/3/5
f 565/3/5 558/3/5 557/3/5
f 566/3/5 558/3/5 565/3/5
f 567/3/5 560/3/5 559/3/5
f 568/3/5 560/3/5 567/3/5
f 569/3/5 562/3/5 561/3/5
f 570/3/5 562/3/5 569/3/5
f 571/4/6 572/4/6 579/4/6
f 579/4/6 572/4/6 580/4/6
f 573/4/6 574/4/6 581/4/6
f 581/4/6 574/4/6 582/4/6
f 575/4/6 576/4/6 583/4/6
f 583/4/6 576/4/6 584/4/6
f 577/1/6 578/1/6 586/1/6
f 579/2/6 580/2/6 587/2/6
f 586/1/6 578/1/6 587/1/6
f 581/2/6 582/2/6 587/2/6
f 578/2/6 579/2/6 587/2/6
f 582/2/6 583/2/6 587/2/6
f 580/2/6 581/2/6 587/2/6
f 584/1/6 585/1/6 588/1/6
f 587/2/6 583/2/6 588/2/6
f 583/1/6 584/1/6 588/1/6
f 588/1/6 585/1/6 589/1/6
f 586/2/6 587/2/6 590/2/6
f 587/2/6 588/2/6 590/2/6
f 588/2/6 589/2/6 590/2/6
f 590/2/6 589/2/6 591/2/6
f 586/2/6 590/2/6 592/2/6
f 590/1/6 591/1/6 593/1/6
f 592/2/6 590/2/6 593/2/6
f 591/2/6 589/2/6 594/2/6
f 593/1/6 591/1/6 594/1/6
f 594/2/6 589/2/6 595/2/6
f 586/2/6 592/2/6 596/2/6
f 596/2/6 592/2/6 597/2/6
f 586/2/6 596/2/6 598/2/6
f 596/1/6 597/1/6 599/1/6
f 598/2/6 596/2/6 599/2/6
f 597/2/6 592/2/6 600/2/6
f 599/1/6 597/1/6 600/1/6
f 600/2/6 592/2/6 601/2/6
f 592/1/6 593/1/6 602/1/6
f 601/2/6 592/2/6 602/2/6
f 593/1/6 594/1/6 602/1/6
f 594/1/6 595/1/6 602/1/6
f 602/1/6 595/1/6 603/1/6
f 603/1/6 595/1/6 604/1/6
f 595/2/6 589/2/6 605/2/6
f 604/1/6 595/1/6 605/1/6
f 603/1/6 604/1/6 606/1/6
f 601/2/6 602/2/6 606/2/6
f 602/2/6 603/2/6 606/2/6
f 604/2/6 605/2/6 607/2/6
f 606/1/6 604/1/6 607/1/6
f 606/2/6 607/2/6 608/2/6
f 607/2/6 605/2/6 608/2/6
f 605/2/6 589/2/6 609/2/6
f 608/2/6 605/2/6 609/2/6
f 600/1/6 601/1/6 610/1/6
f 599/1/6 600/1/6 610/1/6
f 598/1/6 599/1/6 610/1/6
f 606/2/6 608/2/6 611/2/6
f 610/1/6 601/1/6 611/1/6
f 601/2/6 606/2/6 611/2/6
f 611/2/6 608/2/6 612/2/6
f 608/1/6 609/1/6 613/1/6
f 612/2/6 608/2/6 613/2/6
f 598/1/6 610/1/6 614/1/6
f 611/2/6 612/2/6 615/2/6
f 614/1/6 610/1/6 615/1/6
f 610/2/6 611/2/6 615/2/6
f 613/1/6 609/1/6 616/1/6
f 612/1/6 613/1/6 616/1/6
f 609/2/6 589/2/6 617/2/6
f 616/1/6 609/1/6 617/1/6
f 612/1/6 616/1/6 618/1/6
f 615/2/6 612/2/6 618/2/6
f 614/2/6 615/2/6 618/2/6
f 618/1/6 616/1/6 619/1/6
f 619/1/6 616/1/6 620/1/6
f 616/2/6 617/2/6 621/2/6
f 620/1/6 616/1/6 621/1/6
f 614/2/6 618/2/6 622/2/6
f 618/2/6 619/2/6 622/2/6
f 622/2/6 619/2/6 623/2/6
f 619/1/6 620/1/6 624/1/6
f 623/2/6 619/2/6 624/2/6
f 620/2/6 621/2/6 625/2/6
f 624/1/6 620/1/6 625/1/6
f 617/2/6 589/2/6 626/2/6
f 625/2/6 621/2/6 626/2/6
f 621/2/6 617/2/6 626/2/6
f 626/2/6 589/2/6 627/2/6
f 622/1/6 623/1/6 628/1/6
f 628/1/6 623/1/6 629/1/6
f 624/2/6 625/2/6 630/2/6
f 629/1/6 623/1/6 630/1/6
f 623/2/6 624/2/6 630/2/6
f 625/2/6 626/2/6 630/2/6
f 630/2/6 626/2/6 631/2/6
f 631/2/6 626/2/6 632/2/6
f 632/2/6 626/2/6 633/2/6
f 633/2/6 626/2/6 634/2/6
f 626/1/6 627/1/6 635/1/6
f 634/2/6 626/2/6 635/2/6
f 635/1/6 627/1/6 636/1/6
f 629/4/6 630/4/6 637/4/6
f 637/4/6 630/4/6 638/4/6
f 631/4/6 632/4/6 639/4/6
f 639/4/6 632/4/6 640/4/6
f 633/4/6 634/4/6 641/4/6
f 641/4/6 634/4/6 642/4/6
f 643/3/6 644/3/6 651/3/6
f 651/3/6 644/3/6 652/3/6
f 645/3/6 646/3/6 653/3/6
f 653/3/6 646/3/6 654/3/6
f 647/3/6 648/3/6 655/3/6
f 655/3/6 648/3/6 656/3/6
f 649/3/6 650/3/6 657/3/6
f 657/3/6 650/3/6 658/3/6
f 659/3/6 660/3/6 667/3/6
f 667/3/6 660/3/6 668/3/6
f 661/3/6 662/3/6 669/3/6
f 669/3/6 662/3/6 670/3/6
f 663/3/6 664/3/6 671/3/6
f 671/3/6 664/3/6 672/3/6
f 665/3/6 666/3/6 673/3/6
f 673/3/6 666/3/6 674/3/6
f 675/3/6 676/3/6 685/3/6
f 685/3/6 676/3/6 686/3/6
f 677/3/6 678/3/6 687/3/6
f 687/3/6 678/3/6 688/3/6
f 679/3/6 680/3/6 689/3/6
f 689/3/6 680/3/6 690/3/6
f 681/3/6 682/3/6 691/3/6
f 691/3/6 682/3/6 692/3/6
f 683/3/6 684/3/6 693/3/6
f 693/3/6 684/3/6 694/3/6
f 695/3/6 696/3/6 703/3/6
f 703/3/6 696/3/6 704/3/6
f 697/3/6 698/3/6 705/3/6
f 705/3/6 698/3/6 706/3/6
f 699/3/6 700/3/6 707/3/6
f 707/3/6 700/3/6 708/3/6
f 701/3/6 702/3/6 709/3/6
f 709/3/6 702/3/6 710/3/6
f 711/3/6 712/3/6 719/3/6
f 712/4/6 713/4/6 719/4/6
f 713/3/6 714/3/6 720/3/6
f 719/4/6 713/4/6 720/4/6
f 714/4/6 715/4/6 721/4/6
f 720/3/6 714/3/6 721/3/6
f 715/3/6 716/3/6 722/3/6
f 721/4/6 715/4/6 722/4/6
f 716/4/6 717/4/6 723/4/6
f 722/3/6 716/3/6 723/3/6
f 717/3/6 718/3/6 724/3/6
f 723/4/6 717/4/6 724/4/6
f 711/3/6 719/3/6 725/3/6
f 725/3/6 719/3/6 726/3/6
f 720/3/6 721/3/6 727/3/6
f 727/3/6 721/3/6 728/3/6
f 722/3/6 723/3/6 729/3/6
f 729/3/6 723/3/6 730/3/6
f 724/3/6 718/3/6 731/3/6
f 731/3/6 718/3/6 732/3/6
f 733/3/6 734/3/6 741/3/6
f 735/3/6 736/3/6 742/3/6
f 742/3/6 736/3/6 743/3/6
f 737/3/6 738/3/6 744/3/6
f 744/3/6 738/3/6 745/3/6
f 739/3/6 740/3/6 746/3/6
f 733/3/6 741/3/6 747/3/6
f 741/4/6 742/4/6 748/4/6
f 747/3/6 741/3/6 748/3/6
f 742/3/6 743/3/6 749/3/6
f 748/4/6 742/4/6 749/4/6
f 743/4/6 744/4/6 750/4/6
f 749/3/6 743/3/6 750/3/6
f 744/3/6 745/3/6 751/3/6
f 750/4/6 744/4/6 751/4/6
f 745/4/6 746/4/6 752/4/6
f 751/3/6 745/3/6 752/3/6
f 746/3/6 740/3/6 753/3/6
f 752/4/6 746/4/6 753/4/6
f 753/3/6 740/3/6 754/3/6
