# MagicaVoxel @ Ephtracy

# group
g YAVD_Tiles-14

# material
mtllib YAVD_Tiles-14.mtl
usemtl palette

# normals
vn -1 0 0
vn 1 0 0
vn 0 0 1
vn 0 0 -1
vn 0 -1 0
vn 0 1 0

# texcoords
vt 0.00195313 0.5
vt 0.00585938 0.5
vt 0.00976563 0.5

# verts
v -1 0 1
v -1 0 -1
v -1 1 1
v -1 1 -0
v -1 1 -1
v -1 2 1
v -1 2 -0
v -1 2 -1
v -1 3 1
v -1 3 -0
v 0 1 1
v 0 1 -0
v 0 2 1
v 0 2 -0
v 0 2 -1
v 0 3 -0
v 0 3 -1
v 0 1 -0
v 0 1 -1
v 0 2 1
v 0 2 -0
v 0 2 -1
v 0 3 1
v 0 3 -0
v 1 0 1
v 1 0 -1
v 1 1 1
v 1 1 -0
v 1 1 -1
v 1 2 1
v 1 2 -0
v 1 2 -1
v 1 3 -0
v 1 3 -1
v -1 0 1
v -1 1 1
v -1 2 1
v -1 3 1
v 0 1 1
v 0 2 1
v 0 3 1
v 1 0 1
v 1 1 1
v 1 2 1
v -1 1 -0
v -1 2 -0
v 0 1 -0
v 0 2 -0
v 0 3 -0
v 1 2 -0
v 1 3 -0
v -1 2 -0
v -1 3 -0
v 0 1 -0
v 0 2 -0
v 0 3 -0
v 1 1 -0
v 1 2 -0
v -1 0 -1
v -1 1 -1
v -1 2 -1
v 0 1 -1
v 0 2 -1
v 0 3 -1
v 1 0 -1
v 1 1 -1
v 1 2 -1
v 1 3 -1
v -1 0 1
v 1 0 1
v -1 0 -1
v 1 0 -1
v -1 2 1
v 0 2 1
v -1 2 -0
v 0 2 -0
v 1 2 -0
v 0 2 -1
v 1 2 -1
v -1 1 1
v 0 1 1
v -1 1 -0
v 0 1 -0
v 1 1 -0
v 0 1 -1
v 1 1 -1
v 0 2 1
v 1 2 1
v -1 2 -0
v 0 2 -0
v 1 2 -0
v -1 2 -1
v 0 2 -1
v -1 3 1
v 0 3 1
v -1 3 -0
v 0 3 -0
v 1 3 -0
v 0 3 -1
v 1 3 -1

# faces
f 3/1/1 2/1/1 1/1/1
f 4/1/1 2/1/1 3/1/1
f 5/1/1 2/1/1 4/1/1
f 7/2/1 5/2/1 4/2/1
f 8/2/1 5/2/1 7/2/1
f 9/3/1 7/3/1 6/3/1
f 10/3/1 7/3/1 9/3/1
f 13/2/1 12/2/1 11/2/1
f 14/2/1 12/2/1 13/2/1
f 16/3/1 15/3/1 14/3/1
f 17/3/1 15/3/1 16/3/1
f 18/2/2 19/2/2 21/2/2
f 21/2/2 19/2/2 22/2/2
f 20/3/2 21/3/2 23/3/2
f 23/3/2 21/3/2 24/3/2
f 25/1/2 26/1/2 27/1/2
f 27/1/2 26/1/2 28/1/2
f 28/1/2 26/1/2 29/1/2
f 27/2/2 28/2/2 30/2/2
f 30/2/2 28/2/2 31/2/2
f 31/3/2 32/3/2 33/3/2
f 33/3/2 32/3/2 34/3/2
f 39/1/3 36/1/3 35/1/3
f 40/3/3 38/3/3 37/3/3
f 41/3/3 38/3/3 40/3/3
f 42/1/3 39/1/3 35/1/3
f 43/2/3 40/2/3 39/2/3
f 43/1/3 39/1/3 42/1/3
f 44/2/3 40/2/3 43/2/3
f 47/2/3 46/2/3 45/2/3
f 48/2/3 46/2/3 47/2/3
f 50/3/3 49/3/3 48/3/3
f 51/3/3 49/3/3 50/3/3
f 52/3/4 53/3/4 55/3/4
f 55/3/4 53/3/4 56/3/4
f 54/2/4 55/2/4 57/2/4
f 57/2/4 55/2/4 58/2/4
f 59/1/4 60/1/4 62/1/4
f 60/2/4 61/2/4 62/2/4
f 62/2/4 61/2/4 63/2/4
f 59/1/4 62/1/4 65/1/4
f 65/1/4 62/1/4 66/1/4
f 63/3/4 64/3/4 67/3/4
f 67/3/4 64/3/4 68/3/4
f 71/1/5 70/1/5 69/1/5
f 72/1/5 70/1/5 71/1/5
f 75/3/5 74/3/5 73/3/5
f 76/3/5 74/3/5 75/3/5
f 78/3/5 77/3/5 76/3/5
f 79/3/5 77/3/5 78/3/5
f 80/1/6 81/1/6 82/1/6
f 82/1/6 81/1/6 83/1/6
f 83/1/6 84/1/6 85/1/6
f 85/1/6 84/1/6 86/1/6
f 87/2/6 88/2/6 90/2/6
f 90/2/6 88/2/6 91/2/6
f 89/2/6 90/2/6 92/2/6
f 92/2/6 90/2/6 93/2/6
f 94/3/6 95/3/6 96/3/6
f 96/3/6 95/3/6 97/3/6
f 97/3/6 98/3/6 99/3/6
f 99/3/6 98/3/6 100/3/6
