# MagicaVoxel @ Ephtracy

# group
g YAVD_Tiles-71

# material
mtllib YAVD_Tiles-71.mtl
usemtl palette

# normals
vn -1 0 0
vn 1 0 0
vn 0 0 1
vn 0 0 -1
vn 0 -1 0
vn 0 1 0

# texcoords
vt 0.173828 0.5
vt 0.220703 0.5
vt 0.224609 0.5
vt 0.228516 0.5
vt 0.244141 0.5
vt 0.248047 0.5
vt 0.994141 0.5

# verts
v -3.5 3 1
v -3.5 3 -1
v -3.5 5 1
v -3.5 5 -1
v -3.5 8 1
v -3.5 8 -1
v -3.5 10 1
v -3.5 10 -1
v -2.5 5 1
v -2.5 5 -1
v -2.5 6 1
v -2.5 6 -1
v -2.5 7 2
v -2.5 7 -2
v -2.5 8 1
v -2.5 8 -1
v -2.5 10 1
v -2.5 10 -1
v -2.5 11 2
v -2.5 11 -2
v -1.5 0 2
v -1.5 0 -2
v -1.5 2 2
v -1.5 2 -2
v -1.5 2 -3
v -1.5 3 2
v -1.5 3 1
v -1.5 3 -1
v -1.5 3 -2
v -1.5 5 -2
v -1.5 5 -3
v -1.5 6 2
v -1.5 6 1
v -1.5 6 -1
v -1.5 6 -2
v -1.5 7 1
v -1.5 7 -1
v -1.5 8 3
v -1.5 8 2
v -1.5 8 -2
v -1.5 8 -3
v -1.5 10 3
v -1.5 10 2
v -1.5 10 -2
v -1.5 10 -3
v -1.5 11 1
v -1.5 11 -1
v -1.5 12 1
v -1.5 12 -1
v -0.5 4 3
v -0.5 4 2
v -0.5 5 3
v -0.5 5 2
v 1.5 5 3
v 1.5 5 2
v 1.5 6 3
v 1.5 6 2
v 2.5 6 3
v 2.5 6 2
v 2.5 7 3
v 2.5 7 2
v -0.5 3 -2
v -0.5 3 -3
v -0.5 5 -2
v -0.5 5 -3
v -0.5 8 3
v -0.5 8 2
v -0.5 8 -2
v -0.5 8 -3
v -0.5 9 2
v -0.5 9 -2
v -0.5 10 3
v -0.5 10 2
v -0.5 10 -2
v -0.5 10 -3
v 0.5 0 2
v 0.5 0 1
v 0.5 0 -1
v 0.5 0 -2
v 0.5 1 1
v 0.5 1 -1
v 0.5 2 2
v 0.5 2 -2
v 0.5 2 -3
v 0.5 3 2
v 0.5 3 -2
v 0.5 3 -3
v 0.5 4 2
v 0.5 5 2
v 0.5 6 2
v 0.5 6 1
v 0.5 6 -1
v 0.5 6 -2
v 0.5 7 1
v 0.5 7 -1
v 1.5 0 1
v 1.5 0 -1
v 1.5 1 1
v 1.5 1 -1
v 1.5 4 3
v 1.5 4 2
v 1.5 5 3
v 1.5 5 2
v 1.5 7 2
v 1.5 7 1
v 1.5 7 -1
v 1.5 7 -2
v 1.5 8 2
v 1.5 8 1
v 1.5 8 -1
v 1.5 8 -2
v 1.5 10 2
v 1.5 10 1
v 1.5 10 -1
v 1.5 10 -2
v 1.5 11 2
v 1.5 11 1
v 1.5 11 -1
v 1.5 11 -2
v 1.5 12 1
v 1.5 12 -1
v 2.5 5 3
v 2.5 5 2
v 2.5 6 3
v 2.5 6 2
v 2.5 10 1
v 2.5 10 -1
v 2.5 11 1
v 2.5 11 -1
v 3.5 6 3
v 3.5 6 2
v 3.5 7 3
v 3.5 7 2
v -1.5 8 3
v -1.5 10 3
v -0.5 4 3
v -0.5 5 3
v -0.5 8 3
v -0.5 10 3
v 1.5 4 3
v 1.5 5 3
v 1.5 6 3
v 2.5 5 3
v 2.5 6 3
v 2.5 7 3
v 3.5 6 3
v 3.5 7 3
v -2.5 7 2
v -2.5 11 2
v -1.5 0 2
v -1.5 2 2
v -1.5 3 2
v -1.5 6 2
v -1.5 7 2
v -1.5 8 2
v -1.5 10 2
v -0.5 4 2
v -0.5 5 2
v -0.5 8 2
v -0.5 9 2
v -0.5 10 2
v 0.5 0 2
v 0.5 2 2
v 0.5 3 2
v 0.5 4 2
v 0.5 5 2
v 0.5 6 2
v 0.5 8 2
v 0.5 9 2
v 0.5 10 2
v 1.5 7 2
v 1.5 8 2
v 1.5 10 2
v 1.5 11 2
v -3.5 3 1
v -3.5 5 1
v -3.5 8 1
v -3.5 10 1
v -2.5 5 1
v -2.5 6 1
v -2.5 8 1
v -2.5 10 1
v -1.5 3 1
v -1.5 6 1
v -1.5 7 1
v -1.5 11 1
v -1.5 12 1
v 0.5 0 1
v 0.5 1 1
v 0.5 6 1
v 0.5 7 1
v 1.5 0 1
v 1.5 1 1
v 1.5 10 1
v 1.5 11 1
v 1.5 12 1
v 2.5 10 1
v 2.5 11 1
v 0.5 4 2
v 0.5 5 2
v 1.5 4 2
v 1.5 5 2
v 1.5 6 2
v 2.5 5 2
v 2.5 6 2
v 2.5 7 2
v 3.5 6 2
v 3.5 7 2
v -3.5 3 -1
v -3.5 5 -1
v -3.5 8 -1
v -3.5 10 -1
v -2.5 5 -1
v -2.5 6 -1
v -2.5 8 -1
v -2.5 10 -1
v -1.5 3 -1
v -1.5 6 -1
v -1.5 7 -1
v -1.5 11 -1
v -1.5 12 -1
v 0.5 0 -1
v 0.5 1 -1
v 0.5 6 -1
v 0.5 7 -1
v 1.5 0 -1
v 1.5 1 -1
v 1.5 10 -1
v 1.5 11 -1
v 1.5 12 -1
v 2.5 10 -1
v 2.5 11 -1
v -2.5 7 -2
v -2.5 11 -2
v -1.5 0 -2
v -1.5 2 -2
v -1.5 5 -2
v -1.5 6 -2
v -1.5 7 -2
v -1.5 8 -2
v -1.5 10 -2
v -0.5 2 -2
v -0.5 3 -2
v -0.5 5 -2
v -0.5 8 -2
v -0.5 9 -2
v -0.5 10 -2
v 0.5 0 -2
v 0.5 2 -2
v 0.5 3 -2
v 0.5 6 -2
v 0.5 8 -2
v 0.5 9 -2
v 0.5 10 -2
v 1.5 7 -2
v 1.5 8 -2
v 1.5 10 -2
v 1.5 11 -2
v -1.5 2 -3
v -1.5 5 -3
v -1.5 8 -3
v -1.5 10 -3
v -0.5 2 -3
v -0.5 3 -3
v -0.5 5 -3
v -0.5 8 -3
v -0.5 10 -3
v 0.5 2 -3
v 0.5 3 -3
v -1.5 0 2
v 0.5 0 2
v 0.5 0 1
v 1.5 0 1
v 0.5 0 -1
v 1.5 0 -1
v -1.5 0 -2
v 0.5 0 -2
v -1.5 2 -2
v -0.5 2 -2
v 0.5 2 -2
v -1.5 2 -3
v -0.5 2 -3
v 0.5 2 -3
v -3.5 3 1
v -1.5 3 1
v -3.5 3 -1
v -1.5 3 -1
v -0.5 4 3
v 1.5 4 3
v -0.5 4 2
v 0.5 4 2
v 1.5 4 2
v 1.5 5 3
v 2.5 5 3
v 1.5 5 2
v 2.5 5 2
v 2.5 6 3
v 3.5 6 3
v 2.5 6 2
v 3.5 6 2
v -2.5 7 2
v -1.5 7 2
v 1.5 7 2
v -1.5 7 1
v 0.5 7 1
v 1.5 7 1
v -1.5 7 -1
v 0.5 7 -1
v 1.5 7 -1
v -2.5 7 -2
v -1.5 7 -2
v 1.5 7 -2
v -1.5 8 3
v -0.5 8 3
v -1.5 8 2
v -0.5 8 2
v -3.5 8 1
v -2.5 8 1
v -3.5 8 -1
v -2.5 8 -1
v -1.5 8 -2
v -0.5 8 -2
v -1.5 8 -3
v -0.5 8 -3
v 1.5 10 1
v 2.5 10 1
v 1.5 10 -1
v 2.5 10 -1
v 0.5 1 1
v 1.5 1 1
v 0.5 1 -1
v 1.5 1 -1
v -0.5 3 -2
v 0.5 3 -2
v -0.5 3 -3
v 0.5 3 -3
v -0.5 5 3
v 1.5 5 3
v -0.5 5 2
v 0.5 5 2
v 1.5 5 2
v -3.5 5 1
v -2.5 5 1
v -3.5 5 -1
v -2.5 5 -1
v -1.5 5 -2
v -0.5 5 -2
v -1.5 5 -3
v -0.5 5 -3
v 1.5 6 3
v 2.5 6 3
v -1.5 6 2
v 0.5 6 2
v 1.5 6 2
v 2.5 6 2
v -2.5 6 1
v -1.5 6 1
v 0.5 6 1
v -2.5 6 -1
v -1.5 6 -1
v 0.5 6 -1
v -1.5 6 -2
v 0.5 6 -2
v 2.5 7 3
v 3.5 7 3
v 2.5 7 2
v 3.5 7 2
v -1.5 10 3
v -0.5 10 3
v -1.5 10 2
v -0.5 10 2
v -3.5 10 1
v -2.5 10 1
v -3.5 10 -1
v -2.5 10 -1
v -1.5 10 -2
v -0.5 10 -2
v -1.5 10 -3
v -0.5 10 -3
v -2.5 11 2
v 1.5 11 2
v -1.5 11 1
v 1.5 11 1
v 2.5 11 1
v -1.5 11 -1
v 1.5 11 -1
v 2.5 11 -1
v -2.5 11 -2
v 1.5 11 -2
v -1.5 12 1
v 1.5 12 1
v -1.5 12 -1
v 1.5 12 -1

# faces
f 3/3/1 2/3/1 1/3/1
f 4/3/1 2/3/1 3/3/1
f 7/4/1 6/4/1 5/4/1
f 8/4/1 6/4/1 7/4/1
f 11/3/1 10/3/1 9/3/1
f 12/3/1 10/3/1 11/3/1
f 15/4/1 14/4/1 13/4/1
f 16/4/1 14/4/1 15/4/1
f 17/4/1 15/4/1 13/4/1
f 18/4/1 14/4/1 16/4/1
f 19/4/1 17/4/1 13/4/1
f 19/4/1 18/4/1 17/4/1
f 20/4/1 14/4/1 18/4/1
f 20/4/1 18/4/1 19/4/1
f 23/3/1 22/3/1 21/3/1
f 24/3/1 22/3/1 23/3/1
f 26/2/1 24/2/1 23/2/1
f 27/2/1 24/2/1 26/2/1
f 28/2/1 24/2/1 27/2/1
f 29/1/1 25/1/1 24/1/1
f 29/2/1 24/2/1 28/2/1
f 30/1/1 25/1/1 29/1/1
f 30/1/1 29/1/1 28/1/1
f 31/1/1 25/1/1 30/1/1
f 32/1/1 27/1/1 26/1/1
f 33/1/1 27/1/1 32/1/1
f 34/1/1 30/1/1 28/1/1
f 35/1/1 30/1/1 34/1/1
f 36/6/1 34/6/1 33/6/1
f 37/6/1 34/6/1 36/6/1
f 42/5/1 39/5/1 38/5/1
f 43/5/1 39/5/1 42/5/1
f 44/5/1 41/5/1 40/5/1
f 45/5/1 41/5/1 44/5/1
f 48/4/1 47/4/1 46/4/1
f 49/4/1 47/4/1 48/4/1
f 52/1/1 51/1/1 50/1/1
f 53/1/1 51/1/1 52/1/1
f 56/1/1 55/1/1 54/1/1
f 57/1/1 55/1/1 56/1/1
f 60/6/1 59/6/1 58/6/1
f 61/6/1 59/6/1 60/6/1
f 62/1/2 63/1/2 64/1/2
f 64/1/2 63/1/2 65/1/2
f 66/5/2 67/5/2 70/5/2
f 68/5/2 69/5/2 71/5/2
f 66/5/2 70/5/2 72/5/2
f 72/5/2 70/5/2 73/5/2
f 71/5/2 69/5/2 74/5/2
f 74/5/2 69/5/2 75/5/2
f 76/3/2 77/3/2 80/3/2
f 78/3/2 79/3/2 81/3/2
f 76/3/2 80/3/2 82/3/2
f 80/3/2 81/3/2 82/3/2
f 81/3/2 79/3/2 83/3/2
f 82/3/2 81/3/2 83/3/2
f 82/2/2 83/2/2 85/2/2
f 83/6/2 84/6/2 86/6/2
f 85/2/2 83/2/2 86/2/2
f 86/6/2 84/6/2 87/6/2
f 85/1/2 86/1/2 88/1/2
f 88/1/2 86/1/2 89/1/2
f 89/1/2 86/1/2 90/1/2
f 90/1/2 86/1/2 91/1/2
f 91/1/2 86/1/2 92/1/2
f 92/1/2 86/1/2 93/1/2
f 91/6/2 92/6/2 94/6/2
f 94/6/2 92/6/2 95/6/2
f 96/3/2 97/3/2 98/3/2
f 98/3/2 97/3/2 99/3/2
f 100/1/2 101/1/2 102/1/2
f 102/1/2 101/1/2 103/1/2
f 104/6/2 105/6/2 108/6/2
f 105/5/2 106/5/2 109/5/2
f 108/6/2 105/6/2 109/6/2
f 106/6/2 107/6/2 110/6/2
f 109/5/2 106/5/2 110/5/2
f 110/6/2 107/6/2 111/6/2
f 108/7/2 109/7/2 112/7/2
f 109/6/2 110/6/2 113/6/2
f 112/7/2 109/7/2 113/7/2
f 110/7/2 111/7/2 114/7/2
f 113/6/2 110/6/2 114/6/2
f 114/7/2 111/7/2 115/7/2
f 112/4/2 113/4/2 116/4/2
f 116/4/2 113/4/2 117/4/2
f 114/4/2 115/4/2 118/4/2
f 118/4/2 115/4/2 119/4/2
f 117/4/2 118/4/2 120/4/2
f 120/4/2 118/4/2 121/4/2
f 122/1/2 123/1/2 124/1/2
f 124/1/2 123/1/2 125/1/2
f 126/4/2 127/4/2 128/4/2
f 128/4/2 127/4/2 129/4/2
f 130/6/2 131/6/2 132/6/2
f 132/6/2 131/6/2 133/6/2
f 138/5/3 135/5/3 134/5/3
f 139/5/3 135/5/3 138/5/3
f 140/1/3 137/1/3 136/1/3
f 141/1/3 137/1/3 140/1/3
f 143/1/3 142/1/3 141/1/3
f 144/1/3 142/1/3 143/1/3
f 146/6/3 145/6/3 144/6/3
f 147/6/3 145/6/3 146/6/3
f 154/4/3 149/4/3 148/4/3
f 155/4/3 149/4/3 154/4/3
f 156/4/3 149/4/3 155/4/3
f 157/1/3 153/1/3 152/1/3
f 158/1/3 153/1/3 157/1/3
f 159/6/3 155/6/3 154/6/3
f 161/4/3 149/4/3 156/4/3
f 162/3/3 151/3/3 150/3/3
f 163/2/3 152/2/3 151/2/3
f 163/3/3 151/3/3 162/3/3
f 164/1/3 157/1/3 152/1/3
f 164/2/3 152/2/3 163/2/3
f 165/1/3 157/1/3 164/1/3
f 166/1/3 153/1/3 158/1/3
f 167/1/3 153/1/3 166/1/3
f 168/6/3 160/6/3 159/6/3
f 168/6/3 159/6/3 154/6/3
f 169/4/3 161/4/3 160/4/3
f 169/6/3 160/6/3 168/6/3
f 170/4/3 149/4/3 161/4/3
f 170/4/3 161/4/3 169/4/3
f 171/6/3 168/6/3 154/6/3
f 172/7/3 170/7/3 169/7/3
f 172/6/3 168/6/3 171/6/3
f 172/7/3 169/7/3 168/7/3
f 173/4/3 149/4/3 170/4/3
f 173/7/3 170/7/3 172/7/3
f 174/4/3 149/4/3 173/4/3
f 179/3/3 176/3/3 175/3/3
f 181/4/3 178/4/3 177/4/3
f 182/4/3 178/4/3 181/4/3
f 183/3/3 180/3/3 179/3/3
f 183/3/3 179/3/3 175/3/3
f 184/3/3 180/3/3 183/3/3
f 190/6/3 185/6/3 184/6/3
f 191/6/3 185/6/3 190/6/3
f 192/3/3 189/3/3 188/3/3
f 193/3/3 189/3/3 192/3/3
f 195/4/3 187/4/3 186/4/3
f 196/4/3 187/4/3 195/4/3
f 197/4/3 195/4/3 194/4/3
f 198/4/3 195/4/3 197/4/3
f 199/1/4 200/1/4 201/1/4
f 201/1/4 200/1/4 202/1/4
f 202/1/4 203/1/4 204/1/4
f 204/1/4 203/1/4 205/1/4
f 205/6/4 206/6/4 207/6/4
f 207/6/4 206/6/4 208/6/4
f 209/3/4 210/3/4 213/3/4
f 211/4/4 212/4/4 215/4/4
f 215/4/4 212/4/4 216/4/4
f 213/3/4 214/3/4 217/3/4
f 209/3/4 213/3/4 217/3/4
f 217/3/4 214/3/4 218/3/4
f 218/6/4 219/6/4 224/6/4
f 224/6/4 219/6/4 225/6/4
f 222/3/4 223/3/4 226/3/4
f 226/3/4 223/3/4 227/3/4
f 220/4/4 221/4/4 229/4/4
f 229/4/4 221/4/4 230/4/4
f 228/4/4 229/4/4 231/4/4
f 231/4/4 229/4/4 232/4/4
f 233/4/4 234/4/4 239/4/4
f 239/4/4 234/4/4 240/4/4
f 240/4/4 234/4/4 241/4/4
f 235/3/4 236/3/4 242/3/4
f 237/1/4 238/1/4 244/1/4
f 239/6/4 240/6/4 245/6/4
f 241/4/4 234/4/4 247/4/4
f 235/3/4 242/3/4 248/3/4
f 248/3/4 242/3/4 249/3/4
f 243/1/4 244/1/4 250/1/4
f 244/1/4 238/1/4 251/1/4
f 250/1/4 244/1/4 251/1/4
f 245/6/4 246/6/4 252/6/4
f 239/6/4 245/6/4 252/6/4
f 246/4/4 247/4/4 253/4/4
f 252/6/4 246/6/4 253/6/4
f 247/4/4 234/4/4 254/4/4
f 253/4/4 247/4/4 254/4/4
f 239/6/4 252/6/4 255/6/4
f 253/7/4 254/7/4 256/7/4
f 255/6/4 252/6/4 256/6/4
f 252/7/4 253/7/4 256/7/4
f 254/4/4 234/4/4 257/4/4
f 256/7/4 254/7/4 257/7/4
f 257/4/4 234/4/4 258/4/4
f 259/1/4 260/1/4 263/1/4
f 263/1/4 260/1/4 264/1/4
f 264/1/4 260/1/4 265/1/4
f 261/5/4 262/5/4 266/5/4
f 266/5/4 262/5/4 267/5/4
f 263/6/4 264/6/4 268/6/4
f 268/6/4 264/6/4 269/6/4
f 272/3/5 271/3/5 270/3/5
f 274/3/5 272/3/5 270/3/5
f 274/3/5 273/3/5 272/3/5
f 275/3/5 273/3/5 274/3/5
f 276/3/5 274/3/5 270/3/5
f 277/3/5 274/3/5 276/3/5
f 281/1/5 279/1/5 278/1/5
f 282/6/5 280/6/5 279/6/5
f 282/1/5 279/1/5 281/1/5
f 283/6/5 280/6/5 282/6/5
f 286/3/5 285/3/5 284/3/5
f 287/3/5 285/3/5 286/3/5
f 290/1/5 289/1/5 288/1/5
f 291/1/5 289/1/5 290/1/5
f 292/1/5 289/1/5 291/1/5
f 295/1/5 294/1/5 293/1/5
f 296/1/5 294/1/5 295/1/5
f 299/6/5 298/6/5 297/6/5
f 300/6/5 298/6/5 299/6/5
f 304/4/5 302/4/5 301/4/5
f 304/6/5 303/6/5 302/6/5
f 305/6/5 303/6/5 304/6/5
f 306/6/5 303/6/5 305/6/5
f 307/4/5 304/4/5 301/4/5
f 308/5/5 306/5/5 305/5/5
f 309/5/5 306/5/5 308/5/5
f 310/4/5 307/4/5 301/4/5
f 311/6/5 308/6/5 307/6/5
f 311/4/5 307/4/5 310/4/5
f 311/6/5 309/6/5 308/6/5
f 312/6/5 309/6/5 311/6/5
f 315/5/5 314/5/5 313/5/5
f 316/5/5 314/5/5 315/5/5
f 319/4/5 318/4/5 317/4/5
f 320/4/5 318/4/5 319/4/5
f 323/5/5 322/5/5 321/5/5
f 324/5/5 322/5/5 323/5/5
f 327/4/5 326/4/5 325/4/5
f 328/4/5 326/4/5 327/4/5
f 329/3/6 330/3/6 331/3/6
f 331/3/6 330/3/6 332/3/6
f 333/6/6 334/6/6 335/6/6
f 335/6/6 334/6/6 336/6/6
f 337/1/6 338/1/6 339/1/6
f 339/1/6 338/1/6 340/1/6
f 340/1/6 338/1/6 341/1/6
f 342/3/6 343/3/6 344/3/6
f 344/3/6 343/3/6 345/3/6
f 346/1/6 347/1/6 348/1/6
f 348/1/6 347/1/6 349/1/6
f 350/1/6 351/1/6 354/1/6
f 354/1/6 351/1/6 355/1/6
f 352/1/6 353/1/6 357/1/6
f 357/1/6 353/1/6 358/1/6
f 356/3/6 357/3/6 359/3/6
f 359/3/6 357/3/6 360/3/6
f 360/1/6 361/1/6 362/1/6
f 362/1/6 361/1/6 363/1/6
f 364/6/6 365/6/6 366/6/6
f 366/6/6 365/6/6 367/6/6
f 368/5/6 369/5/6 370/5/6
f 370/5/6 369/5/6 371/5/6
f 372/4/6 373/4/6 374/4/6
f 374/4/6 373/4/6 375/4/6
f 376/5/6 377/5/6 378/5/6
f 378/5/6 377/5/6 379/5/6
f 380/4/6 381/4/6 382/4/6
f 382/4/6 381/4/6 383/4/6
f 380/4/6 382/4/6 385/4/6
f 383/4/6 384/4/6 386/4/6
f 386/4/6 384/4/6 387/4/6
f 380/4/6 385/4/6 388/4/6
f 385/4/6 386/4/6 388/4/6
f 388/4/6 386/4/6 389/4/6
f 390/4/6 391/4/6 392/4/6
f 392/4/6 391/4/6 393/4/6
